<?xml version="1.0" encoding="UTF-8"?>
<svg width="860px" height="842px" viewBox="0 0 860 842" version="1.1" xmlns="http://www.w3.org/2000/svg" xmlns:xlink="http://www.w3.org/1999/xlink">
    <!-- Generator: Sketch 49.3 (51167) - http://www.bohemiancoding.com/sketch -->
    <title>architecture_cards_layouts</title>
    <desc>Created with Sketch.</desc>
    <defs>
        <rect id="path-1" x="0" y="0" width="206" height="292" rx="1"></rect>
        <filter x="-7.3%" y="-3.1%" width="114.6%" height="111.6%" filterUnits="objectBoundingBox" id="filter-2">
            <feMorphology radius="11" operator="erode" in="SourceAlpha" result="shadowSpreadOuter1"></feMorphology>
            <feOffset dx="0" dy="10" in="shadowSpreadOuter1" result="shadowOffsetOuter1"></feOffset>
            <feGaussianBlur stdDeviation="15" in="shadowOffsetOuter1" result="shadowBlurOuter1"></feGaussianBlur>
            <feComposite in="shadowBlurOuter1" in2="SourceAlpha" operator="out" result="shadowBlurOuter1"></feComposite>
            <feColorMatrix values="0 0 0 0 0.294117647   0 0 0 0 0.305882353   0 0 0 0 0.325490196  0 0 0 0.4 0" type="matrix" in="shadowBlurOuter1"></feColorMatrix>
        </filter>
        <rect id="path-3" x="0" y="0" width="206" height="292" rx="1"></rect>
        <filter x="-7.3%" y="-3.1%" width="114.6%" height="111.6%" filterUnits="objectBoundingBox" id="filter-4">
            <feMorphology radius="11" operator="erode" in="SourceAlpha" result="shadowSpreadOuter1"></feMorphology>
            <feOffset dx="0" dy="10" in="shadowSpreadOuter1" result="shadowOffsetOuter1"></feOffset>
            <feGaussianBlur stdDeviation="15" in="shadowOffsetOuter1" result="shadowBlurOuter1"></feGaussianBlur>
            <feComposite in="shadowBlurOuter1" in2="SourceAlpha" operator="out" result="shadowBlurOuter1"></feComposite>
            <feColorMatrix values="0 0 0 0 0.294117647   0 0 0 0 0.305882353   0 0 0 0 0.325490196  0 0 0 0.4 0" type="matrix" in="shadowBlurOuter1"></feColorMatrix>
        </filter>
        <rect id="path-5" x="0" y="0" width="68" height="292" rx="1"></rect>
        <filter x="-22.1%" y="-3.1%" width="144.1%" height="111.6%" filterUnits="objectBoundingBox" id="filter-6">
            <feMorphology radius="11" operator="erode" in="SourceAlpha" result="shadowSpreadOuter1"></feMorphology>
            <feOffset dx="0" dy="10" in="shadowSpreadOuter1" result="shadowOffsetOuter1"></feOffset>
            <feGaussianBlur stdDeviation="15" in="shadowOffsetOuter1" result="shadowBlurOuter1"></feGaussianBlur>
            <feComposite in="shadowBlurOuter1" in2="SourceAlpha" operator="out" result="shadowBlurOuter1"></feComposite>
            <feColorMatrix values="0 0 0 0 0.294117647   0 0 0 0 0.305882353   0 0 0 0 0.325490196  0 0 0 0.4 0" type="matrix" in="shadowBlurOuter1"></feColorMatrix>
        </filter>
        <rect id="path-7" x="0" y="0" width="68" height="292" rx="1"></rect>
        <filter x="-22.1%" y="-3.1%" width="144.1%" height="111.6%" filterUnits="objectBoundingBox" id="filter-8">
            <feMorphology radius="11" operator="erode" in="SourceAlpha" result="shadowSpreadOuter1"></feMorphology>
            <feOffset dx="0" dy="10" in="shadowSpreadOuter1" result="shadowOffsetOuter1"></feOffset>
            <feGaussianBlur stdDeviation="15" in="shadowOffsetOuter1" result="shadowBlurOuter1"></feGaussianBlur>
            <feComposite in="shadowBlurOuter1" in2="SourceAlpha" operator="out" result="shadowBlurOuter1"></feComposite>
            <feColorMatrix values="0 0 0 0 0.294117647   0 0 0 0 0.305882353   0 0 0 0 0.325490196  0 0 0 0.4 0" type="matrix" in="shadowBlurOuter1"></feColorMatrix>
        </filter>
        <rect id="path-9" x="0" y="0" width="96" height="296" rx="1"></rect>
        <filter x="-15.6%" y="-3.0%" width="131.2%" height="111.5%" filterUnits="objectBoundingBox" id="filter-10">
            <feMorphology radius="11" operator="erode" in="SourceAlpha" result="shadowSpreadOuter1"></feMorphology>
            <feOffset dx="0" dy="10" in="shadowSpreadOuter1" result="shadowOffsetOuter1"></feOffset>
            <feGaussianBlur stdDeviation="15" in="shadowOffsetOuter1" result="shadowBlurOuter1"></feGaussianBlur>
            <feComposite in="shadowBlurOuter1" in2="SourceAlpha" operator="out" result="shadowBlurOuter1"></feComposite>
            <feColorMatrix values="0 0 0 0 0.294117647   0 0 0 0 0.305882353   0 0 0 0 0.325490196  0 0 0 0.4 0" type="matrix" in="shadowBlurOuter1"></feColorMatrix>
        </filter>
        <rect id="path-11" x="0" y="0" width="96" height="95" rx="1"></rect>
        <filter x="-15.6%" y="-9.5%" width="131.2%" height="135.8%" filterUnits="objectBoundingBox" id="filter-12">
            <feMorphology radius="11" operator="erode" in="SourceAlpha" result="shadowSpreadOuter1"></feMorphology>
            <feOffset dx="0" dy="10" in="shadowSpreadOuter1" result="shadowOffsetOuter1"></feOffset>
            <feGaussianBlur stdDeviation="15" in="shadowOffsetOuter1" result="shadowBlurOuter1"></feGaussianBlur>
            <feComposite in="shadowBlurOuter1" in2="SourceAlpha" operator="out" result="shadowBlurOuter1"></feComposite>
            <feColorMatrix values="0 0 0 0 0.294117647   0 0 0 0 0.305882353   0 0 0 0 0.325490196  0 0 0 0.4 0" type="matrix" in="shadowBlurOuter1"></feColorMatrix>
        </filter>
        <rect id="path-13" x="0" y="0" width="96" height="146" rx="1"></rect>
        <filter x="-15.6%" y="-6.2%" width="131.2%" height="123.3%" filterUnits="objectBoundingBox" id="filter-14">
            <feMorphology radius="11" operator="erode" in="SourceAlpha" result="shadowSpreadOuter1"></feMorphology>
            <feOffset dx="0" dy="10" in="shadowSpreadOuter1" result="shadowOffsetOuter1"></feOffset>
            <feGaussianBlur stdDeviation="15" in="shadowOffsetOuter1" result="shadowBlurOuter1"></feGaussianBlur>
            <feComposite in="shadowBlurOuter1" in2="SourceAlpha" operator="out" result="shadowBlurOuter1"></feComposite>
            <feColorMatrix values="0 0 0 0 0.294117647   0 0 0 0 0.305882353   0 0 0 0 0.325490196  0 0 0 0.4 0" type="matrix" in="shadowBlurOuter1"></feColorMatrix>
        </filter>
        <rect id="path-15" x="0" y="0" width="96" height="17" rx="1"></rect>
        <filter x="-15.6%" y="-52.9%" width="131.2%" height="300.0%" filterUnits="objectBoundingBox" id="filter-16">
            <feMorphology radius="11" operator="erode" in="SourceAlpha" result="shadowSpreadOuter1"></feMorphology>
            <feOffset dx="0" dy="10" in="shadowSpreadOuter1" result="shadowOffsetOuter1"></feOffset>
            <feGaussianBlur stdDeviation="15" in="shadowOffsetOuter1" result="shadowBlurOuter1"></feGaussianBlur>
            <feComposite in="shadowBlurOuter1" in2="SourceAlpha" operator="out" result="shadowBlurOuter1"></feComposite>
            <feColorMatrix values="0 0 0 0 0.294117647   0 0 0 0 0.305882353   0 0 0 0 0.325490196  0 0 0 0.4 0" type="matrix" in="shadowBlurOuter1"></feColorMatrix>
        </filter>
        <rect id="path-17" x="0" y="0" width="96" height="72" rx="1"></rect>
        <filter x="-15.6%" y="-12.5%" width="131.2%" height="147.2%" filterUnits="objectBoundingBox" id="filter-18">
            <feMorphology radius="11" operator="erode" in="SourceAlpha" result="shadowSpreadOuter1"></feMorphology>
            <feOffset dx="0" dy="10" in="shadowSpreadOuter1" result="shadowOffsetOuter1"></feOffset>
            <feGaussianBlur stdDeviation="15" in="shadowOffsetOuter1" result="shadowBlurOuter1"></feGaussianBlur>
            <feComposite in="shadowBlurOuter1" in2="SourceAlpha" operator="out" result="shadowBlurOuter1"></feComposite>
            <feColorMatrix values="0 0 0 0 0.294117647   0 0 0 0 0.305882353   0 0 0 0 0.325490196  0 0 0 0.4 0" type="matrix" in="shadowBlurOuter1"></feColorMatrix>
        </filter>
        <rect id="path-19" x="0" y="0" width="96" height="135" rx="1"></rect>
        <filter x="-15.6%" y="-6.7%" width="131.2%" height="125.2%" filterUnits="objectBoundingBox" id="filter-20">
            <feMorphology radius="11" operator="erode" in="SourceAlpha" result="shadowSpreadOuter1"></feMorphology>
            <feOffset dx="0" dy="10" in="shadowSpreadOuter1" result="shadowOffsetOuter1"></feOffset>
            <feGaussianBlur stdDeviation="15" in="shadowOffsetOuter1" result="shadowBlurOuter1"></feGaussianBlur>
            <feComposite in="shadowBlurOuter1" in2="SourceAlpha" operator="out" result="shadowBlurOuter1"></feComposite>
            <feColorMatrix values="0 0 0 0 0.294117647   0 0 0 0 0.305882353   0 0 0 0 0.325490196  0 0 0 0.4 0" type="matrix" in="shadowBlurOuter1"></feColorMatrix>
        </filter>
        <rect id="path-21" x="0" y="0" width="106" height="149" rx="1"></rect>
        <filter x="-14.2%" y="-6.0%" width="128.3%" height="122.8%" filterUnits="objectBoundingBox" id="filter-22">
            <feMorphology radius="11" operator="erode" in="SourceAlpha" result="shadowSpreadOuter1"></feMorphology>
            <feOffset dx="0" dy="10" in="shadowSpreadOuter1" result="shadowOffsetOuter1"></feOffset>
            <feGaussianBlur stdDeviation="15" in="shadowOffsetOuter1" result="shadowBlurOuter1"></feGaussianBlur>
            <feComposite in="shadowBlurOuter1" in2="SourceAlpha" operator="out" result="shadowBlurOuter1"></feComposite>
            <feColorMatrix values="0 0 0 0 0.294117647   0 0 0 0 0.305882353   0 0 0 0 0.325490196  0 0 0 0.4 0" type="matrix" in="shadowBlurOuter1"></feColorMatrix>
        </filter>
        <rect id="path-23" x="0" y="0" width="206" height="296" rx="1"></rect>
        <filter x="-7.3%" y="-3.0%" width="114.6%" height="111.5%" filterUnits="objectBoundingBox" id="filter-24">
            <feMorphology radius="11" operator="erode" in="SourceAlpha" result="shadowSpreadOuter1"></feMorphology>
            <feOffset dx="0" dy="10" in="shadowSpreadOuter1" result="shadowOffsetOuter1"></feOffset>
            <feGaussianBlur stdDeviation="15" in="shadowOffsetOuter1" result="shadowBlurOuter1"></feGaussianBlur>
            <feComposite in="shadowBlurOuter1" in2="SourceAlpha" operator="out" result="shadowBlurOuter1"></feComposite>
            <feColorMatrix values="0 0 0 0 0.294117647   0 0 0 0 0.305882353   0 0 0 0 0.325490196  0 0 0 0.4 0" type="matrix" in="shadowBlurOuter1"></feColorMatrix>
        </filter>
        <rect id="path-25" x="0" y="0" width="106" height="73" rx="1"></rect>
        <filter x="-14.2%" y="-12.3%" width="128.3%" height="146.6%" filterUnits="objectBoundingBox" id="filter-26">
            <feMorphology radius="11" operator="erode" in="SourceAlpha" result="shadowSpreadOuter1"></feMorphology>
            <feOffset dx="0" dy="10" in="shadowSpreadOuter1" result="shadowOffsetOuter1"></feOffset>
            <feGaussianBlur stdDeviation="15" in="shadowOffsetOuter1" result="shadowBlurOuter1"></feGaussianBlur>
            <feComposite in="shadowBlurOuter1" in2="SourceAlpha" operator="out" result="shadowBlurOuter1"></feComposite>
            <feColorMatrix values="0 0 0 0 0.294117647   0 0 0 0 0.305882353   0 0 0 0 0.325490196  0 0 0 0.4 0" type="matrix" in="shadowBlurOuter1"></feColorMatrix>
        </filter>
        <rect id="path-27" x="0" y="0" width="225" height="73" rx="1"></rect>
        <filter x="-6.7%" y="-12.3%" width="113.3%" height="146.6%" filterUnits="objectBoundingBox" id="filter-28">
            <feMorphology radius="11" operator="erode" in="SourceAlpha" result="shadowSpreadOuter1"></feMorphology>
            <feOffset dx="0" dy="10" in="shadowSpreadOuter1" result="shadowOffsetOuter1"></feOffset>
            <feGaussianBlur stdDeviation="15" in="shadowOffsetOuter1" result="shadowBlurOuter1"></feGaussianBlur>
            <feComposite in="shadowBlurOuter1" in2="SourceAlpha" operator="out" result="shadowBlurOuter1"></feComposite>
            <feColorMatrix values="0 0 0 0 0.294117647   0 0 0 0 0.305882353   0 0 0 0 0.325490196  0 0 0 0.4 0" type="matrix" in="shadowBlurOuter1"></feColorMatrix>
        </filter>
        <rect id="path-29" x="0" y="0" width="106" height="103" rx="1"></rect>
        <filter x="-14.2%" y="-8.7%" width="128.3%" height="133.0%" filterUnits="objectBoundingBox" id="filter-30">
            <feMorphology radius="11" operator="erode" in="SourceAlpha" result="shadowSpreadOuter1"></feMorphology>
            <feOffset dx="0" dy="10" in="shadowSpreadOuter1" result="shadowOffsetOuter1"></feOffset>
            <feGaussianBlur stdDeviation="15" in="shadowOffsetOuter1" result="shadowBlurOuter1"></feGaussianBlur>
            <feComposite in="shadowBlurOuter1" in2="SourceAlpha" operator="out" result="shadowBlurOuter1"></feComposite>
            <feColorMatrix values="0 0 0 0 0.294117647   0 0 0 0 0.305882353   0 0 0 0 0.325490196  0 0 0 0.4 0" type="matrix" in="shadowBlurOuter1"></feColorMatrix>
        </filter>
        <rect id="path-31" x="0" y="0" width="225" height="103" rx="1"></rect>
        <filter x="-6.7%" y="-8.7%" width="113.3%" height="133.0%" filterUnits="objectBoundingBox" id="filter-32">
            <feMorphology radius="11" operator="erode" in="SourceAlpha" result="shadowSpreadOuter1"></feMorphology>
            <feOffset dx="0" dy="10" in="shadowSpreadOuter1" result="shadowOffsetOuter1"></feOffset>
            <feGaussianBlur stdDeviation="15" in="shadowOffsetOuter1" result="shadowBlurOuter1"></feGaussianBlur>
            <feComposite in="shadowBlurOuter1" in2="SourceAlpha" operator="out" result="shadowBlurOuter1"></feComposite>
            <feColorMatrix values="0 0 0 0 0.294117647   0 0 0 0 0.305882353   0 0 0 0 0.325490196  0 0 0 0.4 0" type="matrix" in="shadowBlurOuter1"></feColorMatrix>
        </filter>
        <rect id="path-33" x="0" y="0" width="146" height="93" rx="1"></rect>
        <filter x="-10.3%" y="-9.7%" width="120.5%" height="136.6%" filterUnits="objectBoundingBox" id="filter-34">
            <feMorphology radius="11" operator="erode" in="SourceAlpha" result="shadowSpreadOuter1"></feMorphology>
            <feOffset dx="0" dy="10" in="shadowSpreadOuter1" result="shadowOffsetOuter1"></feOffset>
            <feGaussianBlur stdDeviation="15" in="shadowOffsetOuter1" result="shadowBlurOuter1"></feGaussianBlur>
            <feComposite in="shadowBlurOuter1" in2="SourceAlpha" operator="out" result="shadowBlurOuter1"></feComposite>
            <feColorMatrix values="0 0 0 0 0.294117647   0 0 0 0 0.305882353   0 0 0 0 0.325490196  0 0 0 0.4 0" type="matrix" in="shadowBlurOuter1"></feColorMatrix>
        </filter>
        <rect id="path-35" x="0" y="0" width="82" height="93" rx="1"></rect>
        <filter x="-18.3%" y="-9.7%" width="136.6%" height="136.6%" filterUnits="objectBoundingBox" id="filter-36">
            <feMorphology radius="11" operator="erode" in="SourceAlpha" result="shadowSpreadOuter1"></feMorphology>
            <feOffset dx="0" dy="10" in="shadowSpreadOuter1" result="shadowOffsetOuter1"></feOffset>
            <feGaussianBlur stdDeviation="15" in="shadowOffsetOuter1" result="shadowBlurOuter1"></feGaussianBlur>
            <feComposite in="shadowBlurOuter1" in2="SourceAlpha" operator="out" result="shadowBlurOuter1"></feComposite>
            <feColorMatrix values="0 0 0 0 0.294117647   0 0 0 0 0.305882353   0 0 0 0 0.325490196  0 0 0 0.4 0" type="matrix" in="shadowBlurOuter1"></feColorMatrix>
        </filter>
        <rect id="path-37" x="0" y="0" width="93" height="93" rx="1"></rect>
        <filter x="-16.1%" y="-9.7%" width="132.3%" height="136.6%" filterUnits="objectBoundingBox" id="filter-38">
            <feMorphology radius="11" operator="erode" in="SourceAlpha" result="shadowSpreadOuter1"></feMorphology>
            <feOffset dx="0" dy="10" in="shadowSpreadOuter1" result="shadowOffsetOuter1"></feOffset>
            <feGaussianBlur stdDeviation="15" in="shadowOffsetOuter1" result="shadowBlurOuter1"></feGaussianBlur>
            <feComposite in="shadowBlurOuter1" in2="SourceAlpha" operator="out" result="shadowBlurOuter1"></feComposite>
            <feColorMatrix values="0 0 0 0 0.294117647   0 0 0 0 0.305882353   0 0 0 0 0.325490196  0 0 0 0.4 0" type="matrix" in="shadowBlurOuter1"></feColorMatrix>
        </filter>
    </defs>
    <g id="architecture_cards_layouts" stroke="none" stroke-width="1" fill="none" fill-rule="evenodd">
        <g id="Group-3" transform="translate(34.000000, 31.000000)">
            <g id="Group">
                <rect id="Rectangle-4" fill="#F4F5F8" x="0" y="0" width="384" height="342"></rect>
                <g id="card/l1" transform="translate(89.000000, 25.000000)">
                    <g id="card">
                        <use fill="black" fill-opacity="1" filter="url(#filter-2)" xlink:href="#path-1"></use>
                        <use fill="#FFFFFF" fill-rule="evenodd" xlink:href="#path-1"></use>
                        <rect stroke="#E9E9E9" stroke-width="1" x="-0.5" y="-0.5" width="207" height="293" rx="1"></rect>
                    </g>
                </g>
                <g id="card/l1" transform="translate(89.000000, 25.000000)">
                    <g id="card">
                        <use fill="black" fill-opacity="1" filter="url(#filter-4)" xlink:href="#path-3"></use>
                        <use fill="#FFFFFF" fill-rule="evenodd" xlink:href="#path-3"></use>
                        <rect stroke="#E9E9E9" stroke-width="1" x="-0.5" y="-0.5" width="207" height="293" rx="1"></rect>
                    </g>
                </g>
                <g id="card/l1" transform="translate(0.000000, 25.000000)">
                    <g id="card">
                        <use fill="black" fill-opacity="1" filter="url(#filter-6)" xlink:href="#path-5"></use>
                        <use fill="#FFFFFF" fill-rule="evenodd" xlink:href="#path-5"></use>
                        <rect stroke="#E9E9E9" stroke-width="1" x="-0.5" y="-0.5" width="69" height="293" rx="1"></rect>
                    </g>
                </g>
                <g id="card/l1" transform="translate(315.000000, 25.000000)">
                    <g id="card">
                        <use fill="black" fill-opacity="1" filter="url(#filter-8)" xlink:href="#path-7"></use>
                        <use fill="#FFFFFF" fill-rule="evenodd" xlink:href="#path-7"></use>
                        <rect stroke="#E9E9E9" stroke-width="1" x="-0.5" y="-0.5" width="69" height="293" rx="1"></rect>
                    </g>
                </g>
            </g>
            <path d="M144.912,365 L144.912,354.536 L151.232,354.536 L151.232,356.104 L146.768,356.104 L146.768,359.064 L150.576,359.064 L150.576,360.632 L146.768,360.632 L146.768,365 L144.912,365 Z M154.704,365.192 C154.042663,365.192 153.578668,364.994669 153.312,364.6 C153.045332,364.205331 152.912,363.66667 152.912,362.984 L152.912,353.704 L154.752,353.704 L154.752,363.08 C154.752,363.304001 154.794666,363.461333 154.88,363.552 C154.965334,363.642667 155.056,363.688 155.152,363.688 L155.272,363.688 C155.309334,363.688 155.365333,363.677333 155.44,363.656 L155.68,365.032 C155.434665,365.138667 155.109335,365.192 154.704,365.192 Z M160.608,365.192 C160.063997,365.192 159.557336,365.098668 159.088,364.912 C158.618664,364.725332 158.208002,364.456002 157.856,364.104 C157.503998,363.751998 157.229334,363.322669 157.032,362.816 C156.834666,362.309331 156.736,361.73067 156.736,361.08 C156.736,360.439997 156.837332,359.864003 157.04,359.352 C157.242668,358.839997 157.511998,358.408002 157.848,358.056 C158.184002,357.703998 158.570664,357.432001 159.008,357.24 C159.445336,357.047999 159.893331,356.952 160.352,356.952 C160.885336,356.952 161.354665,357.042666 161.76,357.224 C162.165335,357.405334 162.503999,357.661332 162.776,357.992 C163.048001,358.322668 163.253333,358.717331 163.392,359.176 C163.530667,359.634669 163.6,360.135997 163.6,360.68 C163.6,360.861334 163.592,361.031999 163.576,361.192 C163.56,361.352001 163.541333,361.48 163.52,361.576 L158.528,361.576 C158.613334,362.280004 158.861331,362.821331 159.272,363.2 C159.682669,363.578669 160.207997,363.768 160.848,363.768 C161.189335,363.768 161.506665,363.717334 161.8,363.616 C162.093335,363.514666 162.383999,363.373334 162.672,363.192 L163.296,364.344 C162.922665,364.589335 162.506669,364.791999 162.048,364.952 C161.589331,365.112001 161.109336,365.192 160.608,365.192 Z M158.512,360.328 L162,360.328 C162,359.719997 161.869335,359.242668 161.608,358.896 C161.346665,358.549332 160.944003,358.376 160.4,358.376 C159.930664,358.376 159.520002,358.541332 159.168,358.872 C158.815998,359.202668 158.597334,359.687997 158.512,360.328 Z M164.224,365 L166.72,360.904 L164.384,357.144 L166.368,357.144 L167.248,358.632 C167.365334,358.845334 167.485333,359.066666 167.608,359.296 C167.730667,359.525334 167.850666,359.746666 167.968,359.96 L168.032,359.96 C168.128,359.746666 168.229333,359.525334 168.336,359.296 C168.442667,359.066666 168.544,358.845334 168.64,358.632 L169.392,357.144 L171.296,357.144 L168.976,361.112 L171.472,365 L169.488,365 L168.528,363.448 C168.399999,363.213332 168.269334,362.978668 168.136,362.744 C168.002666,362.509332 167.866667,362.280001 167.728,362.056 L167.664,362.056 C167.546666,362.280001 167.432001,362.506666 167.32,362.736 C167.207999,362.965334 167.093334,363.202665 166.976,363.448 L166.144,365 L164.224,365 Z M172.864,365 L172.864,357.144 L174.704,357.144 L174.704,365 L172.864,365 Z M173.792,355.768 C173.461332,355.768 173.189334,355.672001 172.976,355.48 C172.762666,355.287999 172.656,355.037335 172.656,354.728 C172.656,354.418665 172.762666,354.165334 172.976,353.968 C173.189334,353.770666 173.461332,353.672 173.792,353.672 C174.122668,353.672 174.394666,353.770666 174.608,353.968 C174.821334,354.165334 174.928,354.418665 174.928,354.728 C174.928,355.037335 174.821334,355.287999 174.608,355.48 C174.394666,355.672001 174.122668,355.768 173.792,355.768 Z M180.864,365.192 C180.501332,365.192 180.136002,365.104001 179.768,364.928 C179.399998,364.751999 179.050668,364.498668 178.72,364.168 L178.672,364.168 L178.512,365 L177.056,365 L177.056,353.704 L178.896,353.704 L178.896,356.616 L178.848,357.928 C179.178668,357.639999 179.538665,357.405334 179.928,357.224 C180.317335,357.042666 180.714665,356.952 181.12,356.952 C181.610669,356.952 182.047998,357.045332 182.432,357.232 C182.816002,357.418668 183.141332,357.685332 183.408,358.032 C183.674668,358.378668 183.877333,358.797331 184.016,359.288 C184.154667,359.778669 184.224,360.327997 184.224,360.936 C184.224,361.608003 184.130668,362.207997 183.944,362.736 C183.757332,363.264003 183.509335,363.709332 183.2,364.072 C182.890665,364.434668 182.533335,364.711999 182.128,364.904 C181.722665,365.096001 181.301336,365.192 180.864,365.192 Z M180.48,363.672 C181.002669,363.672 181.439998,363.445336 181.792,362.992 C182.144002,362.538664 182.32,361.864004 182.32,360.968 C182.32,360.178663 182.186668,359.565336 181.92,359.128 C181.653332,358.690664 181.221336,358.472 180.624,358.472 C180.069331,358.472 179.493336,358.76533 178.896,359.352 L178.896,363.016 C179.173335,363.261335 179.447999,363.432 179.72,363.528 C179.992001,363.624 180.245332,363.672 180.48,363.672 Z M187.856,365.192 C187.194663,365.192 186.730668,364.994669 186.464,364.6 C186.197332,364.205331 186.064,363.66667 186.064,362.984 L186.064,353.704 L187.904,353.704 L187.904,363.08 C187.904,363.304001 187.946666,363.461333 188.032,363.552 C188.117334,363.642667 188.208,363.688 188.304,363.688 L188.424,363.688 C188.461334,363.688 188.517333,363.677333 188.592,363.656 L188.832,365.032 C188.586665,365.138667 188.261335,365.192 187.856,365.192 Z M193.76,365.192 C193.215997,365.192 192.709336,365.098668 192.24,364.912 C191.770664,364.725332 191.360002,364.456002 191.008,364.104 C190.655998,363.751998 190.381334,363.322669 190.184,362.816 C189.986666,362.309331 189.888,361.73067 189.888,361.08 C189.888,360.439997 189.989332,359.864003 190.192,359.352 C190.394668,358.839997 190.663998,358.408002 191,358.056 C191.336002,357.703998 191.722664,357.432001 192.16,357.24 C192.597336,357.047999 193.045331,356.952 193.504,356.952 C194.037336,356.952 194.506665,357.042666 194.912,357.224 C195.317335,357.405334 195.655999,357.661332 195.928,357.992 C196.200001,358.322668 196.405333,358.717331 196.544,359.176 C196.682667,359.634669 196.752,360.135997 196.752,360.68 C196.752,360.861334 196.744,361.031999 196.728,361.192 C196.712,361.352001 196.693333,361.48 196.672,361.576 L191.68,361.576 C191.765334,362.280004 192.013331,362.821331 192.424,363.2 C192.834669,363.578669 193.359997,363.768 194,363.768 C194.341335,363.768 194.658665,363.717334 194.952,363.616 C195.245335,363.514666 195.535999,363.373334 195.824,363.192 L196.448,364.344 C196.074665,364.589335 195.658669,364.791999 195.2,364.952 C194.741331,365.112001 194.261336,365.192 193.76,365.192 Z M191.664,360.328 L195.152,360.328 C195.152,359.719997 195.021335,359.242668 194.76,358.896 C194.498665,358.549332 194.096003,358.376 193.552,358.376 C193.082664,358.376 192.672002,358.541332 192.32,358.872 C191.967998,359.202668 191.749334,359.687997 191.664,360.328 Z M201.872,365 L201.872,354.536 L208.192,354.536 L208.192,356.104 L203.728,356.104 L203.728,359.064 L207.536,359.064 L207.536,360.632 L203.728,360.632 L203.728,365 L201.872,365 Z M212.832,365.192 C212.341331,365.192 211.872002,365.101334 211.424,364.92 C210.975998,364.738666 210.578668,364.472002 210.232,364.12 C209.885332,363.767998 209.610668,363.336003 209.408,362.824 C209.205332,362.311997 209.104,361.73067 209.104,361.08 C209.104,360.42933 209.205332,359.848003 209.408,359.336 C209.610668,358.823997 209.885332,358.392002 210.232,358.04 C210.578668,357.687998 210.975998,357.418668 211.424,357.232 C211.872002,357.045332 212.341331,356.952 212.832,356.952 C213.322669,356.952 213.794664,357.045332 214.248,357.232 C214.701336,357.418668 215.098665,357.687998 215.44,358.04 C215.781335,358.392002 216.055999,358.823997 216.264,359.336 C216.472001,359.848003 216.576,360.42933 216.576,361.08 C216.576,361.73067 216.472001,362.311997 216.264,362.824 C216.055999,363.336003 215.781335,363.767998 215.44,364.12 C215.098665,364.472002 214.701336,364.738666 214.248,364.92 C213.794664,365.101334 213.322669,365.192 212.832,365.192 Z M212.832,363.688 C213.408003,363.688 213.861332,363.450669 214.192,362.976 C214.522668,362.501331 214.688,361.869337 214.688,361.08 C214.688,360.279996 214.522668,359.642669 214.192,359.168 C213.861332,358.693331 213.408003,358.456 212.832,358.456 C212.255997,358.456 211.805335,358.693331 211.48,359.168 C211.154665,359.642669 210.992,360.279996 210.992,361.08 C210.992,361.869337 211.154665,362.501331 211.48,362.976 C211.805335,363.450669 212.255997,363.688 212.832,363.688 Z M221.68,365.192 C221.146664,365.192 220.648002,365.101334 220.184,364.92 C219.719998,364.738666 219.317335,364.472002 218.976,364.12 C218.634665,363.767998 218.368001,363.336003 218.176,362.824 C217.983999,362.311997 217.888,361.73067 217.888,361.08 C217.888,360.42933 217.994666,359.848003 218.208,359.336 C218.421334,358.823997 218.709332,358.392002 219.072,358.04 C219.434668,357.687998 219.853331,357.418668 220.328,357.232 C220.802669,357.045332 221.301331,356.952 221.824,356.952 C222.336003,356.952 222.775998,357.037332 223.144,357.208 C223.512002,357.378668 223.839999,357.586665 224.128,357.832 L223.232,359.032 C223.018666,358.850666 222.808001,358.709334 222.6,358.608 C222.391999,358.506666 222.165335,358.456 221.92,358.456 C221.279997,358.456 220.762669,358.693331 220.368,359.168 C219.973331,359.642669 219.776,360.279996 219.776,361.08 C219.776,361.869337 219.970665,362.501331 220.36,362.976 C220.749335,363.450669 221.25333,363.688 221.872,363.688 C222.181335,363.688 222.471999,363.621334 222.744,363.488 C223.016001,363.354666 223.263999,363.197334 223.488,363.016 L224.24,364.232 C223.866665,364.552002 223.458669,364.791999 223.016,364.952 C222.573331,365.112001 222.128002,365.192 221.68,365.192 Z M228.128,365.192 C227.285329,365.192 226.672002,364.922669 226.288,364.384 C225.903998,363.845331 225.712,363.074672 225.712,362.072 L225.712,357.144 L227.552,357.144 L227.552,361.832 C227.552,362.48267 227.647999,362.941332 227.84,363.208 C228.032001,363.474668 228.341331,363.608 228.768,363.608 C229.109335,363.608 229.410665,363.522668 229.672,363.352 C229.933335,363.181332 230.213332,362.904002 230.512,362.52 L230.512,357.144 L232.352,357.144 L232.352,365 L230.848,365 L230.704,363.848 L230.656,363.848 C230.314665,364.253335 229.944002,364.578665 229.544,364.824 C229.143998,365.069335 228.672003,365.192 228.128,365.192 Z M236.88,365.192 C236.335997,365.192 235.800003,365.088001 235.272,364.88 C234.743997,364.671999 234.288002,364.413335 233.904,364.104 L234.768,362.92 C235.120002,363.197335 235.469332,363.413333 235.816,363.568 C236.162668,363.722667 236.538665,363.8 236.944,363.8 C237.370669,363.8 237.685332,363.712001 237.888,363.536 C238.090668,363.359999 238.192,363.133335 238.192,362.856 C238.192,362.695999 238.144,362.554667 238.048,362.432 C237.952,362.309333 237.824001,362.2 237.664,362.104 C237.503999,362.008 237.322668,361.92 237.12,361.84 C236.917332,361.76 236.714668,361.677334 236.512,361.592 C236.255999,361.496 235.994668,361.384001 235.728,361.256 C235.461332,361.127999 235.224001,360.973334 235.016,360.792 C234.807999,360.610666 234.637334,360.400001 234.504,360.16 C234.370666,359.919999 234.304,359.634668 234.304,359.304 C234.304,358.610663 234.559997,358.045336 235.072,357.608 C235.584003,357.170664 236.282662,356.952 237.168,356.952 C237.712003,356.952 238.202664,357.047999 238.64,357.24 C239.077336,357.432001 239.455998,357.650665 239.776,357.896 L238.928,359.016 C238.650665,358.813332 238.370668,358.650667 238.088,358.528 C237.805332,358.405333 237.509335,358.344 237.2,358.344 C236.805331,358.344 236.514668,358.426666 236.328,358.592 C236.141332,358.757334 236.048,358.962665 236.048,359.208 C236.048,359.368001 236.093333,359.503999 236.184,359.616 C236.274667,359.728001 236.394666,359.826666 236.544,359.912 C236.693334,359.997334 236.866666,360.077333 237.064,360.152 C237.261334,360.226667 237.466666,360.301333 237.68,360.376 C237.946668,360.472 238.213332,360.581333 238.48,360.704 C238.746668,360.826667 238.989332,360.978666 239.208,361.16 C239.426668,361.341334 239.602666,361.562665 239.736,361.824 C239.869334,362.085335 239.936,362.397332 239.936,362.76 C239.936,363.101335 239.869334,363.418665 239.736,363.712 C239.602666,364.005335 239.408001,364.261332 239.152,364.48 C238.895999,364.698668 238.576002,364.871999 238.192,365 C237.807998,365.128001 237.370669,365.192 236.88,365.192 Z" id="Flexible-Focus" fill="#040D14"></path>
        </g>
        <g id="Group-3" transform="translate(34.000000, 431.000000)">
            <g id="Group">
                <rect id="Rectangle-4" fill="#F4F5F8" x="0" y="0" width="384" height="342"></rect>
                <g id="card/l1" transform="translate(44.000000, 25.000000)">
                    <g id="card">
                        <use fill="black" fill-opacity="1" filter="url(#filter-10)" xlink:href="#path-9"></use>
                        <use fill="#FFFFFF" fill-rule="evenodd" xlink:href="#path-9"></use>
                        <rect stroke="#E9E9E9" stroke-width="1" x="-0.5" y="-0.5" width="97" height="297" rx="1"></rect>
                    </g>
                </g>
                <g id="card/l1" transform="translate(156.000000, 25.000000)">
                    <g id="card">
                        <use fill="black" fill-opacity="1" filter="url(#filter-12)" xlink:href="#path-11"></use>
                        <use fill="#FFFFFF" fill-rule="evenodd" xlink:href="#path-11"></use>
                        <rect stroke="#E9E9E9" stroke-width="1" x="-0.5" y="-0.5" width="97" height="96" rx="1"></rect>
                    </g>
                </g>
                <g id="card/l1" transform="translate(266.000000, 25.000000)">
                    <g id="card">
                        <use fill="black" fill-opacity="1" filter="url(#filter-14)" xlink:href="#path-13"></use>
                        <use fill="#FFFFFF" fill-rule="evenodd" xlink:href="#path-13"></use>
                        <rect stroke="#E9E9E9" stroke-width="1" x="-0.5" y="-0.5" width="97" height="147" rx="1"></rect>
                    </g>
                </g>
                <g id="card/l1" transform="translate(266.000000, 187.000000)">
                    <g id="card">
                        <use fill="black" fill-opacity="1" filter="url(#filter-16)" xlink:href="#path-15"></use>
                        <use fill="#FFFFFF" fill-rule="evenodd" xlink:href="#path-15"></use>
                        <rect stroke="#E9E9E9" stroke-width="1" x="-0.5" y="-0.5" width="97" height="18" rx="1"></rect>
                    </g>
                </g>
                <g id="card/l1" transform="translate(266.000000, 220.000000)">
                    <g id="card">
                        <use fill="black" fill-opacity="1" filter="url(#filter-18)" xlink:href="#path-17"></use>
                        <use fill="#FFFFFF" fill-rule="evenodd" xlink:href="#path-17"></use>
                        <rect stroke="#E9E9E9" stroke-width="1" x="-0.5" y="-0.5" width="97" height="73" rx="1"></rect>
                    </g>
                </g>
                <g id="card/l1" transform="translate(156.000000, 136.000000)">
                    <g id="card">
                        <use fill="black" fill-opacity="1" filter="url(#filter-20)" xlink:href="#path-19"></use>
                        <use fill="#FFFFFF" fill-rule="evenodd" xlink:href="#path-19"></use>
                        <rect stroke="#E9E9E9" stroke-width="1" x="-0.5" y="-0.5" width="97" height="136" rx="1"></rect>
                    </g>
                </g>
            </g>
            <path d="M139.848,365 L139.848,354.536 L146.168,354.536 L146.168,356.104 L141.704,356.104 L141.704,359.064 L145.512,359.064 L145.512,360.632 L141.704,360.632 L141.704,365 L139.848,365 Z M149.64,365.192 C148.978663,365.192 148.514668,364.994669 148.248,364.6 C147.981332,364.205331 147.848,363.66667 147.848,362.984 L147.848,353.704 L149.688,353.704 L149.688,363.08 C149.688,363.304001 149.730666,363.461333 149.816,363.552 C149.901334,363.642667 149.992,363.688 150.088,363.688 L150.208,363.688 C150.245334,363.688 150.301333,363.677333 150.376,363.656 L150.616,365.032 C150.370665,365.138667 150.045335,365.192 149.64,365.192 Z M155.544,365.192 C154.999997,365.192 154.493336,365.098668 154.024,364.912 C153.554664,364.725332 153.144002,364.456002 152.792,364.104 C152.439998,363.751998 152.165334,363.322669 151.968,362.816 C151.770666,362.309331 151.672,361.73067 151.672,361.08 C151.672,360.439997 151.773332,359.864003 151.976,359.352 C152.178668,358.839997 152.447998,358.408002 152.784,358.056 C153.120002,357.703998 153.506664,357.432001 153.944,357.24 C154.381336,357.047999 154.829331,356.952 155.288,356.952 C155.821336,356.952 156.290665,357.042666 156.696,357.224 C157.101335,357.405334 157.439999,357.661332 157.712,357.992 C157.984001,358.322668 158.189333,358.717331 158.328,359.176 C158.466667,359.634669 158.536,360.135997 158.536,360.68 C158.536,360.861334 158.528,361.031999 158.512,361.192 C158.496,361.352001 158.477333,361.48 158.456,361.576 L153.464,361.576 C153.549334,362.280004 153.797331,362.821331 154.208,363.2 C154.618669,363.578669 155.143997,363.768 155.784,363.768 C156.125335,363.768 156.442665,363.717334 156.736,363.616 C157.029335,363.514666 157.319999,363.373334 157.608,363.192 L158.232,364.344 C157.858665,364.589335 157.442669,364.791999 156.984,364.952 C156.525331,365.112001 156.045336,365.192 155.544,365.192 Z M153.448,360.328 L156.936,360.328 C156.936,359.719997 156.805335,359.242668 156.544,358.896 C156.282665,358.549332 155.880003,358.376 155.336,358.376 C154.866664,358.376 154.456002,358.541332 154.104,358.872 C153.751998,359.202668 153.533334,359.687997 153.448,360.328 Z M159.16,365 L161.656,360.904 L159.32,357.144 L161.304,357.144 L162.184,358.632 C162.301334,358.845334 162.421333,359.066666 162.544,359.296 C162.666667,359.525334 162.786666,359.746666 162.904,359.96 L162.968,359.96 C163.064,359.746666 163.165333,359.525334 163.272,359.296 C163.378667,359.066666 163.48,358.845334 163.576,358.632 L164.328,357.144 L166.232,357.144 L163.912,361.112 L166.408,365 L164.424,365 L163.464,363.448 C163.335999,363.213332 163.205334,362.978668 163.072,362.744 C162.938666,362.509332 162.802667,362.280001 162.664,362.056 L162.6,362.056 C162.482666,362.280001 162.368001,362.506666 162.256,362.736 C162.143999,362.965334 162.029334,363.202665 161.912,363.448 L161.08,365 L159.16,365 Z M167.8,365 L167.8,357.144 L169.64,357.144 L169.64,365 L167.8,365 Z M168.728,355.768 C168.397332,355.768 168.125334,355.672001 167.912,355.48 C167.698666,355.287999 167.592,355.037335 167.592,354.728 C167.592,354.418665 167.698666,354.165334 167.912,353.968 C168.125334,353.770666 168.397332,353.672 168.728,353.672 C169.058668,353.672 169.330666,353.770666 169.544,353.968 C169.757334,354.165334 169.864,354.418665 169.864,354.728 C169.864,355.037335 169.757334,355.287999 169.544,355.48 C169.330666,355.672001 169.058668,355.768 168.728,355.768 Z M175.8,365.192 C175.437332,365.192 175.072002,365.104001 174.704,364.928 C174.335998,364.751999 173.986668,364.498668 173.656,364.168 L173.608,364.168 L173.448,365 L171.992,365 L171.992,353.704 L173.832,353.704 L173.832,356.616 L173.784,357.928 C174.114668,357.639999 174.474665,357.405334 174.864,357.224 C175.253335,357.042666 175.650665,356.952 176.056,356.952 C176.546669,356.952 176.983998,357.045332 177.368,357.232 C177.752002,357.418668 178.077332,357.685332 178.344,358.032 C178.610668,358.378668 178.813333,358.797331 178.952,359.288 C179.090667,359.778669 179.16,360.327997 179.16,360.936 C179.16,361.608003 179.066668,362.207997 178.88,362.736 C178.693332,363.264003 178.445335,363.709332 178.136,364.072 C177.826665,364.434668 177.469335,364.711999 177.064,364.904 C176.658665,365.096001 176.237336,365.192 175.8,365.192 Z M175.416,363.672 C175.938669,363.672 176.375998,363.445336 176.728,362.992 C177.080002,362.538664 177.256,361.864004 177.256,360.968 C177.256,360.178663 177.122668,359.565336 176.856,359.128 C176.589332,358.690664 176.157336,358.472 175.56,358.472 C175.005331,358.472 174.429336,358.76533 173.832,359.352 L173.832,363.016 C174.109335,363.261335 174.383999,363.432 174.656,363.528 C174.928001,363.624 175.181332,363.672 175.416,363.672 Z M182.792,365.192 C182.130663,365.192 181.666668,364.994669 181.4,364.6 C181.133332,364.205331 181,363.66667 181,362.984 L181,353.704 L182.84,353.704 L182.84,363.08 C182.84,363.304001 182.882666,363.461333 182.968,363.552 C183.053334,363.642667 183.144,363.688 183.24,363.688 L183.36,363.688 C183.397334,363.688 183.453333,363.677333 183.528,363.656 L183.768,365.032 C183.522665,365.138667 183.197335,365.192 182.792,365.192 Z M188.696,365.192 C188.151997,365.192 187.645336,365.098668 187.176,364.912 C186.706664,364.725332 186.296002,364.456002 185.944,364.104 C185.591998,363.751998 185.317334,363.322669 185.12,362.816 C184.922666,362.309331 184.824,361.73067 184.824,361.08 C184.824,360.439997 184.925332,359.864003 185.128,359.352 C185.330668,358.839997 185.599998,358.408002 185.936,358.056 C186.272002,357.703998 186.658664,357.432001 187.096,357.24 C187.533336,357.047999 187.981331,356.952 188.44,356.952 C188.973336,356.952 189.442665,357.042666 189.848,357.224 C190.253335,357.405334 190.591999,357.661332 190.864,357.992 C191.136001,358.322668 191.341333,358.717331 191.48,359.176 C191.618667,359.634669 191.688,360.135997 191.688,360.68 C191.688,360.861334 191.68,361.031999 191.664,361.192 C191.648,361.352001 191.629333,361.48 191.608,361.576 L186.616,361.576 C186.701334,362.280004 186.949331,362.821331 187.36,363.2 C187.770669,363.578669 188.295997,363.768 188.936,363.768 C189.277335,363.768 189.594665,363.717334 189.888,363.616 C190.181335,363.514666 190.471999,363.373334 190.76,363.192 L191.384,364.344 C191.010665,364.589335 190.594669,364.791999 190.136,364.952 C189.677331,365.112001 189.197336,365.192 188.696,365.192 Z M186.6,360.328 L190.088,360.328 C190.088,359.719997 189.957335,359.242668 189.696,358.896 C189.434665,358.549332 189.032003,358.376 188.488,358.376 C188.018664,358.376 187.608002,358.541332 187.256,358.872 C186.903998,359.202668 186.685334,359.687997 186.6,360.328 Z M196.808,365 L196.808,354.536 L198.904,354.536 L200.76,359.656 C200.877334,359.986668 200.989333,360.325332 201.096,360.672 C201.202667,361.018668 201.314666,361.362665 201.432,361.704 L201.496,361.704 C201.613334,361.362665 201.722666,361.018668 201.824,360.672 C201.925334,360.325332 202.034666,359.986668 202.152,359.656 L203.96,354.536 L206.072,354.536 L206.072,365 L204.36,365 L204.36,360.216 C204.36,359.970665 204.368,359.704001 204.384,359.416 C204.4,359.127999 204.418667,358.837335 204.44,358.544 C204.461333,358.250665 204.488,357.962668 204.52,357.68 C204.552,357.397332 204.578667,357.133335 204.6,356.888 L204.536,356.888 L203.688,359.32 L201.976,364.024 L200.872,364.024 L199.144,359.32 L198.312,356.888 L198.248,356.888 C198.269333,357.133335 198.293333,357.397332 198.32,357.68 C198.346667,357.962668 198.373333,358.250665 198.4,358.544 C198.426667,358.837335 198.448,359.127999 198.464,359.416 C198.48,359.704001 198.488,359.970665 198.488,360.216 L198.488,365 L196.808,365 Z M210.472,365.192 C209.778663,365.192 209.218669,364.981335 208.792,364.56 C208.365331,364.138665 208.152,363.581337 208.152,362.888 C208.152,362.471998 208.239999,362.101335 208.416,361.776 C208.592001,361.450665 208.869331,361.170668 209.248,360.936 C209.626669,360.701332 210.106664,360.504001 210.688,360.344 C211.269336,360.183999 211.965329,360.061334 212.776,359.976 C212.765333,359.773332 212.736,359.578668 212.688,359.392 C212.64,359.205332 212.560001,359.040001 212.448,358.896 C212.335999,358.751999 212.189334,358.64 212.008,358.56 C211.826666,358.48 211.602668,358.44 211.336,358.44 C210.951998,358.44 210.576002,358.514666 210.208,358.664 C209.839998,358.813334 209.480002,358.994666 209.128,359.208 L208.456,357.976 C208.893336,357.698665 209.383997,357.458668 209.928,357.256 C210.472003,357.053332 211.058664,356.952 211.688,356.952 C212.669338,356.952 213.402664,357.242664 213.888,357.824 C214.373336,358.405336 214.616,359.245328 214.616,360.344 L214.616,365 L213.096,365 L212.968,364.136 L212.904,364.136 C212.551998,364.434668 212.176002,364.685332 211.776,364.888 C211.375998,365.090668 210.941336,365.192 210.472,365.192 Z M211.064,363.752 C211.384002,363.752 211.674665,363.677334 211.936,363.528 C212.197335,363.378666 212.477332,363.165335 212.776,362.888 L212.776,361.128 C212.242664,361.192 211.794668,361.277333 211.432,361.384 C211.069332,361.490667 210.776001,361.610666 210.552,361.744 C210.327999,361.877334 210.168,362.029332 210.072,362.2 C209.976,362.370668 209.928,362.551999 209.928,362.744 C209.928,363.096002 210.034666,363.351999 210.248,363.512 C210.461334,363.672001 210.733332,363.752 211.064,363.752 Z M219.016,365.192 C218.471997,365.192 217.936003,365.088001 217.408,364.88 C216.879997,364.671999 216.424002,364.413335 216.04,364.104 L216.904,362.92 C217.256002,363.197335 217.605332,363.413333 217.952,363.568 C218.298668,363.722667 218.674665,363.8 219.08,363.8 C219.506669,363.8 219.821332,363.712001 220.024,363.536 C220.226668,363.359999 220.328,363.133335 220.328,362.856 C220.328,362.695999 220.28,362.554667 220.184,362.432 C220.088,362.309333 219.960001,362.2 219.8,362.104 C219.639999,362.008 219.458668,361.92 219.256,361.84 C219.053332,361.76 218.850668,361.677334 218.648,361.592 C218.391999,361.496 218.130668,361.384001 217.864,361.256 C217.597332,361.127999 217.360001,360.973334 217.152,360.792 C216.943999,360.610666 216.773334,360.400001 216.64,360.16 C216.506666,359.919999 216.44,359.634668 216.44,359.304 C216.44,358.610663 216.695997,358.045336 217.208,357.608 C217.720003,357.170664 218.418662,356.952 219.304,356.952 C219.848003,356.952 220.338664,357.047999 220.776,357.24 C221.213336,357.432001 221.591998,357.650665 221.912,357.896 L221.064,359.016 C220.786665,358.813332 220.506668,358.650667 220.224,358.528 C219.941332,358.405333 219.645335,358.344 219.336,358.344 C218.941331,358.344 218.650668,358.426666 218.464,358.592 C218.277332,358.757334 218.184,358.962665 218.184,359.208 C218.184,359.368001 218.229333,359.503999 218.32,359.616 C218.410667,359.728001 218.530666,359.826666 218.68,359.912 C218.829334,359.997334 219.002666,360.077333 219.2,360.152 C219.397334,360.226667 219.602666,360.301333 219.816,360.376 C220.082668,360.472 220.349332,360.581333 220.616,360.704 C220.882668,360.826667 221.125332,360.978666 221.344,361.16 C221.562668,361.341334 221.738666,361.562665 221.872,361.824 C222.005334,362.085335 222.072,362.397332 222.072,362.76 C222.072,363.101335 222.005334,363.418665 221.872,363.712 C221.738666,364.005335 221.544001,364.261332 221.288,364.48 C221.031999,364.698668 220.712002,364.871999 220.328,365 C219.943998,365.128001 219.506669,365.192 219.016,365.192 Z M226.936,365.192 C226.445331,365.192 225.976002,365.101334 225.528,364.92 C225.079998,364.738666 224.682668,364.472002 224.336,364.12 C223.989332,363.767998 223.714668,363.336003 223.512,362.824 C223.309332,362.311997 223.208,361.73067 223.208,361.08 C223.208,360.42933 223.309332,359.848003 223.512,359.336 C223.714668,358.823997 223.989332,358.392002 224.336,358.04 C224.682668,357.687998 225.079998,357.418668 225.528,357.232 C225.976002,357.045332 226.445331,356.952 226.936,356.952 C227.426669,356.952 227.898664,357.045332 228.352,357.232 C228.805336,357.418668 229.202665,357.687998 229.544,358.04 C229.885335,358.392002 230.159999,358.823997 230.368,359.336 C230.576001,359.848003 230.68,360.42933 230.68,361.08 C230.68,361.73067 230.576001,362.311997 230.368,362.824 C230.159999,363.336003 229.885335,363.767998 229.544,364.12 C229.202665,364.472002 228.805336,364.738666 228.352,364.92 C227.898664,365.101334 227.426669,365.192 226.936,365.192 Z M226.936,363.688 C227.512003,363.688 227.965332,363.450669 228.296,362.976 C228.626668,362.501331 228.792,361.869337 228.792,361.08 C228.792,360.279996 228.626668,359.642669 228.296,359.168 C227.965332,358.693331 227.512003,358.456 226.936,358.456 C226.359997,358.456 225.909335,358.693331 225.584,359.168 C225.258665,359.642669 225.096,360.279996 225.096,361.08 C225.096,361.869337 225.258665,362.501331 225.584,362.976 C225.909335,363.450669 226.359997,363.688 226.936,363.688 Z M232.504,365 L232.504,357.144 L234.024,357.144 L234.152,358.536 L234.216,358.536 C234.493335,358.023997 234.829331,357.632001 235.224,357.36 C235.618669,357.087999 236.023998,356.952 236.44,356.952 C236.813335,356.952 237.111999,357.005333 237.336,357.112 L237.016,358.712 C236.877333,358.669333 236.749334,358.637333 236.632,358.616 C236.514666,358.594667 236.370668,358.584 236.2,358.584 C235.890665,358.584 235.565335,358.703999 235.224,358.944 C234.882665,359.184001 234.589335,359.602664 234.344,360.2 L234.344,365 L232.504,365 Z M239.256,368.232 C239.042666,368.232 238.856001,368.218667 238.696,368.192 C238.535999,368.165333 238.381334,368.125334 238.232,368.072 L238.568,366.632 C238.642667,366.653333 238.730666,366.677333 238.832,366.704 C238.933334,366.730667 239.032,366.744 239.128,366.744 C239.544002,366.744 239.877332,366.618668 240.128,366.368 C240.378668,366.117332 240.567999,365.794669 240.696,365.4 L240.84,364.904 L237.752,357.144 L239.624,357.144 L240.984,361 C241.101334,361.341335 241.215999,361.701331 241.328,362.08 C241.440001,362.458669 241.554666,362.834665 241.672,363.208 L241.736,363.208 C241.832,362.845332 241.930666,362.474669 242.032,362.096 C242.133334,361.717331 242.232,361.352002 242.328,361 L243.512,357.144 L245.288,357.144 L242.44,365.352 C242.279999,365.800002 242.104001,366.199998 241.912,366.552 C241.719999,366.904002 241.498668,367.205332 241.248,367.456 C240.997332,367.706668 240.709335,367.898666 240.384,368.032 C240.058665,368.165334 239.682669,368.232 239.256,368.232 Z" id="Flexible-Masory" fill="#040D14"></path>
        </g>
        <g id="Group-4" transform="translate(442.000000, 31.000000)">
            <g id="Group-2">
                <rect id="Rectangle-4-Copy" fill="#F4F5F8" x="0" y="0" width="384" height="342"></rect>
                <g id="card/l1" transform="translate(18.000000, 22.000000)">
                    <g id="card">
                        <use fill="black" fill-opacity="1" filter="url(#filter-22)" xlink:href="#path-21"></use>
                        <use fill="#FFFFFF" fill-rule="evenodd" xlink:href="#path-21"></use>
                        <rect stroke="#E9E9E9" stroke-width="1" x="-0.5" y="-0.5" width="107" height="150" rx="1"></rect>
                    </g>
                </g>
                <g id="card/l1" transform="translate(153.000000, 22.000000)">
                    <g id="card">
                        <use fill="black" fill-opacity="1" filter="url(#filter-24)" xlink:href="#path-23"></use>
                        <use fill="#FFFFFF" fill-rule="evenodd" xlink:href="#path-23"></use>
                        <rect stroke="#E9E9E9" stroke-width="1" x="-0.5" y="-0.5" width="207" height="297" rx="1"></rect>
                    </g>
                </g>
            </g>
            <path d="M153.376,365 L153.376,354.536 L159.696,354.536 L159.696,356.104 L155.232,356.104 L155.232,359.064 L159.04,359.064 L159.04,360.632 L155.232,360.632 L155.232,365 L153.376,365 Z M161.376,365 L161.376,357.144 L163.216,357.144 L163.216,365 L161.376,365 Z M162.304,355.768 C161.973332,355.768 161.701334,355.672001 161.488,355.48 C161.274666,355.287999 161.168,355.037335 161.168,354.728 C161.168,354.418665 161.274666,354.165334 161.488,353.968 C161.701334,353.770666 161.973332,353.672 162.304,353.672 C162.634668,353.672 162.906666,353.770666 163.12,353.968 C163.333334,354.165334 163.44,354.418665 163.44,354.728 C163.44,355.037335 163.333334,355.287999 163.12,355.48 C162.906666,355.672001 162.634668,355.768 162.304,355.768 Z M164.624,365 L167.12,360.904 L164.784,357.144 L166.768,357.144 L167.648,358.632 C167.765334,358.845334 167.885333,359.066666 168.008,359.296 C168.130667,359.525334 168.250666,359.746666 168.368,359.96 L168.432,359.96 C168.528,359.746666 168.629333,359.525334 168.736,359.296 C168.842667,359.066666 168.944,358.845334 169.04,358.632 L169.792,357.144 L171.696,357.144 L169.376,361.112 L171.872,365 L169.888,365 L168.928,363.448 C168.799999,363.213332 168.669334,362.978668 168.536,362.744 C168.402666,362.509332 168.266667,362.280001 168.128,362.056 L168.064,362.056 C167.946666,362.280001 167.832001,362.506666 167.72,362.736 C167.607999,362.965334 167.493334,363.202665 167.376,363.448 L166.544,365 L164.624,365 Z M176.272,365.192 C175.727997,365.192 175.221336,365.098668 174.752,364.912 C174.282664,364.725332 173.872002,364.456002 173.52,364.104 C173.167998,363.751998 172.893334,363.322669 172.696,362.816 C172.498666,362.309331 172.4,361.73067 172.4,361.08 C172.4,360.439997 172.501332,359.864003 172.704,359.352 C172.906668,358.839997 173.175998,358.408002 173.512,358.056 C173.848002,357.703998 174.234664,357.432001 174.672,357.24 C175.109336,357.047999 175.557331,356.952 176.016,356.952 C176.549336,356.952 177.018665,357.042666 177.424,357.224 C177.829335,357.405334 178.167999,357.661332 178.44,357.992 C178.712001,358.322668 178.917333,358.717331 179.056,359.176 C179.194667,359.634669 179.264,360.135997 179.264,360.68 C179.264,360.861334 179.256,361.031999 179.24,361.192 C179.224,361.352001 179.205333,361.48 179.184,361.576 L174.192,361.576 C174.277334,362.280004 174.525331,362.821331 174.936,363.2 C175.346669,363.578669 175.871997,363.768 176.512,363.768 C176.853335,363.768 177.170665,363.717334 177.464,363.616 C177.757335,363.514666 178.047999,363.373334 178.336,363.192 L178.96,364.344 C178.586665,364.589335 178.170669,364.791999 177.712,364.952 C177.253331,365.112001 176.773336,365.192 176.272,365.192 Z M174.176,360.328 L177.664,360.328 C177.664,359.719997 177.533335,359.242668 177.272,358.896 C177.010665,358.549332 176.608003,358.376 176.064,358.376 C175.594664,358.376 175.184002,358.541332 174.832,358.872 C174.479998,359.202668 174.261334,359.687997 174.176,360.328 Z M183.776,365.192 C182.783995,365.192 181.997336,364.832004 181.416,364.112 C180.834664,363.391996 180.544,362.38134 180.544,361.08 C180.544,360.439997 180.637332,359.864003 180.824,359.352 C181.010668,358.839997 181.258665,358.408002 181.568,358.056 C181.877335,357.703998 182.231998,357.432001 182.632,357.24 C183.032002,357.047999 183.445331,356.952 183.872,356.952 C184.320002,356.952 184.698665,357.029333 185.008,357.184 C185.317335,357.338667 185.626665,357.549332 185.936,357.816 L185.872,356.552 L185.872,353.704 L187.712,353.704 L187.712,365 L186.192,365 L186.064,364.152 L186,364.152 C185.711999,364.440001 185.376002,364.685332 184.992,364.888 C184.607998,365.090668 184.202669,365.192 183.776,365.192 Z M184.224,363.672 C184.81067,363.672 185.359997,363.37867 185.872,362.792 L185.872,359.128 C185.594665,358.882665 185.325335,358.712 185.064,358.616 C184.802665,358.52 184.538668,358.472 184.272,358.472 C183.759997,358.472 183.328002,358.695998 182.976,359.144 C182.623998,359.592002 182.448,360.231996 182.448,361.064 C182.448,361.917338 182.599998,362.565331 182.904,363.008 C183.208002,363.450669 183.647997,363.672 184.224,363.672 Z M193.408,365 L193.408,354.536 L199.728,354.536 L199.728,356.104 L195.264,356.104 L195.264,359.064 L199.072,359.064 L199.072,360.632 L195.264,360.632 L195.264,365 L193.408,365 Z M204.368,365.192 C203.877331,365.192 203.408002,365.101334 202.96,364.92 C202.511998,364.738666 202.114668,364.472002 201.768,364.12 C201.421332,363.767998 201.146668,363.336003 200.944,362.824 C200.741332,362.311997 200.64,361.73067 200.64,361.08 C200.64,360.42933 200.741332,359.848003 200.944,359.336 C201.146668,358.823997 201.421332,358.392002 201.768,358.04 C202.114668,357.687998 202.511998,357.418668 202.96,357.232 C203.408002,357.045332 203.877331,356.952 204.368,356.952 C204.858669,356.952 205.330664,357.045332 205.784,357.232 C206.237336,357.418668 206.634665,357.687998 206.976,358.04 C207.317335,358.392002 207.591999,358.823997 207.8,359.336 C208.008001,359.848003 208.112,360.42933 208.112,361.08 C208.112,361.73067 208.008001,362.311997 207.8,362.824 C207.591999,363.336003 207.317335,363.767998 206.976,364.12 C206.634665,364.472002 206.237336,364.738666 205.784,364.92 C205.330664,365.101334 204.858669,365.192 204.368,365.192 Z M204.368,363.688 C204.944003,363.688 205.397332,363.450669 205.728,362.976 C206.058668,362.501331 206.224,361.869337 206.224,361.08 C206.224,360.279996 206.058668,359.642669 205.728,359.168 C205.397332,358.693331 204.944003,358.456 204.368,358.456 C203.791997,358.456 203.341335,358.693331 203.016,359.168 C202.690665,359.642669 202.528,360.279996 202.528,361.08 C202.528,361.869337 202.690665,362.501331 203.016,362.976 C203.341335,363.450669 203.791997,363.688 204.368,363.688 Z M213.216,365.192 C212.682664,365.192 212.184002,365.101334 211.72,364.92 C211.255998,364.738666 210.853335,364.472002 210.512,364.12 C210.170665,363.767998 209.904001,363.336003 209.712,362.824 C209.519999,362.311997 209.424,361.73067 209.424,361.08 C209.424,360.42933 209.530666,359.848003 209.744,359.336 C209.957334,358.823997 210.245332,358.392002 210.608,358.04 C210.970668,357.687998 211.389331,357.418668 211.864,357.232 C212.338669,357.045332 212.837331,356.952 213.36,356.952 C213.872003,356.952 214.311998,357.037332 214.68,357.208 C215.048002,357.378668 215.375999,357.586665 215.664,357.832 L214.768,359.032 C214.554666,358.850666 214.344001,358.709334 214.136,358.608 C213.927999,358.506666 213.701335,358.456 213.456,358.456 C212.815997,358.456 212.298669,358.693331 211.904,359.168 C211.509331,359.642669 211.312,360.279996 211.312,361.08 C211.312,361.869337 211.506665,362.501331 211.896,362.976 C212.285335,363.450669 212.78933,363.688 213.408,363.688 C213.717335,363.688 214.007999,363.621334 214.28,363.488 C214.552001,363.354666 214.799999,363.197334 215.024,363.016 L215.776,364.232 C215.402665,364.552002 214.994669,364.791999 214.552,364.952 C214.109331,365.112001 213.664002,365.192 213.216,365.192 Z M219.664,365.192 C218.821329,365.192 218.208002,364.922669 217.824,364.384 C217.439998,363.845331 217.248,363.074672 217.248,362.072 L217.248,357.144 L219.088,357.144 L219.088,361.832 C219.088,362.48267 219.183999,362.941332 219.376,363.208 C219.568001,363.474668 219.877331,363.608 220.304,363.608 C220.645335,363.608 220.946665,363.522668 221.208,363.352 C221.469335,363.181332 221.749332,362.904002 222.048,362.52 L222.048,357.144 L223.888,357.144 L223.888,365 L222.384,365 L222.24,363.848 L222.192,363.848 C221.850665,364.253335 221.480002,364.578665 221.08,364.824 C220.679998,365.069335 220.208003,365.192 219.664,365.192 Z M228.416,365.192 C227.871997,365.192 227.336003,365.088001 226.808,364.88 C226.279997,364.671999 225.824002,364.413335 225.44,364.104 L226.304,362.92 C226.656002,363.197335 227.005332,363.413333 227.352,363.568 C227.698668,363.722667 228.074665,363.8 228.48,363.8 C228.906669,363.8 229.221332,363.712001 229.424,363.536 C229.626668,363.359999 229.728,363.133335 229.728,362.856 C229.728,362.695999 229.68,362.554667 229.584,362.432 C229.488,362.309333 229.360001,362.2 229.2,362.104 C229.039999,362.008 228.858668,361.92 228.656,361.84 C228.453332,361.76 228.250668,361.677334 228.048,361.592 C227.791999,361.496 227.530668,361.384001 227.264,361.256 C226.997332,361.127999 226.760001,360.973334 226.552,360.792 C226.343999,360.610666 226.173334,360.400001 226.04,360.16 C225.906666,359.919999 225.84,359.634668 225.84,359.304 C225.84,358.610663 226.095997,358.045336 226.608,357.608 C227.120003,357.170664 227.818662,356.952 228.704,356.952 C229.248003,356.952 229.738664,357.047999 230.176,357.24 C230.613336,357.432001 230.991998,357.650665 231.312,357.896 L230.464,359.016 C230.186665,358.813332 229.906668,358.650667 229.624,358.528 C229.341332,358.405333 229.045335,358.344 228.736,358.344 C228.341331,358.344 228.050668,358.426666 227.864,358.592 C227.677332,358.757334 227.584,358.962665 227.584,359.208 C227.584,359.368001 227.629333,359.503999 227.72,359.616 C227.810667,359.728001 227.930666,359.826666 228.08,359.912 C228.229334,359.997334 228.402666,360.077333 228.6,360.152 C228.797334,360.226667 229.002666,360.301333 229.216,360.376 C229.482668,360.472 229.749332,360.581333 230.016,360.704 C230.282668,360.826667 230.525332,360.978666 230.744,361.16 C230.962668,361.341334 231.138666,361.562665 231.272,361.824 C231.405334,362.085335 231.472,362.397332 231.472,362.76 C231.472,363.101335 231.405334,363.418665 231.272,363.712 C231.138666,364.005335 230.944001,364.261332 230.688,364.48 C230.431999,364.698668 230.112002,364.871999 229.728,365 C229.343998,365.128001 228.906669,365.192 228.416,365.192 Z" id="Fixed-Focus" fill="#040D14"></path>
        </g>
        <g id="Group-4" transform="translate(442.000000, 431.000000)">
            <g id="Group-2">
                <rect id="Rectangle-4-Copy" fill="#F4F5F8" x="0" y="0" width="384" height="342"></rect>
                <g id="card/l1" transform="translate(18.000000, 22.000000)">
                    <g id="card">
                        <use fill="black" fill-opacity="1" filter="url(#filter-26)" xlink:href="#path-25"></use>
                        <use fill="#FFFFFF" fill-rule="evenodd" xlink:href="#path-25"></use>
                        <rect stroke="#E9E9E9" stroke-width="1" x="-0.5" y="-0.5" width="107" height="74" rx="1"></rect>
                    </g>
                </g>
                <g id="card/l1" transform="translate(140.000000, 22.000000)">
                    <g id="card">
                        <use fill="black" fill-opacity="1" filter="url(#filter-28)" xlink:href="#path-27"></use>
                        <use fill="#FFFFFF" fill-rule="evenodd" xlink:href="#path-27"></use>
                        <rect stroke="#E9E9E9" stroke-width="1" x="-0.5" y="-0.5" width="226" height="74" rx="1"></rect>
                    </g>
                </g>
                <g id="card/l1" transform="translate(18.000000, 218.000000)">
                    <g id="card">
                        <use fill="black" fill-opacity="1" filter="url(#filter-30)" xlink:href="#path-29"></use>
                        <use fill="#FFFFFF" fill-rule="evenodd" xlink:href="#path-29"></use>
                        <rect stroke="#E9E9E9" stroke-width="1" x="-0.5" y="-0.5" width="107" height="104" rx="1"></rect>
                    </g>
                </g>
                <g id="card/l1" transform="translate(140.000000, 218.000000)">
                    <g id="card">
                        <use fill="black" fill-opacity="1" filter="url(#filter-32)" xlink:href="#path-31"></use>
                        <use fill="#FFFFFF" fill-rule="evenodd" xlink:href="#path-31"></use>
                        <rect stroke="#E9E9E9" stroke-width="1" x="-0.5" y="-0.5" width="226" height="104" rx="1"></rect>
                    </g>
                </g>
                <g id="card/l1" transform="translate(18.000000, 109.000000)">
                    <g id="card">
                        <use fill="black" fill-opacity="1" filter="url(#filter-34)" xlink:href="#path-33"></use>
                        <use fill="#FFFFFF" fill-rule="evenodd" xlink:href="#path-33"></use>
                        <rect stroke="#E9E9E9" stroke-width="1" x="-0.5" y="-0.5" width="147" height="94" rx="1"></rect>
                    </g>
                </g>
                <g id="card/l1" transform="translate(178.000000, 109.000000)">
                    <g id="card">
                        <use fill="black" fill-opacity="1" filter="url(#filter-36)" xlink:href="#path-35"></use>
                        <use fill="#FFFFFF" fill-rule="evenodd" xlink:href="#path-35"></use>
                        <rect stroke="#E9E9E9" stroke-width="1" x="-0.5" y="-0.5" width="83" height="94" rx="1"></rect>
                    </g>
                </g>
                <g id="card/l1" transform="translate(273.000000, 109.000000)">
                    <g id="card">
                        <use fill="black" fill-opacity="1" filter="url(#filter-38)" xlink:href="#path-37"></use>
                        <use fill="#FFFFFF" fill-rule="evenodd" xlink:href="#path-37"></use>
                        <rect stroke="#E9E9E9" stroke-width="1" x="-0.5" y="-0.5" width="94" height="94" rx="1"></rect>
                    </g>
                </g>
            </g>
            <path d="M143.832,365 L143.832,354.536 L150.152,354.536 L150.152,356.104 L145.688,356.104 L145.688,359.064 L149.496,359.064 L149.496,360.632 L145.688,360.632 L145.688,365 L143.832,365 Z M151.832,365 L151.832,357.144 L153.672,357.144 L153.672,365 L151.832,365 Z M152.76,355.768 C152.429332,355.768 152.157334,355.672001 151.944,355.48 C151.730666,355.287999 151.624,355.037335 151.624,354.728 C151.624,354.418665 151.730666,354.165334 151.944,353.968 C152.157334,353.770666 152.429332,353.672 152.76,353.672 C153.090668,353.672 153.362666,353.770666 153.576,353.968 C153.789334,354.165334 153.896,354.418665 153.896,354.728 C153.896,355.037335 153.789334,355.287999 153.576,355.48 C153.362666,355.672001 153.090668,355.768 152.76,355.768 Z M155.08,365 L157.576,360.904 L155.24,357.144 L157.224,357.144 L158.104,358.632 C158.221334,358.845334 158.341333,359.066666 158.464,359.296 C158.586667,359.525334 158.706666,359.746666 158.824,359.96 L158.888,359.96 C158.984,359.746666 159.085333,359.525334 159.192,359.296 C159.298667,359.066666 159.4,358.845334 159.496,358.632 L160.248,357.144 L162.152,357.144 L159.832,361.112 L162.328,365 L160.344,365 L159.384,363.448 C159.255999,363.213332 159.125334,362.978668 158.992,362.744 C158.858666,362.509332 158.722667,362.280001 158.584,362.056 L158.52,362.056 C158.402666,362.280001 158.288001,362.506666 158.176,362.736 C158.063999,362.965334 157.949334,363.202665 157.832,363.448 L157,365 L155.08,365 Z M166.728,365.192 C166.183997,365.192 165.677336,365.098668 165.208,364.912 C164.738664,364.725332 164.328002,364.456002 163.976,364.104 C163.623998,363.751998 163.349334,363.322669 163.152,362.816 C162.954666,362.309331 162.856,361.73067 162.856,361.08 C162.856,360.439997 162.957332,359.864003 163.16,359.352 C163.362668,358.839997 163.631998,358.408002 163.968,358.056 C164.304002,357.703998 164.690664,357.432001 165.128,357.24 C165.565336,357.047999 166.013331,356.952 166.472,356.952 C167.005336,356.952 167.474665,357.042666 167.88,357.224 C168.285335,357.405334 168.623999,357.661332 168.896,357.992 C169.168001,358.322668 169.373333,358.717331 169.512,359.176 C169.650667,359.634669 169.72,360.135997 169.72,360.68 C169.72,360.861334 169.712,361.031999 169.696,361.192 C169.68,361.352001 169.661333,361.48 169.64,361.576 L164.648,361.576 C164.733334,362.280004 164.981331,362.821331 165.392,363.2 C165.802669,363.578669 166.327997,363.768 166.968,363.768 C167.309335,363.768 167.626665,363.717334 167.92,363.616 C168.213335,363.514666 168.503999,363.373334 168.792,363.192 L169.416,364.344 C169.042665,364.589335 168.626669,364.791999 168.168,364.952 C167.709331,365.112001 167.229336,365.192 166.728,365.192 Z M164.632,360.328 L168.12,360.328 C168.12,359.719997 167.989335,359.242668 167.728,358.896 C167.466665,358.549332 167.064003,358.376 166.52,358.376 C166.050664,358.376 165.640002,358.541332 165.288,358.872 C164.935998,359.202668 164.717334,359.687997 164.632,360.328 Z M174.232,365.192 C173.239995,365.192 172.453336,364.832004 171.872,364.112 C171.290664,363.391996 171,362.38134 171,361.08 C171,360.439997 171.093332,359.864003 171.28,359.352 C171.466668,358.839997 171.714665,358.408002 172.024,358.056 C172.333335,357.703998 172.687998,357.432001 173.088,357.24 C173.488002,357.047999 173.901331,356.952 174.328,356.952 C174.776002,356.952 175.154665,357.029333 175.464,357.184 C175.773335,357.338667 176.082665,357.549332 176.392,357.816 L176.328,356.552 L176.328,353.704 L178.168,353.704 L178.168,365 L176.648,365 L176.52,364.152 L176.456,364.152 C176.167999,364.440001 175.832002,364.685332 175.448,364.888 C175.063998,365.090668 174.658669,365.192 174.232,365.192 Z M174.68,363.672 C175.26667,363.672 175.815997,363.37867 176.328,362.792 L176.328,359.128 C176.050665,358.882665 175.781335,358.712 175.52,358.616 C175.258665,358.52 174.994668,358.472 174.728,358.472 C174.215997,358.472 173.784002,358.695998 173.432,359.144 C173.079998,359.592002 172.904,360.231996 172.904,361.064 C172.904,361.917338 173.055998,362.565331 173.36,363.008 C173.664002,363.450669 174.103997,363.672 174.68,363.672 Z M183.864,365 L183.864,354.536 L185.96,354.536 L187.816,359.656 C187.933334,359.986668 188.045333,360.325332 188.152,360.672 C188.258667,361.018668 188.370666,361.362665 188.488,361.704 L188.552,361.704 C188.669334,361.362665 188.778666,361.018668 188.88,360.672 C188.981334,360.325332 189.090666,359.986668 189.208,359.656 L191.016,354.536 L193.128,354.536 L193.128,365 L191.416,365 L191.416,360.216 C191.416,359.970665 191.424,359.704001 191.44,359.416 C191.456,359.127999 191.474667,358.837335 191.496,358.544 C191.517333,358.250665 191.544,357.962668 191.576,357.68 C191.608,357.397332 191.634667,357.133335 191.656,356.888 L191.592,356.888 L190.744,359.32 L189.032,364.024 L187.928,364.024 L186.2,359.32 L185.368,356.888 L185.304,356.888 C185.325333,357.133335 185.349333,357.397332 185.376,357.68 C185.402667,357.962668 185.429333,358.250665 185.456,358.544 C185.482667,358.837335 185.504,359.127999 185.52,359.416 C185.536,359.704001 185.544,359.970665 185.544,360.216 L185.544,365 L183.864,365 Z M197.528,365.192 C196.834663,365.192 196.274669,364.981335 195.848,364.56 C195.421331,364.138665 195.208,363.581337 195.208,362.888 C195.208,362.471998 195.295999,362.101335 195.472,361.776 C195.648001,361.450665 195.925331,361.170668 196.304,360.936 C196.682669,360.701332 197.162664,360.504001 197.744,360.344 C198.325336,360.183999 199.021329,360.061334 199.832,359.976 C199.821333,359.773332 199.792,359.578668 199.744,359.392 C199.696,359.205332 199.616001,359.040001 199.504,358.896 C199.391999,358.751999 199.245334,358.64 199.064,358.56 C198.882666,358.48 198.658668,358.44 198.392,358.44 C198.007998,358.44 197.632002,358.514666 197.264,358.664 C196.895998,358.813334 196.536002,358.994666 196.184,359.208 L195.512,357.976 C195.949336,357.698665 196.439997,357.458668 196.984,357.256 C197.528003,357.053332 198.114664,356.952 198.744,356.952 C199.725338,356.952 200.458664,357.242664 200.944,357.824 C201.429336,358.405336 201.672,359.245328 201.672,360.344 L201.672,365 L200.152,365 L200.024,364.136 L199.96,364.136 C199.607998,364.434668 199.232002,364.685332 198.832,364.888 C198.431998,365.090668 197.997336,365.192 197.528,365.192 Z M198.12,363.752 C198.440002,363.752 198.730665,363.677334 198.992,363.528 C199.253335,363.378666 199.533332,363.165335 199.832,362.888 L199.832,361.128 C199.298664,361.192 198.850668,361.277333 198.488,361.384 C198.125332,361.490667 197.832001,361.610666 197.608,361.744 C197.383999,361.877334 197.224,362.029332 197.128,362.2 C197.032,362.370668 196.984,362.551999 196.984,362.744 C196.984,363.096002 197.090666,363.351999 197.304,363.512 C197.517334,363.672001 197.789332,363.752 198.12,363.752 Z M206.072,365.192 C205.527997,365.192 204.992003,365.088001 204.464,364.88 C203.935997,364.671999 203.480002,364.413335 203.096,364.104 L203.96,362.92 C204.312002,363.197335 204.661332,363.413333 205.008,363.568 C205.354668,363.722667 205.730665,363.8 206.136,363.8 C206.562669,363.8 206.877332,363.712001 207.08,363.536 C207.282668,363.359999 207.384,363.133335 207.384,362.856 C207.384,362.695999 207.336,362.554667 207.24,362.432 C207.144,362.309333 207.016001,362.2 206.856,362.104 C206.695999,362.008 206.514668,361.92 206.312,361.84 C206.109332,361.76 205.906668,361.677334 205.704,361.592 C205.447999,361.496 205.186668,361.384001 204.92,361.256 C204.653332,361.127999 204.416001,360.973334 204.208,360.792 C203.999999,360.610666 203.829334,360.400001 203.696,360.16 C203.562666,359.919999 203.496,359.634668 203.496,359.304 C203.496,358.610663 203.751997,358.045336 204.264,357.608 C204.776003,357.170664 205.474662,356.952 206.36,356.952 C206.904003,356.952 207.394664,357.047999 207.832,357.24 C208.269336,357.432001 208.647998,357.650665 208.968,357.896 L208.12,359.016 C207.842665,358.813332 207.562668,358.650667 207.28,358.528 C206.997332,358.405333 206.701335,358.344 206.392,358.344 C205.997331,358.344 205.706668,358.426666 205.52,358.592 C205.333332,358.757334 205.24,358.962665 205.24,359.208 C205.24,359.368001 205.285333,359.503999 205.376,359.616 C205.466667,359.728001 205.586666,359.826666 205.736,359.912 C205.885334,359.997334 206.058666,360.077333 206.256,360.152 C206.453334,360.226667 206.658666,360.301333 206.872,360.376 C207.138668,360.472 207.405332,360.581333 207.672,360.704 C207.938668,360.826667 208.181332,360.978666 208.4,361.16 C208.618668,361.341334 208.794666,361.562665 208.928,361.824 C209.061334,362.085335 209.128,362.397332 209.128,362.76 C209.128,363.101335 209.061334,363.418665 208.928,363.712 C208.794666,364.005335 208.600001,364.261332 208.344,364.48 C208.087999,364.698668 207.768002,364.871999 207.384,365 C206.999998,365.128001 206.562669,365.192 206.072,365.192 Z M213.992,365.192 C213.501331,365.192 213.032002,365.101334 212.584,364.92 C212.135998,364.738666 211.738668,364.472002 211.392,364.12 C211.045332,363.767998 210.770668,363.336003 210.568,362.824 C210.365332,362.311997 210.264,361.73067 210.264,361.08 C210.264,360.42933 210.365332,359.848003 210.568,359.336 C210.770668,358.823997 211.045332,358.392002 211.392,358.04 C211.738668,357.687998 212.135998,357.418668 212.584,357.232 C213.032002,357.045332 213.501331,356.952 213.992,356.952 C214.482669,356.952 214.954664,357.045332 215.408,357.232 C215.861336,357.418668 216.258665,357.687998 216.6,358.04 C216.941335,358.392002 217.215999,358.823997 217.424,359.336 C217.632001,359.848003 217.736,360.42933 217.736,361.08 C217.736,361.73067 217.632001,362.311997 217.424,362.824 C217.215999,363.336003 216.941335,363.767998 216.6,364.12 C216.258665,364.472002 215.861336,364.738666 215.408,364.92 C214.954664,365.101334 214.482669,365.192 213.992,365.192 Z M213.992,363.688 C214.568003,363.688 215.021332,363.450669 215.352,362.976 C215.682668,362.501331 215.848,361.869337 215.848,361.08 C215.848,360.279996 215.682668,359.642669 215.352,359.168 C215.021332,358.693331 214.568003,358.456 213.992,358.456 C213.415997,358.456 212.965335,358.693331 212.64,359.168 C212.314665,359.642669 212.152,360.279996 212.152,361.08 C212.152,361.869337 212.314665,362.501331 212.64,362.976 C212.965335,363.450669 213.415997,363.688 213.992,363.688 Z M219.56,365 L219.56,357.144 L221.08,357.144 L221.208,358.2 L221.272,358.2 C221.624002,357.858665 222.005331,357.565335 222.416,357.32 C222.826669,357.074665 223.303997,356.952 223.848,356.952 C224.690671,356.952 225.303998,357.221331 225.688,357.76 C226.072002,358.298669 226.264,359.069328 226.264,360.072 L226.264,365 L224.424,365 L224.424,360.312 C224.424,359.66133 224.328001,359.202668 224.136,358.936 C223.943999,358.669332 223.629336,358.536 223.192,358.536 C222.850665,358.536 222.549335,358.618666 222.288,358.784 C222.026665,358.949334 221.730668,359.191998 221.4,359.512 L221.4,365 L219.56,365 Z M228.52,365 L228.52,357.144 L230.04,357.144 L230.168,358.536 L230.232,358.536 C230.509335,358.023997 230.845331,357.632001 231.24,357.36 C231.634669,357.087999 232.039998,356.952 232.456,356.952 C232.829335,356.952 233.127999,357.005333 233.352,357.112 L233.032,358.712 C232.893333,358.669333 232.765334,358.637333 232.648,358.616 C232.530666,358.594667 232.386668,358.584 232.216,358.584 C231.906665,358.584 231.581335,358.703999 231.24,358.944 C230.898665,359.184001 230.605335,359.602664 230.36,360.2 L230.36,365 L228.52,365 Z M235.272,368.232 C235.058666,368.232 234.872001,368.218667 234.712,368.192 C234.551999,368.165333 234.397334,368.125334 234.248,368.072 L234.584,366.632 C234.658667,366.653333 234.746666,366.677333 234.848,366.704 C234.949334,366.730667 235.048,366.744 235.144,366.744 C235.560002,366.744 235.893332,366.618668 236.144,366.368 C236.394668,366.117332 236.583999,365.794669 236.712,365.4 L236.856,364.904 L233.768,357.144 L235.64,357.144 L237,361 C237.117334,361.341335 237.231999,361.701331 237.344,362.08 C237.456001,362.458669 237.570666,362.834665 237.688,363.208 L237.752,363.208 C237.848,362.845332 237.946666,362.474669 238.048,362.096 C238.149334,361.717331 238.248,361.352002 238.344,361 L239.528,357.144 L241.304,357.144 L238.456,365.352 C238.295999,365.800002 238.120001,366.199998 237.928,366.552 C237.735999,366.904002 237.514668,367.205332 237.264,367.456 C237.013332,367.706668 236.725335,367.898666 236.4,368.032 C236.074665,368.165334 235.698669,368.232 235.272,368.232 Z" id="Fixed-Masonry" fill="#040D14"></path>
        </g>
    </g>
</svg>