<?xml version="1.0" encoding="UTF-8"?>
<svg width="860px" height="356px" viewBox="0 0 860 356" version="1.1" xmlns="http://www.w3.org/2000/svg" xmlns:xlink="http://www.w3.org/1999/xlink">
    <!-- Generator: Sketch 49.3 (51167) - http://www.bohemiancoding.com/sketch -->
    <title>architecture_1pt</title>
    <desc>Created with Sketch.</desc>
    <defs></defs>
    <g id="architecture_1pt" stroke="none" stroke-width="1" fill="none" fill-rule="evenodd">
        <rect id="Rectangle" fill="#AFAFAF" x="56" y="84" width="180" height="180"></rect>
        <rect id="Rectangle-Copy" fill="#919191" x="341" y="84" width="84" height="84"></rect>
        <rect id="Rectangle-Copy" fill="#919191" x="435" y="84" width="84" height="84"></rect>
        <rect id="Rectangle-Copy" fill="#919191" x="341" y="179" width="84" height="84"></rect>
        <rect id="Rectangle-Copy" fill="#919191" x="435" y="179" width="84" height="84"></rect>
        <rect id="Rectangle-Copy" fill="#777777" x="626" y="83" width="54" height="54"></rect>
        <rect id="Rectangle-Copy" fill="#777777" x="689" y="83" width="54" height="54"></rect>
        <rect id="Rectangle-Copy" fill="#777777" x="752" y="83" width="54" height="54"></rect>
        <rect id="Rectangle-Copy" fill="#777777" x="626" y="146" width="54" height="54"></rect>
        <rect id="Rectangle-Copy" fill="#777777" x="689" y="146" width="54" height="54"></rect>
        <rect id="Rectangle-Copy" fill="#777777" x="752" y="146" width="54" height="54"></rect>
        <rect id="Rectangle-Copy" fill="#777777" x="626" y="209" width="54" height="54"></rect>
        <rect id="Rectangle-Copy" fill="#777777" x="689" y="209" width="54" height="54"></rect>
        <rect id="Rectangle-Copy" fill="#777777" x="752" y="209" width="54" height="54"></rect>
        <g id="Group" transform="translate(56.000000, 53.000000)">
            <path d="M179.5,10.5 L0.498599443,10.5" id="Line" stroke="#3399FF" stroke-linecap="square"></path>
            <rect id="Rectangle-2" fill="#FFFFFF" x="67" y="0" width="44" height="20" rx="1"></rect>
            <path d="M76.959,15 L76.959,12.858 L79.443,12.858 L79.443,6.252 L77.301,6.252 L77.301,4.614 C77.9250031,4.4939994 78.4529978,4.35000084 78.885,4.182 C79.3170022,4.01399916 79.736998,3.8100012 80.145,3.57 L82.089,3.57 L82.089,12.858 L84.231,12.858 L84.231,15 L76.959,15 Z M86.373,18.312 L86.373,6.072 L88.533,6.072 L88.713,6.954 L88.785,6.954 C89.1330017,6.64199844 89.5259978,6.38100105 89.964,6.171 C90.4020022,5.96099895 90.8549977,5.856 91.323,5.856 C91.8630027,5.856 92.3489978,5.96399892 92.781,6.18 C93.2130022,6.39600108 93.5789985,6.70199802 93.879,7.098 C94.1790015,7.49400198 94.4099992,7.97099721 94.572,8.529 C94.7340008,9.08700279 94.815,9.70799658 94.815,10.392 C94.815,11.1600038 94.7100011,11.840997 94.5,12.435 C94.289999,13.029003 94.0080018,13.5329979 93.654,13.947 C93.2999982,14.3610021 92.8980023,14.6759989 92.448,14.892 C91.9979978,15.1080011 91.5330024,15.216 91.053,15.216 C90.6689981,15.216 90.2970018,15.1350008 89.937,14.973 C89.5769982,14.8109992 89.2410016,14.5800015 88.929,14.28 L89.019,15.702 L89.019,18.312 L86.373,18.312 Z M90.441,13.056 C90.8970023,13.056 91.2869984,12.8490021 91.611,12.435 C91.9350016,12.0209979 92.097,11.3520046 92.097,10.428 C92.097,8.81999196 91.5810052,8.016 90.549,8.016 C90.0329974,8.016 89.5230025,8.2859973 89.019,8.826 L89.019,12.48 C89.2590012,12.6960011 89.4989988,12.8459996 89.739,12.93 C89.9790012,13.0140004 90.2129989,13.056 90.441,13.056 Z M95.301,15 L98.037,10.356 L95.463,6.072 L98.307,6.072 L99.099,7.512 C99.2190006,7.76400126 99.3419994,8.01899871 99.468,8.277 C99.5940006,8.53500129 99.7229993,8.78999874 99.855,9.042 L99.927,9.042 C100.023,8.78999874 100.124999,8.53500129 100.233,8.277 C100.341001,8.01899871 100.443,7.76400126 100.539,7.512 L101.151,6.072 L103.887,6.072 L101.295,10.662 L104.049,15 L101.205,15 L100.341,13.524 C100.196999,13.2719987 100.056001,13.0140013 99.918,12.75 C99.7799993,12.4859987 99.6390007,12.2280013 99.495,11.976 L99.423,11.976 C99.3149995,12.2280013 99.2010006,12.4829987 99.081,12.741 C98.9609994,12.9990013 98.8470005,13.2599987 98.739,13.524 L98.037,15 L95.301,15 Z" id="1px" fill="#3399FF"></path>
        </g>
        <g id="Group" transform="translate(36.500000, 173.500000) rotate(-90.000000) translate(-36.500000, -173.500000) translate(-53.500000, 163.500000)">
            <path d="M179.5,10.5 L0.498599443,10.5" id="Line" stroke="#3399FF" stroke-linecap="square"></path>
            <rect id="Rectangle-2" fill="#FFFFFF" x="67" y="0" width="44" height="20" rx="1"></rect>
            <path d="M76.959,15 L76.959,12.858 L79.443,12.858 L79.443,6.252 L77.301,6.252 L77.301,4.614 C77.9250031,4.4939994 78.4529978,4.35000084 78.885,4.182 C79.3170022,4.01399916 79.736998,3.8100012 80.145,3.57 L82.089,3.57 L82.089,12.858 L84.231,12.858 L84.231,15 L76.959,15 Z M86.373,18.312 L86.373,6.072 L88.533,6.072 L88.713,6.954 L88.785,6.954 C89.1330017,6.64199844 89.5259978,6.38100105 89.964,6.171 C90.4020022,5.96099895 90.8549977,5.856 91.323,5.856 C91.8630027,5.856 92.3489978,5.96399892 92.781,6.18 C93.2130022,6.39600108 93.5789985,6.70199802 93.879,7.098 C94.1790015,7.49400198 94.4099992,7.97099721 94.572,8.529 C94.7340008,9.08700279 94.815,9.70799658 94.815,10.392 C94.815,11.1600038 94.7100011,11.840997 94.5,12.435 C94.289999,13.029003 94.0080018,13.5329979 93.654,13.947 C93.2999982,14.3610021 92.8980023,14.6759989 92.448,14.892 C91.9979978,15.1080011 91.5330024,15.216 91.053,15.216 C90.6689981,15.216 90.2970018,15.1350008 89.937,14.973 C89.5769982,14.8109992 89.2410016,14.5800015 88.929,14.28 L89.019,15.702 L89.019,18.312 L86.373,18.312 Z M90.441,13.056 C90.8970023,13.056 91.2869984,12.8490021 91.611,12.435 C91.9350016,12.0209979 92.097,11.3520046 92.097,10.428 C92.097,8.81999196 91.5810052,8.016 90.549,8.016 C90.0329974,8.016 89.5230025,8.2859973 89.019,8.826 L89.019,12.48 C89.2590012,12.6960011 89.4989988,12.8459996 89.739,12.93 C89.9790012,13.0140004 90.2129989,13.056 90.441,13.056 Z M95.301,15 L98.037,10.356 L95.463,6.072 L98.307,6.072 L99.099,7.512 C99.2190006,7.76400126 99.3419994,8.01899871 99.468,8.277 C99.5940006,8.53500129 99.7229993,8.78999874 99.855,9.042 L99.927,9.042 C100.023,8.78999874 100.124999,8.53500129 100.233,8.277 C100.341001,8.01899871 100.443,7.76400126 100.539,7.512 L101.151,6.072 L103.887,6.072 L101.295,10.662 L104.049,15 L101.205,15 L100.341,13.524 C100.196999,13.2719987 100.056001,13.0140013 99.918,12.75 C99.7799993,12.4859987 99.6390007,12.2280013 99.495,11.976 L99.423,11.976 C99.3149995,12.2280013 99.2010006,12.4829987 99.081,12.741 C98.9609994,12.9990013 98.8470005,13.2599987 98.739,13.524 L98.037,15 L95.301,15 Z" id="1px" fill="#3399FF"></path>
        </g>
        <g id="Group" transform="translate(319.500000, 173.500000) rotate(-90.000000) translate(-319.500000, -173.500000) translate(229.500000, 163.500000)">
            <path d="M179.5,10.5 L0.498599443,10.5" id="Line" stroke="#3399FF" stroke-linecap="square"></path>
            <rect id="Rectangle-2" fill="#FFFFFF" x="67" y="0" width="44" height="20" rx="1"></rect>
            <path d="M76.365,15 L76.365,13.488 C77.0970037,12.8039966 77.765997,12.165003 78.372,11.571 C78.978003,10.976997 79.4999978,10.4190026 79.938,9.897 C80.3760022,9.37499739 80.7179988,8.88900225 80.964,8.439 C81.2100012,7.98899775 81.333,7.56000204 81.333,7.152 C81.333,6.58799718 81.1890014,6.15900147 80.901,5.865 C80.6129986,5.57099853 80.2170025,5.424 79.713,5.424 C79.2929979,5.424 78.9210016,5.54099883 78.597,5.775 C78.2729984,6.00900117 77.9670014,6.28199844 77.679,6.594 L76.239,5.172 C76.8030028,4.571997 77.3789971,4.11900153 77.967,3.813 C78.5550029,3.50699847 79.2569959,3.354 80.073,3.354 C80.6370028,3.354 81.1499977,3.44099913 81.612,3.615 C82.0740023,3.78900087 82.4729983,4.03499841 82.809,4.353 C83.1450017,4.67100159 83.4029991,5.05199778 83.583,5.496 C83.7630009,5.94000222 83.853,6.43799724 83.853,6.99 C83.853,7.4700024 83.751001,7.95899751 83.547,8.457 C83.342999,8.95500249 83.0700017,9.45299751 82.728,9.951 C82.3859983,10.4490025 81.9960022,10.9469975 81.558,11.445 C81.1199978,11.9430025 80.6670023,12.4319976 80.199,12.912 C80.4870014,12.8759998 80.8079982,12.8430002 81.162,12.813 C81.5160018,12.7829999 81.8309986,12.768 82.107,12.768 L84.411,12.768 L84.411,15 L76.365,15 Z M86.373,18.312 L86.373,6.072 L88.533,6.072 L88.713,6.954 L88.785,6.954 C89.1330017,6.64199844 89.5259978,6.38100105 89.964,6.171 C90.4020022,5.96099895 90.8549977,5.856 91.323,5.856 C91.8630027,5.856 92.3489978,5.96399892 92.781,6.18 C93.2130022,6.39600108 93.5789985,6.70199802 93.879,7.098 C94.1790015,7.49400198 94.4099992,7.97099721 94.572,8.529 C94.7340008,9.08700279 94.815,9.70799658 94.815,10.392 C94.815,11.1600038 94.7100011,11.840997 94.5,12.435 C94.2899989,13.029003 94.0080018,13.5329979 93.654,13.947 C93.2999982,14.3610021 92.8980023,14.6759989 92.448,14.892 C91.9979978,15.1080011 91.5330024,15.216 91.053,15.216 C90.6689981,15.216 90.2970018,15.1350008 89.937,14.973 C89.5769982,14.8109992 89.2410016,14.5800015 88.929,14.28 L89.019,15.702 L89.019,18.312 L86.373,18.312 Z M90.441,13.056 C90.8970023,13.056 91.2869984,12.8490021 91.611,12.435 C91.9350016,12.0209979 92.097,11.3520046 92.097,10.428 C92.097,8.81999196 91.5810052,8.016 90.549,8.016 C90.0329974,8.016 89.5230025,8.2859973 89.019,8.826 L89.019,12.48 C89.2590012,12.6960011 89.4989988,12.8459996 89.739,12.93 C89.9790012,13.0140004 90.2129989,13.056 90.441,13.056 Z M95.301,15 L98.037,10.356 L95.463,6.072 L98.307,6.072 L99.099,7.512 C99.2190006,7.76400126 99.3419994,8.01899871 99.468,8.277 C99.5940006,8.53500129 99.7229993,8.78999874 99.855,9.042 L99.927,9.042 C100.023,8.78999874 100.124999,8.53500129 100.233,8.277 C100.341001,8.01899871 100.443,7.76400126 100.539,7.512 L101.151,6.072 L103.887,6.072 L101.295,10.662 L104.049,15 L101.205,15 L100.341,13.524 C100.196999,13.2719987 100.056001,13.0140013 99.918,12.75 C99.7799993,12.4859987 99.6390007,12.2280013 99.495,11.976 L99.423,11.976 C99.3149995,12.2280013 99.2010006,12.4829987 99.081,12.741 C98.9609994,12.9990013 98.8470005,13.2599987 98.739,13.524 L98.037,15 L95.301,15 Z" id="2px" fill="#3399FF"></path>
        </g>
        <g id="Group" transform="translate(605.500000, 173.500000) rotate(-90.000000) translate(-605.500000, -173.500000) translate(515.500000, 163.500000)">
            <path d="M179.5,10.5 L0.498599443,10.5" id="Line" stroke="#3399FF" stroke-linecap="square"></path>
            <rect id="Rectangle-2" fill="#FFFFFF" x="67" y="0" width="44" height="20" rx="1"></rect>
            <path d="M80.073,15.216 C79.1369953,15.216 78.3450032,15.0690015 77.697,14.775 C77.0489968,14.4809985 76.5150021,14.0880025 76.095,13.596 L77.319,11.922 C77.6670017,12.2580017 78.0479979,12.5339989 78.462,12.75 C78.8760021,12.9660011 79.3289975,13.074 79.821,13.074 C80.3850028,13.074 80.8349983,12.9570012 81.171,12.723 C81.5070017,12.4889988 81.675,12.1560022 81.675,11.724 C81.675,11.4719987 81.6300004,11.244001 81.54,11.04 C81.4499996,10.835999 81.2910011,10.6650007 81.063,10.527 C80.8349989,10.3889993 80.523002,10.2810004 80.127,10.203 C79.730998,10.1249996 79.2210031,10.086 78.597,10.086 L78.597,8.214 C79.1130026,8.214 79.5419983,8.17800036 79.884,8.106 C80.2260017,8.03399964 80.501999,7.92900069 80.712,7.791 C80.9220011,7.65299931 81.0719996,7.49100093 81.162,7.305 C81.2520004,7.11899907 81.297,6.91200114 81.297,6.684 C81.297,6.28799802 81.1770012,5.97900111 80.937,5.757 C80.6969988,5.53499889 80.3490023,5.424 79.893,5.424 C79.484998,5.424 79.1160017,5.5139991 78.786,5.694 C78.4559984,5.8740009 78.1110018,6.11999844 77.751,6.432 L76.419,4.812 C76.9470026,4.35599772 77.5019971,3.99900129 78.084,3.741 C78.6660029,3.48299871 79.3109965,3.354 80.019,3.354 C80.6070029,3.354 81.1439976,3.42299931 81.63,3.561 C82.1160024,3.69900069 82.5299983,3.90299865 82.872,4.173 C83.2140017,4.44300135 83.480999,4.76999808 83.673,5.154 C83.865001,5.53800192 83.961,5.98199748 83.961,6.486 C83.961,7.086003 83.7960016,7.59299793 83.466,8.007 C83.1359984,8.42100207 82.6650031,8.75999868 82.053,9.024 L82.053,9.096 C82.7130033,9.28800096 83.2559979,9.61499769 83.682,10.077 C84.1080021,10.5390023 84.321,11.1419963 84.321,11.886 C84.321,12.4140026 84.2070011,12.8849979 83.979,13.299 C83.7509989,13.7130021 83.4450019,14.0609986 83.061,14.343 C82.6769981,14.6250014 82.2270026,14.8409993 81.711,14.991 C81.1949974,15.1410008 80.6490029,15.216 80.073,15.216 Z M86.373,18.312 L86.373,6.072 L88.533,6.072 L88.713,6.954 L88.785,6.954 C89.1330017,6.64199844 89.5259978,6.38100105 89.964,6.171 C90.4020022,5.96099895 90.8549977,5.856 91.323,5.856 C91.8630027,5.856 92.3489978,5.96399892 92.781,6.18 C93.2130022,6.39600108 93.5789985,6.70199802 93.879,7.098 C94.1790015,7.49400198 94.4099992,7.97099721 94.572,8.529 C94.7340008,9.08700279 94.815,9.70799658 94.815,10.392 C94.815,11.1600038 94.7100011,11.840997 94.5,12.435 C94.2899989,13.029003 94.0080018,13.5329979 93.654,13.947 C93.2999982,14.3610021 92.8980023,14.6759989 92.448,14.892 C91.9979978,15.1080011 91.5330024,15.216 91.053,15.216 C90.6689981,15.216 90.2970018,15.1350008 89.937,14.973 C89.5769982,14.8109992 89.2410016,14.5800015 88.929,14.28 L89.019,15.702 L89.019,18.312 L86.373,18.312 Z M90.441,13.056 C90.8970023,13.056 91.2869984,12.8490021 91.611,12.435 C91.9350016,12.0209979 92.097,11.3520046 92.097,10.428 C92.097,8.81999196 91.5810052,8.016 90.549,8.016 C90.0329974,8.016 89.5230025,8.2859973 89.019,8.826 L89.019,12.48 C89.2590012,12.6960011 89.4989988,12.8459996 89.739,12.93 C89.9790012,13.0140004 90.2129989,13.056 90.441,13.056 Z M95.301,15 L98.037,10.356 L95.463,6.072 L98.307,6.072 L99.099,7.512 C99.2190006,7.76400126 99.3419994,8.01899871 99.468,8.277 C99.5940006,8.53500129 99.7229993,8.78999874 99.855,9.042 L99.927,9.042 C100.023,8.78999874 100.124999,8.53500129 100.233,8.277 C100.341001,8.01899871 100.443,7.76400126 100.539,7.512 L101.151,6.072 L103.887,6.072 L101.295,10.662 L104.049,15 L101.205,15 L100.341,13.524 C100.196999,13.2719987 100.056001,13.0140013 99.918,12.75 C99.7799993,12.4859987 99.6390007,12.2280013 99.495,11.976 L99.423,11.976 C99.3149995,12.2280013 99.2010006,12.4829987 99.081,12.741 C98.9609994,12.9990013 98.8470005,13.2599987 98.739,13.524 L98.037,15 L95.301,15 Z" id="3px" fill="#3399FF"></path>
        </g>
        <g id="Group" transform="translate(340.000000, 53.000000)">
            <path d="M179.5,10.5 L0.498599443,10.5" id="Line" stroke="#3399FF" stroke-linecap="square"></path>
            <rect id="Rectangle-2" fill="#FFFFFF" x="67" y="0" width="44" height="20" rx="1"></rect>
            <path d="M76.365,15 L76.365,13.488 C77.0970037,12.8039966 77.765997,12.165003 78.372,11.571 C78.978003,10.976997 79.4999978,10.4190026 79.938,9.897 C80.3760022,9.37499739 80.7179988,8.88900225 80.964,8.439 C81.2100012,7.98899775 81.333,7.56000204 81.333,7.152 C81.333,6.58799718 81.1890014,6.15900147 80.901,5.865 C80.6129986,5.57099853 80.2170025,5.424 79.713,5.424 C79.2929979,5.424 78.9210016,5.54099883 78.597,5.775 C78.2729984,6.00900117 77.9670014,6.28199844 77.679,6.594 L76.239,5.172 C76.8030028,4.571997 77.3789971,4.11900153 77.967,3.813 C78.5550029,3.50699847 79.2569959,3.354 80.073,3.354 C80.6370028,3.354 81.1499977,3.44099913 81.612,3.615 C82.0740023,3.78900087 82.4729983,4.03499841 82.809,4.353 C83.1450017,4.67100159 83.4029991,5.05199778 83.583,5.496 C83.7630009,5.94000222 83.853,6.43799724 83.853,6.99 C83.853,7.4700024 83.751001,7.95899751 83.547,8.457 C83.342999,8.95500249 83.0700017,9.45299751 82.728,9.951 C82.3859983,10.4490025 81.9960022,10.9469975 81.558,11.445 C81.1199978,11.9430025 80.6670023,12.4319976 80.199,12.912 C80.4870014,12.8759998 80.8079982,12.8430001 81.162,12.813 C81.5160018,12.7829998 81.8309986,12.768 82.107,12.768 L84.411,12.768 L84.411,15 L76.365,15 Z M86.373,18.312 L86.373,6.072 L88.533,6.072 L88.713,6.954 L88.785,6.954 C89.1330017,6.64199844 89.5259978,6.38100105 89.964,6.171 C90.4020022,5.96099895 90.8549977,5.856 91.323,5.856 C91.8630027,5.856 92.3489978,5.96399892 92.781,6.18 C93.2130022,6.39600108 93.5789985,6.70199802 93.879,7.098 C94.1790015,7.49400198 94.4099992,7.97099721 94.572,8.529 C94.7340008,9.08700279 94.815,9.70799658 94.815,10.392 C94.815,11.1600038 94.7100011,11.840997 94.5,12.435 C94.2899989,13.029003 94.0080018,13.5329979 93.654,13.947 C93.2999982,14.3610021 92.8980023,14.6759989 92.448,14.892 C91.9979978,15.1080011 91.5330024,15.216 91.053,15.216 C90.6689981,15.216 90.2970018,15.1350008 89.937,14.973 C89.5769982,14.8109992 89.2410016,14.5800015 88.929,14.28 L89.019,15.702 L89.019,18.312 L86.373,18.312 Z M90.441,13.056 C90.8970023,13.056 91.2869984,12.8490021 91.611,12.435 C91.9350016,12.0209979 92.097,11.3520046 92.097,10.428 C92.097,8.81999196 91.5810052,8.016 90.549,8.016 C90.0329974,8.016 89.5230025,8.2859973 89.019,8.826 L89.019,12.48 C89.2590012,12.6960011 89.4989988,12.8459996 89.739,12.93 C89.9790012,13.0140004 90.2129989,13.056 90.441,13.056 Z M95.301,15 L98.037,10.356 L95.463,6.072 L98.307,6.072 L99.099,7.512 C99.2190006,7.76400126 99.3419994,8.01899871 99.468,8.277 C99.5940006,8.53500129 99.7229993,8.78999874 99.855,9.042 L99.927,9.042 C100.023,8.78999874 100.124999,8.53500129 100.233,8.277 C100.341001,8.01899871 100.443,7.76400126 100.539,7.512 L101.151,6.072 L103.887,6.072 L101.295,10.662 L104.049,15 L101.205,15 L100.341,13.524 C100.196999,13.2719987 100.056001,13.0140013 99.918,12.75 C99.7799993,12.4859987 99.6390007,12.2280013 99.495,11.976 L99.423,11.976 C99.3149995,12.2280013 99.2010006,12.4829987 99.081,12.741 C98.9609994,12.9990013 98.8470005,13.2599987 98.739,13.524 L98.037,15 L95.301,15 Z" id="2px" fill="#3399FF"></path>
        </g>
        <g id="Group" transform="translate(626.000000, 53.000000)">
            <path d="M179.5,10.5 L0.498599443,10.5" id="Line" stroke="#3399FF" stroke-linecap="square"></path>
            <rect id="Rectangle-2" fill="#FFFFFF" x="67" y="0" width="44" height="20" rx="1"></rect>
            <path d="M80.073,15.216 C79.1369953,15.216 78.3450032,15.0690015 77.697,14.775 C77.0489968,14.4809985 76.5150021,14.0880025 76.095,13.596 L77.319,11.922 C77.6670017,12.2580017 78.0479979,12.5339989 78.462,12.75 C78.8760021,12.9660011 79.3289975,13.074 79.821,13.074 C80.3850028,13.074 80.8349983,12.9570012 81.171,12.723 C81.5070017,12.4889988 81.675,12.1560022 81.675,11.724 C81.675,11.4719987 81.6300004,11.244001 81.54,11.04 C81.4499996,10.835999 81.2910011,10.6650007 81.063,10.527 C80.8349989,10.3889993 80.523002,10.2810004 80.127,10.203 C79.730998,10.1249996 79.2210031,10.086 78.597,10.086 L78.597,8.214 C79.1130026,8.214 79.5419983,8.17800036 79.884,8.106 C80.2260017,8.03399964 80.501999,7.92900069 80.712,7.791 C80.9220011,7.65299931 81.0719996,7.49100093 81.162,7.305 C81.2520004,7.11899907 81.297,6.91200114 81.297,6.684 C81.297,6.28799802 81.1770012,5.97900111 80.937,5.757 C80.6969988,5.53499889 80.3490023,5.424 79.893,5.424 C79.484998,5.424 79.1160017,5.5139991 78.786,5.694 C78.4559984,5.8740009 78.1110018,6.11999844 77.751,6.432 L76.419,4.812 C76.9470026,4.35599772 77.5019971,3.99900129 78.084,3.741 C78.6660029,3.48299871 79.3109965,3.354 80.019,3.354 C80.6070029,3.354 81.1439976,3.42299931 81.63,3.561 C82.1160024,3.69900069 82.5299983,3.90299865 82.872,4.173 C83.2140017,4.44300135 83.480999,4.76999808 83.673,5.154 C83.865001,5.53800192 83.961,5.98199748 83.961,6.486 C83.961,7.086003 83.7960016,7.59299793 83.466,8.007 C83.1359984,8.42100207 82.6650031,8.75999868 82.053,9.024 L82.053,9.096 C82.7130033,9.28800096 83.2559979,9.61499769 83.682,10.077 C84.1080021,10.5390023 84.321,11.1419963 84.321,11.886 C84.321,12.4140026 84.2070011,12.8849979 83.979,13.299 C83.7509989,13.7130021 83.4450019,14.0609986 83.061,14.343 C82.6769981,14.6250014 82.2270026,14.8409992 81.711,14.991 C81.1949974,15.1410007 80.6490029,15.216 80.073,15.216 Z M86.373,18.312 L86.373,6.072 L88.533,6.072 L88.713,6.954 L88.785,6.954 C89.1330017,6.64199844 89.5259978,6.38100105 89.964,6.171 C90.4020022,5.96099895 90.8549977,5.856 91.323,5.856 C91.8630027,5.856 92.3489978,5.96399892 92.781,6.18 C93.2130022,6.39600108 93.5789985,6.70199802 93.879,7.098 C94.1790015,7.49400198 94.4099992,7.97099721 94.572,8.529 C94.7340008,9.08700279 94.815,9.70799658 94.815,10.392 C94.815,11.1600038 94.7100011,11.840997 94.5,12.435 C94.2899989,13.029003 94.0080018,13.5329979 93.654,13.947 C93.2999982,14.3610021 92.8980023,14.6759989 92.448,14.892 C91.9979978,15.1080011 91.5330024,15.216 91.053,15.216 C90.6689981,15.216 90.2970018,15.1350008 89.937,14.973 C89.5769982,14.8109992 89.2410016,14.5800015 88.929,14.28 L89.019,15.702 L89.019,18.312 L86.373,18.312 Z M90.441,13.056 C90.8970023,13.056 91.2869984,12.8490021 91.611,12.435 C91.9350016,12.0209979 92.097,11.3520046 92.097,10.428 C92.097,8.81999196 91.5810052,8.016 90.549,8.016 C90.0329974,8.016 89.5230025,8.2859973 89.019,8.826 L89.019,12.48 C89.2590012,12.6960011 89.4989988,12.8459996 89.739,12.93 C89.9790012,13.0140004 90.2129989,13.056 90.441,13.056 Z M95.301,15 L98.037,10.356 L95.463,6.072 L98.307,6.072 L99.099,7.512 C99.2190006,7.76400126 99.3419994,8.01899871 99.468,8.277 C99.5940006,8.53500129 99.7229993,8.78999874 99.855,9.042 L99.927,9.042 C100.023,8.78999874 100.124999,8.53500129 100.233,8.277 C100.341001,8.01899871 100.443,7.76400126 100.539,7.512 L101.151,6.072 L103.887,6.072 L101.295,10.662 L104.049,15 L101.205,15 L100.341,13.524 C100.196999,13.2719987 100.056001,13.0140013 99.918,12.75 C99.7799993,12.4859987 99.6390007,12.2280013 99.495,11.976 L99.423,11.976 C99.3149995,12.2280013 99.2010006,12.4829987 99.081,12.741 C98.9609994,12.9990013 98.8470005,13.2599987 98.739,13.524 L98.037,15 L95.301,15 Z" id="3px" fill="#3399FF"></path>
        </g>
        <path d="M128.576,313.504 C126.975992,313.504 125.445341,313.258669 123.984,312.768 C122.522659,312.277331 121.232006,311.530672 120.112,310.528 C118.991994,309.525328 118.101337,308.272008 117.44,306.768 C116.778663,305.263992 116.448,303.48801 116.448,301.44 C116.448,299.199989 116.831996,297.168009 117.6,295.344 C118.368004,293.519991 119.407993,291.95734 120.72,290.656 C122.032007,289.35466 123.562658,288.352004 125.312,287.648 C127.061342,286.943996 128.917324,286.592 130.88,286.592 C132.608009,286.592 134.17066,286.869331 135.568,287.424 C136.96534,287.978669 138.154662,288.762662 139.136,289.776 C140.117338,290.789338 140.874664,291.99466 141.408,293.392 C141.941336,294.78934 142.208,296.319992 142.208,297.984 C142.208,299.456007 141.984002,300.741328 141.536,301.84 C141.087998,302.938672 140.512004,303.855996 139.808,304.592 C139.103996,305.328004 138.320004,305.877332 137.456,306.24 C136.591996,306.602668 135.744004,306.784 134.912,306.784 C133.994662,306.784 133.19467,306.570669 132.512,306.144 C131.82933,305.717331 131.402668,305.120004 131.232,304.352 L131.168,304.352 C130.719998,304.97067 130.133337,305.477331 129.408,305.872 C128.682663,306.266669 127.989337,306.464 127.328,306.464 C126.047994,306.464 125.024004,306.032004 124.256,305.168 C123.487996,304.303996 123.104,303.136007 123.104,301.664 C123.104,300.682662 123.269332,299.722671 123.6,298.784 C123.930668,297.845329 124.383997,297.008004 124.96,296.272 C125.536003,295.535996 126.218663,294.944002 127.008,294.496 C127.797337,294.047998 128.650662,293.824 129.568,293.824 C130.101336,293.824 130.570665,293.946665 130.976,294.192 C131.381335,294.437335 131.722665,294.847997 132,295.424 L132.064,295.424 L132.512,294.08 L135.424,294.08 L133.952,301.12 C133.503998,302.954676 133.99466,303.872 135.424,303.872 C135.893336,303.872 136.357331,303.738668 136.816,303.472 C137.274669,303.205332 137.685332,302.821336 138.048,302.32 C138.410668,301.818664 138.698666,301.21067 138.912,300.496 C139.125334,299.78133 139.232,298.986671 139.232,298.112 C139.232,296.959994 139.072002,295.861339 138.752,294.816 C138.431998,293.770661 137.920004,292.848004 137.216,292.048 C136.511996,291.247996 135.605339,290.613336 134.496,290.144 C133.386661,289.674664 132.053341,289.44 130.496,289.44 C129.13066,289.44 127.79734,289.722664 126.496,290.288 C125.19466,290.853336 124.032005,291.653328 123.008,292.688 C121.983995,293.722672 121.16267,294.970659 120.544,296.432 C119.92533,297.893341 119.616,299.519991 119.616,301.312 C119.616,302.890675 119.866664,304.266661 120.368,305.44 C120.869336,306.613339 121.551996,307.583996 122.416,308.352 C123.280004,309.120004 124.271994,309.695998 125.392,310.08 C126.512006,310.464002 127.701327,310.656 128.96,310.656 C129.792004,310.656 130.639996,310.538668 131.504,310.304 C132.368004,310.069332 133.14133,309.770668 133.824,309.408 L134.848,311.968 C133.866662,312.501336 132.864005,312.890665 131.84,313.136 C130.815995,313.381335 129.728006,313.504 128.576,313.504 Z M128.32,303.52 C128.661335,303.52 128.997332,303.413334 129.328,303.2 C129.658668,302.986666 130.026665,302.613336 130.432,302.08 L131.2,297.76 C130.879998,297.14133 130.389337,296.832 129.728,296.832 C129.237331,296.832 128.805335,296.981332 128.432,297.28 C128.058665,297.578668 127.738668,297.951998 127.472,298.4 C127.205332,298.848002 127.002667,299.338664 126.864,299.872 C126.725333,300.405336 126.656,300.906664 126.656,301.376 C126.656,302.80534 127.210661,303.52 128.32,303.52 Z M146.016,308 L146.016,304.192 L150.432,304.192 L150.432,292.448 L146.624,292.448 L146.624,289.536 C147.733339,289.322666 148.671996,289.066668 149.44,288.768 C150.208004,288.469332 150.954663,288.106669 151.68,287.68 L155.136,287.68 L155.136,304.192 L158.944,304.192 L158.944,308 L146.016,308 Z M161.12,308 L165.984,299.744 L161.408,292.128 L166.464,292.128 L167.872,294.688 C168.085334,295.136002 168.303999,295.589331 168.528,296.048 C168.752001,296.506669 168.981332,296.959998 169.216,297.408 L169.344,297.408 C169.514668,296.959998 169.695999,296.506669 169.888,296.048 C170.080001,295.589331 170.261332,295.136002 170.432,294.688 L171.52,292.128 L176.384,292.128 L171.776,300.288 L176.672,308 L171.616,308 L170.08,305.376 C169.823999,304.927998 169.573335,304.469336 169.328,304 C169.082665,303.530664 168.832001,303.072002 168.576,302.624 L168.448,302.624 C168.255999,303.072002 168.053334,303.525331 167.84,303.984 C167.626666,304.442669 167.424001,304.906664 167.232,305.376 L165.984,308 L161.12,308 Z" id="@1x" fill="#040D14"></path>
        <path d="M411.576,313.504 C409.975992,313.504 408.445341,313.258669 406.984,312.768 C405.522659,312.277331 404.232006,311.530672 403.112,310.528 C401.991994,309.525328 401.101337,308.272008 400.44,306.768 C399.778663,305.263992 399.448,303.48801 399.448,301.44 C399.448,299.199989 399.831996,297.168009 400.6,295.344 C401.368004,293.519991 402.407993,291.95734 403.72,290.656 C405.032007,289.35466 406.562658,288.352004 408.312,287.648 C410.061342,286.943996 411.917324,286.592 413.88,286.592 C415.608009,286.592 417.17066,286.869331 418.568,287.424 C419.96534,287.978669 421.154662,288.762662 422.136,289.776 C423.117338,290.789338 423.874664,291.99466 424.408,293.392 C424.941336,294.78934 425.208,296.319992 425.208,297.984 C425.208,299.456007 424.984002,300.741328 424.536,301.84 C424.087998,302.938672 423.512004,303.855996 422.808,304.592 C422.103996,305.328004 421.320004,305.877332 420.456,306.24 C419.591996,306.602668 418.744004,306.784 417.912,306.784 C416.994662,306.784 416.19467,306.570669 415.512,306.144 C414.82933,305.717331 414.402668,305.120004 414.232,304.352 L414.168,304.352 C413.719998,304.97067 413.133337,305.477331 412.408,305.872 C411.682663,306.266669 410.989337,306.464 410.328,306.464 C409.047994,306.464 408.024004,306.032004 407.256,305.168 C406.487996,304.303996 406.104,303.136007 406.104,301.664 C406.104,300.682662 406.269332,299.722671 406.6,298.784 C406.930668,297.845329 407.383997,297.008004 407.96,296.272 C408.536003,295.535996 409.218663,294.944002 410.008,294.496 C410.797337,294.047998 411.650662,293.824 412.568,293.824 C413.101336,293.824 413.570665,293.946665 413.976,294.192 C414.381335,294.437335 414.722665,294.847997 415,295.424 L415.064,295.424 L415.512,294.08 L418.424,294.08 L416.952,301.12 C416.503998,302.954676 416.99466,303.872 418.424,303.872 C418.893336,303.872 419.357331,303.738668 419.816,303.472 C420.274669,303.205332 420.685332,302.821336 421.048,302.32 C421.410668,301.818664 421.698666,301.21067 421.912,300.496 C422.125334,299.78133 422.232,298.986671 422.232,298.112 C422.232,296.959994 422.072002,295.861339 421.752,294.816 C421.431998,293.770661 420.920004,292.848004 420.216,292.048 C419.511996,291.247996 418.605339,290.613336 417.496,290.144 C416.386661,289.674664 415.053341,289.44 413.496,289.44 C412.13066,289.44 410.79734,289.722664 409.496,290.288 C408.19466,290.853336 407.032005,291.653328 406.008,292.688 C404.983995,293.722672 404.16267,294.970659 403.544,296.432 C402.92533,297.893341 402.616,299.519991 402.616,301.312 C402.616,302.890675 402.866664,304.266661 403.368,305.44 C403.869336,306.613339 404.551996,307.583996 405.416,308.352 C406.280004,309.120004 407.271994,309.695998 408.392,310.08 C409.512006,310.464002 410.701327,310.656 411.96,310.656 C412.792004,310.656 413.639996,310.538668 414.504,310.304 C415.368004,310.069332 416.14133,309.770668 416.824,309.408 L417.848,311.968 C416.866662,312.501336 415.864005,312.890665 414.84,313.136 C413.815995,313.381335 412.728006,313.504 411.576,313.504 Z M411.32,303.52 C411.661335,303.52 411.997332,303.413334 412.328,303.2 C412.658668,302.986666 413.026665,302.613336 413.432,302.08 L414.2,297.76 C413.879998,297.14133 413.389337,296.832 412.728,296.832 C412.237331,296.832 411.805335,296.981332 411.432,297.28 C411.058665,297.578668 410.738668,297.951998 410.472,298.4 C410.205332,298.848002 410.002667,299.338664 409.864,299.872 C409.725333,300.405336 409.656,300.906664 409.656,301.376 C409.656,302.80534 410.210661,303.52 411.32,303.52 Z M427.96,308 L427.96,305.312 C429.26134,304.095994 430.450661,302.960005 431.528,301.904 C432.605339,300.847995 433.533329,299.856005 434.312,298.928 C435.090671,297.999995 435.698664,297.136004 436.136,296.336 C436.573336,295.535996 436.792,294.773337 436.792,294.048 C436.792,293.045328 436.536003,292.282669 436.024,291.76 C435.511997,291.237331 434.808004,290.976 433.912,290.976 C433.16533,290.976 432.504003,291.183998 431.928,291.6 C431.351997,292.016002 430.808003,292.501331 430.296,293.056 L427.736,290.528 C428.738672,289.461328 429.762661,288.656003 430.808,288.112 C431.853339,287.567997 433.101326,287.296 434.552,287.296 C435.554672,287.296 436.466663,287.450665 437.288,287.76 C438.109337,288.069335 438.818664,288.506664 439.416,289.072 C440.013336,289.637336 440.471998,290.314663 440.792,291.104 C441.112002,291.893337 441.272,292.778662 441.272,293.76 C441.272,294.613338 441.090668,295.482662 440.728,296.368 C440.365332,297.253338 439.880003,298.138662 439.272,299.024 C438.663997,299.909338 437.970671,300.794662 437.192,301.68 C436.413329,302.565338 435.608004,303.434662 434.776,304.288 C435.288003,304.224 435.858664,304.165334 436.488,304.112 C437.117336,304.058666 437.677331,304.032 438.168,304.032 L442.264,304.032 L442.264,308 L427.96,308 Z M444.12,308 L448.984,299.744 L444.408,292.128 L449.464,292.128 L450.872,294.688 C451.085334,295.136002 451.303999,295.589331 451.528,296.048 C451.752001,296.506669 451.981332,296.959998 452.216,297.408 L452.344,297.408 C452.514668,296.959998 452.695999,296.506669 452.888,296.048 C453.080001,295.589331 453.261332,295.136002 453.432,294.688 L454.52,292.128 L459.384,292.128 L454.776,300.288 L459.672,308 L454.616,308 L453.08,305.376 C452.823999,304.927998 452.573335,304.469336 452.328,304 C452.082665,303.530664 451.832001,303.072002 451.576,302.624 L451.448,302.624 C451.255999,303.072002 451.053334,303.525331 450.84,303.984 C450.626666,304.442669 450.424001,304.906664 450.232,305.376 L448.984,308 L444.12,308 Z" id="@2x" fill="#040D14"></path>
        <path d="M698.576,313.504 C696.975992,313.504 695.445341,313.258669 693.984,312.768 C692.522659,312.277331 691.232006,311.530672 690.112,310.528 C688.991994,309.525328 688.101337,308.272008 687.44,306.768 C686.778663,305.263992 686.448,303.48801 686.448,301.44 C686.448,299.199989 686.831996,297.168009 687.6,295.344 C688.368004,293.519991 689.407993,291.95734 690.72,290.656 C692.032007,289.35466 693.562658,288.352004 695.312,287.648 C697.061342,286.943996 698.917324,286.592 700.88,286.592 C702.608009,286.592 704.17066,286.869331 705.568,287.424 C706.96534,287.978669 708.154662,288.762662 709.136,289.776 C710.117338,290.789338 710.874664,291.99466 711.408,293.392 C711.941336,294.78934 712.208,296.319992 712.208,297.984 C712.208,299.456007 711.984002,300.741328 711.536,301.84 C711.087998,302.938672 710.512004,303.855996 709.808,304.592 C709.103996,305.328004 708.320004,305.877332 707.456,306.24 C706.591996,306.602668 705.744004,306.784 704.912,306.784 C703.994662,306.784 703.19467,306.570669 702.512,306.144 C701.82933,305.717331 701.402668,305.120004 701.232,304.352 L701.168,304.352 C700.719998,304.97067 700.133337,305.477331 699.408,305.872 C698.682663,306.266669 697.989337,306.464 697.328,306.464 C696.047994,306.464 695.024004,306.032004 694.256,305.168 C693.487996,304.303996 693.104,303.136007 693.104,301.664 C693.104,300.682662 693.269332,299.722671 693.6,298.784 C693.930668,297.845329 694.383997,297.008004 694.96,296.272 C695.536003,295.535996 696.218663,294.944002 697.008,294.496 C697.797337,294.047998 698.650662,293.824 699.568,293.824 C700.101336,293.824 700.570665,293.946665 700.976,294.192 C701.381335,294.437335 701.722665,294.847997 702,295.424 L702.064,295.424 L702.512,294.08 L705.424,294.08 L703.952,301.12 C703.503998,302.954676 703.99466,303.872 705.424,303.872 C705.893336,303.872 706.357331,303.738668 706.816,303.472 C707.274669,303.205332 707.685332,302.821336 708.048,302.32 C708.410668,301.818664 708.698666,301.21067 708.912,300.496 C709.125334,299.78133 709.232,298.986671 709.232,298.112 C709.232,296.959994 709.072002,295.861339 708.752,294.816 C708.431998,293.770661 707.920004,292.848004 707.216,292.048 C706.511996,291.247996 705.605339,290.613336 704.496,290.144 C703.386661,289.674664 702.053341,289.44 700.496,289.44 C699.13066,289.44 697.79734,289.722664 696.496,290.288 C695.19466,290.853336 694.032005,291.653328 693.008,292.688 C691.983995,293.722672 691.16267,294.970659 690.544,296.432 C689.92533,297.893341 689.616,299.519991 689.616,301.312 C689.616,302.890675 689.866664,304.266661 690.368,305.44 C690.869336,306.613339 691.551996,307.583996 692.416,308.352 C693.280004,309.120004 694.271994,309.695998 695.392,310.08 C696.512006,310.464002 697.701327,310.656 698.96,310.656 C699.792004,310.656 700.639996,310.538668 701.504,310.304 C702.368004,310.069332 703.14133,309.770668 703.824,309.408 L704.848,311.968 C703.866662,312.501336 702.864005,312.890665 701.84,313.136 C700.815995,313.381335 699.728006,313.504 698.576,313.504 Z M698.32,303.52 C698.661335,303.52 698.997332,303.413334 699.328,303.2 C699.658668,302.986666 700.026665,302.613336 700.432,302.08 L701.2,297.76 C700.879998,297.14133 700.389337,296.832 699.728,296.832 C699.237331,296.832 698.805335,296.981332 698.432,297.28 C698.058665,297.578668 697.738668,297.951998 697.472,298.4 C697.205332,298.848002 697.002667,299.338664 696.864,299.872 C696.725333,300.405336 696.656,300.906664 696.656,301.376 C696.656,302.80534 697.210661,303.52 698.32,303.52 Z M721.552,308.384 C719.887992,308.384 718.480006,308.122669 717.328,307.6 C716.175994,307.077331 715.22667,306.378671 714.48,305.504 L716.656,302.528 C717.27467,303.125336 717.951996,303.615998 718.688,304 C719.424004,304.384002 720.229329,304.576 721.104,304.576 C722.106672,304.576 722.906664,304.368002 723.504,303.952 C724.101336,303.535998 724.4,302.944004 724.4,302.176 C724.4,301.727998 724.320001,301.322668 724.16,300.96 C723.999999,300.597332 723.717335,300.293335 723.312,300.048 C722.906665,299.802665 722.352004,299.610667 721.648,299.472 C720.943996,299.333333 720.037339,299.264 718.928,299.264 L718.928,295.936 C719.845338,295.936 720.607997,295.872001 721.216,295.744 C721.824003,295.615999 722.314665,295.429335 722.688,295.184 C723.061335,294.938665 723.327999,294.650668 723.488,294.32 C723.648001,293.989332 723.728,293.621335 723.728,293.216 C723.728,292.511996 723.514669,291.962669 723.088,291.568 C722.661331,291.173331 722.042671,290.976 721.232,290.976 C720.506663,290.976 719.85067,291.135998 719.264,291.456 C718.67733,291.776002 718.064003,292.213331 717.424,292.768 L715.056,289.888 C715.994671,289.077329 716.981328,288.442669 718.016,287.984 C719.050672,287.525331 720.197327,287.296 721.456,287.296 C722.501339,287.296 723.455996,287.418665 724.32,287.664 C725.184004,287.909335 725.919997,288.271998 726.528,288.752 C727.136003,289.232002 727.610665,289.81333 727.952,290.496 C728.293335,291.17867 728.464,291.967996 728.464,292.864 C728.464,293.930672 728.17067,294.831996 727.584,295.568 C726.99733,296.304004 726.160005,296.906664 725.072,297.376 L725.072,297.504 C726.245339,297.845335 727.210663,298.426663 727.968,299.248 C728.725337,300.069337 729.104,301.141327 729.104,302.464 C729.104,303.402671 728.901335,304.239996 728.496,304.976 C728.090665,305.712004 727.54667,306.330664 726.864,306.832 C726.18133,307.333336 725.381338,307.717332 724.464,307.984 C723.546662,308.250668 722.576005,308.384 721.552,308.384 Z M731.12,308 L735.984,299.744 L731.408,292.128 L736.464,292.128 L737.872,294.688 C738.085334,295.136002 738.303999,295.589331 738.528,296.048 C738.752001,296.506669 738.981332,296.959998 739.216,297.408 L739.344,297.408 C739.514668,296.959998 739.695999,296.506669 739.888,296.048 C740.080001,295.589331 740.261332,295.136002 740.432,294.688 L741.52,292.128 L746.384,292.128 L741.776,300.288 L746.672,308 L741.616,308 L740.08,305.376 C739.823999,304.927998 739.573335,304.469336 739.328,304 C739.082665,303.530664 738.832001,303.072002 738.576,302.624 L738.448,302.624 C738.255999,303.072002 738.053334,303.525331 737.84,303.984 C737.626666,304.442669 737.424001,304.906664 737.232,305.376 L735.984,308 L731.12,308 Z" id="@3x" fill="#040D14"></path>
    </g>
</svg>