<?xml version="1.0" encoding="UTF-8"?>
<svg width="860px" height="485px" viewBox="0 0 860 485" version="1.1" xmlns="http://www.w3.org/2000/svg" xmlns:xlink="http://www.w3.org/1999/xlink">
    <!-- Generator: Sketch 49.3 (51167) - http://www.bohemiancoding.com/sketch -->
    <title>architecture_8_pixel_grid_box_model</title>
    <desc>Created with Sketch.</desc>
    <defs>
        <path d="M46,48 L805,48 C807.761424,48 810,50.2385763 810,53 L810,435 C810,437.761424 807.761424,440 805,440 L46,440 C43.2385763,440 41,437.761424 41,435 L41,53 C41,50.2385763 43.2385763,48 46,48 Z" id="path-1"></path>
        <mask id="mask-2" maskContentUnits="userSpaceOnUse" maskUnits="objectBoundingBox" x="0" y="0" width="769" height="392" fill="white">
            <use xlink:href="#path-1"></use>
        </mask>
        <rect id="path-3" x="97" y="99" width="658" height="288" rx="5"></rect>
        <path d="M159,152 L694,152 C696.761424,152 699,154.238576 699,157 L699,330 C699,332.761424 696.761424,335 694,335 L159,335 C156.238576,335 154,332.761424 154,330 L154,157 C154,154.238576 156.238576,152 159,152 Z" id="path-4"></path>
        <mask id="mask-5" maskContentUnits="userSpaceOnUse" maskUnits="objectBoundingBox" x="0" y="0" width="545" height="183" fill="white">
            <use xlink:href="#path-4"></use>
        </mask>
        <rect id="path-6" x="202" y="204" width="450" height="78" rx="5"></rect>
    </defs>
    <g id="architecture_8_pixel_grid_box_model" stroke="none" stroke-width="1" fill="none" fill-rule="evenodd">
        <use id="Rectangle" stroke="#040D14" mask="url(#mask-2)" stroke-width="4" fill="#F9CD9D" stroke-dasharray="8,8" xlink:href="#path-1"></use>
        <g id="Rectangle">
            <use fill="#E8DF95" fill-rule="evenodd" xlink:href="#path-3"></use>
            <rect stroke="#040D14" stroke-width="2" x="98" y="100" width="656" height="286" rx="5"></rect>
        </g>
        <use id="Rectangle" stroke="#040D14" mask="url(#mask-5)" stroke-width="4" fill="#8ABE9E" stroke-dasharray="8,8" xlink:href="#path-4"></use>
        <g id="Rectangle">
            <use fill="#A1D0FF" fill-rule="evenodd" xlink:href="#path-6"></use>
            <rect stroke="#040D14" stroke-width="2" x="203" y="205" width="448" height="76" rx="5"></rect>
        </g>
        <path d="M72.992,83 L72.992,67.304 L76.136,67.304 L78.92,74.984 C79.0960009,75.4800025 79.2639992,75.9879974 79.424,76.508 C79.5840008,77.0280026 79.7519991,77.5439974 79.928,78.056 L80.024,78.056 C80.2000009,77.5439974 80.3639992,77.0280026 80.516,76.508 C80.6680008,75.9879974 80.8319991,75.4800025 81.008,74.984 L83.72,67.304 L86.888,67.304 L86.888,83 L84.32,83 L84.32,75.824 C84.32,75.4559982 84.3319999,75.0560022 84.356,74.624 C84.3800001,74.1919978 84.4079998,73.7560022 84.44,73.316 C84.4720002,72.8759978 84.5119998,72.4440021 84.56,72.02 C84.6080002,71.5959979 84.6479998,71.2000018 84.68,70.832 L84.584,70.832 L83.312,74.48 L80.744,81.536 L79.088,81.536 L76.496,74.48 L75.248,70.832 L75.152,70.832 C75.1840002,71.2000018 75.2199998,71.5959979 75.26,72.02 C75.3000002,72.4440021 75.3399998,72.8759978 75.38,73.316 C75.4200002,73.7560022 75.4519999,74.1919978 75.476,74.624 C75.5000001,75.0560022 75.512,75.4559982 75.512,75.824 L75.512,83 L72.992,83 Z M94.088,74.648 L93.536,76.568 L97.544,76.568 L96.992,74.648 C96.7359987,73.8159958 96.4920012,72.9600044 96.26,72.08 C96.0279988,71.1999956 95.8000011,70.3280043 95.576,69.464 L95.48,69.464 C95.2559989,70.3440044 95.0320011,71.2199956 94.808,72.092 C94.5839989,72.9640044 94.3440013,73.8159958 94.088,74.648 Z M88.832,83 L93.944,67.304 L97.208,67.304 L102.32,83 L99.392,83 L98.168,78.752 L92.888,78.752 L91.664,83 L88.832,83 Z M104.264,83 L104.264,67.304 L109.568,67.304 C110.384004,67.304 111.143996,67.3839992 111.848,67.544 C112.552004,67.7040008 113.159997,67.9639982 113.672,68.324 C114.184003,68.6840018 114.587999,69.159997 114.884,69.752 C115.180001,70.344003 115.328,71.0799956 115.328,71.96 C115.328,73.160006 115.044003,74.1279963 114.476,74.864 C113.907997,75.6000037 113.152005,76.1279984 112.208,76.448 L115.952,83 L112.832,83 L109.448,76.856 L107.048,76.856 L107.048,83 L104.264,83 Z M107.048,74.648 L109.28,74.648 C110.352005,74.648 111.171997,74.4240022 111.74,73.976 C112.308003,73.5279978 112.592,72.8560045 112.592,71.96 C112.592,71.0479954 112.308003,70.4160018 111.74,70.064 C111.171997,69.7119982 110.352005,69.536 109.28,69.536 L107.048,69.536 L107.048,74.648 Z M125.048,83.288 C123.991995,83.288 123.012005,83.1120018 122.108,82.76 C121.203995,82.4079982 120.420003,81.8880034 119.756,81.2 C119.091997,80.5119966 118.576002,79.664005 118.208,78.656 C117.839998,77.647995 117.656,76.4960065 117.656,75.2 C117.656,73.9199936 117.847998,72.7720051 118.232,71.756 C118.616002,70.7399949 119.139997,69.8800035 119.804,69.176 C120.468003,68.4719965 121.251995,67.9360018 122.156,67.568 C123.060005,67.1999982 124.031995,67.016 125.072,67.016 C126.192006,67.016 127.139996,67.219998 127.916,67.628 C128.692004,68.036002 129.327998,68.4959974 129.824,69.008 L128.336,70.808 C127.935998,70.4239981 127.492002,70.1000013 127.004,69.836 C126.515998,69.5719987 125.904004,69.44 125.168,69.44 C124.463996,69.44 123.828003,69.5719987 123.26,69.836 C122.691997,70.1000013 122.204002,70.4759976 121.796,70.964 C121.387998,71.4520024 121.072001,72.0479965 120.848,72.752 C120.623999,73.4560035 120.512,74.2479956 120.512,75.128 C120.512,76.920009 120.915996,78.3239949 121.724,79.34 C122.532004,80.3560051 123.727992,80.864 125.312,80.864 C125.760002,80.864 126.183998,80.8040006 126.584,80.684 C126.984002,80.5639994 127.311999,80.3920011 127.568,80.168 L127.568,76.784 L124.592,76.784 L124.592,74.504 L130.064,74.504 L130.064,81.416 C129.535997,81.9440026 128.836004,82.3879982 127.964,82.748 C127.091996,83.1080018 126.120005,83.288 125.048,83.288 Z M133.544,83 L133.544,67.304 L136.328,67.304 L136.328,83 L133.544,83 Z M140.312,83 L140.312,67.304 L143.168,67.304 L148.064,76.136 L149.672,79.472 L149.768,79.472 C149.704,78.6559959 149.628,77.7800047 149.54,76.844 C149.452,75.9079953 149.408,75.0000044 149.408,74.12 L149.408,67.304 L152.072,67.304 L152.072,83 L149.216,83 L144.32,74.168 L142.712,70.832 L142.616,70.832 C142.68,71.6640042 142.756,72.5359954 142.844,73.448 C142.932,74.3600046 142.976,75.2559956 142.976,76.136 L142.976,83 L140.312,83 Z" id="MARGIN" fill="#040D14"></path>
        <path d="M128.992,134 L128.992,118.304 L134.008,118.304 C134.824004,118.304 135.571997,118.371999 136.252,118.508 C136.932003,118.644001 137.523997,118.859999 138.028,119.156 C138.532003,119.452001 138.923999,119.847998 139.204,120.344 C139.484001,120.840002 139.624,121.447996 139.624,122.168 C139.624,122.920004 139.432002,123.615997 139.048,124.256 C138.663998,124.896003 138.128003,125.335999 137.44,125.576 L137.44,125.672 C138.304004,125.864001 139.019997,126.267997 139.588,126.884 C140.156003,127.500003 140.44,128.335995 140.44,129.392 C140.44,130.176004 140.288002,130.855997 139.984,131.432 C139.679998,132.008003 139.260003,132.487998 138.724,132.872 C138.187997,133.256002 137.552004,133.539999 136.816,133.724 C136.079996,133.908001 135.280004,134 134.416,134 L128.992,134 Z M131.776,124.784 L133.768,124.784 C134.872006,124.784 135.667998,124.584002 136.156,124.184 C136.644002,123.783998 136.888,123.248003 136.888,122.576 C136.888,121.807996 136.632003,121.264002 136.12,120.944 C135.607997,120.623998 134.840005,120.464 133.816,120.464 L131.776,120.464 L131.776,124.784 Z M131.776,131.84 L134.128,131.84 C135.280006,131.84 136.167997,131.628002 136.792,131.204 C137.416003,130.779998 137.728,130.128004 137.728,129.248 C137.728,128.415996 137.424003,127.812002 136.816,127.436 C136.207997,127.059998 135.312006,126.872 134.128,126.872 L131.776,126.872 L131.776,131.84 Z M149.416,134.288 C148.391995,134.288 147.456004,134.100002 146.608,133.724 C145.759996,133.347998 145.032003,132.804004 144.424,132.092 C143.815997,131.379996 143.344002,130.520005 143.008,129.512 C142.671998,128.503995 142.504,127.360006 142.504,126.08 C142.504,124.815994 142.671998,123.684005 143.008,122.684 C143.344002,121.683995 143.815997,120.840003 144.424,120.152 C145.032003,119.463997 145.759996,118.936002 146.608,118.568 C147.456004,118.199998 148.391995,118.016 149.416,118.016 C150.440005,118.016 151.375996,118.199998 152.224,118.568 C153.072004,118.936002 153.803997,119.463997 154.42,120.152 C155.036003,120.840003 155.511998,121.683995 155.848,122.684 C156.184002,123.684005 156.352,124.815994 156.352,126.08 C156.352,127.360006 156.184002,128.503995 155.848,129.512 C155.511998,130.520005 155.036003,131.379996 154.42,132.092 C153.803997,132.804004 153.072004,133.347998 152.224,133.724 C151.375996,134.100002 150.440005,134.288 149.416,134.288 Z M149.416,131.864 C150.040003,131.864 150.599998,131.728001 151.096,131.456 C151.592002,131.183999 152.015998,130.796003 152.368,130.292 C152.720002,129.787997 152.991999,129.180004 153.184,128.468 C153.376001,127.755996 153.472,126.960004 153.472,126.08 C153.472,124.319991 153.108004,122.940005 152.38,121.94 C151.651996,120.939995 150.664006,120.44 149.416,120.44 C148.167994,120.44 147.180004,120.939995 146.452,121.94 C145.723996,122.940005 145.36,124.319991 145.36,126.08 C145.36,126.960004 145.455999,127.755996 145.648,128.468 C145.840001,129.180004 146.111998,129.787997 146.464,130.292 C146.816002,130.796003 147.239998,131.183999 147.736,131.456 C148.232002,131.728001 148.791997,131.864 149.416,131.864 Z M159.496,134 L159.496,118.304 L164.8,118.304 C165.616004,118.304 166.375996,118.383999 167.08,118.544 C167.784004,118.704001 168.391997,118.963998 168.904,119.324 C169.416003,119.684002 169.819999,120.159997 170.116,120.752 C170.412001,121.344003 170.56,122.079996 170.56,122.96 C170.56,124.160006 170.276003,125.127996 169.708,125.864 C169.139997,126.600004 168.384005,127.127998 167.44,127.448 L171.184,134 L168.064,134 L164.68,127.856 L162.28,127.856 L162.28,134 L159.496,134 Z M162.28,125.648 L164.512,125.648 C165.584005,125.648 166.403997,125.424002 166.972,124.976 C167.540003,124.527998 167.824,123.856004 167.824,122.96 C167.824,122.047995 167.540003,121.416002 166.972,121.064 C166.403997,120.711998 165.584005,120.536 164.512,120.536 L162.28,120.536 L162.28,125.648 Z M173.704,134 L173.704,118.304 L177.904,118.304 C180.304012,118.304 182.175993,118.951994 183.52,120.248 C184.864007,121.544006 185.536,123.487987 185.536,126.08 C185.536,127.376006 185.364002,128.519995 185.02,129.512 C184.675998,130.504005 184.180003,131.331997 183.532,131.996 C182.883997,132.660003 182.100005,133.159998 181.18,133.496 C180.259995,133.832002 179.216006,134 178.048,134 L173.704,134 Z M176.488,131.744 L177.712,131.744 C179.312008,131.744 180.539996,131.284005 181.396,130.364 C182.252004,129.443995 182.68,128.01601 182.68,126.08 C182.68,124.15999 182.248004,122.760004 181.384,121.88 C180.519996,120.999996 179.296008,120.56 177.712,120.56 L176.488,120.56 L176.488,131.744 Z M188.704,134 L188.704,118.304 L198.16,118.304 L198.16,120.656 L191.488,120.656 L191.488,124.664 L197.128,124.664 L197.128,127.016 L191.488,127.016 L191.488,131.648 L198.4,131.648 L198.4,134 L188.704,134 Z M201.616,134 L201.616,118.304 L206.92,118.304 C207.736004,118.304 208.495996,118.383999 209.2,118.544 C209.904004,118.704001 210.511997,118.963998 211.024,119.324 C211.536003,119.684002 211.939999,120.159997 212.236,120.752 C212.532001,121.344003 212.68,122.079996 212.68,122.96 C212.68,124.160006 212.396003,125.127996 211.828,125.864 C211.259997,126.600004 210.504005,127.127998 209.56,127.448 L213.304,134 L210.184,134 L206.8,127.856 L204.4,127.856 L204.4,134 L201.616,134 Z M204.4,125.648 L206.632,125.648 C207.704005,125.648 208.523997,125.424002 209.092,124.976 C209.660003,124.527998 209.944,123.856004 209.944,122.96 C209.944,122.047995 209.660003,121.416002 209.092,121.064 C208.523997,120.711998 207.704005,120.536 206.632,120.536 L204.4,120.536 L204.4,125.648 Z" id="BORDER" fill="#040D14"></path>
        <path d="M184.992,188 L184.992,172.304 L189.936,172.304 C190.800004,172.304 191.603996,172.383999 192.348,172.544 C193.092004,172.704001 193.735997,172.975998 194.28,173.36 C194.824003,173.744002 195.247998,174.243997 195.552,174.86 C195.856002,175.476003 196.008,176.239995 196.008,177.152 C196.008,178.016004 195.856002,178.767997 195.552,179.408 C195.247998,180.048003 194.828003,180.579998 194.292,181.004 C193.755997,181.428002 193.124004,181.739999 192.396,181.94 C191.667996,182.140001 190.880004,182.24 190.032,182.24 L187.776,182.24 L187.776,188 L184.992,188 Z M187.776,180.008 L189.816,180.008 C192.120012,180.008 193.272,179.05601 193.272,177.152 C193.272,176.159995 192.972003,175.476002 192.372,175.1 C191.771997,174.723998 190.888006,174.536 189.72,174.536 L187.776,174.536 L187.776,180.008 Z M200.976,179.648 L200.424,181.568 L204.432,181.568 L203.88,179.648 C203.623999,178.815996 203.380001,177.960004 203.148,177.08 C202.915999,176.199996 202.688001,175.328004 202.464,174.464 L202.368,174.464 C202.143999,175.344004 201.920001,176.219996 201.696,177.092 C201.471999,177.964004 201.232001,178.815996 200.976,179.648 Z M195.72,188 L200.832,172.304 L204.096,172.304 L209.208,188 L206.28,188 L205.056,183.752 L199.776,183.752 L198.552,188 L195.72,188 Z M211.152,188 L211.152,172.304 L215.352,172.304 C217.752012,172.304 219.623993,172.951994 220.968,174.248 C222.312007,175.544006 222.984,177.487987 222.984,180.08 C222.984,181.376006 222.812002,182.519995 222.468,183.512 C222.123998,184.504005 221.628003,185.331997 220.98,185.996 C220.331997,186.660003 219.548005,187.159998 218.628,187.496 C217.707995,187.832002 216.664006,188 215.496,188 L211.152,188 Z M213.936,185.744 L215.16,185.744 C216.760008,185.744 217.987996,185.284005 218.844,184.364 C219.700004,183.443995 220.128,182.01601 220.128,180.08 C220.128,178.15999 219.696004,176.760004 218.832,175.88 C217.967996,174.999996 216.744008,174.56 215.16,174.56 L213.936,174.56 L213.936,185.744 Z M226.152,188 L226.152,172.304 L230.352,172.304 C232.752012,172.304 234.623993,172.951994 235.968,174.248 C237.312007,175.544006 237.984,177.487987 237.984,180.08 C237.984,181.376006 237.812002,182.519995 237.468,183.512 C237.123998,184.504005 236.628003,185.331997 235.98,185.996 C235.331997,186.660003 234.548005,187.159998 233.628,187.496 C232.707995,187.832002 231.664006,188 230.496,188 L226.152,188 Z M228.936,185.744 L230.16,185.744 C231.760008,185.744 232.987996,185.284005 233.844,184.364 C234.700004,183.443995 235.128,182.01601 235.128,180.08 C235.128,178.15999 234.696004,176.760004 233.832,175.88 C232.967996,174.999996 231.744008,174.56 230.16,174.56 L228.936,174.56 L228.936,185.744 Z M241.152,188 L241.152,172.304 L243.936,172.304 L243.936,188 L241.152,188 Z M247.92,188 L247.92,172.304 L250.776,172.304 L255.672,181.136 L257.28,184.472 L257.376,184.472 C257.312,183.655996 257.236,182.780005 257.148,181.844 C257.06,180.907995 257.016,180.000004 257.016,179.12 L257.016,172.304 L259.68,172.304 L259.68,188 L256.824,188 L251.928,179.168 L250.32,175.832 L250.224,175.832 C250.288,176.664004 250.364,177.535995 250.452,178.448 C250.54,179.360005 250.584,180.255996 250.584,181.136 L250.584,188 L247.92,188 Z M270.24,188.288 C269.183995,188.288 268.204005,188.112002 267.3,187.76 C266.395995,187.407998 265.612003,186.888003 264.948,186.2 C264.283997,185.511997 263.768002,184.664005 263.4,183.656 C263.031998,182.647995 262.848,181.496006 262.848,180.2 C262.848,178.919994 263.039998,177.772005 263.424,176.756 C263.808002,175.739995 264.331997,174.880004 264.996,174.176 C265.660003,173.471996 266.443995,172.936002 267.348,172.568 C268.252005,172.199998 269.223995,172.016 270.264,172.016 C271.384006,172.016 272.331996,172.219998 273.108,172.628 C273.884004,173.036002 274.519998,173.495997 275.016,174.008 L273.528,175.808 C273.127998,175.423998 272.684002,175.100001 272.196,174.836 C271.707998,174.571999 271.096004,174.44 270.36,174.44 C269.655996,174.44 269.020003,174.571999 268.452,174.836 C267.883997,175.100001 267.396002,175.475998 266.988,175.964 C266.579998,176.452002 266.264001,177.047996 266.04,177.752 C265.815999,178.456004 265.704,179.247996 265.704,180.128 C265.704,181.920009 266.107996,183.323995 266.916,184.34 C267.724004,185.356005 268.919992,185.864 270.504,185.864 C270.952002,185.864 271.375998,185.804001 271.776,185.684 C272.176002,185.563999 272.503999,185.392001 272.76,185.168 L272.76,181.784 L269.784,181.784 L269.784,179.504 L275.256,179.504 L275.256,186.416 C274.727997,186.944003 274.028004,187.387998 273.156,187.748 C272.283996,188.108002 271.312005,188.288 270.24,188.288 Z" id="PADDING" fill="#040D14"></path>
        <path d="M239.088,250.288 C238.063995,250.288 237.128004,250.100002 236.28,249.724 C235.431996,249.347998 234.704003,248.804004 234.096,248.092 C233.487997,247.379996 233.016002,246.520005 232.68,245.512 C232.343998,244.503995 232.176,243.360006 232.176,242.08 C232.176,240.815994 232.343998,239.684005 232.68,238.684 C233.016002,237.683995 233.487997,236.840003 234.096,236.152 C234.704003,235.463997 235.431996,234.936002 236.28,234.568 C237.128004,234.199998 238.063995,234.016 239.088,234.016 C240.112005,234.016 241.047996,234.199998 241.896,234.568 C242.744004,234.936002 243.475997,235.463997 244.092,236.152 C244.708003,236.840003 245.183998,237.683995 245.52,238.684 C245.856002,239.684005 246.024,240.815994 246.024,242.08 C246.024,243.360006 245.856002,244.503995 245.52,245.512 C245.183998,246.520005 244.708003,247.379996 244.092,248.092 C243.475997,248.804004 242.744004,249.347998 241.896,249.724 C241.047996,250.100002 240.112005,250.288 239.088,250.288 Z M239.088,247.864 C239.712003,247.864 240.271998,247.728001 240.768,247.456 C241.264002,247.183999 241.687998,246.796003 242.04,246.292 C242.392002,245.787997 242.663999,245.180004 242.856,244.468 C243.048001,243.755996 243.144,242.960004 243.144,242.08 C243.144,240.319991 242.780004,238.940005 242.052,237.94 C241.323996,236.939995 240.336006,236.44 239.088,236.44 C237.839994,236.44 236.852004,236.939995 236.124,237.94 C235.395996,238.940005 235.032,240.319991 235.032,242.08 C235.032,242.960004 235.127999,243.755996 235.32,244.468 C235.512001,245.180004 235.783998,245.787997 236.136,246.292 C236.488002,246.796003 236.911998,247.183999 237.408,247.456 C237.904002,247.728001 238.463997,247.864 239.088,247.864 Z M249.168,250 L249.168,234.304 L254.184,234.304 C255.000004,234.304 255.747997,234.371999 256.428,234.508 C257.108003,234.644001 257.699997,234.859999 258.204,235.156 C258.708003,235.452001 259.099999,235.847998 259.38,236.344 C259.660001,236.840002 259.8,237.447996 259.8,238.168 C259.8,238.920004 259.608002,239.615997 259.224,240.256 C258.839998,240.896003 258.304003,241.335999 257.616,241.576 L257.616,241.672 C258.480004,241.864001 259.195997,242.267997 259.764,242.884 C260.332003,243.500003 260.616,244.335995 260.616,245.392 C260.616,246.176004 260.464002,246.855997 260.16,247.432 C259.855998,248.008003 259.436003,248.487998 258.9,248.872 C258.363997,249.256002 257.728004,249.539999 256.992,249.724 C256.255996,249.908001 255.456004,250 254.592,250 L249.168,250 Z M251.952,240.784 L253.944,240.784 C255.048006,240.784 255.843998,240.584002 256.332,240.184 C256.820002,239.783998 257.064,239.248003 257.064,238.576 C257.064,237.807996 256.808003,237.264002 256.296,236.944 C255.783997,236.623998 255.016005,236.464 253.992,236.464 L251.952,236.464 L251.952,240.784 Z M251.952,247.84 L254.304,247.84 C255.456006,247.84 256.343997,247.628002 256.968,247.204 C257.592003,246.779998 257.904,246.128004 257.904,245.248 C257.904,244.415996 257.600003,243.812002 256.992,243.436 C256.383997,243.059998 255.488006,242.872 254.304,242.872 L251.952,242.872 L251.952,247.84 Z M266.328,250.288 C265.223994,250.288 264.292004,250.064002 263.532,249.616 C262.771996,249.167998 262.144002,248.504004 261.648,247.624 L263.568,246.208 C263.888002,246.784003 264.255998,247.203999 264.672,247.468 C265.088002,247.732001 265.535998,247.864 266.016,247.864 C266.752004,247.864 267.303998,247.640002 267.672,247.192 C268.040002,246.743998 268.224,245.960006 268.224,244.84 L268.224,234.304 L271.008,234.304 L271.008,245.08 C271.008,245.800004 270.920001,246.475997 270.744,247.108 C270.567999,247.740003 270.288002,248.291998 269.904,248.764 C269.519998,249.236002 269.032003,249.607999 268.44,249.88 C267.847997,250.152001 267.144004,250.288 266.328,250.288 Z M274.92,250 L274.92,234.304 L284.376,234.304 L284.376,236.656 L277.704,236.656 L277.704,240.664 L283.344,240.664 L283.344,243.016 L277.704,243.016 L277.704,247.648 L284.616,247.648 L284.616,250 L274.92,250 Z M294.096,250.288 C293.103995,250.288 292.176004,250.112002 291.312,249.76 C290.447996,249.407998 289.700003,248.888003 289.068,248.2 C288.435997,247.511997 287.936002,246.664005 287.568,245.656 C287.199998,244.647995 287.016,243.496006 287.016,242.2 C287.016,240.919994 287.203998,239.772005 287.58,238.756 C287.956002,237.739995 288.467997,236.880004 289.116,236.176 C289.764003,235.471996 290.523996,234.936002 291.396,234.568 C292.268004,234.199998 293.199995,234.016 294.192,234.016 C295.184005,234.016 296.063996,234.215998 296.832,234.616 C297.600004,235.016002 298.231998,235.479997 298.728,236.008 L297.24,237.808 C296.823998,237.391998 296.376002,237.060001 295.896,236.812 C295.415998,236.563999 294.872003,236.44 294.264,236.44 C293.623997,236.44 293.036003,236.571999 292.5,236.836 C291.963997,237.100001 291.500002,237.475998 291.108,237.964 C290.715998,238.452002 290.412001,239.047996 290.196,239.752 C289.979999,240.456004 289.872,241.247996 289.872,242.128 C289.872,243.920009 290.259996,245.323995 291.036,246.34 C291.812004,247.356005 292.863993,247.864 294.192,247.864 C294.896004,247.864 295.519997,247.716001 296.064,247.42 C296.608003,247.123999 297.103998,246.736002 297.552,246.256 L299.04,248.008 C298.399997,248.744004 297.668004,249.307998 296.844,249.7 C296.019996,250.092002 295.104005,250.288 294.096,250.288 Z M304.464,250 L304.464,236.656 L299.928,236.656 L299.928,234.304 L311.784,234.304 L311.784,236.656 L307.248,236.656 L307.248,250 L304.464,250 Z" id="OBJECT" fill="#040D14"></path>
    </g>
</svg>