<?xml version="1.0" encoding="UTF-8"?>
<svg width="57px" height="58px" viewBox="0 0 57 58" version="1.1" xmlns="http://www.w3.org/2000/svg" xmlns:xlink="http://www.w3.org/1999/xlink">
    <!-- Generator: Sketch 49.3 (51167) - http://www.bohemiancoding.com/sketch -->
    <title>better</title>
    <desc>Created with Sketch.</desc>
    <defs></defs>
    <g id="Page-1" stroke="none" stroke-width="1" fill="none" fill-rule="evenodd">
        <g id="better" fill="#52555A" fill-rule="nonzero">
            <path d="M9.360323,0.015425 C9.165011,0.038863 8.961886,0.085738 8.762667,0.163863 C7.961886,0.460738 7.563448,1.163863 7.563448,1.960738 L7.563448,6.163863 L6.262667,4.863081 C5.864229,4.464644 5.262667,4.464644 4.864229,4.863081 C4.465792,5.261519 4.465792,5.863081 4.864229,6.261519 L6.165011,7.5623 L1.961886,7.5623 C1.165011,7.5623 0.461886,8.0623 0.165011,8.761519 C-0.135771,9.460738 -0.038114,10.363081 0.563448,10.964644 L5.961886,16.363081 C3.762667,20.363081 2.563448,24.960738 2.563448,29.5623 C2.563448,38.5623 7.063448,46.663863 13.864229,51.5623 L10.762667,56.0623 C10.461886,56.5623 10.563448,57.163863 10.965792,57.464644 C11.165011,57.5623 11.364229,57.659956 11.563448,57.659956 C11.864229,57.659956 12.165011,57.5623 12.364229,57.261519 L15.563448,52.761519 C19.665011,55.261519 24.461886,56.659956 29.563448,56.659956 C34.665011,56.659956 39.461886,55.261519 43.563448,52.761519 L46.762667,57.261519 C46.961886,57.5623 47.262667,57.659956 47.563448,57.659956 C47.762667,57.659956 47.961886,57.5623 48.161104,57.464644 C48.661104,57.163863 48.762667,56.5623 48.364229,56.0623 L45.262667,51.5623 C52.063448,46.663863 56.563448,38.5623 56.563448,29.5623 C56.563448,14.663863 44.461886,2.5623 29.563448,2.5623 C24.961886,2.5623 20.364229,3.761519 16.364229,5.960738 L10.965792,0.5623 C10.512667,0.113081 9.950167,-0.054887 9.360323,0.015425 Z M9.563448,1.960738 L15.965792,8.363081 C16.364229,8.761519 16.563448,9.261519 16.563448,9.761519 L16.563448,15.0623 L9.563448,8.0623 L9.563448,1.960738 Z M29.563448,4.5623 C43.364229,4.5623 54.563448,15.761519 54.563448,29.5623 C54.563448,43.363081 43.364229,54.5623 29.563448,54.5623 C15.762667,54.5623 4.563448,43.363081 4.563448,29.5623 C4.563448,25.460738 5.563448,21.464644 7.465792,17.863081 C8.165011,18.363081 8.961886,18.5623 9.762667,18.5623 L17.063448,18.5623 L28.762667,30.261519 C28.961886,30.460738 29.262667,30.5623 29.465792,30.5623 C29.665011,30.5623 29.961886,30.460738 30.161104,30.261519 C30.563448,29.863081 30.563448,29.261519 30.161104,28.863081 L18.563448,17.159956 L18.563448,9.863081 C18.563448,9.0623 18.262667,8.261519 17.864229,7.5623 C21.465792,5.5623 25.461886,4.5623 29.563448,4.5623 Z M29.563448,8.5623 C26.262667,8.5623 23.063448,9.363081 20.063448,10.761519 C19.563448,10.960738 19.364229,11.5623 19.661104,12.0623 C19.864229,12.5623 20.465792,12.761519 20.965792,12.464644 C23.665011,11.163863 26.465792,10.464644 29.465792,10.464644 C39.965792,10.464644 48.465792,18.964644 48.465792,29.464644 C48.465792,39.964644 39.965792,48.464644 29.465792,48.464644 C18.965792,48.464644 10.465792,39.964644 10.465792,29.464644 C10.465792,28.464644 10.563448,27.5623 10.661104,26.5623 C10.762667,26.0623 10.364229,25.464644 9.864229,25.464644 C9.364229,25.363081 8.762667,25.761519 8.762667,26.261519 C8.563448,27.261519 8.563448,28.363081 8.563448,29.363081 C8.563448,40.964644 17.961886,50.363081 29.563448,50.363081 C41.165011,50.363081 50.563448,40.964644 50.563448,29.363081 C50.563448,17.761519 41.165011,8.5623 29.563448,8.5623 Z M1.961886,9.5623 L8.161104,9.5623 L15.161104,16.5623 L9.864229,16.5623 C9.364229,16.5623 8.864229,16.363081 8.465792,15.964644 L1.961886,9.5623 Z M29.563448,15.5623 C27.364229,15.5623 25.063448,16.0623 23.063448,17.159956 C22.563448,17.460738 22.364229,18.0623 22.661104,18.464644 C22.961886,18.964644 23.563448,19.163863 23.965792,18.863081 C25.665011,17.964644 27.563448,17.464644 29.465792,17.464644 C36.165011,17.5623 41.563448,22.960738 41.563448,29.5623 C41.563448,34.0623 39.063448,38.159956 35.063448,40.159956 C34.563448,40.460738 34.364229,41.0623 34.661104,41.464644 C34.864229,41.761519 35.165011,41.964644 35.563448,41.964644 C35.762667,41.964644 35.864229,41.964644 36.063448,41.863081 C40.665011,39.5623 43.563448,34.761519 43.563448,29.5623 C43.563448,21.863081 37.262667,15.5623 29.563448,15.5623 Z M11.778292,19.683394 C11.387667,19.675581 11.012667,19.863081 10.864229,20.159956 C10.563448,20.863081 10.165011,21.5623 9.965792,22.261519 C9.665011,22.761519 9.965792,23.261519 10.465792,23.464644 C10.563448,23.464644 10.665011,23.5623 10.864229,23.5623 C11.262667,23.5623 11.661104,23.363081 11.762667,22.964644 C11.961886,22.363081 12.262667,21.663863 12.563448,21.0623 C12.762667,20.5623 12.563448,19.960738 12.161104,19.761519 C12.036104,19.710738 11.907198,19.6873 11.778292,19.683394 Z M18.375948,22.027144 C17.981417,21.980269 17.590792,22.1873 17.364229,22.5623 C17.165011,23.0623 17.364229,23.663863 17.762667,23.964644 L19.465792,24.964644 C19.665011,25.0623 19.762667,25.0623 19.965792,25.0623 C20.262667,25.0623 20.665011,24.863081 20.864229,24.5623 C21.165011,24.0623 20.965792,23.460738 20.465792,23.159956 L18.762667,22.159956 C18.637667,22.085738 18.508761,22.042769 18.375948,22.027144 Z M29.563448,22.5623 C29.165011,22.5623 28.762667,22.5623 28.364229,22.659956 C27.864229,22.761519 27.461886,23.261519 27.563448,23.863081 C27.665011,24.363081 28.161104,24.761519 28.762667,24.659956 C29.063448,24.659956 29.364229,24.5623 29.563448,24.5623 C32.364229,24.5623 34.563448,26.761519 34.563448,29.5623 C34.563448,32.363081 32.364229,34.5623 29.563448,34.5623 C26.762667,34.5623 24.563448,32.363081 24.563448,29.5623 C24.563448,29.261519 24.563448,28.960738 24.661104,28.761519 C24.762667,28.261519 24.364229,27.663863 23.864229,27.5623 C23.262667,27.460738 22.762667,27.863081 22.661104,28.363081 C22.563448,28.761519 22.563448,29.163863 22.563448,29.5623 C22.563448,33.460738 25.665011,36.5623 29.563448,36.5623 C33.461886,36.5623 36.563448,33.460738 36.563448,29.5623 C36.563448,25.663863 33.461886,22.5623 29.563448,22.5623 Z M16.563448,28.5623 C15.961886,28.5623 15.563448,28.960738 15.563448,29.5623 C15.563448,30.163863 15.961886,30.5623 16.563448,30.5623 L18.563448,30.5623 C19.165011,30.5623 19.563448,30.163863 19.563448,29.5623 C19.563448,28.960738 19.165011,28.5623 18.563448,28.5623 L16.563448,28.5623 Z M19.907198,34.070113 C19.782198,34.081831 19.665011,34.113081 19.563448,34.159956 L17.864229,35.159956 C17.364229,35.460738 17.262667,36.0623 17.465792,36.5623 C17.665011,36.863081 17.965792,37.0623 18.364229,37.0623 C18.563448,37.0623 18.665011,37.0623 18.864229,36.964644 L20.563448,35.964644 C21.063448,35.663863 21.165011,35.0623 20.965792,34.5623 C20.739229,34.1873 20.290011,34.038863 19.907198,34.070113 Z M24.176729,38.027144 C23.782198,37.980269 23.387667,38.1873 23.161104,38.5623 L22.161104,40.261519 C21.961886,40.761519 22.063448,41.363081 22.563448,41.659956 C22.762667,41.761519 22.864229,41.761519 23.063448,41.761519 C23.364229,41.761519 23.762667,41.5623 23.965792,41.261519 L24.965792,39.5623 C25.262667,39.0623 25.063448,38.460738 24.563448,38.159956 C24.438448,38.085738 24.309542,38.042769 24.176729,38.027144 Z M29.563448,39.5623 C28.961886,39.5623 28.563448,39.960738 28.563448,40.5623 L28.563448,42.5623 C28.563448,43.163863 28.961886,43.5623 29.563448,43.5623 C30.165011,43.5623 30.563448,43.163863 30.563448,42.5623 L30.563448,40.5623 C30.563448,39.960738 30.165011,39.5623 29.563448,39.5623 Z"></path>
        </g>
    </g>
</svg>