<?xml version="1.0" encoding="UTF-8"?>
<svg width="64px" height="50px" viewBox="0 0 64 50" version="1.1" xmlns="http://www.w3.org/2000/svg" xmlns:xlink="http://www.w3.org/1999/xlink">
    <!-- Generator: Sketch 49.3 (51167) - http://www.bohemiancoding.com/sketch -->
    <title>burden</title>
    <desc>Created with Sketch.</desc>
    <defs></defs>
    <g id="Page-1" stroke="none" stroke-width="1" fill="none" fill-rule="evenodd">
        <g id="burden" fill="#52555A" fill-rule="nonzero">
            <path d="M15,0 C13.347656,0 12,1.347656 12,3 L12,10.183594 C11.6875,10.070313 11.351563,10 11,10 L7,10 C5.347656,10 4,11.347656 4,13 L4,20 L3,20 C1.347656,20 0,21.347656 0,23 L0,27 C0,28.652344 1.347656,30 3,30 L4,30 L4,37 C4,38.652344 5.347656,40 7,40 L11,40 C11.351563,40 11.6875,39.929688 12,39.816406 L12,47 C12,48.652344 13.347656,50 15,50 L21,50 C22.652344,50 24,48.652344 24,47 L24,30 L40,30 L40,47 C40,48.652344 41.347656,50 43,50 L49,50 C50.652344,50 52,48.652344 52,47 L52,39.816406 C52.3125,39.929688 52.648438,40 53,40 L57,40 C58.652344,40 60,38.652344 60,37 L60,30 L61,30 C62.652344,30 64,28.652344 64,27 L64,23 C64,21.347656 62.652344,20 61,20 L60,20 L60,13 C60,11.347656 58.652344,10 57,10 L53,10 C52.648438,10 52.3125,10.070313 52,10.183594 L52,3 C52,1.347656 50.652344,0 49,0 L43,0 C41.347656,0 40,1.347656 40,3 L40,20 L24,20 L24,3 C24,1.347656 22.652344,0 21,0 L15,0 Z M15,2 L21,2 C21.550781,2 22,2.449219 22,3 L22,47 C22,47.550781 21.550781,48 21,48 L15,48 C14.449219,48 14,47.550781 14,47 L14,3 C14,2.449219 14.449219,2 15,2 Z M43,2 L49,2 C49.550781,2 50,2.449219 50,3 L50,47 C50,47.550781 49.550781,48 49,48 L43,48 C42.449219,48 42,47.550781 42,47 L42,3 C42,2.449219 42.449219,2 43,2 Z M17,4 C16.445313,4 16,4.445313 16,5 C16,5.554688 16.445313,6 17,6 L19,6 C19.554688,6 20,5.554688 20,5 C20,4.445313 19.554688,4 19,4 L17,4 Z M45,4 C44.445313,4 44,4.445313 44,5 C44,5.554688 44.445313,6 45,6 L47,6 C47.554688,6 48,5.554688 48,5 C48,4.445313 47.554688,4 47,4 L45,4 Z M17,9 C16.445313,9 16,9.445313 16,10 C16,10.554688 16.445313,11 17,11 L19,11 C19.554688,11 20,10.554688 20,10 C20,9.445313 19.554688,9 19,9 L17,9 Z M45,9 C44.445313,9 44,9.445313 44,10 C44,10.554688 44.445313,11 45,11 L47,11 C47.554688,11 48,10.554688 48,10 C48,9.445313 47.554688,9 47,9 L45,9 Z M7,12 L11,12 C11.550781,12 12,12.449219 12,13 L12,37 C12,37.550781 11.550781,38 11,38 L7,38 C6.449219,38 6,37.550781 6,37 L6,13 C6,12.449219 6.449219,12 7,12 Z M53,12 L57,12 C57.550781,12 58,12.449219 58,13 L58,37 C58,37.550781 57.550781,38 57,38 L53,38 C52.449219,38 52,37.550781 52,37 L52,13 C52,12.449219 52.449219,12 53,12 Z M17,14 C16.445313,14 16,14.445313 16,15 C16,15.554688 16.445313,16 17,16 L19,16 C19.554688,16 20,15.554688 20,15 C20,14.445313 19.554688,14 19,14 L17,14 Z M45,14 C44.445313,14 44,14.445313 44,15 C44,15.554688 44.445313,16 45,16 L47,16 C47.554688,16 48,15.554688 48,15 C48,14.445313 47.554688,14 47,14 L45,14 Z M17,19 C16.445313,19 16,19.445313 16,20 C16,20.554688 16.445313,21 17,21 L19,21 C19.554688,21 20,20.554688 20,20 C20,19.445313 19.554688,19 19,19 L17,19 Z M45,19 C44.445313,19 44,19.445313 44,20 C44,20.554688 44.445313,21 45,21 L47,21 C47.554688,21 48,20.554688 48,20 C48,19.445313 47.554688,19 47,19 L45,19 Z M3,22 L4,22 L4,28 L3,28 C2.449219,28 2,27.550781 2,27 L2,23 C2,22.449219 2.449219,22 3,22 Z M24,22 L40,22 L40,28 L24,28 L24,22 Z M60,22 L61,22 C61.550781,22 62,22.449219 62,23 L62,27 C62,27.550781 61.550781,28 61,28 L60,28 L60,22 Z M17,24 C16.445313,24 16,24.445313 16,25 C16,25.554688 16.445313,26 17,26 L19,26 C19.554688,26 20,25.554688 20,25 C20,24.445313 19.554688,24 19,24 L17,24 Z M45,24 C44.445313,24 44,24.445313 44,25 C44,25.554688 44.445313,26 45,26 L47,26 C47.554688,26 48,25.554688 48,25 C48,24.445313 47.554688,24 47,24 L45,24 Z M17,29 C16.445313,29 16,29.445313 16,30 C16,30.554688 16.445313,31 17,31 L19,31 C19.554688,31 20,30.554688 20,30 C20,29.445313 19.554688,29 19,29 L17,29 Z M45,29 C44.445313,29 44,29.445313 44,30 C44,30.554688 44.445313,31 45,31 L47,31 C47.554688,31 48,30.554688 48,30 C48,29.445313 47.554688,29 47,29 L45,29 Z M17,34 C16.445313,34 16,34.445313 16,35 C16,35.554688 16.445313,36 17,36 L19,36 C19.554688,36 20,35.554688 20,35 C20,34.445313 19.554688,34 19,34 L17,34 Z M45,34 C44.445313,34 44,34.445313 44,35 C44,35.554688 44.445313,36 45,36 L47,36 C47.554688,36 48,35.554688 48,35 C48,34.445313 47.554688,34 47,34 L45,34 Z M17,39 C16.445313,39 16,39.445313 16,40 C16,40.554688 16.445313,41 17,41 L19,41 C19.554688,41 20,40.554688 20,40 C20,39.445313 19.554688,39 19,39 L17,39 Z M45,39 C44.445313,39 44,39.445313 44,40 C44,40.554688 44.445313,41 45,41 L47,41 C47.554688,41 48,40.554688 48,40 C48,39.445313 47.554688,39 47,39 L45,39 Z M17,44 C16.445313,44 16,44.445313 16,45 C16,45.554688 16.445313,46 17,46 L19,46 C19.554688,46 20,45.554688 20,45 C20,44.445313 19.554688,44 19,44 L17,44 Z M45,44 C44.445313,44 44,44.445313 44,45 C44,45.554688 44.445313,46 45,46 L47,46 C47.554688,46 48,45.554688 48,45 C48,44.445313 47.554688,44 47,44 L45,44 Z" id="Shape"></path>
        </g>
    </g>
</svg>