<?xml version="1.0" encoding="UTF-8"?>
<svg width="58px" height="52px" viewBox="0 0 58 52" version="1.1" xmlns="http://www.w3.org/2000/svg" xmlns:xlink="http://www.w3.org/1999/xlink">
    <!-- Generator: Sketch 50 (54983) - http://www.bohemiancoding.com/sketch -->
    <title>chat</title>
    <desc>Created with Sketch.</desc>
    <defs></defs>
    <g id="Page-1" stroke="none" stroke-width="1" fill="none" fill-rule="evenodd">
        <g id="Artboard" transform="translate(0.000000, -4.000000)" fill="#52555A" fill-rule="nonzero">
            <g id="chat" transform="translate(0.000000, 4.000000)">
                <path d="M2.9,0 C1.30273413,0 0,1.30273413 0,2.9 L0,33.8333333 C0,35.4305992 1.30273413,36.7333333 2.9,36.7333333 L9.80637997,36.7333333 C9.86679663,37.7679692 9.696875,39.9580734 7.86927083,43.0015625 C7.67291667,43.3338542 7.69179663,43.752995 7.91458333,44.06263 C8.09960913,44.3194008 8.39414087,44.4666667 8.7,44.4666667 C8.76796923,44.4666667 8.8397133,44.4591151 8.91145833,44.4440109 C16.3766925,42.7863284 19.1558591,38.4136716 19.9677083,36.7333333 L27.0666667,36.7333333 L27.0666667,41.5666667 C27.0666667,43.1639325 28.3694008,44.4666667 29.9666667,44.4666667 L41.7932292,44.4666667 C42.3747401,46.2451825 44.334505,50.3950526 50.1307292,51.222005 C50.1760417,51.2295575 50.2213542,51.2333333 50.2666667,51.2333333 C50.5611984,51.2333333 50.840625,51.0973958 51.0256508,50.8632817 C51.2408859,50.5914067 51.29375,50.2289067 51.1653651,49.9079425 C50.0023442,47.0041667 49.9683591,45.2671875 50.0552083,44.4666667 L55.1,44.4666667 C56.6972659,44.4666667 58,43.1639325 58,41.5666667 L58,20.3 C58,18.7027341 56.6972659,17.4 55.1,17.4 L50.2666667,17.4 L50.2666667,2.9 C50.2666667,1.30273413 48.9639325,0 47.3666667,0 L2.9,0 Z M2.9,1.93333333 L47.3666667,1.93333333 C47.8990883,1.93333333 48.3333333,2.36757837 48.3333333,2.9 L48.3333333,33.8333333 C48.3333333,34.365755 47.8990883,34.8 47.3666667,34.8 L19.3333333,34.8 C18.9179692,34.8 18.5479167,35.0643234 18.415755,35.4608075 C18.4006508,35.5098958 16.8902341,39.8296875 10.5880208,41.9744792 C12.3552083,38.0058591 11.5886716,35.5778651 11.5509117,35.4608075 C11.41875,35.0643234 11.0486984,34.8 10.6333333,34.8 L2.9,34.8 C2.36757837,34.8 1.93333333,34.365755 1.93333333,33.8333333 L1.93333333,2.9 C1.93333333,2.36757837 2.36757837,1.93333333 2.9,1.93333333 Z M10.6333333,13.5333333 C10.0971359,13.5333333 9.66666667,13.9675784 9.66666667,14.5 C9.66666667,15.0324216 10.0971359,15.4666667 10.6333333,15.4666667 L28.0333333,15.4666667 C28.5695317,15.4666667 29,15.0324216 29,14.5 C29,13.9675784 28.5695317,13.5333333 28.0333333,13.5333333 L10.6333333,13.5333333 Z M31.9,13.5333333 C31.3638026,13.5333333 30.9333333,13.9675784 30.9333333,14.5 C30.9333333,15.0324216 31.3638026,15.4666667 31.9,15.4666667 L35.7666667,15.4666667 C36.3028651,15.4666667 36.7333333,15.0324216 36.7333333,14.5 C36.7333333,13.9675784 36.3028651,13.5333333 35.7666667,13.5333333 L31.9,13.5333333 Z M10.6333333,19.3333333 C10.0971359,19.3333333 9.66666667,19.7675784 9.66666667,20.3 C9.66666667,20.8324216 10.0971359,21.2666667 10.6333333,21.2666667 L31.9,21.2666667 C32.4361984,21.2666667 32.8666667,20.8324216 32.8666667,20.3 C32.8666667,19.7675784 32.4361984,19.3333333 31.9,19.3333333 L10.6333333,19.3333333 Z M50.2666667,19.3333333 L55.1,19.3333333 C55.6324216,19.3333333 56.0666667,19.7675784 56.0666667,20.3 L56.0666667,41.5666667 C56.0666667,42.0990883 55.6324216,42.5333333 55.1,42.5333333 L49.3,42.5333333 C48.9337242,42.5333333 48.6014325,42.7410159 48.4352867,43.065755 C48.3295575,43.2772133 47.5516925,45.0368492 48.7675784,48.9412758 C44.2740883,47.5252609 43.51888,43.5264325 43.4848958,43.3414067 C43.409375,42.8769534 43.0053383,42.5333333 42.5333333,42.5333333 L29.9666667,42.5333333 C29.434245,42.5333333 29,42.0990883 29,41.5666667 L29,36.7333333 L47.3666667,36.7333333 C48.9639325,36.7333333 50.2666667,35.4305992 50.2666667,33.8333333 L50.2666667,19.3333333 Z M5.8,29 C5.26380257,29 4.83333333,29.434245 4.83333333,29.9666667 L4.83333333,31.9 C4.83333333,32.4324216 5.26380257,32.8666667 5.8,32.8666667 C6.3361984,32.8666667 6.76666667,32.4324216 6.76666667,31.9 L6.76666667,29.9666667 C6.76666667,29.434245 6.3361984,29 5.8,29 Z M10.6333333,29 C10.0971359,29 9.66666667,29.434245 9.66666667,29.9666667 L9.66666667,31.9 C9.66666667,32.4324216 10.0971359,32.8666667 10.6333333,32.8666667 C11.1695317,32.8666667 11.6,32.4324216 11.6,31.9 L11.6,29.9666667 C11.6,29.434245 11.1695317,29 10.6333333,29 Z M15.4666667,29 C14.9304692,29 14.5,29.434245 14.5,29.9666667 L14.5,31.9 C14.5,32.4324216 14.9304692,32.8666667 15.4666667,32.8666667 C16.0028651,32.8666667 16.4333333,32.4324216 16.4333333,31.9 L16.4333333,29.9666667 C16.4333333,29.434245 16.0028651,29 15.4666667,29 Z M20.3,29 C19.7638026,29 19.3333333,29.434245 19.3333333,29.9666667 L19.3333333,31.9 C19.3333333,32.4324216 19.7638026,32.8666667 20.3,32.8666667 C20.8361984,32.8666667 21.2666667,32.4324216 21.2666667,31.9 L21.2666667,29.9666667 C21.2666667,29.434245 20.8361984,29 20.3,29 Z M25.1333333,29 C24.5971359,29 24.1666667,29.434245 24.1666667,29.9666667 L24.1666667,31.9 C24.1666667,32.4324216 24.5971359,32.8666667 25.1333333,32.8666667 C25.6695317,32.8666667 26.1,32.4324216 26.1,31.9 L26.1,29.9666667 C26.1,29.434245 25.6695317,29 25.1333333,29 Z M29.9666667,29 C29.4304692,29 29,29.434245 29,29.9666667 L29,31.9 C29,32.4324216 29.4304692,32.8666667 29.9666667,32.8666667 C30.5028651,32.8666667 30.9333333,32.4324216 30.9333333,31.9 L30.9333333,29.9666667 C30.9333333,29.434245 30.5028651,29 29.9666667,29 Z M34.8,29 C34.2638026,29 33.8333333,29.434245 33.8333333,29.9666667 L33.8333333,31.9 C33.8333333,32.4324216 34.2638026,32.8666667 34.8,32.8666667 C35.3361984,32.8666667 35.7666667,32.4324216 35.7666667,31.9 L35.7666667,29.9666667 C35.7666667,29.434245 35.3361984,29 34.8,29 Z M39.6333333,29 C39.0971359,29 38.6666667,29.434245 38.6666667,29.9666667 L38.6666667,31.9 C38.6666667,32.4324216 39.0971359,32.8666667 39.6333333,32.8666667 C40.1695317,32.8666667 40.6,32.4324216 40.6,31.9 L40.6,29.9666667 C40.6,29.434245 40.1695317,29 39.6333333,29 Z M44.4666667,29 C43.9304692,29 43.5,29.434245 43.5,29.9666667 L43.5,31.9 C43.5,32.4324216 43.9304692,32.8666667 44.4666667,32.8666667 C45.0028651,32.8666667 45.4333333,32.4324216 45.4333333,31.9 L45.4333333,29.9666667 C45.4333333,29.434245 45.0028651,29 44.4666667,29 Z" id="Shape"></path>
            </g>
        </g>
    </g>
</svg>