<?xml version="1.0" encoding="UTF-8"?>
<svg width="61px" height="58px" viewBox="0 0 61 58" version="1.1" xmlns="http://www.w3.org/2000/svg" xmlns:xlink="http://www.w3.org/1999/xlink">
    <!-- Generator: Sketch 49.3 (51167) - http://www.bohemiancoding.com/sketch -->
    <title>check</title>
    <desc>Created with Sketch.</desc>
    <defs></defs>
    <g id="Page-1" stroke="none" stroke-width="1" fill="none" fill-rule="evenodd">
        <g id="check" fill="#52555A" fill-rule="nonzero">
            <path d="M29.0000001,0 C13.0117191,0 0,13.007813 0,29 C0,44.992188 13.0117191,58 29.0000001,58 C44.9882812,58 58.0000002,44.992188 58.0000002,29 C58.0000002,24.355469 56.8671882,19.769531 54.7460942,15.671875 L60.7070312,9.707031 C61.0976563,9.316406 61.0976563,8.683594 60.7070312,8.292969 L56.7070312,4.292969 C56.3164062,3.902344 55.6835942,3.902344 55.2929692,4.292969 L50.2265632,9.359375 C50.1796882,9.234375 50.1093752,9.117188 50.0156252,9.015625 C44.4843752,3.203125 37.0195312,0 29.0000001,0 Z M29,2 C36.46875,2 43.417969,4.980469 48.5625,10.394531 C48.675781,10.511719 48.808594,10.585938 48.949219,10.636719 L45.984375,13.601563 C45.9375,13.484375 45.875,13.371094 45.78125,13.269531 C45.613281,13.089844 45.441406,12.914063 45.265625,12.738281 C44.605469,12.078125 43.902344,11.457031 43.171875,10.882813 C42.734375,10.542969 42.105469,10.617188 41.765625,11.050781 C41.425781,11.488281 41.5,12.113281 41.9375,12.453125 C42.605469,12.976563 43.246094,13.550781 43.847656,14.152344 C44.007813,14.3125 44.167969,14.476563 44.320313,14.640625 C44.429688,14.753906 44.5625,14.832031 44.703125,14.886719 L29,30.585938 L18.707031,20.292969 C18.316406,19.902344 17.683594,19.902344 17.292969,20.292969 L13.292969,24.292969 C12.902344,24.683594 12.902344,25.316406 13.292969,25.707031 L28.292969,40.707031 C28.488281,40.902344 28.742188,41 29,41 C29.257813,41 29.511719,40.902344 29.707031,40.707031 L48.691406,21.722656 C48.757813,21.902344 48.820313,22.082031 48.882813,22.265625 C48.984375,22.5625 49.078125,22.863281 49.164063,23.167969 C49.199219,23.296875 49.246094,23.425781 49.28125,23.554688 C49.398438,24.007813 49.503906,24.464844 49.59375,24.921875 C49.609375,25 49.621094,25.078125 49.636719,25.15625 C50.457031,29.640625 49.78125,34.292969 47.769531,38.359375 C47.667969,38.5625 47.566406,38.769531 47.457031,38.972656 C47.292969,39.28125 47.117188,39.589844 46.9375,39.890625 C46.769531,40.167969 46.59375,40.433594 46.414063,40.699219 C46.257813,40.929688 46.109375,41.167969 45.941406,41.394531 C45.597656,41.871094 45.234375,42.324219 44.851563,42.765625 C44.714844,42.921875 44.566406,43.070313 44.425781,43.222656 C38.472656,49.667969 28.84375,51.941406 20.40625,48.160156 C17.886719,47.03125 15.714844,45.453125 13.90625,43.578125 C13.65625,43.320313 13.421875,43.050781 13.1875,42.78125 C12.949219,42.507813 12.710938,42.234375 12.488281,41.953125 C12.316406,41.734375 12.160156,41.507813 12,41.285156 C11.742188,40.933594 11.492188,40.582031 11.261719,40.214844 C11.15625,40.050781 11.0625,39.878906 10.964844,39.710938 C10.710938,39.285156 10.464844,38.855469 10.242188,38.410156 C10.175781,38.273438 10.117188,38.132813 10.050781,37.996094 C9.828125,37.527344 9.613281,37.050781 9.425781,36.566406 C9.363281,36.40625 9.3125,36.238281 9.253906,36.078125 C9.09375,35.621094 8.933594,35.160156 8.800781,34.691406 C8.730469,34.441406 8.679688,34.183594 8.617188,33.929688 C8.523438,33.550781 8.433594,33.175781 8.359375,32.792969 C8.292969,32.414063 8.246094,32.035156 8.199219,31.65625 C8.164063,31.390625 8.121094,31.125 8.097656,30.859375 C8.054688,30.382813 8.039063,29.902344 8.03125,29.421875 C8.023438,29.242188 8.015625,29.066406 8.015625,28.890625 C8.019531,28.371094 8.050781,27.855469 8.089844,27.339844 C8.101563,27.183594 8.105469,27.03125 8.121094,26.875 C8.171875,26.386719 8.246094,25.894531 8.332031,25.40625 C8.363281,25.214844 8.394531,25.019531 8.433594,24.828125 C8.515625,24.402344 8.628906,23.988281 8.738281,23.566406 C8.8125,23.300781 8.878906,23.035156 8.960938,22.769531 C9.066406,22.421875 9.191406,22.082031 9.316406,21.742188 C9.441406,21.410156 9.566406,21.074219 9.707031,20.746094 C9.855469,20.394531 10.019531,20.050781 10.1875,19.707031 C10.296875,19.484375 10.40625,19.253906 10.523438,19.035156 C10.746094,18.617188 10.992188,18.210938 11.25,17.808594 C11.335938,17.667969 11.414063,17.523438 11.503906,17.386719 C11.859375,16.851563 12.242188,16.332031 12.652344,15.828125 C12.75,15.703125 12.859375,15.589844 12.960938,15.46875 C13.285156,15.085938 13.621094,14.710938 13.972656,14.34375 C14.203125,14.113281 14.433594,13.882813 14.671875,13.660156 C14.773438,13.566406 14.875,13.464844 14.980469,13.371094 C15.34375,13.046875 15.71875,12.734375 16.101563,12.433594 C16.230469,12.332031 16.367188,12.238281 16.5,12.140625 C16.761719,11.945313 17.03125,11.753906 17.300781,11.574219 C17.484375,11.449219 17.667969,11.328125 17.855469,11.214844 C18.085938,11.070313 18.320313,10.933594 18.554688,10.796875 C18.964844,10.5625 19.382813,10.339844 19.808594,10.136719 C19.964844,10.058594 20.117188,9.976563 20.273438,9.90625 C20.570313,9.769531 20.867188,9.648438 21.167969,9.527344 C21.292969,9.476563 21.417969,9.429688 21.546875,9.378906 C21.871094,9.257813 22.199219,9.132813 22.53125,9.027344 C22.539063,9.023438 22.542969,9.023438 22.550781,9.023438 C23.320313,8.777344 24.101563,8.570313 24.894531,8.410156 L24.925781,8.40625 C25.296875,8.332031 25.671875,8.269531 26.046875,8.21875 C26.125,8.207031 26.203125,8.195313 26.28125,8.1875 C27.335938,8.046875 28.40625,7.992188 29.476563,8.015625 C29.691406,8.019531 29.902344,8.023438 30.117188,8.035156 C30.378906,8.050781 30.640625,8.066406 30.90625,8.089844 C31.261719,8.121094 31.621094,8.167969 31.984375,8.21875 C32.101563,8.234375 32.222656,8.246094 32.339844,8.265625 C32.886719,8.351563 33.398438,7.980469 33.484375,7.4375 L33.484375,7.433594 C33.574219,6.886719 33.203125,6.375 32.65625,6.285156 C32.53125,6.265625 32.40625,6.261719 32.28125,6.242188 C31.882813,6.183594 31.480469,6.136719 31.078125,6.097656 C30.800781,6.074219 30.527344,6.058594 30.25,6.042969 C29.992188,6.027344 29.738281,6.019531 29.484375,6.015625 C28.355469,5.992188 27.238281,6.054688 26.136719,6.191406 C25.988281,6.210938 25.84375,6.230469 25.699219,6.25 C25.332031,6.304688 24.96875,6.363281 24.605469,6.4375 C24.492188,6.457031 24.382813,6.484375 24.269531,6.507813 C23.597656,6.652344 22.929688,6.820313 22.277344,7.023438 C22.132813,7.066406 21.992188,7.105469 21.847656,7.152344 C21.546875,7.253906 21.25,7.363281 20.949219,7.472656 C20.726563,7.558594 20.503906,7.644531 20.285156,7.734375 C20.027344,7.839844 19.765625,7.945313 19.511719,8.0625 C19.066406,8.265625 18.621094,8.480469 18.1875,8.710938 C18.042969,8.789063 17.902344,8.875 17.757813,8.953125 C17.40625,9.152344 17.058594,9.355469 16.71875,9.570313 C16.570313,9.664063 16.421875,9.761719 16.273438,9.859375 C15.898438,10.109375 15.53125,10.371094 15.171875,10.640625 C15.089844,10.703125 15.003906,10.761719 14.921875,10.824219 C14.472656,11.171875 14.035156,11.539063 13.609375,11.921875 C13.539063,11.984375 13.476563,12.046875 13.40625,12.109375 C13.183594,12.316406 12.957031,12.523438 12.738281,12.738281 C12.660156,12.816406 12.59375,12.902344 12.515625,12.984375 C12.164063,13.347656 11.824219,13.730469 11.492188,14.121094 C11.355469,14.277344 11.210938,14.433594 11.082031,14.59375 C10.648438,15.132813 10.234375,15.691406 9.847656,16.269531 C9.734375,16.445313 9.636719,16.621094 9.53125,16.796875 C9.265625,17.21875 9.007813,17.640625 8.769531,18.082031 C8.636719,18.332031 8.515625,18.585938 8.390625,18.839844 C8.269531,19.089844 8.132813,19.332031 8.015625,19.589844 C7.925781,19.792969 7.847656,19.996094 7.765625,20.199219 C7.730469,20.277344 7.695313,20.355469 7.664063,20.4375 C7.402344,21.089844 7.171875,21.75 6.972656,22.414063 C6.964844,22.433594 6.960938,22.453125 6.953125,22.472656 C6.097656,25.363281 5.839844,28.316406 6.117188,31.195313 C6.121094,31.203125 6.121094,31.210938 6.125,31.21875 C6.191406,31.910156 6.289063,32.59375 6.417969,33.269531 C6.433594,33.363281 6.457031,33.457031 6.476563,33.550781 C6.59375,34.148438 6.738281,34.734375 6.90625,35.320313 C6.953125,35.492188 7.007813,35.660156 7.058594,35.828125 C7.21875,36.34375 7.394531,36.851563 7.589844,37.351563 C7.671875,37.566406 7.757813,37.777344 7.851563,37.988281 C8.046875,38.457031 8.261719,38.917969 8.488281,39.371094 C8.597656,39.585938 8.707031,39.796875 8.824219,40.003906 C9.074219,40.472656 9.347656,40.925781 9.628906,41.375 C9.738281,41.546875 9.847656,41.714844 9.960938,41.878906 C10.296875,42.378906 10.652344,42.859375 11.027344,43.332031 C11.109375,43.433594 11.1875,43.539063 11.273438,43.640625 C11.710938,44.171875 12.175781,44.6875 12.664063,45.179688 C12.691406,45.207031 12.714844,45.238281 12.738281,45.265625 C12.746094,45.269531 12.753906,45.269531 12.757813,45.273438 C14.679688,47.195313 16.96875,48.808594 19.59375,49.984375 C22.640625,51.351563 25.828125,52 28.96875,52 C35.042969,52 40.933594,49.578125 45.257813,45.269531 C45.261719,45.265625 45.265625,45.265625 45.265625,45.261719 C45.347656,45.183594 45.414063,45.097656 45.492188,45.015625 C45.8125,44.691406 46.128906,44.355469 46.429688,44.003906 C46.5,43.925781 46.558594,43.839844 46.625,43.761719 C46.9375,43.390625 47.238281,43.011719 47.527344,42.621094 C47.558594,42.574219 47.589844,42.53125 47.621094,42.484375 C48.527344,41.234375 49.332031,39.878906 49.988281,38.410156 C51.917969,34.109375 52.453125,29.351563 51.605469,24.792969 C51.589844,24.703125 51.574219,24.617188 51.558594,24.53125 C51.457031,24.03125 51.347656,23.53125 51.214844,23.035156 C51.179688,22.894531 51.128906,22.757813 51.089844,22.613281 C50.992188,22.28125 50.890625,21.945313 50.78125,21.613281 C50.707031,21.402344 50.632813,21.191406 50.554688,20.980469 C50.453125,20.710938 50.34375,20.445313 50.234375,20.179688 L53.265625,17.152344 C55.050781,20.824219 56,24.886719 56,29 C56,43.886719 43.886719,56 29,56 C14.113281,56 2,43.886719 2,29 C2,14.113281 14.113281,2 29,2 Z M56,6.414063 L58.585938,9 L29,38.585938 L15.414063,25 L18,22.414063 L28.292969,32.707031 C28.683594,33.097656 29.316406,33.097656 29.707031,32.707031 L56,6.414063 Z M36.65625,7.386719 C36.269531,7.402344 35.910156,7.648438 35.765625,8.035156 C35.570313,8.554688 35.832031,9.128906 36.351563,9.324219 C37.066406,9.589844 37.769531,9.898438 38.453125,10.238281 C38.597656,10.3125 38.75,10.347656 38.902344,10.347656 C39.265625,10.347656 39.617188,10.148438 39.796875,9.796875 C40.042969,9.304688 39.84375,8.703125 39.351563,8.453125 C38.609375,8.078125 37.832031,7.742188 37.050781,7.449219 C36.921875,7.402344 36.789063,7.382813 36.65625,7.386719 Z" id="Shape"></path>
        </g>
    </g>
</svg>