<?xml version="1.0" encoding="UTF-8"?>
<svg width="58px" height="58px" viewBox="0 0 58 58" version="1.1" xmlns="http://www.w3.org/2000/svg" xmlns:xlink="http://www.w3.org/1999/xlink">
    <!-- Generator: Sketch 50 (54983) - http://www.bohemiancoding.com/sketch -->
    <title>cheerful</title>
    <desc>Created with Sketch.</desc>
    <defs></defs>
    <g id="Page-1" stroke="none" stroke-width="1" fill="none" fill-rule="evenodd">
        <g id="Artboard" fill="#52555A" fill-rule="nonzero">
            <g id="cheerful">
                <path d="M29,0 C13.007813,0 0,13.011719 0,29 C0,44.988281 13.007813,58 29,58 C44.992188,58 58,44.988281 58,29 C58,13.011719 44.992188,0 29,0 Z M29,2 C43.886719,2 56,14.113281 56,29 C56,43.886719 43.886719,56 29,56 C14.113281,56 2,43.886719 2,29 C2,14.113281 14.113281,2 29,2 Z M13,18 C10.242188,18 8,20.242188 8,23 C8,23.554688 8.449219,24 9,24 C9.550781,24 10,23.554688 10,23 C10,21.347656 11.347656,20 13,20 C14.652344,20 16,21.347656 16,23 C16,23.554688 16.449219,24 17,24 C17.550781,24 18,23.554688 18,23 C18,20.242188 15.757813,18 13,18 Z M37,18 C34.242188,18 32,20.242188 32,23 C32,23.554688 32.449219,24 33,24 C33.550781,24 34,23.554688 34,23 C34,21.347656 35.347656,20 37,20 C38.652344,20 40,21.347656 40,23 C40,23.554688 40.449219,24 41,24 C41.550781,24 42,23.554688 42,23 C42,20.242188 39.757813,18 37,18 Z M14.203125,30.101563 C13.648438,30.101563 13.203125,30.546875 13.203125,31.101563 C13.203125,33.570313 13.890625,35.730469 15.128906,37.464844 C15.1875,37.574219 15.261719,37.667969 15.355469,37.75 C17.414063,40.417969 20.832031,42 25.101563,42 C32.109375,42 37,37.519531 37,31.101563 C37,30.546875 36.550781,30.101563 36,30.101563 L14.203125,30.101563 Z M15.246094,32.101563 L34.953125,32.101563 C34.480469,36.867188 30.644531,40 25.101563,40 C21.523438,40 18.699219,38.757813 17,36.617188 L17,35 C17,34.445313 16.550781,34 16,34 C15.878906,34 15.761719,34.03125 15.652344,34.070313 C15.453125,33.453125 15.3125,32.796875 15.246094,32.101563 Z M21,34 C20.449219,34 20,34.445313 20,35 L20,37 C20,37.554688 20.449219,38 21,38 C21.550781,38 22,37.554688 22,37 L22,35 C22,34.445313 21.550781,34 21,34 Z M26,34 C25.449219,34 25,34.445313 25,35 L25,37 C25,37.554688 25.449219,38 26,38 C26.550781,38 27,37.554688 27,37 L27,35 C27,34.445313 26.550781,34 26,34 Z M31,34 C30.449219,34 30,34.445313 30,35 L30,37 C30,37.554688 30.449219,38 31,38 C31.550781,38 32,37.554688 32,37 L32,35 C32,34.445313 31.550781,34 31,34 Z M45.121094,42.925781 C44.867188,42.9375 44.613281,43.042969 44.425781,43.246094 C43.894531,43.824219 43.328125,44.375 42.734375,44.886719 C42.316406,45.246094 42.273438,45.878906 42.632813,46.296875 C42.832031,46.527344 43.109375,46.640625 43.390625,46.640625 C43.621094,46.640625 43.855469,46.5625 44.042969,46.398438 C44.691406,45.839844 45.3125,45.238281 45.894531,44.605469 C46.269531,44.199219 46.246094,43.566406 45.839844,43.191406 C45.636719,43.003906 45.375,42.917969 45.121094,42.925781 Z M39.589844,47.234375 C39.460938,47.25 39.332031,47.289063 39.210938,47.355469 C35.027344,49.683594 30.011719,50.511719 25.296875,49.671875 C24.75,49.574219 24.234375,49.941406 24.140625,50.484375 C24.042969,51.027344 24.402344,51.546875 24.949219,51.640625 C26.277344,51.878906 27.640625,52 29,52 C32.917969,52 36.785156,50.996094 40.1875,49.101563 C40.667969,48.832031 40.839844,48.222656 40.574219,47.742188 C40.371094,47.378906 39.976563,47.191406 39.589844,47.234375 Z" id="Shape"></path>
            </g>
        </g>
    </g>
</svg>