<?xml version="1.0" encoding="UTF-8"?>
<svg width="52px" height="52px" viewBox="0 0 52 52" version="1.1" xmlns="http://www.w3.org/2000/svg" xmlns:xlink="http://www.w3.org/1999/xlink">
    <!-- Generator: Sketch 49.3 (51167) - http://www.bohemiancoding.com/sketch -->
    <title>cohesive</title>
    <desc>Created with Sketch.</desc>
    <defs></defs>
    <g id="Page-1" stroke="none" stroke-width="1" fill="none" fill-rule="evenodd">
        <g id="cohesive" fill="#52555A" fill-rule="nonzero">
            <path d="M3,0 C1.346,0 0,1.346 0,3 L0,49 C0,50.654 1.346,52 3,52 L49,52 C50.654,52 52,50.654 52,49 L52,3 C52,1.346 50.654,0 49,0 L3,0 Z M3,2 L4.828125,2 L10.130859,7.300781 C10.835859,8.004781 11.863047,8.308328 12.873047,8.111328 C13.778047,7.932328 14.699469,7.969656 15.605469,8.222656 C17.969469,8.877656 19.721797,10.946141 19.966797,13.369141 C20.151797,15.185141 19.523188,16.961187 18.242188,18.242188 C16.961188,19.522188 15.189141,20.15875 13.369141,19.96875 C10.945141,19.72375 8.877656,17.969469 8.222656,15.605469 C7.970656,14.697469 7.931375,13.778047 8.109375,12.873047 C8.307375,11.860047 8.006781,10.835859 7.300781,10.130859 L4.705078,7.535156 C4.314078,7.144156 3.6839687,7.144156 3.2929688,7.535156 C2.9019687,7.926156 2.9019688,8.558219 3.2929688,8.949219 L5.886719,11.544922 C6.119719,11.777922 6.216484,12.132234 6.146484,12.490234 C5.909484,13.702234 5.959922,14.929625 6.294922,16.140625 C7.168922,19.291625 9.930969,21.629031 13.167969,21.957031 C13.444969,21.984031 13.721141,22 13.994141,22 C16.117141,22 18.14325,21.16825 19.65625,19.65625 C21.36325,17.94825 22.202031,15.585922 21.957031,13.169922 C21.629031,9.932922 19.291625,7.168922 16.140625,6.294922 C14.928625,5.959922 13.701234,5.910438 12.490234,6.148438 C12.131234,6.217438 11.777922,6.120719 11.544922,5.886719 L7.65625,2 L49,2 C49.552,2 50,2.448 50,3 L50,24 C49.447,24 49,24.447 49,25 L49,27 C49,27.553 49.447,28 50,28 L50,49 C50,49.552 49.552,50 49,50 L47.171875,50 L41.869141,44.699219 C41.164141,43.994219 40.137953,43.690672 39.126953,43.888672 C38.053953,44.099672 36.967484,44.006187 35.896484,43.617188 C33.954484,42.909188 32.506188,41.220031 32.117188,39.207031 C31.745188,37.285031 32.273359,35.370125 33.568359,33.953125 C34.863359,32.537125 36.705859,31.83425 38.630859,32.03125 C41.053859,32.27625 43.122344,34.030531 43.777344,36.394531 C44.029344,37.302531 44.066672,38.221953 43.888672,39.126953 C43.690672,40.139953 43.993219,41.164141 44.699219,41.869141 L47.292969,44.464844 C47.683969,44.855844 48.316031,44.855844 48.707031,44.464844 C49.098031,44.073844 49.098031,43.441781 48.707031,43.050781 L46.113281,40.455078 C45.880281,40.222078 45.781563,39.867766 45.851562,39.509766 C46.088563,38.297766 46.040078,37.070375 45.705078,35.859375 C44.831078,32.708375 42.069031,30.370969 38.832031,30.042969 C36.270031,29.782969 33.81875,30.718469 32.09375,32.605469 C30.36875,34.492469 29.659297,37.039891 30.154297,39.587891 C30.675297,42.285891 32.614891,44.549094 35.212891,45.496094 C36.632891,46.014094 38.079719,46.132562 39.511719,45.851562 C39.871719,45.782562 40.224031,45.877328 40.457031,46.111328 L44.34375,50 L3,50 C2.448,50 2,49.552 2,49 L2,28 C2.553,28 3,27.553 3,27 L3,25 C3,24.447 2.553,24 2,24 L2,3 C2,2.448 2.448,2 3,2 Z M38.121094,6 C37.805854,5.995424 37.487594,6.010844 37.167969,6.042969 C33.930969,6.370969 31.168922,8.708375 30.294922,11.859375 C29.958922,13.070375 29.910437,14.298766 30.148438,15.509766 C30.218438,15.868766 30.120719,16.222078 29.886719,16.455078 L16.455078,29.886719 C16.222078,30.119719 15.867719,30.216437 15.511719,30.148438 C14.299719,29.910438 13.071375,29.959922 11.859375,30.294922 C8.708375,31.168922 6.370969,33.932922 6.042969,37.169922 C5.798969,39.586922 6.638656,41.951203 8.347656,43.658203 C9.857656,45.169203 11.884859,46 14.005859,46 C14.280859,46 14.558938,45.985031 14.835938,45.957031 C18.070937,45.627031 20.831078,43.289672 21.705078,40.138672 C22.040078,38.928672 22.089562,37.699234 21.851562,36.490234 C21.781562,36.131234 21.879281,35.777922 22.113281,35.544922 L35.544922,22.113281 C35.777922,21.880281 36.132281,21.784516 36.488281,21.853516 C37.922281,22.133516 39.367109,22.014047 40.787109,21.498047 C43.385109,20.551047 45.323703,18.286844 45.845703,15.589844 C46.339703,13.038844 45.63225,10.493469 43.90625,8.605469 C42.396,6.953469 40.327775,6.032033 38.121094,6 Z M38.083984,8.001953 C39.739553,8.024676 41.298516,8.715203 42.431641,9.955078 C43.726641,11.372078 44.254813,13.285984 43.882812,15.208984 C43.492812,17.220984 42.045516,18.909187 40.103516,19.617188 C39.031516,20.008188 37.943047,20.097672 36.873047,19.888672 C35.860047,19.690672 34.835859,19.994219 34.130859,20.699219 L20.699219,34.130859 C19.994219,34.835859 19.690672,35.859047 19.888672,36.873047 C20.066672,37.776047 20.028344,38.696516 19.777344,39.603516 C19.122344,41.966516 17.055813,43.719797 14.632812,43.966797 C12.813813,44.152797 11.038812,43.524188 9.757812,42.242188 C8.476812,40.962187 7.84825,39.186141 8.03125,37.369141 C8.27625,34.945141 10.028578,32.877656 12.392578,32.222656 C12.927578,32.074656 13.465,32 14,32 C14.377,32 14.752953,32.036375 15.126953,32.109375 C16.140953,32.309375 17.165141,32.005781 17.869141,31.300781 L31.300781,17.869141 C32.005781,17.164141 32.309328,16.140953 32.111328,15.126953 C31.933328,14.222953 31.970656,13.302531 32.222656,12.394531 C32.877656,10.030531 34.947141,8.278203 37.369141,8.033203 C37.608641,8.008828 37.847475,7.998707 38.083984,8.001953 Z M14,11 C12.346,11 11,12.346 11,14 C11,15.654 12.346,17 14,17 C15.654,17 17,15.654 17,14 C17,12.346 15.654,11 14,11 Z M38,11 C36.346,11 35,12.346 35,14 C35,15.654 36.346,17 38,17 C39.654,17 41,15.654 41,14 C41,12.346 39.654,11 38,11 Z M14,13 C14.552,13 15,13.448 15,14 C15,14.552 14.552,15 14,15 C13.448,15 13,14.552 13,14 C13,13.448 13.448,13 14,13 Z M38,13 C38.552,13 39,13.448 39,14 C39,14.552 38.552,15 38,15 C37.448,15 37,14.552 37,14 C37,13.448 37.448,13 38,13 Z M7,24 C6.447,24 6,24.447 6,25 L6,27 C6,27.553 6.447,28 7,28 C7.553,28 8,27.553 8,27 L8,25 C8,24.447 7.553,24 7,24 Z M12,24 C11.447,24 11,24.447 11,25 L11,27 C11,27.553 11.447,28 12,28 C12.553,28 13,27.553 13,27 L13,25 C13,24.447 12.553,24 12,24 Z M17,24 C16.447,24 16,24.447 16,25 L16,27 C16,27.553 16.447,28 17,28 C17.553,28 18,27.553 18,27 L18,25 C18,24.447 17.553,24 17,24 Z M35,24 C34.447,24 34,24.447 34,25 L34,27 C34,27.553 34.447,28 35,28 C35.553,28 36,27.553 36,27 L36,25 C36,24.447 35.553,24 35,24 Z M40,24 C39.447,24 39,24.447 39,25 L39,27 C39,27.553 39.447,28 40,28 C40.553,28 41,27.553 41,27 L41,25 C41,24.447 40.553,24 40,24 Z M45,24 C44.447,24 44,24.447 44,25 L44,27 C44,27.553 44.447,28 45,28 C45.553,28 46,27.553 46,27 L46,25 C46,24.447 45.553,24 45,24 Z M14,35 C12.346,35 11,36.346 11,38 C11,39.654 12.346,41 14,41 C15.654,41 17,39.654 17,38 C17,36.346 15.654,35 14,35 Z M38,35 C36.346,35 35,36.346 35,38 C35,39.654 36.346,41 38,41 C39.654,41 41,39.654 41,38 C41,36.346 39.654,35 38,35 Z M14,37 C14.552,37 15,37.448 15,38 C15,38.552 14.552,39 14,39 C13.448,39 13,38.552 13,38 C13,37.448 13.448,37 14,37 Z M38,37 C38.552,37 39,37.448 39,38 C39,38.552 38.552,39 38,39 C37.448,39 37,38.552 37,38 C37,37.448 37.448,37 38,37 Z" id="Shape"></path>
        </g>
    </g>
</svg>