<?xml version="1.0" encoding="UTF-8"?>
<svg width="58px" height="54px" viewBox="0 0 58 54" version="1.1" xmlns="http://www.w3.org/2000/svg" xmlns:xlink="http://www.w3.org/1999/xlink">
    <!-- Generator: Sketch 50 (54983) - http://www.bohemiancoding.com/sketch -->
    <title>competition</title>
    <desc>Created with Sketch.</desc>
    <defs></defs>
    <g id="Page-1" stroke="none" stroke-width="1" fill="none" fill-rule="evenodd">
        <g id="Artboard" transform="translate(0.000000, -3.000000)" fill="#52555A" fill-rule="nonzero">
            <g id="competition" transform="translate(0.000000, 3.000000)">
                <path d="M11.5327621,0.920866935 C10.7434476,0.920866935 9.98702094,1.25705645 9.45715726,1.84173387 C8.92729358,2.43006529 8.66418874,3.21572581 8.74092742,4.00504032 L9.13923868,8.04296852 C6.71648232,7.0051661 3.86252497,7.4984879 1.92578148,9.43157739 C-0.635836226,11.99685 -0.635836226,16.1663306 1.92578148,18.7279484 C3.8223291,20.624496 9.32195084,21.8340476 12.4280492,22.3821822 C12.4865169,22.3931452 12.5413306,22.3967992 12.5961444,22.3967992 C12.691154,22.3967992 12.7825105,22.3785282 12.8738662,22.3492944 C13.8933976,24.4760589 15.0919864,26.5224299 16.4952122,28.4409025 L23.7379032,38.3548387 L17.7741935,38.3548387 C16.2284524,38.3548387 14.9677419,39.6155492 14.9677419,41.1612903 L14.9677419,47.7096774 L14.0322581,47.7096774 C12.4865169,47.7096774 11.2258065,48.9703879 11.2258065,50.516129 C11.2258065,52.0618702 12.4865169,53.3225806 14.0322581,53.3225806 L43.9677419,53.3225806 C45.5134831,53.3225806 46.7741935,52.0618702 46.7741935,50.516129 C46.7741935,48.9703879 45.5134831,47.7096774 43.9677419,47.7096774 L43.0322581,47.7096774 L43.0322581,41.1612903 C43.0322581,39.6155492 41.7715476,38.3548387 40.2258065,38.3548387 L34.2620968,38.3548387 L41.5047888,28.4409025 C42.9080146,26.5224299 44.1066033,24.4797129 45.1261338,22.3492944 C45.2174904,22.3785282 45.308846,22.3967992 45.4038556,22.3967992 C45.4586694,22.3967992 45.5134831,22.3931452 45.5719508,22.3821822 C48.6780492,21.8340476 54.1813258,20.624496 56.0742185,18.7279484 C58.6358372,16.1663306 58.6358372,11.99685 56.0742185,9.43157739 C54.137475,7.4948339 51.2835186,7.0051661 48.8607613,8.04296852 L49.2590726,4.00504032 C49.3358113,3.21572581 49.0727064,2.43006529 48.5428427,1.84173387 C48.0129791,1.25705645 47.2565524,0.920866935 46.4672379,0.920866935 L11.5327621,0.920866935 Z M11.5327621,2.79183468 L46.4672379,2.79183468 C46.7339967,2.79183468 46.9751766,2.90146216 47.1542339,3.09879032 C47.336946,3.29977342 47.4209927,3.55556932 47.3954138,3.8223291 L46.8472782,9.39138152 C46.2041331,15.8739919 43.8398435,22.0788815 39.9955895,27.3373234 L31.941658,38.3548387 L26.058342,38.3548387 L18.0044105,27.3373234 C14.1638105,22.0788815 11.7922129,15.8739919 11.1527218,9.39138152 L10.875,6.5483871 L36.483871,6.5483871 C36.9991177,6.5483871 37.4193548,6.1318049 37.4193548,5.61290323 C37.4193548,5.09400248 36.9991177,4.67741935 36.483871,4.67741935 L10.6886338,4.67741935 L10.6045872,3.8223291 C10.5790073,3.55556932 10.6630549,3.29977342 10.8421121,3.09879032 C11.0211694,2.90146216 11.2660033,2.79183468 11.5327621,2.79183468 Z M40.2258065,4.67741935 C39.7105597,4.67741935 39.2903226,5.09400248 39.2903226,5.61290323 C39.2903226,6.1318049 39.7105597,6.5483871 40.2258065,6.5483871 L43.9677419,6.5483871 C44.4829887,6.5483871 44.9032258,6.1318049 44.9032258,5.61290323 C44.9032258,5.09400248 44.4829887,4.67741935 43.9677419,4.67741935 L40.2258065,4.67741935 Z M6.18296371,9.38772658 C7.253654,9.30002497 8.3608871,9.58140168 9.29637097,10.2464718 C9.32560484,10.2683976 9.35849271,10.2720516 9.38407258,10.2866686 C9.79700077,13.7764622 10.6849798,17.1785532 12.015121,20.4052419 C8.44493471,19.7255549 4.46181932,18.6219758 3.24861368,17.4087702 C2.36063555,16.5207911 1.87096774,15.3404743 1.87096774,14.0834178 C1.87096774,12.8263614 2.36063555,11.6460436 3.24861368,10.7580645 C4.06350806,9.93951613 5.10861942,9.47908313 6.18296371,9.38772658 Z M51.8170363,9.39138152 C52.8913815,9.48273713 53.9364919,9.94317013 54.7513863,10.7580645 C55.6393654,11.6423896 56.1290323,12.8263614 56.1290323,14.0834178 C56.1290323,15.3404743 55.6393654,16.5207911 54.7513863,17.4087702 C53.5381807,18.6219758 49.5587202,19.7255549 45.984879,20.4052419 C47.3150202,17.1785532 48.2029992,13.7764622 48.6159274,10.2866686 C48.6415073,10.2720516 48.6743952,10.2683976 48.703629,10.2464718 C49.6391129,9.58140168 50.742692,9.30002497 51.8170363,9.39138152 Z M29.0950105,10.2939766 C28.8172888,10.2683976 28.5578379,10.3670613 28.3458919,10.5680444 L25.5394403,13.374496 C25.1667089,13.7435734 25.1667089,14.3319057 25.5394403,14.6973291 C25.9121726,15.0627525 26.4749242,15.0627525 26.8476565,14.6973291 L28.0645161,13.4877775 L28.0645161,25.2580645 L26.2300912,25.2580645 C25.7806202,25.2580645 25.3311492,25.6307968 25.3311492,26.1935484 C25.3311492,26.7563009 25.6673387,27.1290323 26.2300912,27.1290323 L31.8064516,27.1290323 C32.3692041,27.1290323 32.7053936,26.7563009 32.7053936,26.1935484 C32.7053936,25.6307968 32.3692041,25.2580645 31.8064516,25.2580645 L29.9354839,25.2580645 L29.9354839,11.2294605 C29.9354839,10.8530751 29.7491177,10.5059226 29.3763863,10.3634073 C29.2813758,10.3268654 29.1863662,10.3049395 29.0950105,10.2939766 Z M17.7741935,40.2258065 L40.2258065,40.2258065 C40.7410532,40.2258065 41.1612903,40.6460436 41.1612903,41.1612903 L41.1612903,47.7096774 L16.8387097,47.7096774 L16.8387097,41.1612903 C16.8387097,40.6460436 17.2589468,40.2258065 17.7741935,40.2258065 Z M19.6451613,42.0967742 C19.1299145,42.0967742 18.7096774,42.5133573 18.7096774,43.0322581 L18.7096774,44.9032258 C18.7096774,45.4221275 19.1299145,45.8387097 19.6451613,45.8387097 C20.160408,45.8387097 20.5806452,45.4221275 20.5806452,44.9032258 L20.5806452,43.0322581 C20.5806452,42.5133573 20.160408,42.0967742 19.6451613,42.0967742 Z M24.3225806,42.0967742 C23.8073339,42.0967742 23.3870968,42.5133573 23.3870968,43.0322581 L23.3870968,44.9032258 C23.3870968,45.4221275 23.8073339,45.8387097 24.3225806,45.8387097 C24.8378274,45.8387097 25.2580645,45.4221275 25.2580645,44.9032258 L25.2580645,43.0322581 C25.2580645,42.5133573 24.8378274,42.0967742 24.3225806,42.0967742 Z M29,42.0967742 C28.4847533,42.0967742 28.0645161,42.5133573 28.0645161,43.0322581 L28.0645161,44.9032258 C28.0645161,45.4221275 28.4847533,45.8387097 29,45.8387097 C29.5152467,45.8387097 29.9354839,45.4221275 29.9354839,44.9032258 L29.9354839,43.0322581 C29.9354839,42.5133573 29.5152467,42.0967742 29,42.0967742 Z M33.6774194,42.0967742 C33.1621726,42.0967742 32.7419355,42.5133573 32.7419355,43.0322581 L32.7419355,44.9032258 C32.7419355,45.4221275 33.1621726,45.8387097 33.6774194,45.8387097 C34.1926661,45.8387097 34.6129032,45.4221275 34.6129032,44.9032258 L34.6129032,43.0322581 C34.6129032,42.5133573 34.1926661,42.0967742 33.6774194,42.0967742 Z M38.3548387,42.0967742 C37.839592,42.0967742 37.4193548,42.5133573 37.4193548,43.0322581 L37.4193548,44.9032258 C37.4193548,45.4221275 37.839592,45.8387097 38.3548387,45.8387097 C38.8700855,45.8387097 39.2903226,45.4221275 39.2903226,44.9032258 L39.2903226,43.0322581 C39.2903226,42.5133573 38.8700855,42.0967742 38.3548387,42.0967742 Z M14.0322581,49.5806452 L43.9677419,49.5806452 C44.4829887,49.5806452 44.9032258,50.0008823 44.9032258,50.516129 C44.9032258,51.0313758 44.4829887,51.4516129 43.9677419,51.4516129 L14.0322581,51.4516129 C13.5170113,51.4516129 13.0967742,51.0313758 13.0967742,50.516129 C13.0967742,50.0008823 13.5170113,49.5806452 14.0322581,49.5806452 Z" id="Shape"></path>
            </g>
        </g>
    </g>
</svg>