<?xml version="1.0" encoding="UTF-8"?>
<svg width="56px" height="62px" viewBox="0 0 56 62" version="1.1" xmlns="http://www.w3.org/2000/svg" xmlns:xlink="http://www.w3.org/1999/xlink">
    <!-- Generator: Sketch 49.3 (51167) - http://www.bohemiancoding.com/sketch -->
    <title>confident</title>
    <desc>Created with Sketch.</desc>
    <defs></defs>
    <g id="Page-1" stroke="none" stroke-width="1" fill="none" fill-rule="evenodd">
        <g id="confident" fill="#52555A" fill-rule="nonzero">
            <path d="M15,0 C13.347656,0 12,1.347656 12,3 L12,10 L9,10 C4.035156,10 0,14.039063 0,19 L0,47 C0,51.960938 4.035156,56 9,56 L10,56 L10,59 C10,60.652344 11.347656,62 13,62 L43,62 C44.652344,62 46,60.652344 46,59 L46,56 L47,56 C51.964844,56 56,51.960938 56,47 L56,19 C56,14.039063 51.964844,10 47,10 L44,10 L44,3 C44,1.347656 42.652344,0 41,0 L15,0 Z M15,2 L41,2 C41.550781,2 42,2.449219 42,3 L42,10 L14,10 L14,3 C14,2.449219 14.449219,2 15,2 Z M18,4 C17.445313,4 17,4.449219 17,5 L17,7 C17,7.550781 17.445313,8 18,8 C18.554688,8 19,7.550781 19,7 L19,5 C19,4.449219 18.554688,4 18,4 Z M23,4 C22.445313,4 22,4.449219 22,5 L22,7 C22,7.550781 22.445313,8 23,8 C23.554688,8 24,7.550781 24,7 L24,5 C24,4.449219 23.554688,4 23,4 Z M28,4 C27.445313,4 27,4.449219 27,5 L27,7 C27,7.550781 27.445313,8 28,8 C28.554688,8 29,7.550781 29,7 L29,5 C29,4.449219 28.554688,4 28,4 Z M33,4 C32.445313,4 32,4.449219 32,5 L32,7 C32,7.550781 32.445313,8 33,8 C33.554688,8 34,7.550781 34,7 L34,5 C34,4.449219 33.554688,4 33,4 Z M38,4 C37.445313,4 37,4.449219 37,5 L37,7 C37,7.550781 37.445313,8 38,8 C38.554688,8 39,7.550781 39,7 L39,5 C39,4.449219 38.554688,4 38,4 Z M9,12 L47,12 C50.859375,12 54,15.140625 54,19 L54,47 C54,50.859375 50.859375,54 47,54 L9,54 C5.140625,54 2,50.859375 2,47 L2,19 C2,18.660156 2.03125,18.328125 2.078125,18 L41,18 C41.554688,18 42,17.550781 42,17 C42,16.449219 41.554688,16 41,16 L2.6875,16 C3.8125,13.640625 6.214844,12 9,12 Z M45,16 C44.445313,16 44,16.449219 44,17 C44,17.550781 44.445313,18 45,18 L49,18 C49.554688,18 50,17.550781 50,17 C50,16.449219 49.554688,16 49,16 L45,16 Z M19,26 C16.792969,26 15,27.792969 15,30 C15,32.207031 16.792969,34 19,34 C21.207031,34 23,32.207031 23,30 C23,27.792969 21.207031,26 19,26 Z M37,26 C34.792969,26 33,27.792969 33,30 C33,32.207031 34.792969,34 37,34 C39.207031,34 41,32.207031 41,30 C41,27.792969 39.207031,26 37,26 Z M19,28 C20.101563,28 21,28.898438 21,30 C21,31.101563 20.101563,32 19,32 C17.898438,32 17,31.101563 17,30 C17,28.898438 17.898438,28 19,28 Z M37,28 C38.101563,28 39,28.898438 39,30 C39,31.101563 38.101563,32 37,32 C35.898438,32 35,31.101563 35,30 C35,28.898438 35.898438,28 37,28 Z M38.015625,39.121094 C37.757813,39.117188 37.5,39.210938 37.300781,39.40625 C34.953125,41.6875 31.5625,43 28,43 C24.4375,43 21.046875,41.691406 18.699219,39.40625 C18.304688,39.023438 17.671875,39.03125 17.285156,39.425781 C16.898438,39.820313 16.90625,40.453125 17.304688,40.839844 C20.019531,43.484375 23.917969,45 28,45 C32.082031,45 35.980469,43.484375 38.699219,40.839844 C39.09375,40.453125 39.101563,39.820313 38.71875,39.421875 C38.523438,39.226563 38.269531,39.125 38.015625,39.121094 Z M12,56 L44,56 L44,59 C44,59.550781 43.550781,60 43,60 L13,60 C12.449219,60 12,59.550781 12,59 L12,56 Z" id="Shape"></path>
        </g>
    </g>
</svg>