<?xml version="1.0" encoding="UTF-8"?>
<svg width="51px" height="58px" viewBox="0 0 51 58" version="1.1" xmlns="http://www.w3.org/2000/svg" xmlns:xlink="http://www.w3.org/1999/xlink">
    <!-- Generator: Sketch 49.3 (51167) - http://www.bohemiancoding.com/sketch -->
    <title>efficient</title>
    <desc>Created with Sketch.</desc>
    <defs></defs>
    <g id="Page-1" stroke="none" stroke-width="1" fill="none" fill-rule="evenodd">
        <g id="efficient" fill="#52555A" fill-rule="nonzero">
            <path d="M24.0625,0 C23.066406,0 22.136719,0.492188 21.578125,1.320313 L1.28125,31.316406 C0.660156,32.242188 0.597656,33.421875 1.117188,34.40625 C1.640625,35.390625 2.65625,36 3.765625,36 L13.1875,36 L1.183594,53.9375 C0.636719,54.75 0.75,55.796875 1.453125,56.484375 C1.84375,56.863281 2.339844,57.058594 2.84375,57.058594 C3.242188,57.058594 3.648438,56.933594 4.003906,56.683594 L45.015625,27.632813 C45.730469,27.125 46.03125,26.226563 45.765625,25.390625 C45.5,24.558594 44.730469,24 43.859375,24 L32.21875,24 L49.65625,5.03125 C50.472656,4.140625 50.675781,2.902344 50.191406,1.796875 C49.707031,0.6875 48.65625,0 47.445313,0 L24.0625,0 Z M24.0625,2 L47.445313,2 C48.050781,2 48.300781,2.457031 48.359375,2.597656 C48.421875,2.738281 48.589844,3.230469 48.183594,3.679688 L46.996094,4.96875 C46.976563,4.429688 46.539063,4 46,4 C45.449219,4 45,4.445313 45,5 L45,7 C45,7.039063 45.019531,7.074219 45.023438,7.113281 L30.746094,22.644531 C30.199219,23.238281 30.0625,24.066406 30.390625,24.804688 C30.710938,25.542969 31.414063,26 32.21875,26 L43.859375,26 L2.84375,55.050781 L15.890625,35.558594 C16.09375,35.25 16.117188,34.855469 15.941406,34.53125 C15.765625,34.203125 15.425781,34 15.058594,34 L3.765625,34 C3.222656,34 2.96875,33.628906 2.882813,33.46875 C2.800781,33.308594 2.632813,32.886719 2.9375,32.4375 L20.035156,7.171875 C20.117188,7.636719 20.507813,8 21,8 C21.550781,8 22,7.554688 22,7 L22,5 C22,4.8125 21.933594,4.644531 21.84375,4.492188 L23.234375,2.4375 C23.417969,2.164063 23.730469,2 24.0625,2 Z M26,4 C25.449219,4 25,4.445313 25,5 L25,7 C25,7.554688 25.449219,8 26,8 C26.550781,8 27,7.554688 27,7 L27,5 C27,4.445313 26.550781,4 26,4 Z M31,4 C30.449219,4 30,4.445313 30,5 L30,7 C30,7.554688 30.449219,8 31,8 C31.550781,8 32,7.554688 32,7 L32,5 C32,4.445313 31.550781,4 31,4 Z M36,4 C35.449219,4 35,4.445313 35,5 L35,7 C35,7.554688 35.449219,8 36,8 C36.550781,8 37,7.554688 37,7 L37,5 C37,4.445313 36.550781,4 36,4 Z M41,4 C40.449219,4 40,4.445313 40,5 L40,7 C40,7.554688 40.449219,8 41,8 C41.550781,8 42,7.554688 42,7 L42,5 C42,4.445313 41.550781,4 41,4 Z M34.269531,28.191406 C34.015625,28.148438 33.75,28.203125 33.523438,28.359375 L31.484375,29.808594 C31.03125,30.125 30.925781,30.75 31.246094,31.203125 C31.4375,31.476563 31.75,31.625 32.0625,31.625 C32.261719,31.625 32.460938,31.5625 32.640625,31.4375 L34.679688,29.996094 C35.128906,29.675781 35.238281,29.050781 34.917969,28.597656 C34.757813,28.375 34.523438,28.238281 34.269531,28.191406 Z M28.992188,31.929688 C28.738281,31.886719 28.472656,31.941406 28.246094,32.097656 L19.296875,38.441406 C18.84375,38.761719 18.738281,39.382813 19.058594,39.835938 C19.25,40.109375 19.558594,40.257813 19.875,40.257813 C20.074219,40.257813 20.273438,40.199219 20.453125,40.074219 L29.402344,33.734375 C29.851563,33.414063 29.960938,32.789063 29.640625,32.339844 C29.480469,32.113281 29.246094,31.972656 28.992188,31.929688 Z" id="Shape"></path>
        </g>
    </g>
</svg>