<?xml version="1.0" encoding="UTF-8"?>
<svg width="58px" height="58px" viewBox="0 0 58 58" version="1.1" xmlns="http://www.w3.org/2000/svg" xmlns:xlink="http://www.w3.org/1999/xlink">
    <!-- Generator: Sketch 50 (54983) - http://www.bohemiancoding.com/sketch -->
    <title>empathy</title>
    <desc>Created with Sketch.</desc>
    <defs></defs>
    <g id="Page-1" stroke="none" stroke-width="1" fill="none" fill-rule="evenodd">
        <g id="Artboard" fill="#52555A" fill-rule="nonzero">
            <g id="empathy">
                <path d="M14.5,0 C11.0732419,0 8.28571429,2.78752764 8.28571429,6.21428571 C8.28571429,9.64104379 11.0732419,12.4285714 14.5,12.4285714 C17.9267581,12.4285714 20.7142857,9.64104379 20.7142857,6.21428571 C20.7142857,2.78752764 17.9267581,0 14.5,0 Z M45.5714286,0 C42.1446705,0 39.3571429,2.78752764 39.3571429,6.21428571 C39.3571429,9.64104379 42.1446705,12.4285714 45.5714286,12.4285714 C48.9981866,12.4285714 51.7857143,9.64104379 51.7857143,6.21428571 C51.7857143,2.78752764 48.9981866,0 45.5714286,0 Z M14.5,1.82059204 C16.9234099,1.82059204 18.8896482,3.79087586 18.8896482,6.21428571 C18.8896482,8.63769557 16.9234099,10.6039339 14.5,10.6039339 C12.0765901,10.6039339 10.1103518,8.63769557 10.1103518,6.21428571 C10.1103518,3.79087586 12.0765901,1.82059204 14.5,1.82059204 Z M45.5714286,1.82059204 C47.9948384,1.82059204 49.9610768,3.79087586 49.9610768,6.21428571 C49.9610768,8.63769557 47.9948384,10.6039339 45.5714286,10.6039339 C43.1480187,10.6039339 41.1817804,8.63769557 41.1817804,6.21428571 C41.1817804,3.79087586 43.1480187,1.82059204 45.5714286,1.82059204 Z M24.8571429,4.14285714 C24.2866911,4.14285714 23.8214286,4.60811968 23.8214286,5.17857143 L23.8214286,7.25 C23.8214286,7.82045175 24.2866911,8.28571429 24.8571429,8.28571429 C25.4275946,8.28571429 25.8928571,7.82045175 25.8928571,7.25 L25.8928571,5.17857143 C25.8928571,4.60811968 25.4275946,4.14285714 24.8571429,4.14285714 Z M30.0357143,4.14285714 C29.4652625,4.14285714 29,4.60811968 29,5.17857143 L29,7.25 C29,7.82045175 29.4652625,8.28571429 30.0357143,8.28571429 C30.606166,8.28571429 31.0714286,7.82045175 31.0714286,7.25 L31.0714286,5.17857143 C31.0714286,4.60811968 30.606166,4.14285714 30.0357143,4.14285714 Z M35.2142857,4.14285714 C34.643834,4.14285714 34.1785714,4.60811968 34.1785714,5.17857143 L34.1785714,7.25 C34.1785714,7.82045175 34.643834,8.28571429 35.2142857,8.28571429 C35.7847375,8.28571429 36.25,7.82045175 36.25,7.25 L36.25,5.17857143 C36.25,4.60811968 35.7847375,4.14285714 35.2142857,4.14285714 Z M45.6806643,12.8493304 C40.6194196,12.8048267 35.9587054,16.1668527 34.1745259,21.08245 L33.8994143,21.8470982 C33.5919366,22.6886161 33.0214849,23.4087617 32.2730187,23.9023438 L30.5697545,25.0189732 L27.5920759,23.554409 C26.8881144,23.2064732 26.297433,22.6683875 25.8888116,22.0008376 L24.2421875,19.3184991 C21.4182483,14.706334 16.0292974,12.0927732 10.7333982,13.2013116 C10.4259205,13.2660438 10.1184428,13.3429135 9.81096514,13.4319196 L9.40638925,13.5452009 C6.93038479,14.253209 4.76590454,15.7825053 3.26897321,17.878209 L1.41601614,20.4674947 C0.453125,21.8147321 0.194196429,23.5422715 0.720145607,25.1160714 L2.45173043,30.3108259 C2.99790711,31.9534045 4.49888393,33.061942 6.21833121,33.1307196 L6.21833121,34.0774277 L4.29254996,53.6669919 C4.23995536,54.811942 4.64453125,55.8921599 5.4375,56.7215402 C6.22642325,57.546875 7.29045811,58 8.43540711,58 C10.3409598,58 11.9552179,56.7134492 12.4326169,54.9859099 C12.9262,56.7336777 14.5283206,58 16.4257812,58 C17.5666858,58 18.6307196,57.546875 19.4196429,56.7215402 C20.2126116,55.8921599 20.6171875,54.811942 20.5686384,53.7236331 L20.7142857,34.1785714 L20.7142857,27.9197821 C22.0048831,29.3034322 23.6029581,30.3634205 25.4114116,30.9662394 L28.3890901,31.9614955 C29.0485491,32.179967 29.7322821,32.1840125 30.3796035,32.0262277 C31.4031813,32.4550786 32.5966794,32.4267581 33.6243027,31.8441688 L35.574358,30.7275393 C36.6060268,30.136858 37.5284598,29.3964849 38.3214286,28.530692 L38.3214286,34.1300223 L37.4434991,53.5294366 C37.39495,54.5246928 37.6457866,55.5320876 38.2445589,56.3291018 C39.0537107,57.4012277 40.2593474,58 41.5782643,58 C43.475726,58 45.081892,56.7255857 45.5714286,54.9697268 C46.0609651,56.7255857 47.6671322,58 49.5686384,58 C50.8835098,58 52.0891465,57.3971822 52.8982983,56.3250563 C53.4970706,55.528041 53.7479071,54.5246928 53.699358,53.5294366 L52.9508929,36.9944196 C53.5537107,37.2533482 54.2455357,37.3544919 54.9616348,37.2371652 C56.7417687,36.9580081 58,35.3235215 58,33.5191125 L58,24.3756973 C58,21.8592357 57.2313063,19.3630027 55.6453688,17.4089009 C54.1646205,15.5842634 52.1902902,14.277483 49.9287107,13.6301616 L48.7716241,13.3024554 C48.4722375,13.2134492 48.1688063,13.140625 47.8653741,13.0799384 C47.133092,12.9302455 46.4008089,12.8533759 45.6806643,12.8493304 Z M45.5552455,14.9167134 C46.1499724,14.9167134 46.7527902,14.969308 47.3515625,15.0866348 C47.6388116,15.1432759 47.9179688,15.2120536 48.1971259,15.2929687 L49.3582589,15.6247215 C51.2354911,16.1628072 52.8699777,17.2511161 54.0837054,18.7763669 C55.3297991,20.3380304 55.9285714,22.3204518 55.9285714,24.3231027 L55.9285714,33.6607143 C55.9285714,34.5184152 55.2327009,35.2142857 54.375,35.2142857 C53.5172991,35.2142857 52.8214286,34.5184152 52.8214286,33.6607143 L52.8214286,22.441825 C52.8214286,21.8713733 52.356166,21.4061107 51.7857143,21.4061107 C51.2152625,21.4061107 50.75,21.8713733 50.75,22.441825 L50.75,33.6607143 C50.75,33.6890349 50.75,33.7173554 50.75,33.745675 L51.640067,53.7600446 C51.664342,54.3345429 51.4620536,54.8766741 51.0696152,55.289342 C50.6326733,55.742467 50.0339009,55.973075 49.3865795,55.9204804 C48.3346822,55.8395652 47.5417134,54.9049947 47.4891188,53.8530974 L46.6071429,36.1974054 C46.5788223,35.6471822 46.1216518,35.2142857 45.5714286,35.2142857 C45.0212054,35.2142857 44.5640349,35.6471822 44.5357143,36.1974054 L43.6577849,53.8207313 C43.6011437,54.8726286 42.8284045,55.8193357 41.7765072,55.9164339 C41.1291858,55.981166 40.5142304,55.750558 40.0732419,55.289342 C39.6767581,54.8766741 39.4785161,54.3345429 39.5027902,53.7600446 L40.3928571,34.1785714 L40.3928571,22.3973214 C40.3928571,21.8268697 39.9275946,21.3616071 39.3571429,21.3616071 C38.7866911,21.3616071 38.3214286,21.8268697 38.3214286,22.3973214 L38.3214286,24.9906526 C38.268834,25.0432483 38.2243304,25.0998884 38.1838733,25.1646205 C37.2452572,26.6210938 36.1852679,27.9926063 34.6802455,28.8543527 L32.855608,29.8941125 C33.0295759,29.469308 33.1428571,29.0121375 33.1428571,28.530692 C33.1428571,27.7053571 32.8637,26.9326169 32.378209,26.3095706 L33.4098778,25.6339286 C34.5345982,24.8935544 35.3842081,23.8173831 35.8454241,22.5551063 L36.1367188,21.75 C37.601284,17.7123331 41.4042974,14.9207589 45.5552455,14.9167134 Z M12.9221545,15.0178571 C16.7534875,14.9086214 20.4149001,17.0285991 22.4620536,20.374442 L24.1208153,23.0810544 C24.7357706,24.0844026 25.621791,24.8935544 26.6777349,25.4114116 L30.2137277,27.1510884 C30.7437224,27.410017 31.0714286,27.9400117 31.0714286,28.530692 C31.0714286,29.0323661 30.8408206,29.4895366 30.4321992,29.7808312 C30.0235768,30.0761724 29.5178571,30.153041 29.0445036,29.9952572 L26.066825,29 C24.3311947,28.4255027 22.8059428,27.3493304 21.6812224,25.9090402 L18.4203401,21.758092 C18.0683599,21.3090125 17.4169919,21.2280974 16.9679135,21.5841241 C16.518834,21.9361054 16.4379188,22.5874724 16.7939456,23.0365519 L18.6590402,25.4195036 C18.6590402,25.4478242 18.6428571,25.4761437 18.6428571,25.5044643 L18.6428571,34.1704804 L18.4972098,53.7640901 C18.5214849,54.3345429 18.3191964,54.8766741 17.9267581,55.289342 C17.5302732,55.7020089 16.996233,55.9285714 16.4217358,55.9285714 C15.3172438,55.9285714 14.4069473,55.066825 14.3543527,54.0189732 L14.5,36.258092 C14.5040455,35.7078688 14.0751956,35.2466518 13.5249724,35.2142857 C12.9626116,35.1900117 12.4933036,35.590541 12.4326169,36.1367188 L10.5068357,53.9582866 C10.4501956,55.0627795 9.54394557,55.9285714 8.43136161,55.9285714 C7.86090986,55.9285714 7.32686968,55.7020089 6.93038479,55.289342 C6.53794643,54.8766741 6.335659,54.3345429 6.35993304,53.8207313 L8.28571429,34.1785714 L8.28571429,22.441825 C8.28571429,21.8713733 7.82045175,21.4061107 7.25,21.4061107 C6.67954825,21.4061107 6.21428571,21.8713733 6.21428571,22.441825 L6.21833121,31.043108 C5.39704293,30.9783759 4.68094282,30.4483822 4.41796875,29.6554135 L2.68638393,24.4566125 C2.37081525,23.5179964 2.52859907,22.4782366 3.10714286,21.6690848 L4.95200893,19.0797991 C6.17787414,17.3684428 7.94991604,16.1183036 9.97684204,15.5357143 L10.3773714,15.422433 C10.6767581,15.3374724 10.9720982,15.2646482 11.2755304,15.2080081 C11.8217081,15.0947268 12.3759768,15.0340402 12.9221545,15.0178571 Z" id="Shape"></path>
            </g>
        </g>
    </g>
</svg>