<?xml version="1.0" encoding="UTF-8"?>
<svg width="284px" height="68px" viewBox="0 0 284 68" version="1.1" xmlns="http://www.w3.org/2000/svg" xmlns:xlink="http://www.w3.org/1999/xlink">
    <!-- Generator: Sketch 49.3 (51167) - http://www.bohemiancoding.com/sketch -->
    <title>GOAT</title>
    <desc>Created with Sketch.</desc>
    <defs></defs>
    <g id="GOAT" stroke="none" stroke-width="1" fill="none" fill-rule="evenodd">
        <g id="header--logo" fill="#040D14" fill-rule="nonzero">
            <path d="M66.8997162,3.38613861 C65.2346263,1.30693069 62.6991485,0 59.8987701,0 C57.6471145,0 55.7360454,0.831683168 54.2034059,2.13861386 L54.2034059,0.752475248 C54.2034059,0.356435644 53.9006623,0.0396039604 53.5222327,0.0396039604 L49,0.0396039604 L49,21.980198 L54.4115421,21.980198 L54.4115421,8.3960396 C54.4115421,8.01980198 54.5439924,7.64356436 54.8088931,7.36633663 C55.7171239,6.35643564 57.3632923,5.24752475 59.3311258,5.24752475 C60.5799432,5.24752475 61.6584674,5.68316832 62.3774834,6.41584158 C63.1343425,7.20792079 63.5884579,8.2970297 63.5884579,10.3762376 L63.5884579,21.2871287 C63.5884579,21.6831683 63.8912015,22 64.269631,22 L69,22 L69,10.7920792 C68.9810785,7.18811881 68.2242195,5.04950495 66.8997162,3.38613861 Z" id="Shape"></path>
            <path d="M10.9848485,16.7675676 C7.68939394,16.7675676 5.39772727,14.3297297 5.39772727,11.0198198 C5.39772727,7.78918919 7.72727273,5.23243243 10.8522727,5.23243243 C12.5189394,5.23243243 13.9393939,5.98558559 15,7.11531532 C15.3030303,7.45225225 15.8143939,7.49189189 16.155303,7.17477477 L19.3560606,4.22162162 C17.4810606,1.68468468 14.375,0 10.8712121,0 C4.6969697,0 0,4.87567568 0,11.0198198 C0,17.1243243 4.58333333,22 10.8333333,22 C14.6212121,22 17.6136364,20.5531532 20,17.2432432 L16.4772727,14.4882883 C16.1363636,14.2108108 15.6439394,14.2702703 15.3787879,14.6072072 C14.4128788,15.7567568 12.8598485,16.7675676 10.9848485,16.7675676 Z" id="Shape"></path>
            <path d="M84,0 C77.7336861,0 73,4.91531532 73,11.0198198 C73,17.1243243 77.7336861,22 84,22 C90.2663139,22 95,17.1243243 95,11.0198198 C95,4.91531532 90.2663139,0 84,0 Z M84,16.7675676 C80.7601411,16.7675676 78.5485009,14.190991 78.5485009,11.0198198 C78.5485009,7.82882883 80.7601411,5.23243243 84,5.23243243 C87.2398589,5.23243243 89.4514991,7.84864865 89.4514991,11.0198198 C89.4514991,14.190991 87.2398589,16.7675676 84,16.7675676 Z" id="Shape"></path>
            <path d="M39.3621622,0 C38.9063063,0 38.5495495,0.356435644 38.5495495,0.811881188 L38.5495495,2.15841584 C36.8846847,0.811881188 34.763964,0.0198019802 32.3657658,0.0198019802 C26.618018,0.0198019802 22,4.81188119 22,11.029703 C22,13.9009901 23.0504505,16.5148515 24.6954955,18.4356436 C26.5783784,20.6138614 29.5315315,22 32.6630631,22 C34.8036036,22 36.8054054,21.3465347 38.5495495,19.8613861 L38.5495495,21.980198 L44,21.980198 L44,0 L39.3621622,0 Z M38.3315315,13.7623762 C38.2918919,14.1584158 38.2324324,14.2970297 38.0738739,14.5148515 C36.963964,15.8811881 35.2198198,16.7722772 33.2378378,16.7722772 C30.0666667,16.7722772 27.6684685,14.3366337 27.6684685,11.029703 C27.6684685,7.98019802 29.809009,5.24752475 33.1189189,5.24752475 C35.1207207,5.24752475 36.8846847,6.13861386 38.0540541,7.5049505 C38.2324324,7.72277228 38.3117117,7.86138614 38.3315315,8.27722772 C38.3315315,8.27722772 38.4108108,9.40594059 38.4108108,10.8514851 C38.4108108,12.7128713 38.3315315,13.7623762 38.3315315,13.7623762 Z" id="Shape"></path>
            <path d="M131.894099,13.3404948 L125.750202,0.787109375 C125.50768,0.302734375 125.022635,0 124.47696,0 L119,0 L128.882781,19.7786458 C128.882781,19.7786458 124.47696,29.2845052 123.708973,31 L128.862571,31 C129.408246,31 129.9135,30.6770833 130.135812,30.172526 C132.399353,25.2682292 144,0.0201822917 144,0.0201822917 L138.644301,0.0201822917 C138.240097,0.0201822917 137.856103,0.262369792 137.694422,0.625651042 C136.522231,3.26953125 131.894099,13.3404948 131.894099,13.3404948 Z" id="Shape"></path>
            <path d="M108.634234,0 C106.236036,0 104.095495,0.807291667 102.45045,2.1796875 L102.45045,0.84765625 C102.45045,0.383463542 102.093694,0.0201822917 101.637838,0.0201822917 C100.190991,0.0201822917 97.2972973,0.0201822917 97,0.0201822917 C97,0.0201822917 97.0198198,26.8020833 97.0198198,31 C97.4162162,31 100.409009,31 101.875676,31 C102.331532,31 102.688288,30.6367187 102.688288,30.172526 C102.708108,27.8111979 102.688288,20.485026 102.688288,20.485026 C104.372973,21.796875 106.196396,22.422526 108.317117,22.422526 C111.448649,22.422526 114.461261,21.0097656 116.344144,18.7897135 C118.009009,16.8320312 119,14.1679687 119,11.2415365 C119,4.86393229 114.381982,0 108.634234,0 Z M107.762162,17.0742187 C106.394595,17.0742187 105.126126,16.6302083 104.115315,15.9036458 C103.659459,15.5807292 103.263063,15.1972656 102.926126,14.7532552 C102.787387,14.5716146 102.727928,14.4707031 102.708108,14.1074219 C102.708108,14.1074219 102.648649,12.6744792 102.648649,11.0800781 C102.648649,9.62695312 102.708108,8.29492187 102.708108,8.29492187 C102.747748,7.93164062 102.787387,7.81054687 102.965766,7.60872396 C104.154955,6.21614583 105.899099,5.28776042 107.920721,5.28776042 C109.664865,5.28776042 111.091892,6.07486979 112.043243,7.265625 C112.063063,7.28580729 112.082883,7.32617187 112.102703,7.34635417 C112.36036,7.68945312 112.578378,8.05273437 112.756757,8.43619792 C113.153153,9.26367187 113.351351,10.2122396 113.351351,11.1809896 C113.331532,14.5917969 110.933333,17.0742187 107.762162,17.0742187 Z" id="Shape"></path>
        </g>
    </g>
</svg>