<?xml version="1.0" encoding="UTF-8"?>
<svg width="116px" height="26px" viewBox="0 0 116 26" version="1.1" xmlns="http://www.w3.org/2000/svg" xmlns:xlink="http://www.w3.org/1999/xlink">
    <!-- Generator: Sketch 49.2 (51160) - http://www.bohemiancoding.com/sketch -->
    <title>header--logo</title>
    <desc>Created with Sketch.</desc>
    <defs></defs>
    <g id="Page-1" stroke="none" stroke-width="1" fill="none" fill-rule="evenodd">
        <g id="GOAT" transform="translate(-24.000000, -31.000000)" fill="#00BF4B" fill-rule="nonzero">
            <g id="header--logo" transform="translate(24.000000, 31.000000)">
                <path d="M54.3607288,2.8026919 C52.9588305,1.08174073 50.8241218,0 48.4663839,0 C46.5706351,0 44.9616382,0.688380466 43.6712546,1.7701212 L43.6712546,0.622820422 C43.6712546,0.2950202 43.416364,0.0327800222 43.0977508,0.0327800222 L39.2903226,0.0327800222 L39.2903226,18.1929123 L43.8464919,18.1929123 L43.8464919,6.9493647 C43.8464919,6.63795449 43.9580065,6.32654428 44.1810358,6.09708413 C44.9457076,5.26119356 46.3316752,4.34335294 47.988464,4.34335294 C49.0398877,4.34335294 49.9479354,4.70393318 50.5533006,5.31036359 C51.1905271,5.96596404 51.5728629,6.86741465 51.5728629,8.58836581 L51.5728629,17.6192619 C51.5728629,17.9470621 51.8277535,18.2093023 52.1463668,18.2093023 L56.1290323,18.2093023 L56.1290323,8.93255605 C56.1131016,5.94957403 55.4758751,4.17945283 54.3607288,2.8026919 Z" id="Shape"></path>
                <path d="M9.24853372,13.8784412 C6.47397361,13.8784412 4.54453812,11.8606537 4.54453812,9.12105594 C4.54453812,6.44707731 6.5058651,4.33086109 9.13691349,4.33086109 C10.5401393,4.33086109 11.7360704,4.95424261 12.6290323,5.8893149 C12.8841642,6.1681961 13.3146994,6.20100566 13.6017229,5.93852923 L16.2965543,3.49421747 C14.7179252,1.39440603 12.1028226,0 9.15285924,0 C3.95454545,0 0,4.03557511 0,9.12105594 C0,14.1737272 3.85887097,18.2093023 9.12096774,18.2093023 C12.3101173,18.2093023 14.8295455,17.0117536 16.8387097,14.2721559 L13.8728006,11.9918919 C13.5857771,11.762225 13.1711877,11.8114393 12.9479472,12.0903206 C12.1347141,13.0417976 10.8271628,13.8784412 9.24853372,13.8784412 Z" id="Shape"></path>
                <path d="M67.6666667,0 C62.5151808,0 58.6236559,4.06838466 58.6236559,9.12105594 C58.6236559,14.1737272 62.5151808,18.2093023 67.6666667,18.2093023 C72.8181525,18.2093023 76.7096774,14.1737272 76.7096774,9.12105594 C76.7096774,4.06838466 72.8181525,0 67.6666667,0 Z M67.6666667,13.8784412 C65.0032049,13.8784412 63.1850335,11.7458202 63.1850335,9.12105594 C63.1850335,6.47988686 65.0032049,4.33086109 67.6666667,4.33086109 C70.3301284,4.33086109 72.1482999,6.49629164 72.1482999,9.12105594 C72.1482999,11.7458202 70.3301284,13.8784412 67.6666667,13.8784412 Z" id="Shape"></path>
                <path d="M32.3593142,0 C31.9845588,0 31.6912719,0.2950202 31.6912719,0.671990455 L31.6912719,1.78651121 C30.3226,0.671990455 28.5791727,0.0163900111 26.6076334,0.0163900111 C21.8824567,0.0163900111 18.0860215,3.9827727 18.0860215,9.12923618 C18.0860215,11.5057878 18.9495883,13.6692693 20.3019665,15.2591003 C21.8498692,17.0620015 24.2776325,18.2093023 26.8520391,18.2093023 C28.6117601,18.2093023 30.2574252,17.668432 31.6912719,16.4391811 L31.6912719,18.1929123 L36.172043,18.1929123 L36.172043,0 L32.3593142,0 Z M31.5120411,11.3910577 C31.4794536,11.7188579 31.4305725,11.833588 31.3002228,12.0138781 C30.3877749,13.1447889 28.9539281,13.8823394 27.3245568,13.8823394 C24.7175627,13.8823394 22.7460234,11.866368 22.7460234,9.12923618 C22.7460234,6.60517447 24.5057445,4.34335294 27.2267945,4.34335294 C28.8724596,4.34335294 30.3226,5.08090344 31.2839291,6.2118142 C31.4305725,6.39210433 31.4957474,6.5068344 31.5120411,6.85102464 C31.5120411,6.85102464 31.5772159,7.78525527 31.5772159,8.98172608 C31.5772159,10.5223871 31.5120411,11.3910577 31.5120411,11.3910577 Z" id="Shape"></path>
                <g id="Group" transform="translate(96.043011, 0.000000)">
                    <path d="M10.2978065,10.8436805 L5.44426667,0.65520728 C5.25267957,0.262082912 4.86950538,0.016380182 4.43843441,0.016380182 L0.11175914,0.016380182 L7.91893333,16.0689585 C7.91893333,16.0689585 4.43843441,23.7840243 3.83174194,25.1763397 L7.90296774,25.1763397 C8.33403871,25.1763397 8.73317849,24.9142568 8.9088,24.5047523 C10.6969462,20.524368 19.8611957,0.032760364 19.8611957,0.032760364 L15.630314,0.032760364 C15.3110022,0.032760364 15.0076559,0.229322548 14.8799312,0.524165824 C13.9539269,2.66996967 10.2978065,10.8436805 10.2978065,10.8436805 Z" id="Shape"></path>
                </g>
                <path d="M88.1450547,0 C86.1735155,0 84.4137944,0.654069767 83.0614163,1.76598837 L83.0614163,0.686773256 C83.0614163,0.31068314 82.7681294,0.0163517442 82.393374,0.0163517442 C81.203933,0.0163517442 78.8250509,0.0163517442 78.5806452,0.0163517442 C78.5806452,0.0163517442 78.5969389,21.7151163 78.5969389,25.1162791 C78.9228131,25.1162791 81.3831638,25.1162791 82.5888986,25.1162791 C82.963654,25.1162791 83.2569408,24.8219477 83.2569408,24.4458576 C83.2732345,22.5327035 83.2569408,16.5970203 83.2569408,16.5970203 C84.6419064,17.6598837 86.140928,18.1667878 87.8843553,18.1667878 C90.458762,18.1667878 92.9354064,17.0221657 94.4833091,15.2234738 C95.851981,13.6373547 96.6666667,11.4789244 96.6666667,9.10792151 C96.6666667,3.94077035 92.8702315,0 88.1450547,0 Z M87.4281314,13.8335756 C86.3038652,13.8335756 85.2610675,13.4738372 84.4300882,12.8851744 C84.0553328,12.6235465 83.7294585,12.3128634 83.4524654,11.953125 C83.3384094,11.8059593 83.2895282,11.7242006 83.2732345,11.4298692 C83.2732345,11.4298692 83.2243534,10.2688953 83.2243534,8.97710756 C83.2243534,7.79978198 83.2732345,6.72056686 83.2732345,6.72056686 C83.305822,6.42623547 83.3384094,6.328125 83.4850528,6.16460756 C84.4626756,5.03633721 85.8965223,4.28415698 87.5584811,4.28415698 C88.9923278,4.28415698 90.1654752,4.921875 90.9475734,5.88662791 C90.9638671,5.90297965 90.9801608,5.93568314 90.9964545,5.95203488 C91.2082728,6.23001453 91.3875036,6.52434593 91.5341471,6.83502907 C91.8600213,7.50545058 92.0229584,8.27398256 92.0229584,9.05886628 C92.0066647,11.822311 90.0351254,13.8335756 87.4281314,13.8335756 Z" id="Shape"></path>
            </g>
        </g>
    </g>
</svg>