<?xml version="1.0" encoding="UTF-8"?>
<svg width="56px" height="56px" viewBox="0 0 56 56" version="1.1" xmlns="http://www.w3.org/2000/svg" xmlns:xlink="http://www.w3.org/1999/xlink">
    <!-- Generator: Sketch 49.3 (51167) - http://www.bohemiancoding.com/sketch -->
    <title>human</title>
    <desc>Created with Sketch.</desc>
    <defs></defs>
    <g id="Page-1" stroke="none" stroke-width="1" fill="none" fill-rule="evenodd">
        <g id="human" fill="#52555A" fill-rule="nonzero">
            <path d="M14,0 C10.691406,0 8,2.691406 8,6 C8,9.308594 10.691406,12 14,12 C17.308594,12 20,9.308594 20,6 C20,2.691406 17.308594,0 14,0 Z M44,0 C40.691406,0 38,2.691406 38,6 C38,9.308594 40.691406,12 44,12 C47.308594,12 50,9.308594 50,6 C50,2.691406 47.308594,0 44,0 Z M14,1.757813 C16.339844,1.757813 18.238281,3.660156 18.238281,6 C18.238281,8.339844 16.339844,10.238281 14,10.238281 C11.660156,10.238281 9.761719,8.339844 9.761719,6 C9.761719,3.660156 11.660156,1.757813 14,1.757813 Z M44,1.757813 C46.339844,1.757813 48.238281,3.660156 48.238281,6 C48.238281,8.339844 46.339844,10.238281 44,10.238281 C41.660156,10.238281 39.761719,8.339844 39.761719,6 C39.761719,3.660156 41.660156,1.757813 44,1.757813 Z M24,4 C23.449219,4 23,4.449219 23,5 L23,7 C23,7.550781 23.449219,8 24,8 C24.550781,8 25,7.550781 25,7 L25,5 C25,4.449219 24.550781,4 24,4 Z M29,4 C28.449219,4 28,4.449219 28,5 L28,7 C28,7.550781 28.449219,8 29,8 C29.550781,8 30,7.550781 30,7 L30,5 C30,4.449219 29.550781,4 29,4 Z M34,4 C33.449219,4 33,4.449219 33,5 L33,7 C33,7.550781 33.449219,8 34,8 C34.550781,8 35,7.550781 35,7 L35,5 C35,4.449219 34.550781,4 34,4 Z M44.105469,12.40625 C39.21875,12.363281 34.71875,15.609375 32.996094,20.355469 L32.730469,21.09375 C32.433594,21.90625 31.882813,22.601563 31.160156,23.078125 L29.515625,24.15625 L26.640625,22.742188 C25.960938,22.40625 25.390625,21.886719 24.996094,21.242188 L23.40625,18.652344 C20.679688,14.199219 15.476563,11.675781 10.363281,12.746094 C10.066406,12.808594 9.769531,12.882813 9.472656,12.96875 L9.082031,13.078125 C6.691406,13.761719 4.601563,15.238281 3.15625,17.261719 L1.367188,19.761719 C0.4375,21.0625 0.1875,22.730469 0.695313,24.25 L2.367188,29.265625 C2.894531,30.851563 4.34375,31.921875 6.003906,31.988281 L6.003906,32.902344 L4.144531,51.816406 C4.09375,52.921875 4.484375,53.964844 5.25,54.765625 C6.011719,55.5625 7.039063,56 8.144531,56 C9.984375,56 11.542969,54.757813 12.003906,53.089844 C12.480469,54.777344 14.027344,56 15.859375,56 C16.960938,56 17.988281,55.5625 18.75,54.765625 C19.515625,53.964844 19.90625,52.921875 19.859375,51.871094 L20,33 L20,26.957031 C21.246094,28.292969 22.789063,29.316406 24.535156,29.898438 L27.410156,30.859375 C28.046875,31.070313 28.707031,31.074219 29.332031,30.921875 C30.320313,31.335938 31.472656,31.308594 32.464844,30.746094 L34.347656,29.667969 C35.34375,29.097656 36.234375,28.382813 37,27.546875 L37,32.953125 L36.152344,51.683594 C36.105469,52.644531 36.347656,53.617188 36.925781,54.386719 C37.707031,55.421875 38.871094,56 40.144531,56 C41.976563,56 43.527344,54.769531 44,53.074219 C44.472656,54.769531 46.023438,56 47.859375,56 C49.128906,56 50.292969,55.417969 51.074219,54.382813 C51.652344,53.613281 51.894531,52.644531 51.847656,51.683594 L51.125,35.71875 C51.707031,35.96875 52.375,36.066406 53.066406,35.953125 C54.785156,35.683594 56,34.105469 56,32.363281 L56,23.535156 C56,21.105469 55.257813,18.695313 53.726563,16.808594 C52.296875,15.046875 50.390625,13.785156 48.207031,13.160156 L47.089844,12.84375 C46.800781,12.757813 46.507813,12.6875 46.214844,12.628906 C45.507813,12.484375 44.800781,12.410156 44.105469,12.40625 Z M43.984375,14.402344 C44.558594,14.402344 45.140625,14.453125 45.71875,14.566406 C45.996094,14.621094 46.265625,14.6875 46.535156,14.765625 L47.65625,15.085938 C49.46875,15.605469 51.046875,16.65625 52.21875,18.128906 C53.421875,19.636719 54,21.550781 54,23.484375 L54,32.5 C54,33.328125 53.328125,34 52.5,34 C51.671875,34 51,33.328125 51,32.5 L51,21.667969 C51,21.117188 50.550781,20.667969 50,20.667969 C49.449219,20.667969 49,21.117188 49,21.667969 L49,32.5 C49,32.527344 49,32.554688 49,32.582031 L49.859375,51.90625 C49.882813,52.460938 49.6875,52.984375 49.308594,53.382813 C48.886719,53.820313 48.308594,54.042969 47.683594,53.992188 C46.667969,53.914063 45.902344,53.011719 45.851563,51.996094 L45,34.949219 C44.972656,34.417969 44.53125,34 44,34 C43.46875,34 43.027344,34.417969 43,34.949219 L42.152344,51.964844 C42.097656,52.980469 41.351563,53.894531 40.335938,53.988281 C39.710938,54.050781 39.117188,53.828125 38.691406,53.382813 C38.308594,52.984375 38.117188,52.460938 38.140625,51.90625 L39,33 L39,21.625 C39,21.074219 38.550781,20.625 38,20.625 C37.449219,20.625 37,21.074219 37,21.625 L37,24.128906 C36.949219,24.179688 36.90625,24.234375 36.867188,24.296875 C35.960938,25.703125 34.9375,27.027344 33.484375,27.859375 L31.722656,28.863281 C31.890625,28.453125 32,28.011719 32,27.546875 C32,26.75 31.730469,26.003906 31.261719,25.402344 L32.257813,24.75 C33.34375,24.035156 34.164063,22.996094 34.609375,21.777344 L34.890625,21 C36.304688,17.101563 39.976563,14.40625 43.984375,14.402344 Z M12.476563,14.5 C16.175781,14.394531 19.710938,16.441406 21.6875,19.671875 L23.289063,22.285156 C23.882813,23.253906 24.738281,24.035156 25.757813,24.535156 L29.171875,26.214844 C29.683594,26.464844 30,26.976563 30,27.546875 C30,28.03125 29.777344,28.472656 29.382813,28.753906 C28.988281,29.039063 28.5,29.113281 28.042969,28.960938 L25.167969,28 C23.492188,27.445313 22.019531,26.40625 20.933594,25.015625 L17.785156,21.007813 C17.445313,20.574219 16.816406,20.496094 16.382813,20.839844 C15.949219,21.179688 15.871094,21.808594 16.214844,22.242188 L18.015625,24.542969 C18.015625,24.570313 18,24.597656 18,24.625 L18,32.992188 L17.859375,51.910156 C17.882813,52.460938 17.6875,52.984375 17.308594,53.382813 C16.925781,53.78125 16.410156,54 15.855469,54 C14.789063,54 13.910156,53.167969 13.859375,52.15625 L14,35.007813 C14.003906,34.476563 13.589844,34.03125 13.058594,34 C12.515625,33.976563 12.0625,34.363281 12.003906,34.890625 L10.144531,52.097656 C10.089844,53.164063 9.214844,54 8.140625,54 C7.589844,54 7.074219,53.78125 6.691406,53.382813 C6.3125,52.984375 6.117188,52.460938 6.140625,51.964844 L8,33 L8,21.667969 C8,21.117188 7.550781,20.667969 7,20.667969 C6.449219,20.667969 6,21.117188 6,21.667969 L6.003906,29.972656 C5.210938,29.910156 4.519531,29.398438 4.265625,28.632813 L2.59375,23.613281 C2.289063,22.707031 2.441406,21.703125 3,20.921875 L4.78125,18.421875 C5.964844,16.769531 7.675781,15.5625 9.632813,15 L10.019531,14.890625 C10.308594,14.808594 10.59375,14.738281 10.886719,14.683594 C11.414063,14.574219 11.949219,14.515625 12.476563,14.5 Z" id="Shape"></path>
        </g>
    </g>
</svg>