<?xml version="1.0" encoding="UTF-8"?>
<svg width="51px" height="57px" viewBox="0 0 51 57" version="1.1" xmlns="http://www.w3.org/2000/svg" xmlns:xlink="http://www.w3.org/1999/xlink">
    <!-- Generator: Sketch 49.3 (51167) - http://www.bohemiancoding.com/sketch -->
    <title>keep-walking</title>
    <desc>Created with Sketch.</desc>
    <defs></defs>
    <g id="Page-1" stroke="none" stroke-width="1" fill="none" fill-rule="evenodd">
        <g id="keep-walking" transform="translate(0.000000, -1.000000)" fill="#52555A" fill-rule="nonzero">
            <path d="M27,0.992188 C23.691406,0.992188 21,3.683594 21,6.992188 C21,10.304688 23.691406,12.996094 27,12.996094 C30.308594,12.996094 33,10.304688 33,6.992188 C33,3.683594 30.308594,0.992188 27,0.992188 Z M27,2.992188 C29.207031,2.992188 31,4.789063 31,6.992188 C31,9.199219 29.207031,10.996094 27,10.996094 C24.792969,10.996094 23,9.199219 23,6.992188 C23,4.789063 24.792969,2.992188 27,2.992188 Z M25.339844,13.996094 C23.601563,13.996094 21.902344,14.59375 20.554688,15.671875 L14.765625,20.300781 C13.03125,21.6875 11.875,23.660156 11.515625,25.847656 L10.253906,33.375 C10.042969,34.683594 10.691406,35.957031 11.875,36.546875 C12.796875,37.011719 13.855469,37.011719 14.78125,36.5625 C15.710938,36.109375 16.359375,35.269531 16.5625,34.257813 L17.410156,30.050781 C17.734375,28.4375 18.621094,26.980469 19.90625,25.953125 L21,25.078125 L21,34.832031 L18.574219,42.109375 C18.269531,43.019531 17.789063,43.847656 17.160156,44.550781 L11.144531,51.082031 C9.613281,52.667969 9.628906,55.234375 11.1875,56.796875 C12.695313,58.3125 15.140625,58.402344 16.773438,56.984375 L23.371094,50.914063 C24.339844,50.035156 25.09375,48.976563 25.609375,47.769531 L27.152344,44.148438 L36.199219,56.464844 C36.9375,57.460938 38.09375,57.996094 39.265625,57.996094 C39.957031,57.996094 40.660156,57.804688 41.28125,57.410156 C42.984375,56.339844 43.558594,54.117188 42.589844,52.359375 L33.210938,35.167969 C33.074219,34.898438 33,34.59375 33,34.28125 L33,28.21875 C33.378906,28.332031 33.761719,28.421875 34.152344,28.484375 L41.675781,29.75 C42.988281,29.960938 44.261719,29.308594 44.847656,28.128906 C45.3125,27.207031 45.316406,26.144531 44.863281,25.21875 C44.410156,24.289063 43.570313,23.640625 42.558594,23.4375 L38.355469,22.59375 C36.738281,22.265625 35.285156,21.378906 34.253906,20.09375 L32.109375,17.421875 C32.023438,17.300781 29.988281,14.476563 27.128906,14.097656 C26.597656,14.027344 26.011719,13.996094 25.339844,13.996094 Z M25.339844,15.996094 C25.925781,15.996094 26.421875,16.019531 26.863281,16.078125 C28.855469,16.34375 30.464844,18.5625 30.515625,18.625 L32.691406,21.34375 C34.015625,22.996094 35.886719,24.132813 37.957031,24.550781 L42.164063,25.398438 C42.558594,25.476563 42.886719,25.730469 43.0625,26.09375 C43.242188,26.457031 43.238281,26.871094 43.058594,27.234375 C42.867188,27.621094 42.433594,27.839844 42,27.773438 L34.480469,26.515625 C33.972656,26.429688 33.476563,26.289063 33,26.097656 L33,24.753906 C33,24.203125 32.554688,23.753906 32,23.753906 C31.445313,23.753906 31,24.203125 31,24.753906 L31,34.28125 C31,34.90625 31.148438,35.527344 31.441406,36.101563 L40.835938,53.316406 C41.125,53.84375 41.125,54.449219 40.890625,54.957031 C40.6875,55.375 40.449219,55.652344 40.449219,55.652344 C40.449219,55.652344 40.042969,55.851563 39.546875,55.972656 C38.898438,56.078125 38.214844,55.828125 37.804688,55.277344 L29.496094,43.964844 C29.476563,43.929688 29.46875,43.886719 29.445313,43.855469 L25.546875,38.421875 L24.175781,36.453125 C23.40625,35.300781 23,33.957031 23,32.574219 L23,22.996094 C23,22.609375 22.78125,22.257813 22.433594,22.09375 C22.085938,21.925781 21.675781,21.972656 21.375,22.214844 L18.65625,24.394531 C17.003906,25.714844 15.867188,27.585938 15.449219,29.65625 L14.601563,33.863281 C14.523438,34.257813 14.269531,34.589844 13.90625,34.765625 C13.542969,34.941406 13.128906,34.941406 12.765625,34.761719 C12.378906,34.566406 12.15625,34.128906 12.226563,33.699219 L13.484375,26.175781 C13.765625,24.472656 14.664063,22.941406 16.015625,21.863281 L21.808594,17.234375 C22.816406,16.421875 24.035156,15.996094 25.339844,15.996094 Z M22.3125,37.210938 C22.386719,37.332031 22.445313,37.460938 22.527344,37.578125 L25.8125,42.191406 L23.769531,46.984375 C23.371094,47.925781 22.785156,48.746094 22.023438,49.4375 L15.441406,55.492188 C14.621094,56.203125 13.375,56.160156 12.605469,55.386719 C11.8125,54.589844 11.800781,53.28125 12.601563,52.453125 L18.640625,45.894531 C19.464844,44.976563 20.082031,43.914063 20.472656,42.738281 L22.3125,37.210938 Z M1,39.996094 C0.445313,39.996094 0,40.441406 0,40.996094 L0,42.996094 C0,43.546875 0.445313,43.996094 1,43.996094 C1.554688,43.996094 2,43.546875 2,42.996094 L2,40.996094 C2,40.441406 1.554688,39.996094 1,39.996094 Z M6,39.996094 C5.445313,39.996094 5,40.441406 5,40.996094 L5,42.996094 C5,43.546875 5.445313,43.996094 6,43.996094 C6.554688,43.996094 7,43.546875 7,42.996094 L7,40.996094 C7,40.441406 6.554688,39.996094 6,39.996094 Z M11,39.996094 C10.445313,39.996094 10,40.441406 10,40.996094 L10,42.996094 C10,43.546875 10.445313,43.996094 11,43.996094 C11.554688,43.996094 12,43.546875 12,42.996094 L12,40.996094 C12,40.441406 11.554688,39.996094 11,39.996094 Z M16,39.996094 C15.445313,39.996094 15,40.441406 15,40.996094 L15,42.996094 C15,43.546875 15.445313,43.996094 16,43.996094 C16.554688,43.996094 17,43.546875 17,42.996094 L17,40.996094 C17,40.441406 16.554688,39.996094 16,39.996094 Z M40,39.996094 C39.445313,39.996094 39,40.441406 39,40.996094 L39,42.996094 C39,43.546875 39.445313,43.996094 40,43.996094 C40.554688,43.996094 41,43.546875 41,42.996094 L41,40.996094 C41,40.441406 40.554688,39.996094 40,39.996094 Z M45,39.996094 C44.445313,39.996094 44,40.441406 44,40.996094 L44,42.996094 C44,43.546875 44.445313,43.996094 45,43.996094 C45.554688,43.996094 46,43.546875 46,42.996094 L46,40.996094 C46,40.441406 45.554688,39.996094 45,39.996094 Z M50,39.996094 C49.445313,39.996094 49,40.441406 49,40.996094 L49,42.996094 C49,43.546875 49.445313,43.996094 50,43.996094 C50.554688,43.996094 51,43.546875 51,42.996094 L51,40.996094 C51,40.441406 50.554688,39.996094 50,39.996094 Z" id="Shape"></path>
        </g>
    </g>
</svg>