<?xml version="1.0" encoding="UTF-8"?>
<svg width="860px" height="473px" viewBox="0 0 860 473" version="1.1" xmlns="http://www.w3.org/2000/svg" xmlns:xlink="http://www.w3.org/1999/xlink">
    <!-- Generator: Sketch 49.3 (51167) - http://www.bohemiancoding.com/sketch -->
    <title>need_image_here</title>
    <desc>Created with Sketch.</desc>
    <defs></defs>
    <g id="need_image_here" stroke="none" stroke-width="1" fill="none" fill-rule="evenodd">
        <rect id="Rectangle" fill="#F4F5F8" x="0" y="0" width="860" height="473"></rect>
        <g id="icons8-picture" transform="translate(366.000000, 163.000000)" fill="#52555A" fill-rule="nonzero">
            <path d="M6,0 C2.695312,0 0,2.695312 0,6 L0,90 C0,93.304688 2.695312,96 6,96 L122,96 C125.304688,96 128,93.304688 128,90 L128,6 C128,2.695312 125.304688,0 122,0 L6,0 Z M6,4 L122,4 C123.101562,4 124,4.898438 124,6 L124,90 C124,91.101562 123.101562,92 122,92 L6,92 C4.898438,92 4,91.101562 4,90 L4,6 C4,4.898438 4.898438,4 6,4 Z M34,12 C32.796876,12 32,12.890626 32,14 L32,18 C32,19.101562 32.796876,20 34,20 C35.203126,20 36,19.109376 36,18 L36,14 C36,12.890626 35.203126,12 34,12 Z M23.789062,14.671876 C23.523438,14.703126 23.257812,14.796876 23,14.945312 C21.960938,15.546876 21.71875,16.71875 22.273438,17.679688 L24.273438,21.140626 C24.640626,21.789062 25.3125,22.148438 26,22.148438 C26.265626,22.1875 26.65625,22.078126 27,21.875 C28.039062,21.273438 28.28125,20.101562 27.726562,19.140626 L25.726562,15.679688 C25.320312,14.960938 24.578126,14.570312 23.789062,14.671876 Z M44.21875,14.679688 C43.429688,14.570312 42.6875,14.960938 42.273438,15.679688 L40.273438,19.148438 C39.71875,20.101562 39.960938,21.273438 41,21.875 C41.351562,22.078126 41.742188,22.195312 42,22.148438 C42.695312,22.148438 43.367188,21.78125 43.734376,21.148438 L45.734376,17.679688 C46.289062,16.71875 46.046876,15.546876 45,14.945312 C44.742188,14.796876 44.476562,14.710938 44.21875,14.679688 Z M16.929688,22 C16.164062,21.890626 15.398438,22.226562 14.945312,23 C14.34375,24.039062 14.726562,25.179688 15.679688,25.734376 L19.140626,27.734376 C19.460938,27.921876 19.75,28.085938 20.109376,28.0625 C20.828126,28.015626 21.476562,27.695312 21.875,27 C22.476562,25.960938 22.101562,24.820312 21.140626,24.273438 L17.679688,22.273438 C17.4375,22.132812 17.1875,22.039062 16.929688,22 Z M51.0625,22 C50.8125,22.039062 50.5625,22.132812 50.320312,22.273438 L46.851562,24.273438 C45.898438,24.820312 45.523438,25.960938 46.125,27 C46.523438,27.695312 47.171876,28.015626 47.890626,28.0625 C48.25,28.085938 48.539062,27.914062 48.851562,27.726562 L52.320312,25.726562 C53.28125,25.179688 53.648438,24.039062 53.054688,23 C52.601562,22.21875 51.828126,21.890626 51.0625,22 Z M34.148438,24.015626 C28.640626,24.015626 24.164062,28.492188 24.164062,34 C24.164062,39.507812 28.640626,43.984376 34.148438,43.984376 C39.65625,43.984376 44.132812,39.507812 44.132812,34 C44.132812,28.492188 39.65625,24.015626 34.148438,24.015626 Z M34.148438,27.984376 C37.476562,27.984376 40.164062,30.671876 40.164062,34 C40.164062,37.328126 37.476562,40.015626 34.148438,40.015626 C30.820312,40.015626 28.132812,37.328126 28.132812,34 C28.132812,30.671876 30.820312,27.984376 34.148438,27.984376 Z M14,32 C12.890626,32 12,32.796876 12,34 C12,35.203126 12.890626,36 14,36 L18,36 C19.109376,36 20,35.203126 20,34 C20,32.796876 19.109376,32 18,32 L14,32 Z M50,32 C48.890626,32 48,32.796876 48,34 C48,35.203126 48.890626,36 50,36 L54,36 C55.109376,36 56,35.203126 56,34 C56,32.796876 55.109376,32 54,32 L50,32 Z M19.890626,40 C19.632812,40.039062 19.382812,40.132812 19.140626,40.273438 L15.679688,42.273438 C14.726562,42.820312 14.34375,43.960938 14.945312,45 C15.34375,45.695312 15.992188,46.015626 16.710938,46.0625 C17.070312,46.085938 17.359376,45.914062 17.679688,45.726562 L21.140626,43.726562 C22.101562,43.179688 22.476562,42.039062 21.875,41 C21.421876,40.21875 20.648438,39.890626 19.890626,40 Z M48.109376,40 C47.34375,39.890626 46.578126,40.226562 46.125,41 C45.523438,42.039062 45.898438,43.179688 46.851562,43.734376 L50.320312,45.734376 C50.640626,45.921876 50.929688,46.085938 51.28125,46.0625 C52.007812,46.015626 52.648438,45.695312 53.054688,45 C53.648438,43.960938 53.28125,42.820312 52.320312,42.273438 L48.851562,40.273438 C48.617188,40.132812 48.367188,40.039062 48.109376,40 Z M26.21875,45.851562 C25.429688,45.75 24.679688,46.140626 24.273438,46.859376 L22.273438,50.320312 C21.71875,51.28125 21.960938,52.453126 23,53.054688 C23.351562,53.257812 23.742188,53.367188 24,53.320312 C24.695312,53.320312 25.367188,52.960938 25.734376,52.320312 L27.734376,48.859376 C28.289062,47.898438 28.046876,46.726562 27,46.125 C26.742188,45.976562 26.476562,45.882812 26.21875,45.851562 Z M41.789062,45.851562 C41.523438,45.882812 41.257812,45.976562 41,46.125 C39.960938,46.726562 39.71875,47.898438 40.273438,48.851562 L42.273438,52.320312 C42.640626,52.96875 43.3125,53.320312 44,53.320312 C44.265626,53.367188 44.65625,53.25 45,53.054688 C46.039062,52.453126 46.28125,51.28125 45.726562,50.320312 L43.726562,46.851562 C43.320312,46.140626 42.578126,45.75 41.789062,45.851562 Z M34,48 C32.796876,48 32,48.890626 32,50 L32,54 C32,55.109376 32.796876,56 34,56 C35.203126,56 36,55.109376 36,54 L36,50 C36,48.890626 35.203126,48 34,48 Z M96,49.71875 C94.445312,49.71875 92.890626,50.28125 91.757812,51.414062 L78.984376,64.1875 L72.195312,57.398438 C70,55.195312 66,55.195312 63.804688,57.398438 L37.195312,84 L26.085938,84 C24.835938,84 24,84.796876 24,86 C24,87.203126 25.046876,88 26.085938,88 L117.960938,88 C119,88 120.046876,87.203126 120.046876,86 C120.046876,84.796876 119,84 117.960938,84 L64.828126,84 L94.585938,54.242188 C95.34375,53.484376 96.65625,53.484376 97.414062,54.242188 L116.585938,73.414062 C117.367188,74.195312 118.632812,74.195312 119.414062,73.414062 C120.195312,72.632812 120.195312,71.367188 119.414062,70.585938 L100.242188,51.414062 C99.109376,50.28125 97.554688,49.71875 96,49.71875 Z M68,59.601562 C68.5,59.601562 69,59.796876 69.398438,60.195312 L76.1875,66.984376 L59.171876,84 L42.804688,84 L66.601562,60.195312 C67,59.796876 67.5,59.601562 68,59.601562 Z M10,84 C8.796876,84 8,84.796876 8,86 C8,87.203126 8.796876,88 10,88 L18,88 C19.203126,88 20,87.203126 20,86 C20,84.796876 19.203126,84 18,84 L10,84 Z" id="Shape"></path>
        </g>
        <text id="This-image-is-being" font-family="SourceSansPro-SemiBold, Source Sans Pro" font-size="16" font-weight="500" fill="#52555A">
            <tspan x="233.84" y="306">This image is being created. Like, not right now, but soon.</tspan>
        </text>
    </g>
</svg>