<?xml version="1.0" encoding="UTF-8"?>
<svg width="56px" height="58px" viewBox="0 0 56 58" version="1.1" xmlns="http://www.w3.org/2000/svg" xmlns:xlink="http://www.w3.org/1999/xlink">
    <!-- Generator: Sketch 50 (54983) - http://www.bohemiancoding.com/sketch -->
    <title>smart</title>
    <desc>Created with Sketch.</desc>
    <defs></defs>
    <g id="Page-1" stroke="none" stroke-width="1" fill="none" fill-rule="evenodd">
        <g id="Artboard" transform="translate(-1.000000, 0.000000)" fill="#52555A" fill-rule="nonzero">
            <g id="smart" transform="translate(1.000000, 0.000000)">
                <path d="M27.7229167,0 C27.2088544,0 26.6947921,0.0838542133 26.20625,0.251562267 L8.72812547,6.2489588 C7.9625,6.5114588 7.46666667,7.20781227 7.46666667,8.01718773 C7.46666667,8.82656227 7.9588544,9.51927107 8.6661456,9.7598956 L16.6505211,13.1104167 C16.6979167,13.1322921 16.7489588,13.1322921 16.8,13.1432289 L16.8,13.7083333 C16.7197921,13.7520833 16.6432289,13.7958333 16.5776044,13.8651044 C14.8421877,15.7208333 13.6317711,18.0213544 13.0776044,20.5041667 L11.0286456,29.6625 C10.6130211,31.5364588 9.86562547,33.3010421 8.80833333,34.9015623 L7.42291667,37.0015623 C6.9927088,37.6541667 6.87968773,38.45625 7.10572893,39.2 C7.1677088,39.4005211 7.2552088,39.5864588 7.35729213,39.7614588 L5.84062547,40.4869789 C2.29322893,42.1822921 0,45.8171877 0,49.7473956 L0,55.0666667 C0,56.6088544 1.25781227,57.8666667 2.8,57.8666667 L53.2,57.8666667 C54.7421877,57.8666667 56,56.6088544 56,55.0666667 L56,49.7473956 C56,45.8171877 53.7104167,42.1822921 50.1630211,40.4869789 L48.6463544,39.7614588 C48.7484377,39.5901044 48.8322921,39.4041667 48.8942711,39.2072921 C49.1276044,38.4598956 49.0145833,37.6614588 48.5880211,37.0088544 L47.03125,34.6317711 C46.0104167,33.0677088 45.28125,31.3505211 44.8619789,29.53125 L42.9661456,21.2625 C42.3718755,18.6666667 41.0666667,16.3078123 39.2,14.4229167 L39.2,12.9427088 L44.8,10.5875 L44.8,12.5744789 C44.2531255,13.1031255 42.9333333,14.5651044 42.9333333,16.3916667 C42.9333333,18.6375 44.9531255,20.3583333 45.0369789,20.43125 C45.2119789,20.5770833 45.4270833,20.65 45.6385421,20.65 C45.85,20.65 46.0651044,20.5770833 46.2401044,20.43125 C46.3276044,20.3583333 48.34375,18.6375 48.34375,16.3916667 C48.34375,14.7583333 47.2791667,13.4130211 46.6666667,12.7640623 L46.6666667,9.8036456 L46.7140623,9.78541667 C47.4796877,9.51927107 47.9755211,8.82656227 47.9755211,8.01718773 C47.9755211,7.20781227 47.4796877,6.5151044 46.7140623,6.2489588 L29.2359377,0.2552088 C28.7473956,0.0838542133 28.2333333,0 27.7229167,0 Z M27.7229167,1.86666667 C28.0291667,1.86666667 28.3390623,1.9177088 28.6307289,2.01979213 L46.0541667,8.03906227 L39.1890623,10.9229167 C39.1635421,10.10625 38.6166667,9.39531227 37.8255211,9.17656227 L35.6125,8.575 C30.6322921,7.21875 25.3677088,7.21875 20.3875,8.575 L18.1744789,9.17656227 C17.3651044,9.3989588 16.8,10.1390623 16.8,10.98125 L16.8,11.1526044 L9.33333333,8.02083333 L26.8151044,2.01979213 C27.1067711,1.9177088 27.4130211,1.86666667 27.7229167,1.86666667 Z M28,9.42083333 C30.3953123,9.42083333 32.7942711,9.74166667 35.1203123,10.3760421 L37.3333333,10.98125 L37.3369789,14.6453123 L35.6125,14.175 C33.1223956,13.4968755 30.5593755,13.1541667 28,13.1541667 C25.4406255,13.1541667 22.8776044,13.4968755 20.3875,14.175 L18.6666667,14.6416667 L18.6666667,10.98125 L20.8796877,10.3760421 C23.2057289,9.74166667 25.6046877,9.42083333 28,9.42083333 Z M45.6421877,14.4192711 C46.0541667,14.9369789 46.4807289,15.6625 46.4807289,16.3916667 C46.4807289,17.1208333 46.0541667,17.8463544 45.6421877,18.3640623 C45.2265623,17.8463544 44.8,17.1208333 44.8,16.3916667 C44.8,15.6625 45.2265623,14.9369789 45.6421877,14.4192711 Z M28,15.0244789 C30.3953123,15.0244789 32.7942711,15.3416667 35.1203123,15.9796877 L36.8411456,16.4463544 C37.3552088,16.5848956 37.8838544,16.49375 38.3286456,16.2130211 C39.7104167,17.7625 40.6802088,19.6401044 41.1505211,21.6817711 L43.0463544,29.9468755 C43.5130211,31.9848956 44.3296877,33.9026044 45.4708333,35.6526044 L47.0276044,38.0296877 C47.1916667,38.28125 47.1515623,38.5291667 47.1151044,38.6531255 C47.0895833,38.7296877 47.0348956,38.8390623 46.9364588,38.9411456 L37.3078123,34.3401044 C37.7854167,33.4322921 38.1901044,32.4880211 38.5036456,31.54375 C39.50625,31.1427088 40.3885421,29.9395833 40.8296877,28.30625 C41.4458333,25.9984377 40.8697921,24.0442711 39.4515623,23.6651044 C39.3932289,23.6468755 39.3276044,23.6359377 39.2546877,23.625 C39.2182289,22.5786456 39.1890623,21.9770833 39.1380211,21.7 C39.0468755,21.1932289 38.5692711,20.8505211 38.0588544,20.9453123 C37.5520833,21.0328123 37.2130211,21.5177088 37.3005211,22.0244789 C37.3442711,22.2760421 37.3843755,23.6067711 37.40625,24.1791667 C37.4135421,24.45625 37.4208333,24.6859377 37.4244789,24.8098956 C37.4427088,25.1453123 37.6359377,25.4442711 37.93125,25.5973956 C38.2302088,25.7505211 38.5875,25.7322921 38.8682289,25.55 C38.9192711,25.5171877 38.9520833,25.4989588 38.9703123,25.4880211 C39.1416667,25.6885421 39.3640623,26.5526044 39.025,27.825 C38.6640623,29.1739588 37.9786456,29.7973956 37.7708333,29.8192711 C37.3588544,29.8192711 36.9942711,30.0890623 36.8776044,30.4864588 C35.5796877,34.8578123 32.0286456,39.4989588 28,39.4989588 C23.975,39.4989588 20.4239588,34.8541667 19.1260421,30.4864588 C19.0093755,30.0890623 18.6484377,29.8192711 18.2328123,29.8192711 C18.0213544,29.7973956 17.3395833,29.1739588 16.975,27.825 C16.6140623,26.4760421 16.8911456,25.5828123 16.9786456,25.4770833 C16.9786456,25.4770833 17.0333333,25.4843755 17.1354167,25.55 C17.4161456,25.7322921 17.7734377,25.7505211 18.06875,25.5973956 C18.3677088,25.4442711 18.5609377,25.1453123 18.5755211,24.8098956 L18.5973956,24.2411456 C18.6156255,23.6505211 18.6630211,22.2651044 18.7104167,21.9953123 C18.8015623,21.4885421 18.4588544,21.0072921 17.9520833,20.9161456 C17.4416667,20.8322921 16.9604167,21.1677088 16.8729167,21.6744789 C16.8218755,21.9588544 16.7890623,22.5895833 16.7526044,23.625 C16.6796877,23.6359377 16.6104167,23.6505211 16.5520833,23.66875 C15.1338544,24.0479167 14.5541667,25.9984377 15.1739588,28.30625 C15.6114588,29.9395833 16.4973956,31.1427088 17.5,31.54375 C17.8135421,32.4880211 18.2182289,33.4322921 18.6958333,34.3401044 L9.06718773,38.9447921 C8.96875,38.8427088 8.91406227,38.7296877 8.89218773,38.6531255 C8.85208333,38.5291667 8.81197893,38.2848956 8.97968773,38.0333333 L10.36875,35.9296877 C11.55,34.1359377 12.3848956,32.1671877 12.8515623,30.0708333 L14.8968755,20.9125 C15.3052088,19.075 16.1328123,17.3651044 17.2958333,15.8994789 C17.36875,15.9796877 17.4416667,16.0598956 17.5328123,16.1291667 C17.8645833,16.3807289 18.2583333,16.5119789 18.6630211,16.5119789 C18.8270833,16.5119789 18.9911456,16.4901044 19.1588544,16.4463544 L20.8796877,15.9796877 C23.2057289,15.3416667 25.6046877,15.0244789 28,15.0244789 Z M32.7177088,15.9833333 C32.4953123,16.0015623 32.2729167,16.0598956 32.0651044,16.1619789 L30.6031255,16.8729167 C28.1968755,18.0468755 25.5135421,18.6666667 22.8375,18.6666667 L20.4531255,18.6666667 C19.9390623,18.6666667 19.5197921,19.0822921 19.5197921,19.6 C19.5197921,20.1177088 19.9390623,20.5333333 20.4531255,20.5333333 L22.8375,20.5333333 C25.7979167,20.5333333 28.7619789,19.8479167 31.4197921,18.5536456 L32.8817711,17.8427088 L34.3729167,20.1140623 C34.5552088,20.3875 34.8541667,20.5333333 35.1567711,20.5333333 C35.3317711,20.5333333 35.5104167,20.4822921 35.6708333,20.3802088 C36.1010421,20.0958333 36.2177088,19.5161456 35.9333333,19.0859377 L34.4385421,16.8145833 C34.0520833,16.23125 33.3848956,15.925 32.7177088,15.9833333 Z M19.6510421,35.9479167 C21.7036456,39.0322921 24.6677088,41.3656255 28,41.3656255 C31.3322921,41.3656255 34.2963544,39.0322921 36.3489588,35.9479167 L37.2713544,36.3890623 L29.925,55.6682289 C29.8848956,55.7776044 29.8703123,55.8906255 29.8703123,56 L26.1260421,56 C26.1260421,55.8906255 26.1151044,55.7776044 26.0713544,55.6682289 L18.7286456,36.3890623 L19.6510421,35.9479167 Z M17.0369789,37.1984377 L24.2010421,56 L21.9151044,56 L15.18125,47.5817711 L17.5473956,44.4244789 C17.7223956,44.1911456 17.7807289,43.8921877 17.7005211,43.6114588 L16.0088544,37.6942711 L17.0369789,37.1984377 Z M38.9630211,37.1984377 L39.9911456,37.6942711 L38.2994789,43.6114588 C38.2192711,43.8921877 38.2776044,44.1911456 38.4526044,44.4244789 L40.7968755,47.5526044 L33.8333333,55.3838544 C33.6765623,55.5588544 33.6109377,55.78125 33.6109377,56 L31.7989588,56 L38.9630211,37.1984377 Z M41.7010421,38.5109377 L49.3572921,42.1713544 C52.2593755,43.5567711 54.1333333,46.5317711 54.1333333,49.7473956 L54.1333333,55.0666667 C54.1333333,55.5807289 53.7140623,56 53.2,56 L35.7838544,56 L42.7,48.2197921 C42.9916667,47.8880211 43.0135421,47.3958333 42.7473956,47.0421877 L40.2244789,43.6770833 L41.7010421,38.5109377 Z M14.2989588,38.5109377 L15.7755211,43.6770833 L13.2526044,47.0421877 C12.9973956,47.38125 13.0046877,47.8515623 13.2708333,48.1833333 L19.5270833,56 L2.8,56 C2.28593773,56 1.86666667,55.5807289 1.86666667,55.0666667 L1.86666667,49.7473956 C1.86666667,46.5354167 3.74062547,43.5567711 6.6427088,42.1713544 L14.2989588,38.5109377 Z M4.66666667,50.4 C4.1526044,50.4 3.73333333,50.8156255 3.73333333,51.3333333 L3.73333333,53.2 C3.73333333,53.7177088 4.1526044,54.1333333 4.66666667,54.1333333 C5.18072893,54.1333333 5.6,53.7177088 5.6,53.2 L5.6,51.3333333 C5.6,50.8156255 5.18072893,50.4 4.66666667,50.4 Z M9.33333333,50.4 C8.81927107,50.4 8.4,50.8156255 8.4,51.3333333 L8.4,53.2 C8.4,53.7177088 8.81927107,54.1333333 9.33333333,54.1333333 C9.8473956,54.1333333 10.2666667,53.7177088 10.2666667,53.2 L10.2666667,51.3333333 C10.2666667,50.8156255 9.8473956,50.4 9.33333333,50.4 Z M14,50.4 C13.4859377,50.4 13.0666667,50.8156255 13.0666667,51.3333333 L13.0666667,53.2 C13.0666667,53.7177088 13.4859377,54.1333333 14,54.1333333 C14.5140623,54.1333333 14.9333333,53.7177088 14.9333333,53.2 L14.9333333,51.3333333 C14.9333333,50.8156255 14.5140623,50.4 14,50.4 Z M42,50.4 C41.4859377,50.4 41.0666667,50.8156255 41.0666667,51.3333333 L41.0666667,53.2 C41.0666667,53.7177088 41.4859377,54.1333333 42,54.1333333 C42.5140623,54.1333333 42.9333333,53.7177088 42.9333333,53.2 L42.9333333,51.3333333 C42.9333333,50.8156255 42.5140623,50.4 42,50.4 Z M46.6666667,50.4 C46.1526044,50.4 45.7333333,50.8156255 45.7333333,51.3333333 L45.7333333,53.2 C45.7333333,53.7177088 46.1526044,54.1333333 46.6666667,54.1333333 C47.1807289,54.1333333 47.6,53.7177088 47.6,53.2 L47.6,51.3333333 C47.6,50.8156255 47.1807289,50.4 46.6666667,50.4 Z M51.3333333,50.4 C50.8192711,50.4 50.4,50.8156255 50.4,51.3333333 L50.4,53.2 C50.4,53.7177088 50.8192711,54.1333333 51.3333333,54.1333333 C51.8473956,54.1333333 52.2666667,53.7177088 52.2666667,53.2 L52.2666667,51.3333333 C52.2666667,50.8156255 51.8473956,50.4 51.3333333,50.4 Z" id="Shape"></path>
            </g>
        </g>
    </g>
</svg>