<?xml version="1.0" encoding="UTF-8"?>
<svg width="81px" height="81px" viewBox="0 0 81 81" version="1.1" xmlns="http://www.w3.org/2000/svg" xmlns:xlink="http://www.w3.org/1999/xlink">
    <!-- Generator: Sketch 50.2 (55047) - http://www.bohemiancoding.com/sketch -->
    <title>thumbsup</title>
    <desc>Created with Sketch.</desc>
    <defs>
        <circle id="path-1" cx="30.5" cy="30.5" r="30.5"></circle>
        <filter x="-24.6%" y="-23.0%" width="152.5%" height="152.5%" filterUnits="objectBoundingBox" id="filter-2">
            <feOffset dx="1" dy="2" in="SourceAlpha" result="shadowOffsetOuter1"></feOffset>
            <feGaussianBlur stdDeviation="5" in="shadowOffsetOuter1" result="shadowBlurOuter1"></feGaussianBlur>
            <feColorMatrix values="0 0 0 0 0.141176471   0 0 0 0 0.466666667   0 0 0 0 0.270588235  0 0 0 0.3 0" type="matrix" in="shadowBlurOuter1"></feColorMatrix>
        </filter>
    </defs>
    <g id="Buttons" stroke="none" stroke-width="1" fill="none" fill-rule="evenodd">
        <g transform="translate(-411.000000, -1839.000000)" id="Group-46">
            <g transform="translate(392.000000, 1572.000000)">
                <g id="thumbsup" transform="translate(28.000000, 275.000000)">
                    <g id="Oval-2">
                        <use fill="black" fill-opacity="1" filter="url(#filter-2)" xlink:href="#path-1"></use>
                        <use fill="#00BF4B" fill-rule="evenodd" xlink:href="#path-1"></use>
                    </g>
                    <g id="Grey/47" transform="translate(5.000000, 5.000000)">
                        <g id="Iconography-grey_Thumbs-Up" transform="translate(12.000000, 12.000000)">
                            <g id="Group">
                                <path d="M12.981,23.292 C11.112,23.292 10.427,22.457 10.019,21.96 C9.951,21.877 9.891,21.8 9.832,21.745 C9.188,21.082 8.287,20.67 7.29,20.67 L7.282,20.67 L7.119,20.67 L6.585,20.693 L6.585,10.581 L7.024,10.518 C9.169,10.208 10.556,7.564 11.669,5.439 C11.875,5.045 12.076,4.661 12.277,4.3 L13.512,2.073 C13.955,1.286 14.785,0.763 15.737,0.763 C16.193,0.763 16.621,0.883 16.991,1.093 C18.279,1.811 18.408,3.367 17.977,4.521 L17.977,4.527 L17.964,4.56 L16.774,7.957 C16.775,8.372 17.111,8.709 17.527,8.71 L21.842,8.71 C23.265,8.711 24.418,9.864 24.42,11.286 L24.42,19.268 C24.417,21.489 22.618,23.288 20.397,23.291 L12.981,23.292 Z" id="Shape" fill="#D4D5D6"></path>
                                <path d="M2.69,8.001 L5.383,8.001 C6.047,8.001 6.585,8.539 6.585,9.203 L6.585,22.09 C6.585,22.754 6.047,23.292 5.383,23.292 L2.69,23.292 C2.026,23.292 1.488,22.754 1.488,22.09 L1.488,9.203 C1.488,8.539 2.026,8.001 2.69,8.001 L2.69,8.001 Z" id="Shape" fill="#FFFFFF"></path>
                                <path d="M6.344,20.159 L6.252,20.159 L6.066,20.159 L6.066,11.026 C6.14,11.016 6.212,11.002 6.285,10.986 L6.285,9.926 C6.213,9.948 6.14,9.967 6.066,9.982 L6.066,9.201 C6.065,8.257 5.302,7.493 4.359,7.488 L3.155,7.488 L3.155,8.512 L4.358,8.512 C4.739,8.512 5.048,8.821 5.048,9.202 L5.048,22.089 C5.048,22.47 4.739,22.779 4.358,22.779 L3.155,22.779 L3.155,23.803 L4.358,23.803 C5.304,23.802 6.071,23.035 6.072,22.089 L6.072,21.184 C6.154,21.184 6.247,21.178 6.35,21.184 L6.344,20.159 Z" id="Shape" fill="#52555A" opacity="0.3"></path>
                                <path d="M20.822,8.198 L16.507,8.198 C16.396,8.198 16.303,8.123 16.274,8.022 L17.426,4.728 C18.06,3.072 17.554,1.391 16.209,0.632 C16.098,0.569 15.965,0.506 15.828,0.454 L15.807,0.502 L15.232,0.502 L15.232,1.337 C15.413,1.385 15.572,1.45 15.72,1.533 C16.755,2.11 16.836,3.405 16.467,4.363 L16.467,4.377 L15.27,7.789 C15.252,7.839 15.242,7.896 15.242,7.955 L15.242,7.958 C15.243,8.656 15.809,9.222 16.507,9.222 L20.822,9.222 C21.962,9.223 22.886,10.147 22.888,11.286 L22.888,19.268 C22.885,21.206 21.315,22.776 19.377,22.779 L13.659,22.779 L13.659,23.803 L19.375,23.803 C21.878,23.799 23.906,21.771 23.91,19.268 L23.91,11.286 C23.907,9.581 22.526,8.2 20.822,8.197 L20.822,8.198 Z" id="Shape" fill="#52555A" opacity="0.3"></path>
                                <path d="M21.846,8.198 L17.531,8.198 C17.42,8.198 17.327,8.123 17.298,8.022 L18.45,4.728 C19.084,3.072 18.578,1.391 17.233,0.632 C16.804,0.389 16.29,0.245 15.743,0.245 C14.6,0.245 13.603,0.872 13.077,1.801 L11.83,4.043 C11.628,4.405 11.427,4.788 11.214,5.195 C10.126,7.271 8.91,9.603 7.095,9.978 L7.095,9.197 C7.091,8.253 6.326,7.49 5.382,7.488 L2.694,7.488 C1.748,7.489 0.982,8.256 0.98,9.202 L0.98,22.089 C0.981,23.035 1.748,23.801 2.694,23.803 L5.382,23.803 C6.328,23.802 7.095,23.035 7.096,22.089 L7.096,21.184 C7.149,21.181 7.212,21.179 7.275,21.179 C8.137,21.179 8.915,21.536 9.47,22.11 C9.508,22.148 9.562,22.215 9.619,22.285 C10.023,22.779 10.864,23.808 12.98,23.808 L20.404,23.808 C22.907,23.804 24.935,21.776 24.939,19.273 L24.939,11.285 C24.936,9.579 23.552,8.196 21.845,8.196 L21.845,8.196 L21.846,8.198 Z M23.912,19.269 C23.909,21.207 22.339,22.777 20.401,22.78 L12.977,22.78 C11.348,22.78 10.783,22.089 10.409,21.628 C10.333,21.536 10.263,21.45 10.19,21.372 C9.454,20.616 8.426,20.147 7.288,20.147 L7.277,20.147 L7.092,20.147 L7.092,11.026 C9.497,10.679 10.942,7.921 12.119,5.676 C12.328,5.277 12.526,4.899 12.721,4.548 L13.961,2.322 C14.315,1.693 14.978,1.275 15.739,1.275 C16.103,1.275 16.445,1.371 16.741,1.538 C17.777,2.115 17.857,3.411 17.489,4.368 L17.489,4.382 L16.295,7.788 C16.277,7.838 16.267,7.895 16.267,7.954 L16.267,7.957 C16.268,8.655 16.834,9.221 17.532,9.221 L21.847,9.221 C22.987,9.222 23.911,10.146 23.913,11.285 L23.912,19.269 Z M2,22.085 L2,9.203 C2.001,8.822 2.309,8.514 2.69,8.513 L5.378,8.513 C5.759,8.513 6.068,8.822 6.068,9.203 L6.068,22.09 C6.068,22.471 5.759,22.78 5.378,22.78 L2.69,22.78 C2.309,22.779 2.001,22.471 2,22.09 L2,22.085 Z" id="Shape" fill="#52555A"></path>
                            </g>
                        </g>
                    </g>
                </g>
            </g>
        </g>
    </g>
</svg>