<?xml version="1.0" encoding="UTF-8"?>
<svg width="346px" height="419px" viewBox="0 0 346 419" version="1.1" xmlns="http://www.w3.org/2000/svg" xmlns:xlink="http://www.w3.org/1999/xlink">
    <!-- Generator: Sketch 50.2 (55047) - http://www.bohemiancoding.com/sketch -->
    <title>example_drawer_dark</title>
    <desc>Created with Sketch.</desc>
    <defs>
        <rect id="path-1" x="0" y="0" width="334" height="407"></rect>
        <filter x="-2.8%" y="-2.1%" width="105.7%" height="104.7%" filterUnits="objectBoundingBox" id="filter-2">
            <feOffset dx="0" dy="1" in="SourceAlpha" result="shadowOffsetOuter1"></feOffset>
            <feGaussianBlur stdDeviation="3" in="shadowOffsetOuter1" result="shadowBlurOuter1"></feGaussianBlur>
            <feComposite in="shadowBlurOuter1" in2="SourceAlpha" operator="out" result="shadowBlurOuter1"></feComposite>
            <feColorMatrix values="0 0 0 0 0   0 0 0 0 0   0 0 0 0 0  0 0 0 0.285920516 0" type="matrix" in="shadowBlurOuter1"></feColorMatrix>
        </filter>
        <rect id="path-3" x="0" y="0" width="300" height="369" rx="8"></rect>
        <filter x="-4.7%" y="-2.2%" width="109.3%" height="108.7%" filterUnits="objectBoundingBox" id="filter-4">
            <feMorphology radius="12" operator="erode" in="SourceAlpha" result="shadowSpreadOuter1"></feMorphology>
            <feOffset dx="0" dy="10" in="shadowSpreadOuter1" result="shadowOffsetOuter1"></feOffset>
            <feGaussianBlur stdDeviation="15" in="shadowOffsetOuter1" result="shadowBlurOuter1"></feGaussianBlur>
            <feColorMatrix values="0 0 0 0 0.294117647   0 0 0 0 0.305882353   0 0 0 0 0.325490196  0 0 0 0.4 0" type="matrix" in="shadowBlurOuter1"></feColorMatrix>
        </filter>
        <path d="M11.9715729,13.4857864 L7.09339828,18.363961 L6.3862915,19.0710678 L4.97207793,17.6568542 L5.67918472,16.9497475 L10.5573593,12.0715729 L5.63603897,7.15025253 L4.92893219,6.44314575 L6.34314575,5.02893219 L7.05025253,5.73603897 L11.9715729,10.6573593 L16.9928932,5.63603897 L17.7,4.92893219 L19.1142136,6.34314575 L18.4071068,7.05025253 L13.3857864,12.0715729 L18.363961,17.0497475 L19.0710678,17.7568543 L17.6568542,19.1710678 L16.9497475,18.463961 L11.9715729,13.4857864 Z" id="path-5"></path>
        <rect id="path-7" x="0" y="0" width="75.188" height="25.296" rx="5"></rect>
        <filter x="-8.6%" y="-21.7%" width="117.3%" height="151.4%" filterUnits="objectBoundingBox" id="filter-8">
            <feOffset dx="0" dy="1" in="SourceAlpha" result="shadowOffsetOuter1"></feOffset>
            <feGaussianBlur stdDeviation="2" in="shadowOffsetOuter1" result="shadowBlurOuter1"></feGaussianBlur>
            <feColorMatrix values="0 0 0 0 0   0 0 0 0 0   0 0 0 0 0  0 0 0 0.26 0" type="matrix" in="shadowBlurOuter1"></feColorMatrix>
        </filter>
    </defs>
    <g id="Containers" stroke="none" stroke-width="1" fill="none" fill-rule="evenodd">
        <g id="Drawers" transform="translate(-780.000000, -1136.000000)">
            <g id="example_drawer_dark" transform="translate(786.000000, 1141.000000)">
                <g id="Rectangle-6-Copy-2">
                    <use fill="black" fill-opacity="1" filter="url(#filter-2)" xlink:href="#path-1"></use>
                    <use fill-opacity="0.479308197" fill="#F4F5F8" fill-rule="evenodd" xlink:href="#path-1"></use>
                </g>
                <g id="9-Drawer/1-Light-Copy" transform="translate(18.000000, 19.000000)">
                    <g id="Drawer/Light">
                        <g id="Content/modal/body">
                            <g id="1-card/l5">
                                <g id="card">
                                    <use fill="black" fill-opacity="1" filter="url(#filter-4)" xlink:href="#path-3"></use>
                                    <use fill="#3C464D" fill-rule="evenodd" xlink:href="#path-3"></use>
                                </g>
                            </g>
                        </g>
                        <g id="Text" transform="translate(24.000000, 24.000000)" fill="#FFFFFF">
                            <g id="Info-Copy">
                                <path d="M5.958,5.4 C9.45,5.4 11.646,7.416 11.646,11.7 C11.646,15.984 9.45,18 5.958,18 L2.07,18 C1.62,18 1.422,17.802 1.422,17.352 L1.422,6.048 C1.422,5.598 1.62,5.4 2.07,5.4 L5.958,5.4 Z M5.922,7.398 L3.78,7.398 L3.78,16.002 L5.922,16.002 C7.974,16.002 9.252,14.634 9.252,11.7 C9.252,8.766 7.974,7.398 5.922,7.398 Z M17.928,8.46 C18.738,8.46 18.954,8.964 18.954,9.324 C18.954,9.666 18.774,10.638 18.468,10.638 C18.216,10.638 18.018,10.476 17.568,10.476 C16.758,10.476 16.182,11.232 16.056,11.448 L16.056,17.532 C16.056,17.856 15.768,18.036 15.102,18.036 L14.76,18.036 C14.094,18.036 13.806,17.856 13.806,17.532 L13.806,11.592 C13.806,9.918 13.59,9.414 13.59,9.162 C13.59,8.766 14.85,8.64 15.228,8.64 C15.75,8.64 15.804,9.36 15.912,9.81 C16.38,9.072 16.974,8.46 17.928,8.46 Z M23.868,8.46 C26.478,8.46 27.612,9.63 27.612,11.394 L27.612,15.012 C27.612,16.74 27.828,17.226 27.828,17.496 C27.828,17.892 26.568,18.018 26.19,18.018 C25.668,18.018 25.614,17.262 25.506,16.776 C25.182,17.19 24.264,18.126 22.716,18.126 C20.844,18.126 19.908,17.082 19.908,15.48 C19.908,13.428 21.456,12.168 25.362,12.15 L25.362,11.466 C25.362,10.746 24.93,10.26 23.76,10.26 C22.32,10.26 21.474,10.908 21.276,10.908 C20.934,10.908 20.448,9.972 20.448,9.666 C20.448,9.108 21.942,8.46 23.868,8.46 Z M25.362,13.734 C23.598,13.752 22.176,14.04 22.176,15.264 C22.176,15.912 22.554,16.308 23.31,16.308 C24.21,16.308 24.912,15.786 25.362,15.138 L25.362,13.734 Z M40.896,8.55 C41.58,8.55 41.868,8.712 41.868,8.964 C41.868,9.036 41.85,9.108 41.832,9.216 L39.6,17.694 C39.546,17.928 39.168,18.036 38.718,18.036 L37.962,18.036 C37.458,18.036 37.134,17.928 37.062,17.694 L35.838,12.888 C35.766,12.582 35.694,12.222 35.622,11.88 C35.55,12.222 35.478,12.582 35.406,12.888 L34.2,17.694 C34.146,17.928 33.768,18.036 33.318,18.036 L32.562,18.036 C32.058,18.036 31.734,17.928 31.662,17.694 L29.358,9.27 C29.322,9.162 29.304,9.036 29.304,8.964 C29.304,8.712 29.61,8.55 30.312,8.55 C31.068,8.55 31.41,8.64 31.482,8.892 L32.814,14.022 C32.904,14.346 32.994,14.85 33.102,15.264 C33.192,14.85 33.3,14.364 33.408,13.968 L34.686,8.91 C34.74,8.658 35.064,8.55 35.568,8.55 L35.892,8.55 C36.342,8.55 36.702,8.658 36.774,8.91 L38.052,14.04 C38.178,14.58 38.25,14.868 38.322,15.264 C38.43,14.85 38.52,14.4 38.61,14.022 L39.96,8.892 C40.032,8.658 40.356,8.55 40.896,8.55 Z M47.502,8.46 C50.202,8.46 51.336,10.422 51.336,13.122 C51.336,13.392 50.76,14.058 50.526,14.058 L45.54,14.058 C45.666,15.714 46.476,16.326 47.862,16.326 C49.158,16.326 49.986,15.696 50.202,15.696 C50.544,15.696 51.03,16.578 51.03,16.884 C51.03,17.622 49.104,18.126 47.79,18.126 C44.64,18.126 43.2,16.38 43.2,13.356 C43.2,9.936 44.874,8.46 47.502,8.46 Z M47.484,10.26 C46.44,10.26 45.72,10.89 45.54,12.456 L49.104,12.456 C49.104,11.106 48.582,10.26 47.484,10.26 Z M57.474,8.46 C58.284,8.46 58.5,8.964 58.5,9.324 C58.5,9.666 58.32,10.638 58.014,10.638 C57.762,10.638 57.564,10.476 57.114,10.476 C56.304,10.476 55.728,11.232 55.602,11.448 L55.602,17.532 C55.602,17.856 55.314,18.036 54.648,18.036 L54.306,18.036 C53.64,18.036 53.352,17.856 53.352,17.532 L53.352,11.592 C53.352,9.918 53.136,9.414 53.136,9.162 C53.136,8.766 54.396,8.64 54.774,8.64 C55.296,8.64 55.35,9.36 55.458,9.81 C55.926,9.072 56.52,8.46 57.474,8.46 Z M66.024,6.3 C66.564,6.3 66.78,6.48 66.78,6.804 L66.78,8.586 L67.896,8.586 C68.238,8.586 68.382,8.82 68.382,9.36 L68.382,9.63 C68.382,10.17 68.238,10.404 67.896,10.404 L66.78,10.404 L66.78,15.336 C66.78,16.074 67.068,16.326 67.554,16.326 C67.842,16.326 68.022,16.236 68.148,16.236 C68.472,16.236 68.634,17.226 68.634,17.37 C68.634,18.072 67.59,18.126 67.068,18.126 C65.664,18.126 64.548,17.406 64.548,15.372 L64.548,10.404 L64.026,10.404 C63.702,10.404 63.558,10.17 63.558,9.63 L63.558,9.36 C63.558,8.82 63.702,8.586 64.026,8.586 L64.548,8.586 L64.764,6.804 C64.818,6.48 65.088,6.3 65.592,6.3 L66.024,6.3 Z M71.712,4.446 C72.378,4.446 72.666,4.626 72.666,4.95 L72.666,6.264 C72.666,6.606 72.378,6.768 71.712,6.768 L71.316,6.768 C70.65,6.768 70.362,6.606 70.362,6.264 L70.362,4.95 C70.362,4.626 70.65,4.446 71.316,4.446 L71.712,4.446 Z M71.694,8.55 C72.36,8.55 72.648,8.73 72.648,9.054 L72.648,17.532 C72.648,17.856 72.36,18.036 71.694,18.036 L71.352,18.036 C70.686,18.036 70.398,17.856 70.398,17.532 L70.398,9.054 C70.398,8.73 70.686,8.55 71.352,8.55 L71.694,8.55 Z M76.95,6.3 C77.49,6.3 77.706,6.48 77.706,6.804 L77.706,8.586 L78.822,8.586 C79.164,8.586 79.308,8.82 79.308,9.36 L79.308,9.63 C79.308,10.17 79.164,10.404 78.822,10.404 L77.706,10.404 L77.706,15.336 C77.706,16.074 77.994,16.326 78.48,16.326 C78.768,16.326 78.948,16.236 79.074,16.236 C79.398,16.236 79.56,17.226 79.56,17.37 C79.56,18.072 78.516,18.126 77.994,18.126 C76.59,18.126 75.474,17.406 75.474,15.372 L75.474,10.404 L74.952,10.404 C74.628,10.404 74.484,10.17 74.484,9.63 L74.484,9.36 C74.484,8.82 74.628,8.586 74.952,8.586 L75.474,8.586 L75.69,6.804 C75.744,6.48 76.014,6.3 76.518,6.3 L76.95,6.3 Z M82.602,4.446 C83.268,4.446 83.556,4.626 83.556,4.95 L83.556,15.336 C83.556,16.074 83.826,16.326 84.312,16.326 C84.618,16.326 84.78,16.236 84.906,16.236 C85.23,16.236 85.392,17.226 85.392,17.37 C85.392,18.072 84.348,18.126 83.826,18.126 C82.422,18.126 81.306,17.406 81.306,15.372 L81.306,4.95 C81.306,4.626 81.594,4.446 82.26,4.446 L82.602,4.446 Z M90.54,8.46 C93.24,8.46 94.374,10.422 94.374,13.122 C94.374,13.392 93.798,14.058 93.564,14.058 L88.578,14.058 C88.704,15.714 89.514,16.326 90.9,16.326 C92.196,16.326 93.024,15.696 93.24,15.696 C93.582,15.696 94.068,16.578 94.068,16.884 C94.068,17.622 92.142,18.126 90.828,18.126 C87.678,18.126 86.238,16.38 86.238,13.356 C86.238,9.936 87.912,8.46 90.54,8.46 Z M90.522,10.26 C89.478,10.26 88.758,10.89 88.578,12.456 L92.142,12.456 C92.142,11.106 91.62,10.26 90.522,10.26 Z" id="Drawer-title"></path>
                            </g>
                        </g>
                        <g id="Icon/app/close" transform="translate(258.000000, 24.000000)">
                            <mask id="mask-6" fill="white">
                                <use xlink:href="#path-5"></use>
                            </mask>
                            <use id="Mask" fill="#777777" fill-rule="nonzero" xlink:href="#path-5"></use>
                            <g id="09-Bumble" mask="url(#mask-6)" fill="#FFFFFF" fill-rule="evenodd" stroke="#F0F0F0" stroke-width="1">
                                <rect id="Bumble" x="0.5" y="0.5" width="23" height="23"></rect>
                            </g>
                        </g>
                    </g>
                    <g id="1--Primary/1--resting" transform="translate(34.000000, 317.000000)">
                        <g id="Background-[8-24]">
                            <use fill="black" fill-opacity="1" filter="url(#filter-8)" xlink:href="#path-7"></use>
                            <use fill="#00BF4B" fill-rule="evenodd" xlink:href="#path-7"></use>
                        </g>
                        <path d="M24.326,17 L24.326,7.872 L26.44,7.872 L28.82,12.408 L29.716,14.424 L29.772,14.424 C29.7253331,13.9386642 29.671667,13.3973363 29.611,12.8 C29.550333,12.2026637 29.52,11.633336 29.52,11.092 L29.52,7.872 L31.48,7.872 L31.48,17 L29.366,17 L26.986,12.45 L26.09,10.462 L26.034,10.462 C26.0806669,10.9660025 26.134333,11.5073304 26.195,12.086 C26.255667,12.6646696 26.286,13.224664 26.286,13.766 L26.286,17 L24.326,17 Z M36.576,17.168 C36.0813309,17.168 35.6193355,17.0863342 35.19,16.923 C34.7606645,16.7596659 34.3873349,16.5216682 34.07,16.209 C33.7526651,15.8963318 33.5053342,15.5160022 33.328,15.068 C33.1506658,14.6199978 33.062,14.1066696 33.062,13.528 C33.062,12.9679972 33.1553324,12.4616689 33.342,12.009 C33.5286676,11.5563311 33.7736652,11.1736682 34.077,10.861 C34.3803349,10.5483318 34.727998,10.3080008 35.12,10.14 C35.512002,9.97199916 35.9179979,9.888 36.338,9.888 C36.8326691,9.888 37.2643315,9.97199916 37.633,10.14 C38.0016685,10.3080008 38.3096654,10.5413318 38.557,10.84 C38.8043346,11.1386682 38.9886661,11.490998 39.11,11.897 C39.2313339,12.303002 39.292,12.7439976 39.292,13.22 C39.292,13.4066676 39.2826668,13.5839992 39.264,13.752 C39.2453332,13.9200008 39.2266668,14.0459996 39.208,14.13 L35.05,14.13 C35.1433338,14.6340025 35.3509984,15.0049988 35.673,15.243 C35.9950016,15.4810012 36.389331,15.6 36.856,15.6 C37.3506691,15.6 37.8499975,15.4460015 38.354,15.138 L39.04,16.384 C38.6853316,16.6266679 38.2910022,16.8179993 37.857,16.958 C37.4229978,17.0980007 36.9960021,17.168 36.576,17.168 Z M35.036,12.772 L37.542,12.772 C37.542,12.379998 37.4533342,12.0626679 37.276,11.82 C37.0986658,11.5773321 36.8000021,11.456 36.38,11.456 C36.0533317,11.456 35.7663346,11.5633323 35.519,11.778 C35.2716654,11.9926677 35.110667,12.3239978 35.036,12.772 Z M39.782,17 L41.91,13.388 L39.908,10.056 L42.12,10.056 L42.736,11.176 C42.8293338,11.372001 42.9249995,11.5703323 43.023,11.771 C43.1210005,11.9716677 43.2213328,12.169999 43.324,12.366 L43.38,12.366 C43.454667,12.169999 43.5339996,11.9716677 43.618,11.771 C43.7020004,11.5703323 43.781333,11.372001 43.856,11.176 L44.332,10.056 L46.46,10.056 L44.444,13.626 L46.586,17 L44.374,17 L43.702,15.852 C43.5899994,15.655999 43.4803339,15.4553344 43.373,15.25 C43.2656661,15.0446656 43.1560006,14.844001 43.044,14.648 L42.988,14.648 C42.9039996,14.844001 42.8153338,15.0423323 42.722,15.243 C42.6286662,15.4436677 42.5400004,15.6466656 42.456,15.852 L41.91,17 L39.782,17 Z M49.974,17.168 C49.5446645,17.168 49.1783349,17.1026673 48.875,16.972 C48.5716652,16.8413327 48.3243343,16.6593345 48.133,16.426 C47.9416657,16.1926655 47.8016671,15.910335 47.713,15.579 C47.6243329,15.247665 47.58,14.8813353 47.58,14.48 L47.58,11.666 L46.628,11.666 L46.628,10.14 L47.692,10.056 L47.93,8.208 L49.638,8.208 L49.638,10.056 L51.304,10.056 L51.304,11.666 L49.638,11.666 L49.638,14.452 C49.638,14.844002 49.7196659,15.1263325 49.883,15.299 C50.0463342,15.4716675 50.263332,15.558 50.534,15.558 C50.6460006,15.558 50.7603328,15.5440001 50.877,15.516 C50.9936673,15.4879999 51.0986662,15.4553335 51.192,15.418 L51.514,16.916 C51.3273324,16.9720003 51.1080013,17.0279997 50.856,17.084 C50.6039987,17.1400003 50.3100017,17.168 49.974,17.168 Z" id="Text" fill="#FFFFFF"></path>
                    </g>
                </g>
            </g>
        </g>
    </g>
</svg>