<?xml version="1.0" encoding="UTF-8"?>
<svg width="709px" height="627px" viewBox="0 0 709 627" version="1.1" xmlns="http://www.w3.org/2000/svg" xmlns:xlink="http://www.w3.org/1999/xlink">
    <!-- Generator: Sketch 50.2 (55047) - http://www.bohemiancoding.com/sketch -->
    <title>example_overlay</title>
    <desc>Created with Sketch.</desc>
    <defs>
        <rect id="path-1" x="0" y="0" width="697" height="608"></rect>
        <filter x="-1.4%" y="-1.4%" width="102.7%" height="103.1%" filterUnits="objectBoundingBox" id="filter-2">
            <feOffset dx="0" dy="1" in="SourceAlpha" result="shadowOffsetOuter1"></feOffset>
            <feGaussianBlur stdDeviation="3" in="shadowOffsetOuter1" result="shadowBlurOuter1"></feGaussianBlur>
            <feComposite in="shadowBlurOuter1" in2="SourceAlpha" operator="out" result="shadowBlurOuter1"></feComposite>
            <feColorMatrix values="0 0 0 0 0   0 0 0 0 0   0 0 0 0 0  0 0 0 0.285920516 0" type="matrix" in="shadowBlurOuter1"></feColorMatrix>
        </filter>
        <rect id="path-3" x="0" y="0" width="649" height="550" rx="8"></rect>
        <filter x="-7.4%" y="-5.8%" width="114.8%" height="117.5%" filterUnits="objectBoundingBox" id="filter-4">
            <feMorphology radius="11" operator="erode" in="SourceAlpha" result="shadowSpreadOuter1"></feMorphology>
            <feOffset dx="0" dy="16" in="shadowSpreadOuter1" result="shadowOffsetOuter1"></feOffset>
            <feGaussianBlur stdDeviation="25" in="shadowOffsetOuter1" result="shadowBlurOuter1"></feGaussianBlur>
            <feComposite in="shadowBlurOuter1" in2="SourceAlpha" operator="out" result="shadowBlurOuter1"></feComposite>
            <feColorMatrix values="0 0 0 0 0.294117647   0 0 0 0 0.305882353   0 0 0 0 0.325490196  0 0 0 0.4 0" type="matrix" in="shadowBlurOuter1"></feColorMatrix>
        </filter>
        <rect id="path-5" x="0" y="0" width="74" height="32" rx="5"></rect>
        <filter x="-8.8%" y="-17.2%" width="117.6%" height="140.6%" filterUnits="objectBoundingBox" id="filter-6">
            <feOffset dx="0" dy="1" in="SourceAlpha" result="shadowOffsetOuter1"></feOffset>
            <feGaussianBlur stdDeviation="2" in="shadowOffsetOuter1" result="shadowBlurOuter1"></feGaussianBlur>
            <feColorMatrix values="0 0 0 0 0   0 0 0 0 0   0 0 0 0 0  0 0 0 0.26 0" type="matrix" in="shadowBlurOuter1"></feColorMatrix>
        </filter>
    </defs>
    <g id="Containers" stroke="none" stroke-width="1" fill="none" fill-rule="evenodd">
        <g id="Overlays" transform="translate(-417.000000, -709.000000)">
            <g id="example_overlay" transform="translate(423.000000, 714.000000)">
                <g id="Rectangle-6-Copy">
                    <use fill="black" fill-opacity="1" filter="url(#filter-2)" xlink:href="#path-1"></use>
                    <use fill-opacity="0.479308197" fill="#F4F5F8" fill-rule="evenodd" xlink:href="#path-1"></use>
                </g>
                <g id="3-Modal/2-mask" fill="#52555A" fill-opacity="0.4">
                    <rect id="Rectangle-26" x="0" y="0" width="697" height="608"></rect>
                </g>
                <g id="Modal/card" transform="translate(24.000000, 29.000000)">
                    <g id="card/l3">
                        <g id="card">
                            <use fill="black" fill-opacity="1" filter="url(#filter-4)" xlink:href="#path-3"></use>
                            <rect stroke="#E9E9E9" stroke-width="1" fill="#FFFFFF" fill-rule="evenodd" x="-0.5" y="-0.5" width="650" height="551" rx="8"></rect>
                        </g>
                    </g>
                </g>
                <g id="Modal/header" transform="translate(24.000000, 30.000000)">
                    <path d="M8,0 L641,0 C645.418278,-8.11624501e-16 649,3.581722 649,8 L649,64 L0,64 L0,8 C-5.41083001e-16,3.581722 3.581722,8.11624501e-16 8,0 Z" id="Rectangle-3" fill="#FFFFFF"></path>
                    <path d="M32.76,23.056 C37.584,23.056 40.176,25.936 40.176,31.552 C40.176,37.168 37.584,40.144 32.76,40.144 C27.96,40.144 25.368,37.168 25.368,31.552 C25.368,25.936 27.96,23.056 32.76,23.056 Z M32.76,24.88 C29.376,24.88 27.552,27.136 27.552,31.552 C27.552,35.968 29.376,38.32 32.76,38.32 C36.144,38.32 37.992,35.968 37.992,31.552 C37.992,27.136 36.144,24.88 32.76,24.88 Z M51.792,27.4 C52.416,27.4 52.68,27.544 52.68,27.808 C52.68,27.904 52.656,28 52.608,28.144 L48.744,39.664 C48.648,39.952 48.264,40.048 47.784,40.048 L46.944,40.048 C46.464,40.048 46.08,39.952 45.984,39.664 L42.12,28.12 C42.096,28.048 42.048,27.904 42.048,27.808 C42.048,27.568 42.36,27.4 43.08,27.4 L43.2,27.4 C43.68,27.4 44.064,27.496 44.16,27.784 L46.608,35.44 C46.92,36.4 47.232,37.624 47.448,38.44 L47.544,38.44 C47.736,37.624 47.976,36.4 48.264,35.488 L50.736,27.784 C50.832,27.496 51.216,27.4 51.72,27.4 L51.792,27.4 Z M60.096,27.304 C63.384,27.304 65.04,29.488 65.04,33.568 C65.04,33.856 64.536,34.552 64.248,34.552 L56.664,34.552 C56.856,37.216 57.984,38.416 60.36,38.416 C62.448,38.416 63.624,37.408 63.864,37.408 C64.2,37.408 64.704,38.344 64.704,38.608 C64.704,39.184 62.808,40.144 60.384,40.144 C56.4,40.144 54.504,38.104 54.504,33.808 C54.504,29.56 56.424,27.304 60.096,27.304 Z M60.024,29.032 C57.936,29.032 56.832,30.304 56.664,32.824 L62.904,32.824 C62.904,30.304 61.944,29.032 60.024,29.032 Z M72.912,27.304 C73.848,27.304 74.304,27.712 74.304,28.24 C74.304,28.696 74.112,29.536 73.824,29.536 C73.512,29.536 73.32,29.272 72.504,29.272 C71.256,29.272 70.296,30.736 70.296,30.736 L70.296,39.52 C70.296,39.856 70.008,40.048 69.336,40.048 L69.24,40.048 C68.568,40.048 68.28,39.856 68.28,39.52 L68.28,31.096 C68.28,29.128 67.992,28.192 67.992,28.072 C67.992,27.616 68.976,27.52 69.288,27.52 C69.864,27.52 69.984,28.48 70.128,29.104 C70.944,27.952 71.904,27.304 72.912,27.304 Z M77.928,21.952 C78.6,21.952 78.888,22.144 78.888,22.48 L78.888,36.64 C78.888,38.08 79.488,38.416 80.184,38.416 C80.88,38.416 81,38.296 81.216,38.296 C81.552,38.296 81.72,39.232 81.72,39.424 C81.72,40.072 80.616,40.144 79.968,40.144 C78.768,40.144 76.872,39.616 76.872,36.832 L76.872,22.48 C76.872,22.144 77.16,21.952 77.832,21.952 L77.928,21.952 Z M88.464,27.304 C91.44,27.304 93.192,28.696 93.192,31.072 L93.192,36.448 C93.192,38.416 93.48,39.352 93.48,39.472 C93.48,39.928 92.496,40.024 92.184,40.024 C91.608,40.024 91.488,39.016 91.344,38.344 C90.432,39.352 89.112,40.144 87.312,40.144 C84.984,40.144 83.208,39.016 83.208,36.544 C83.208,32.488 87.504,32.224 91.176,32.176 L91.176,31.048 C91.176,29.968 90.528,29.032 88.536,29.032 C86.352,29.032 85.032,30.04 84.792,30.04 C84.456,30.04 83.952,29.104 83.952,28.84 C83.952,28.216 86.064,27.304 88.464,27.304 Z M91.176,33.904 C88.68,33.928 85.368,33.928 85.368,36.424 C85.368,37.696 86.064,38.392 87.408,38.392 C89.16,38.392 90.216,37.6 91.176,36.736 L91.176,33.904 Z M105.24,27.4 C105.912,27.4 106.2,27.544 106.2,27.808 C106.2,27.904 106.176,28 106.128,28.144 L99.96,44.488 C99.816,44.848 99.408,44.992 98.832,44.992 L98.472,44.992 C97.944,44.992 97.68,44.848 97.68,44.608 C97.68,44.56 97.68,44.512 97.8,44.2 L99.816,39.328 L95.616,28.12 C95.592,28.048 95.544,27.904 95.544,27.808 C95.544,27.568 95.856,27.4 96.576,27.4 L96.768,27.4 C97.248,27.4 97.608,27.496 97.728,27.784 L100.176,34.288 C100.464,35.08 100.728,35.944 100.944,36.712 L100.992,36.712 C101.232,35.968 101.496,35.032 101.784,34.288 L104.184,27.784 C104.28,27.496 104.664,27.4 105.168,27.4 L105.24,27.4 Z M124.632,23.2 C124.968,23.2 125.112,23.416 125.112,23.92 L125.112,24.304 C125.112,24.808 124.968,25.024 124.632,25.024 L120.096,25.024 L120.096,39.52 C120.096,39.856 119.808,40.048 119.136,40.048 L118.944,40.048 C118.272,40.048 117.984,39.856 117.984,39.52 L117.984,25.024 L113.376,25.024 C113.04,25.024 112.896,24.808 112.896,24.304 L112.896,23.92 C112.896,23.416 113.04,23.2 113.376,23.2 L124.632,23.2 Z M128.928,21.952 C129.6,21.952 129.888,22.144 129.888,22.48 L129.888,23.896 C129.888,24.232 129.6,24.424 128.928,24.424 L128.64,24.424 C127.968,24.424 127.68,24.232 127.68,23.896 L127.68,22.48 C127.68,22.144 127.968,21.952 128.64,21.952 L128.928,21.952 Z M128.832,27.4 C129.504,27.4 129.792,27.592 129.792,27.928 L129.792,39.52 C129.792,39.856 129.504,40.048 128.832,40.048 L128.736,40.048 C128.064,40.048 127.776,39.856 127.776,39.52 L127.776,27.928 C127.776,27.592 128.064,27.4 128.736,27.4 L128.832,27.4 Z M135.816,24.4 C136.32,24.4 136.536,24.592 136.536,24.928 L136.536,27.448 L138.552,27.448 C138.888,27.448 139.032,27.664 139.032,28.168 L139.032,28.456 C139.032,28.96 138.888,29.176 138.552,29.176 L136.536,29.176 L136.536,36.64 C136.536,38.08 137.136,38.416 137.832,38.416 C138.528,38.416 138.648,38.296 138.864,38.296 C139.2,38.296 139.368,39.232 139.368,39.424 C139.368,40.072 138.264,40.144 137.616,40.144 C136.416,40.144 134.52,39.616 134.52,36.832 L134.52,29.176 L133.32,29.176 C132.984,29.176 132.84,28.96 132.84,28.456 L132.84,28.168 C132.84,27.664 132.984,27.448 133.32,27.448 L134.52,27.448 L134.808,24.928 C134.832,24.592 135.072,24.4 135.576,24.4 L135.816,24.4 Z M143.184,21.952 C143.856,21.952 144.144,22.144 144.144,22.48 L144.144,36.64 C144.144,38.08 144.744,38.416 145.44,38.416 C146.136,38.416 146.256,38.296 146.472,38.296 C146.808,38.296 146.976,39.232 146.976,39.424 C146.976,40.072 145.872,40.144 145.224,40.144 C144.024,40.144 142.128,39.616 142.128,36.832 L142.128,22.48 C142.128,22.144 142.416,21.952 143.088,21.952 L143.184,21.952 Z M154.2,27.304 C157.488,27.304 159.144,29.488 159.144,33.568 C159.144,33.856 158.64,34.552 158.352,34.552 L150.768,34.552 C150.96,37.216 152.088,38.416 154.464,38.416 C156.552,38.416 157.728,37.408 157.968,37.408 C158.304,37.408 158.808,38.344 158.808,38.608 C158.808,39.184 156.912,40.144 154.488,40.144 C150.504,40.144 148.608,38.104 148.608,33.808 C148.608,29.56 150.528,27.304 154.2,27.304 Z M154.128,29.032 C152.04,29.032 150.936,30.304 150.768,32.824 L157.008,32.824 C157.008,30.304 156.048,29.032 154.128,29.032 Z" id="Overlay-Title" fill="#333333"></path>
                    <path d="M0.5,63.5 L648.908051,63.5" id="Line" stroke="#E9E9E9" stroke-linecap="square"></path>
                    <g id="Icon/close" transform="translate(600.000000, 19.000000)" fill="#777777">
                        <g id="Line-+-Line-2" transform="translate(4.000000, 4.000000)">
                            <g fill-rule="nonzero">
                                <polygon id="Line" points="12.9497475 14.463961 13.6568542 15.1710678 15.0710678 13.7568543 14.363961 13.0497475 3.05025253 1.73603897 2.34314575 1.02893219 0.928932188 2.44314575 1.63603897 3.15025253"></polygon>
                                <polygon id="Line-2" points="1.67918472 12.9497475 0.972077934 13.6568542 2.3862915 15.0710678 3.09339828 14.363961 14.4071068 3.05025253 15.1142136 2.34314575 13.7 0.928932188 12.9928932 1.63603897"></polygon>
                            </g>
                        </g>
                    </g>
                    <g id="Button/primary/resting" transform="translate(478.000000, 15.000000)">
                        <g id="Rectangle">
                            <use fill="black" fill-opacity="1" filter="url(#filter-6)" xlink:href="#path-5"></use>
                            <use fill="#00C144" fill-rule="evenodd" xlink:href="#path-5"></use>
                        </g>
                        <path d="M29.839,11.088 C31.071,11.088 32.765,11.48 32.765,12.068 C32.765,12.46 32.205,13.384 31.855,13.384 C31.687,13.384 31.127,12.936 29.797,12.936 C28.145,12.936 27.375,13.986 27.375,16.086 C27.375,18.186 28.159,19.278 29.769,19.278 C31.099,19.278 31.855,18.718 32.065,18.718 C32.513,18.718 32.891,19.698 32.891,19.936 C32.891,20.776 30.889,21.112 29.769,21.112 C26.633,21.112 25.163,19.53 25.163,16.072 C25.163,12.74 26.731,11.088 29.839,11.088 Z M40.353,11.2 C40.647,11.2 40.773,11.41 40.773,11.9 L40.773,12.334 C40.773,12.824 40.647,13.034 40.353,13.034 L38.127,13.034 L38.127,20.58 C38.127,20.874 37.875,21.028 37.287,21.028 L36.797,21.028 C36.209,21.028 35.957,20.874 35.957,20.58 L35.957,13.034 L33.731,13.034 C33.437,13.034 33.311,12.824 33.311,12.334 L33.311,11.9 C33.311,11.41 33.437,11.2 33.731,11.2 L40.353,11.2 Z M45.547,11.172 C45.953,11.172 46.261,11.242 46.345,11.466 L49.425,20.468 C49.453,20.566 49.467,20.65 49.467,20.72 C49.467,20.916 49.257,21.028 48.767,21.028 L48.151,21.028 C47.745,21.028 47.437,20.958 47.367,20.734 L46.807,19.026 L43.503,19.026 L42.943,20.734 C42.873,20.944 42.635,21.028 42.299,21.028 L41.739,21.028 C41.151,21.028 40.885,20.916 40.885,20.72 C40.885,20.65 40.913,20.566 40.941,20.468 L44.021,11.466 C44.105,11.242 44.413,11.172 44.819,11.172 L45.547,11.172 Z M45.197,13.79 L45.141,13.79 C45.085,14.084 45.043,14.392 44.931,14.686 L44.105,17.178 L46.205,17.178 L45.407,14.686 C45.309,14.392 45.253,14.084 45.197,13.79 Z" id="Button" fill="#FFFFFF"></path>
                    </g>
                    <rect id="Rectangle" stroke="#AFAFAF" fill="#D8D8D8" x="576.5" y="23.5" width="1" height="15"></rect>
                </g>
            </g>
        </g>
    </g>
</svg>