<?xml version="1.0" encoding="UTF-8"?>
<svg width="709px" height="1041px" viewBox="0 0 709 1041" version="1.1" xmlns="http://www.w3.org/2000/svg" xmlns:xlink="http://www.w3.org/1999/xlink">
    <!-- Generator: Sketch 50.2 (55047) - http://www.bohemiancoding.com/sketch -->
    <title>card_examples</title>
    <desc>Created with Sketch.</desc>
    <defs>
        <rect id="path-1" x="0" y="0" width="697" height="1029"></rect>
        <filter x="-1.4%" y="-0.8%" width="102.7%" height="101.8%" filterUnits="objectBoundingBox" id="filter-2">
            <feOffset dx="0" dy="1" in="SourceAlpha" result="shadowOffsetOuter1"></feOffset>
            <feGaussianBlur stdDeviation="3" in="shadowOffsetOuter1" result="shadowBlurOuter1"></feGaussianBlur>
            <feComposite in="shadowBlurOuter1" in2="SourceAlpha" operator="out" result="shadowBlurOuter1"></feComposite>
            <feColorMatrix values="0 0 0 0 0   0 0 0 0 0   0 0 0 0 0  0 0 0 0.285920516 0" type="matrix" in="shadowBlurOuter1"></feColorMatrix>
        </filter>
        <rect id="path-3" x="0" y="0" width="633" height="192" rx="1"></rect>
        <filter x="-2.4%" y="-4.7%" width="104.7%" height="117.7%" filterUnits="objectBoundingBox" id="filter-4">
            <feMorphology radius="11" operator="erode" in="SourceAlpha" result="shadowSpreadOuter1"></feMorphology>
            <feOffset dx="0" dy="10" in="shadowSpreadOuter1" result="shadowOffsetOuter1"></feOffset>
            <feGaussianBlur stdDeviation="15" in="shadowOffsetOuter1" result="shadowBlurOuter1"></feGaussianBlur>
            <feComposite in="shadowBlurOuter1" in2="SourceAlpha" operator="out" result="shadowBlurOuter1"></feComposite>
            <feColorMatrix values="0 0 0 0 0.294117647   0 0 0 0 0.305882353   0 0 0 0 0.325490196  0 0 0 0.4 0" type="matrix" in="shadowBlurOuter1"></feColorMatrix>
        </filter>
        <rect id="path-5" x="0" y="0" width="632.896961" height="192" rx="5"></rect>
        <filter x="-4.7%" y="-10.4%" width="109.5%" height="131.2%" filterUnits="objectBoundingBox" id="filter-6">
            <feMorphology radius="11" operator="erode" in="SourceAlpha" result="shadowSpreadOuter1"></feMorphology>
            <feOffset dx="0" dy="10" in="shadowSpreadOuter1" result="shadowOffsetOuter1"></feOffset>
            <feGaussianBlur stdDeviation="20" in="shadowOffsetOuter1" result="shadowBlurOuter1"></feGaussianBlur>
            <feComposite in="shadowBlurOuter1" in2="SourceAlpha" operator="out" result="shadowBlurOuter1"></feComposite>
            <feColorMatrix values="0 0 0 0 0.294117647   0 0 0 0 0.305882353   0 0 0 0 0.325490196  0 0 0 0.4 0" type="matrix" in="shadowBlurOuter1"></feColorMatrix>
        </filter>
        <rect id="path-7" x="0" y="1" width="633" height="191" rx="8"></rect>
        <filter x="-7.6%" y="-16.8%" width="115.2%" height="150.3%" filterUnits="objectBoundingBox" id="filter-8">
            <feMorphology radius="11" operator="erode" in="SourceAlpha" result="shadowSpreadOuter1"></feMorphology>
            <feOffset dx="0" dy="16" in="shadowSpreadOuter1" result="shadowOffsetOuter1"></feOffset>
            <feGaussianBlur stdDeviation="25" in="shadowOffsetOuter1" result="shadowBlurOuter1"></feGaussianBlur>
            <feComposite in="shadowBlurOuter1" in2="SourceAlpha" operator="out" result="shadowBlurOuter1"></feComposite>
            <feColorMatrix values="0 0 0 0 0.294117647   0 0 0 0 0.305882353   0 0 0 0 0.325490196  0 0 0 0.4 0" type="matrix" in="shadowBlurOuter1"></feColorMatrix>
        </filter>
        <rect id="path-9" x="0" y="2" width="633" height="192" rx="1"></rect>
        <filter x="-2.2%" y="-4.2%" width="104.4%" height="116.7%" filterUnits="objectBoundingBox" id="filter-10">
            <feMorphology radius="12" operator="erode" in="SourceAlpha" result="shadowSpreadOuter1"></feMorphology>
            <feOffset dx="0" dy="10" in="shadowSpreadOuter1" result="shadowOffsetOuter1"></feOffset>
            <feGaussianBlur stdDeviation="15" in="shadowOffsetOuter1" result="shadowBlurOuter1"></feGaussianBlur>
            <feColorMatrix values="0 0 0 0 0.294117647   0 0 0 0 0.305882353   0 0 0 0 0.325490196  0 0 0 0.4 0" type="matrix" in="shadowBlurOuter1"></feColorMatrix>
        </filter>
    </defs>
    <g id="Containers" stroke="none" stroke-width="1" fill="none" fill-rule="evenodd">
        <g id="Cards-Copy-2" transform="translate(-417.000000, -718.000000)">
            <g id="card_examples" transform="translate(423.000000, 723.000000)">
                <g id="Rectangle-6-Copy">
                    <use fill="black" fill-opacity="1" filter="url(#filter-2)" xlink:href="#path-1"></use>
                    <use fill-opacity="0.479308197" fill="#F4F5F8" fill-rule="evenodd" xlink:href="#path-1"></use>
                </g>
                <g id="Group-19" transform="translate(32.000000, 40.000000)">
                    <g id="1-card/l1">
                        <g id="card">
                            <use fill="black" fill-opacity="1" filter="url(#filter-4)" xlink:href="#path-3"></use>
                            <rect stroke="#E9E9E9" stroke-width="1" fill="#FFFFFF" fill-rule="evenodd" x="-0.5" y="-0.5" width="634" height="193" rx="1"></rect>
                        </g>
                    </g>
                    <path d="M13.746,30 L13.746,18.138 L14.574,18.138 L14.574,29.28 L20.046,29.28 L20.046,30 L13.746,30 Z M21.918,30 L21.918,29.298 L24.618,29.298 L24.618,19.758 L22.566,19.758 L22.566,19.218 C23.0340023,19.1339996 23.4509982,19.0320006 23.817,18.912 C24.1830018,18.7919994 24.5039986,18.6540008 24.78,18.498 L25.428,18.498 L25.428,29.298 L27.93,29.298 L27.93,30 L21.918,30 Z M38.586,30.216 C37.8539963,30.216 37.1820031,30.0720014 36.57,29.784 C35.9579969,29.4959986 35.4330022,29.0850027 34.995,28.551 C34.5569978,28.0169973 34.2180012,27.3690038 33.978,26.607 C33.7379988,25.8449962 33.618,24.9900047 33.618,24.042 C33.618,23.1059953 33.7409988,22.2600038 33.987,21.504 C34.2330012,20.7479962 34.5779978,20.1030027 35.022,19.569 C35.4660022,19.0349973 35.9969969,18.6270014 36.615,18.345 C37.2330031,18.0629986 37.9199962,17.922 38.676,17.922 C39.3720035,17.922 39.9839974,18.0659986 40.512,18.354 C41.0400026,18.6420014 41.4599984,18.9719981 41.772,19.344 L41.286,19.902 C40.9619984,19.5299981 40.5840022,19.2330011 40.152,19.011 C39.7199978,18.7889989 39.2340027,18.678 38.694,18.678 C38.0459968,18.678 37.4610026,18.8039987 36.939,19.056 C36.4169974,19.3080013 35.9730018,19.6649977 35.607,20.127 C35.2409982,20.5890023 34.962001,21.1499967 34.77,21.81 C34.577999,22.4700033 34.482,23.2139959 34.482,24.042 C34.482,24.8700041 34.577999,25.6169967 34.77,26.283 C34.962001,26.9490033 35.2379982,27.5159977 35.598,27.984 C35.9580018,28.4520023 36.3929975,28.8149987 36.903,29.073 C37.4130026,29.3310013 37.9859968,29.46 38.622,29.46 C39.2340031,29.46 39.7799976,29.3370012 40.26,29.091 C40.7400024,28.8449988 41.1959978,28.4820024 41.628,28.002 L42.114,28.524 C41.6579977,29.0520026 41.1480028,29.4659985 40.584,29.766 C40.0199972,30.0660015 39.3540038,30.216 38.586,30.216 Z M46.326,30.216 C45.9779983,30.216 45.6540015,30.1680005 45.354,30.072 C45.0539985,29.9759995 44.7900011,29.832001 44.562,29.64 C44.3339989,29.447999 44.1540007,29.2020015 44.022,28.902 C43.8899993,28.6019985 43.824,28.248002 43.824,27.84 C43.824,26.8799952 44.2709955,26.1510025 45.165,25.653 C46.0590045,25.1549975 47.4719903,24.7980011 49.404,24.582 C49.404,24.2579984 49.3800002,23.9310016 49.332,23.601 C49.2839998,23.2709983 49.1820008,22.9770013 49.026,22.719 C48.8699992,22.4609987 48.6600013,22.2510008 48.396,22.089 C48.1319987,21.9269992 47.7840022,21.846 47.352,21.846 C46.7759971,21.846 46.2480024,21.9599989 45.768,22.188 C45.2879976,22.4160011 44.8980015,22.6379989 44.598,22.854 L44.238,22.26 C44.3940008,22.1519995 44.5829989,22.0320007 44.805,21.9 C45.0270011,21.7679993 45.2759986,21.6480005 45.552,21.54 C45.8280014,21.4319995 46.1279984,21.3390004 46.452,21.261 C46.7760016,21.1829996 47.1119983,21.144 47.46,21.144 C47.9640025,21.144 48.3899983,21.2309991 48.738,21.405 C49.0860017,21.5790009 49.3679989,21.8159985 49.584,22.116 C49.8000011,22.4160015 49.9559995,22.766998 50.052,23.169 C50.1480005,23.571002 50.196,24.0059977 50.196,24.474 L50.196,30 L49.512,30 L49.44,28.884 L49.386,28.884 C48.9419978,29.2320017 48.4650026,29.5409986 47.955,29.811 C47.4449975,30.0810014 46.9020029,30.216 46.326,30.216 Z M46.47,29.532 C46.9740025,29.532 47.4539977,29.4120012 47.91,29.172 C48.3660023,28.9319988 48.8639973,28.5840023 49.404,28.128 L49.404,25.194 C48.5159956,25.3020005 47.7660031,25.4339992 47.154,25.59 C46.5419969,25.7460008 46.0500019,25.9319989 45.678,26.148 C45.3059981,26.3640011 45.0390008,26.6099986 44.877,26.886 C44.7149992,27.1620014 44.634,27.4679983 44.634,27.804 C44.634,28.1160016 44.6819995,28.3799989 44.778,28.596 C44.8740005,28.8120011 45.0059992,28.9889993 45.174,29.127 C45.3420008,29.2650007 45.5369989,29.3669997 45.759,29.433 C45.9810011,29.4990003 46.2179987,29.532 46.47,29.532 Z M53.274,30 L53.274,21.36 L53.958,21.36 L54.03,22.962 L54.084,22.962 C54.3720014,22.4219973 54.7229979,21.9840017 55.137,21.648 C55.5510021,21.3119983 56.0159974,21.144 56.532,21.144 C56.7000008,21.144 56.8499993,21.1559999 56.982,21.18 C57.1140007,21.2040001 57.2519993,21.2519996 57.396,21.324 L57.216,22.044 C57.0719993,21.9839997 56.9460005,21.9450001 56.838,21.927 C56.7299995,21.9089999 56.5920008,21.9 56.424,21.9 C56.0399981,21.9 55.6350021,22.0649983 55.209,22.395 C54.7829979,22.7250016 54.4020017,23.2979959 54.066,24.114 L54.066,30 L53.274,30 Z M61.662,30.216 C60.5699945,30.216 59.7000032,29.8290039 59.052,29.055 C58.4039968,28.2809961 58.08,27.1620073 58.08,25.698 C58.08,25.0019965 58.181999,24.3720028 58.386,23.808 C58.590001,23.2439972 58.8689982,22.764002 59.223,22.368 C59.5770018,21.971998 59.9849977,21.669001 60.447,21.459 C60.9090023,21.248999 61.3979974,21.144 61.914,21.144 C62.4420026,21.144 62.9009981,21.2369991 63.291,21.423 C63.681002,21.6090009 64.0919978,21.8699983 64.524,22.206 L64.488,20.622 L64.488,17.058 L65.28,17.058 L65.28,30 L64.596,30 L64.524,28.884 L64.47,28.884 C64.1219983,29.2320017 63.7110024,29.5409986 63.237,29.811 C62.7629976,30.0810014 62.2380029,30.216 61.662,30.216 Z M61.77,29.514 C62.2500024,29.514 62.7089978,29.3910012 63.147,29.145 C63.5850022,28.8989988 64.0319977,28.5480023 64.488,28.092 L64.488,22.962 C64.0319977,22.553998 63.603002,22.2660008 63.201,22.098 C62.798998,21.9299992 62.3880021,21.846 61.968,21.846 C61.5359978,21.846 61.1340019,21.944999 60.762,22.143 C60.3899981,22.341001 60.0690014,22.6109983 59.799,22.953 C59.5289987,23.2950017 59.3160008,23.7029976 59.16,24.177 C59.0039992,24.6510024 58.926,25.1579973 58.926,25.698 C58.926,26.2740029 58.9889994,26.7959977 59.115,27.264 C59.2410006,27.7320023 59.4239988,28.1309983 59.664,28.461 C59.9040012,28.7910016 60.2009982,29.0489991 60.555,29.235 C60.9090018,29.4210009 61.3139977,29.514 61.77,29.514 Z" id="L1-Card" fill="#000000"></path>
                </g>
                <g id="Group-17" transform="translate(32.000000, 543.000000)">
                    <g id="Group-4">
                        <g id="Group-3" transform="translate(0.000000, 2.000000)">
                            <g id="1-card/l2">
                                <g id="card">
                                    <use fill="black" fill-opacity="1" filter="url(#filter-6)" xlink:href="#path-5"></use>
                                    <rect stroke="#E9E9E9" stroke-width="1" fill="#FFFFFF" fill-rule="evenodd" x="-0.5" y="-0.5" width="633.896961" height="193" rx="5"></rect>
                                </g>
                            </g>
                        </g>
                        <path d="M613.808,12.724 C613.503998,12.724 613.226001,12.6940003 612.974,12.634 C612.721999,12.5739997 612.494001,12.4960005 612.29,12.4 C612.085999,12.3039995 611.902001,12.1940006 611.738,12.07 C611.573999,11.9459994 611.428001,11.8160007 611.3,11.68 L611.78,11.032 C612.004001,11.2640012 612.269998,11.4679991 612.578,11.644 C612.886002,11.8200009 613.263998,11.908 613.712,11.908 C613.944001,11.908 614.161999,11.8660004 614.366,11.782 C614.570001,11.6979996 614.747999,11.5800008 614.9,11.428 C615.052001,11.2759992 615.172,11.0920011 615.26,10.876 C615.348,10.6599989 615.392,10.4200013 615.392,10.156 C615.392,9.62799736 615.244001,9.21600148 614.948,8.92 C614.651999,8.62399852 614.256002,8.476 613.76,8.476 C613.495999,8.476 613.270001,8.5159996 613.082,8.596 C612.893999,8.6760004 612.684001,8.79199924 612.452,8.944 L611.924,8.608 L612.176,4.924 L616.004,4.924 L616.004,5.776 L613.04,5.776 L612.836,8.044 C613.020001,7.94799952 613.203999,7.87200028 613.388,7.816 C613.572001,7.75999972 613.779999,7.732 614.012,7.732 C614.340002,7.732 614.647999,7.77999952 614.936,7.876 C615.224001,7.97200048 615.475999,8.11799902 615.692,8.314 C615.908001,8.51000098 616.077999,8.7579985 616.202,9.058 C616.326001,9.3580015 616.388,9.71599792 616.388,10.132 C616.388,10.5480021 616.316001,10.9159984 616.172,11.236 C616.027999,11.5560016 615.836001,11.8259989 615.596,12.046 C615.355999,12.2660011 615.082002,12.4339994 614.774,12.55 C614.465998,12.6660006 614.144002,12.724 613.808,12.724 Z M617.948,15.04 L617.948,6.748 L618.764,6.748 L618.848,7.42 L618.884,7.42 C619.148001,7.19599888 619.437998,7.0040008 619.754,6.844 C620.070002,6.6839992 620.399998,6.604 620.744,6.604 C621.120002,6.604 621.451999,6.6739993 621.74,6.814 C622.028001,6.9540007 622.267999,7.1539987 622.46,7.414 C622.652001,7.6740013 622.797999,7.98599818 622.898,8.35 C622.998,8.71400182 623.048,9.12399772 623.048,9.58 C623.048,10.0760025 622.980001,10.5179981 622.844,10.906 C622.707999,11.2940019 622.524001,11.6239986 622.292,11.896 C622.059999,12.1680014 621.792002,12.3739993 621.488,12.514 C621.183998,12.6540007 620.864002,12.724 620.528,12.724 C620.255999,12.724 619.986001,12.6640006 619.718,12.544 C619.449999,12.4239994 619.180001,12.260001 618.908,12.052 L618.932,13.072 L618.932,15.04 L617.948,15.04 Z M620.36,11.896 C620.600001,11.896 620.821999,11.8420005 621.026,11.734 C621.230001,11.6259995 621.405999,11.474001 621.554,11.278 C621.702001,11.081999 621.818,10.8400014 621.902,10.552 C621.986,10.2639986 622.028,9.9400018 622.028,9.58 C622.028,9.2599984 622,8.96800132 621.944,8.704 C621.888,8.43999868 621.798001,8.21400094 621.674,8.026 C621.549999,7.83799906 621.390001,7.69200052 621.194,7.588 C620.997999,7.48399948 620.764001,7.432 620.492,7.432 C620.243999,7.432 619.994001,7.49999932 619.742,7.636 C619.489999,7.77200068 619.220001,7.96799872 618.932,8.224 L618.932,11.284 C619.196001,11.5080011 619.451999,11.6659995 619.7,11.758 C619.948001,11.8500005 620.167999,11.896 620.36,11.896 Z M623.588,12.58 L625.496,9.532 L623.732,6.748 L624.8,6.748 L625.58,8.032 C625.668,8.1920008 625.76,8.35399918 625.856,8.518 C625.952,8.68200082 626.051999,8.8439992 626.156,9.004 L626.204,9.004 C626.292,8.8439992 626.38,8.68200082 626.468,8.518 C626.556,8.35399918 626.644,8.1920008 626.732,8.032 L627.44,6.748 L628.472,6.748 L626.708,9.64 L628.604,12.58 L627.536,12.58 L626.684,11.224 L626.372,10.696 C626.267999,10.5199991 626.160001,10.3480008 626.048,10.18 L626,10.18 C625.895999,10.3480008 625.796,10.5179991 625.7,10.69 C625.604,10.8620009 625.508,11.0399991 625.412,11.224 L624.62,12.58 L623.588,12.58 Z" id="5px" fill="#777777"></path>
                    </g>
                    <path d="M13.746,32 L13.746,20.138 L14.574,20.138 L14.574,31.28 L20.046,31.28 L20.046,32 L13.746,32 Z M21.144,32 L21.144,31.496 C22.0920047,30.5359952 22.9199965,29.6750038 23.628,28.913 C24.3360035,28.1509962 24.9269976,27.4550031 25.401,26.825 C25.8750024,26.1949968 26.2289988,25.6130027 26.463,25.079 C26.6970012,24.5449973 26.814,24.0260025 26.814,23.522 C26.814,22.8019964 26.613002,22.1960025 26.211,21.704 C25.808998,21.2119975 25.1760043,20.966 24.312,20.966 C23.7839974,20.966 23.2920023,21.1099986 22.836,21.398 C22.3799977,21.6860014 21.9780017,22.0459978 21.63,22.478 L21.108,21.974 C21.5400022,21.4939976 22.0169974,21.0920016 22.539,20.768 C23.0610026,20.4439984 23.6759965,20.282 24.384,20.282 C25.4160052,20.282 26.2139972,20.5759971 26.778,21.164 C27.3420028,21.7520029 27.624,22.5319951 27.624,23.504 C27.624,24.0800029 27.4980013,24.6529971 27.246,25.223 C26.9939987,25.7930029 26.6400023,26.3929968 26.184,27.023 C25.7279977,27.6530031 25.1730033,28.3249964 24.519,29.039 C23.8649967,29.7530036 23.142004,30.5299958 22.35,31.37 C22.6620016,31.3459999 22.9829984,31.3250001 23.313,31.307 C23.6430017,31.2889999 23.9639984,31.28 24.276,31.28 L28.2,31.28 L28.2,32 L21.144,32 Z M38.586,32.216 C37.8539963,32.216 37.1820031,32.0720014 36.57,31.784 C35.9579969,31.4959986 35.4330022,31.0850027 34.995,30.551 C34.5569978,30.0169973 34.2180012,29.3690038 33.978,28.607 C33.7379988,27.8449962 33.618,26.9900047 33.618,26.042 C33.618,25.1059953 33.7409988,24.2600038 33.987,23.504 C34.2330012,22.7479962 34.5779978,22.1030027 35.022,21.569 C35.4660022,21.0349973 35.9969969,20.6270014 36.615,20.345 C37.2330031,20.0629986 37.9199962,19.922 38.676,19.922 C39.3720035,19.922 39.9839974,20.0659986 40.512,20.354 C41.0400026,20.6420014 41.4599984,20.9719981 41.772,21.344 L41.286,21.902 C40.9619984,21.5299981 40.5840022,21.2330011 40.152,21.011 C39.7199978,20.7889989 39.2340027,20.678 38.694,20.678 C38.0459968,20.678 37.4610026,20.8039987 36.939,21.056 C36.4169974,21.3080013 35.9730018,21.6649977 35.607,22.127 C35.2409982,22.5890023 34.962001,23.1499967 34.77,23.81 C34.577999,24.4700033 34.482,25.2139959 34.482,26.042 C34.482,26.8700041 34.577999,27.6169967 34.77,28.283 C34.962001,28.9490033 35.2379982,29.5159977 35.598,29.984 C35.9580018,30.4520023 36.3929975,30.8149987 36.903,31.073 C37.4130026,31.3310013 37.9859968,31.46 38.622,31.46 C39.2340031,31.46 39.7799976,31.3370012 40.26,31.091 C40.7400024,30.8449988 41.1959978,30.4820024 41.628,30.002 L42.114,30.524 C41.6579977,31.0520026 41.1480028,31.4659985 40.584,31.766 C40.0199972,32.0660015 39.3540038,32.216 38.586,32.216 Z M46.326,32.216 C45.9779983,32.216 45.6540015,32.1680005 45.354,32.072 C45.0539985,31.9759995 44.7900011,31.832001 44.562,31.64 C44.3339989,31.447999 44.1540007,31.2020015 44.022,30.902 C43.8899993,30.6019985 43.824,30.248002 43.824,29.84 C43.824,28.8799952 44.2709955,28.1510025 45.165,27.653 C46.0590045,27.1549975 47.4719903,26.7980011 49.404,26.582 C49.404,26.2579984 49.3800002,25.9310016 49.332,25.601 C49.2839998,25.2709983 49.1820008,24.9770013 49.026,24.719 C48.8699992,24.4609987 48.6600013,24.2510008 48.396,24.089 C48.1319987,23.9269992 47.7840022,23.846 47.352,23.846 C46.7759971,23.846 46.2480024,23.9599989 45.768,24.188 C45.2879976,24.4160011 44.8980015,24.6379989 44.598,24.854 L44.238,24.26 C44.3940008,24.1519995 44.5829989,24.0320007 44.805,23.9 C45.0270011,23.7679993 45.2759986,23.6480005 45.552,23.54 C45.8280014,23.4319995 46.1279984,23.3390004 46.452,23.261 C46.7760016,23.1829996 47.1119983,23.144 47.46,23.144 C47.9640025,23.144 48.3899983,23.2309991 48.738,23.405 C49.0860017,23.5790009 49.3679989,23.8159985 49.584,24.116 C49.8000011,24.4160015 49.9559995,24.766998 50.052,25.169 C50.1480005,25.571002 50.196,26.0059977 50.196,26.474 L50.196,32 L49.512,32 L49.44,30.884 L49.386,30.884 C48.9419978,31.2320017 48.4650026,31.5409986 47.955,31.811 C47.4449975,32.0810014 46.9020029,32.216 46.326,32.216 Z M46.47,31.532 C46.9740025,31.532 47.4539977,31.4120012 47.91,31.172 C48.3660023,30.9319988 48.8639973,30.5840023 49.404,30.128 L49.404,27.194 C48.5159956,27.3020005 47.7660031,27.4339992 47.154,27.59 C46.5419969,27.7460008 46.0500019,27.9319989 45.678,28.148 C45.3059981,28.3640011 45.0390008,28.6099986 44.877,28.886 C44.7149992,29.1620014 44.634,29.4679983 44.634,29.804 C44.634,30.1160016 44.6819995,30.3799989 44.778,30.596 C44.8740005,30.8120011 45.0059992,30.9889993 45.174,31.127 C45.3420008,31.2650007 45.5369989,31.3669997 45.759,31.433 C45.9810011,31.4990003 46.2179987,31.532 46.47,31.532 Z M53.274,32 L53.274,23.36 L53.958,23.36 L54.03,24.962 L54.084,24.962 C54.3720014,24.4219973 54.7229979,23.9840017 55.137,23.648 C55.5510021,23.3119983 56.0159974,23.144 56.532,23.144 C56.7000008,23.144 56.8499993,23.1559999 56.982,23.18 C57.1140007,23.2040001 57.2519993,23.2519996 57.396,23.324 L57.216,24.044 C57.0719993,23.9839997 56.9460005,23.9450001 56.838,23.927 C56.7299995,23.9089999 56.5920008,23.9 56.424,23.9 C56.0399981,23.9 55.6350021,24.0649983 55.209,24.395 C54.7829979,24.7250016 54.4020017,25.2979959 54.066,26.114 L54.066,32 L53.274,32 Z M61.662,32.216 C60.5699945,32.216 59.7000032,31.8290039 59.052,31.055 C58.4039968,30.2809961 58.08,29.1620073 58.08,27.698 C58.08,27.0019965 58.181999,26.3720028 58.386,25.808 C58.590001,25.2439972 58.8689982,24.764002 59.223,24.368 C59.5770018,23.971998 59.9849977,23.669001 60.447,23.459 C60.9090023,23.248999 61.3979974,23.144 61.914,23.144 C62.4420026,23.144 62.9009981,23.2369991 63.291,23.423 C63.681002,23.6090009 64.0919978,23.8699983 64.524,24.206 L64.488,22.622 L64.488,19.058 L65.28,19.058 L65.28,32 L64.596,32 L64.524,30.884 L64.47,30.884 C64.1219983,31.2320017 63.7110024,31.5409986 63.237,31.811 C62.7629976,32.0810014 62.2380029,32.216 61.662,32.216 Z M61.77,31.514 C62.2500024,31.514 62.7089978,31.3910012 63.147,31.145 C63.5850022,30.8989988 64.0319977,30.5480023 64.488,30.092 L64.488,24.962 C64.0319977,24.553998 63.603002,24.2660008 63.201,24.098 C62.798998,23.9299992 62.3880021,23.846 61.968,23.846 C61.5359978,23.846 61.1340019,23.944999 60.762,24.143 C60.3899981,24.341001 60.0690014,24.6109983 59.799,24.953 C59.5289987,25.2950017 59.3160008,25.7029976 59.16,26.177 C59.0039992,26.6510024 58.926,27.1579973 58.926,27.698 C58.926,28.2740029 58.9889994,28.7959977 59.115,29.264 C59.2410006,29.7320023 59.4239988,30.1309983 59.664,30.461 C59.9040012,30.7910016 60.2009982,31.0489991 60.555,31.235 C60.9090018,31.4210009 61.3139977,31.514 61.77,31.514 Z" id="L2-Card" fill="#000000"></path>
                </g>
                <g id="Group-9" transform="translate(32.000000, 797.000000)">
                    <g id="Group-5">
                        <g id="card">
                            <use fill="black" fill-opacity="1" filter="url(#filter-8)" xlink:href="#path-7"></use>
                            <rect stroke="#E9E9E9" stroke-width="1" fill="#FFFFFF" fill-rule="evenodd" x="-0.5" y="0.5" width="634" height="192" rx="8"></rect>
                        </g>
                        <path d="M614,12.144 C613.639998,12.144 613.306002,12.0920005 612.998,11.988 C612.689998,11.8839995 612.426001,11.7380009 612.206,11.55 C611.985999,11.3619991 611.812001,11.1400013 611.684,10.884 C611.555999,10.6279987 611.492,10.3480015 611.492,10.044 C611.492,9.79599876 611.534,9.56600106 611.618,9.354 C611.702,9.14199894 611.809999,8.95000086 611.942,8.778 C612.074001,8.60599914 612.225999,8.45400066 612.398,8.322 C612.570001,8.18999934 612.747999,8.07600048 612.932,7.98 L612.932,7.932 C612.651999,7.731999 612.404001,7.49000142 612.188,7.206 C611.971999,6.92199858 611.864,6.57600204 611.864,6.168 C611.864,5.87199852 611.919999,5.6040012 612.032,5.364 C612.144001,5.1239988 612.295999,4.91800086 612.488,4.746 C612.680001,4.57399914 612.907999,4.44000048 613.172,4.344 C613.436001,4.24799952 613.723998,4.2 614.036,4.2 C614.372002,4.2 614.671999,4.2499995 614.936,4.35 C615.200001,4.4500005 615.425999,4.5899991 615.614,4.77 C615.802001,4.9500009 615.945999,5.16599874 616.046,5.418 C616.146001,5.67000126 616.196,5.94399852 616.196,6.24 C616.196,6.440001 616.162,6.63199908 616.094,6.816 C616.026,7.00000092 615.942,7.1719992 615.842,7.332 C615.742,7.4920008 615.630001,7.63599936 615.506,7.764 C615.381999,7.89200064 615.260001,7.99999956 615.14,8.088 L615.14,8.136 C615.308001,8.23200048 615.471999,8.34199938 615.632,8.466 C615.792001,8.59000062 615.933999,8.72999922 616.058,8.886 C616.182001,9.04200078 616.282,9.219999 616.358,9.42 C616.434,9.620001 616.472,9.84799872 616.472,10.104 C616.472,10.3920014 616.412001,10.6599988 616.292,10.908 C616.171999,11.1560012 616.004001,11.3719991 615.788,11.556 C615.571999,11.7400009 615.312002,11.8839995 615.008,11.988 C614.703998,12.0920005 614.368002,12.144 614,12.144 Z M614.54,7.824 C614.796001,7.59199884 614.993999,7.34800128 615.134,7.092 C615.274001,6.83599872 615.344,6.5680014 615.344,6.288 C615.344,5.90399808 615.228001,5.5820013 614.996,5.322 C614.763999,5.0619987 614.436002,4.932 614.012,4.932 C613.651998,4.932 613.356001,5.04399888 613.124,5.268 C612.891999,5.49200112 612.776,5.79199812 612.776,6.168 C612.776,6.40000116 612.824,6.59799918 612.92,6.762 C613.016,6.92600082 613.145999,7.07199936 613.31,7.2 C613.474001,7.32800064 613.661999,7.4419995 613.874,7.542 C614.086001,7.6420005 614.307999,7.73599956 614.54,7.824 Z M614.024,11.412 C614.472002,11.412 614.833999,11.2880012 615.11,11.04 C615.386001,10.7919988 615.524,10.468002 615.524,10.068 C615.524,9.81999876 615.468001,9.60800088 615.356,9.432 C615.243999,9.25599912 615.092001,9.10200066 614.9,8.97 C614.707999,8.83799934 614.486001,8.71800054 614.234,8.61 C613.981999,8.50199946 613.720001,8.39200056 613.448,8.28 C613.143998,8.48800104 612.890001,8.72999862 612.686,9.006 C612.481999,9.28200138 612.38,9.59599824 612.38,9.948 C612.38,10.1640011 612.422,10.3599991 612.506,10.536 C612.59,10.7120009 612.705999,10.8659993 612.854,10.998 C613.002001,11.1300007 613.175999,11.2319996 613.376,11.304 C613.576001,11.3760004 613.791999,11.412 614.024,11.412 Z M617.948,14.46 L617.948,6.168 L618.764,6.168 L618.848,6.84 L618.884,6.84 C619.148001,6.61599888 619.437998,6.4240008 619.754,6.264 C620.070002,6.1039992 620.399998,6.024 620.744,6.024 C621.120002,6.024 621.451999,6.0939993 621.74,6.234 C622.028001,6.3740007 622.267999,6.5739987 622.46,6.834 C622.652001,7.0940013 622.797999,7.40599818 622.898,7.77 C622.998,8.13400182 623.048,8.54399772 623.048,9 C623.048,9.49600248 622.980001,9.93799806 622.844,10.326 C622.707999,10.7140019 622.524001,11.0439986 622.292,11.316 C622.059999,11.5880014 621.792002,11.7939993 621.488,11.934 C621.183998,12.0740007 620.864002,12.144 620.528,12.144 C620.255999,12.144 619.986001,12.0840006 619.718,11.964 C619.449999,11.8439994 619.180001,11.680001 618.908,11.472 L618.932,12.492 L618.932,14.46 L617.948,14.46 Z M620.36,11.316 C620.600001,11.316 620.821999,11.2620005 621.026,11.154 C621.230001,11.0459995 621.405999,10.894001 621.554,10.698 C621.702001,10.501999 621.818,10.2600014 621.902,9.972 C621.986,9.68399856 622.028,9.3600018 622.028,9 C622.028,8.6799984 622,8.38800132 621.944,8.124 C621.888,7.85999868 621.798001,7.63400094 621.674,7.446 C621.549999,7.25799906 621.390001,7.11200052 621.194,7.008 C620.997999,6.90399948 620.764001,6.852 620.492,6.852 C620.243999,6.852 619.994001,6.91999932 619.742,7.056 C619.489999,7.19200068 619.220001,7.38799872 618.932,7.644 L618.932,10.704 C619.196001,10.9280011 619.451999,11.0859995 619.7,11.178 C619.948001,11.2700005 620.167999,11.316 620.36,11.316 Z M623.588,12 L625.496,8.952 L623.732,6.168 L624.8,6.168 L625.58,7.452 C625.668,7.6120008 625.76,7.77399918 625.856,7.938 C625.952,8.10200082 626.051999,8.2639992 626.156,8.424 L626.204,8.424 C626.292,8.2639992 626.38,8.10200082 626.468,7.938 C626.556,7.77399918 626.644,7.6120008 626.732,7.452 L627.44,6.168 L628.472,6.168 L626.708,9.06 L628.604,12 L627.536,12 L626.684,10.644 L626.372,10.116 C626.267999,9.93999912 626.160001,9.76800084 626.048,9.6 L626,9.6 C625.895999,9.76800084 625.796,9.93799914 625.7,10.11 C625.604,10.2820009 625.508,10.4599991 625.412,10.644 L624.62,12 L623.588,12 Z" id="8px" fill="#777777"></path>
                    </g>
                    <path d="M13.746,31 L13.746,19.138 L14.574,19.138 L14.574,30.28 L20.046,30.28 L20.046,31 L13.746,31 Z M24.582,31.216 C24.1259977,31.216 23.7120019,31.1680005 23.34,31.072 C22.9679981,30.9759995 22.6350015,30.8500008 22.341,30.694 C22.0469985,30.5379992 21.7830012,30.364001 21.549,30.172 C21.3149988,29.979999 21.1080009,29.788001 20.928,29.596 L21.396,29.038 C21.5640008,29.230001 21.749999,29.4129991 21.954,29.587 C22.158001,29.7610009 22.3889987,29.9169993 22.647,30.055 C22.9050013,30.1930007 23.1929984,30.3039996 23.511,30.388 C23.8290016,30.4720004 24.185998,30.514 24.582,30.514 C24.9660019,30.514 25.3229983,30.4540006 25.653,30.334 C25.9830017,30.2139994 26.2679988,30.0430011 26.508,29.821 C26.7480012,29.5989989 26.9339993,29.3320016 27.066,29.02 C27.1980007,28.7079984 27.264,28.3600019 27.264,27.976 C27.264,27.579998 27.1890008,27.2200016 27.039,26.896 C26.8889993,26.5719984 26.6550016,26.2930012 26.337,26.059 C26.0189984,25.8249988 25.6050026,25.6420007 25.095,25.51 C24.5849975,25.3779993 23.9700036,25.312 23.25,25.312 L23.25,24.61 C23.9100033,24.61 24.4709977,24.5440007 24.933,24.412 C25.3950023,24.2799993 25.7669986,24.1030011 26.049,23.881 C26.3310014,23.6589989 26.5349994,23.3950015 26.661,23.089 C26.7870006,22.7829985 26.85,22.4560017 26.85,22.108 C26.85,21.4599968 26.6400021,20.941002 26.22,20.551 C25.7999979,20.160998 25.2360035,19.966 24.528,19.966 C23.9879973,19.966 23.4960022,20.0889988 23.052,20.335 C22.6079978,20.5810012 22.2180017,20.8779983 21.882,21.226 L21.414,20.686 C21.810002,20.3019981 22.2599975,19.9720014 22.764,19.696 C23.2680025,19.4199986 23.8559966,19.282 24.528,19.282 C24.9720022,19.282 25.3859981,19.3449994 25.77,19.471 C26.1540019,19.5970006 26.4869986,19.7769988 26.769,20.011 C27.0510014,20.2450012 27.2729992,20.5329983 27.435,20.875 C27.5970008,21.2170017 27.678,21.6099978 27.678,22.054 C27.678,22.8100038 27.4710021,23.4189977 27.057,23.881 C26.6429979,24.3430023 26.1180032,24.6819989 25.482,24.898 L25.482,24.97 C25.8420018,25.0420004 26.1779984,25.1649991 26.49,25.339 C26.8020016,25.5130009 27.0779988,25.7259987 27.318,25.978 C27.5580012,26.2300013 27.7469993,26.5209983 27.885,26.851 C28.0230007,27.1810016 28.092,27.549998 28.092,27.958 C28.092,28.4620025 28.0020009,28.914998 27.822,29.317 C27.6419991,29.719002 27.3930016,30.0609986 27.075,30.343 C26.7569984,30.6250014 26.3850021,30.8409992 25.959,30.991 C25.5329979,31.1410007 25.0740025,31.216 24.582,31.216 Z M38.586,31.216 C37.8539963,31.216 37.1820031,31.0720014 36.57,30.784 C35.9579969,30.4959986 35.4330022,30.0850027 34.995,29.551 C34.5569978,29.0169973 34.2180012,28.3690038 33.978,27.607 C33.7379988,26.8449962 33.618,25.9900047 33.618,25.042 C33.618,24.1059953 33.7409988,23.2600038 33.987,22.504 C34.2330012,21.7479962 34.5779978,21.1030027 35.022,20.569 C35.4660022,20.0349973 35.9969969,19.6270014 36.615,19.345 C37.2330031,19.0629986 37.9199962,18.922 38.676,18.922 C39.3720035,18.922 39.9839974,19.0659986 40.512,19.354 C41.0400026,19.6420014 41.4599984,19.9719981 41.772,20.344 L41.286,20.902 C40.9619984,20.5299981 40.5840022,20.2330011 40.152,20.011 C39.7199978,19.7889989 39.2340027,19.678 38.694,19.678 C38.0459968,19.678 37.4610026,19.8039987 36.939,20.056 C36.4169974,20.3080013 35.9730018,20.6649977 35.607,21.127 C35.2409982,21.5890023 34.962001,22.1499967 34.77,22.81 C34.577999,23.4700033 34.482,24.2139959 34.482,25.042 C34.482,25.8700041 34.577999,26.6169967 34.77,27.283 C34.962001,27.9490033 35.2379982,28.5159977 35.598,28.984 C35.9580018,29.4520023 36.3929975,29.8149987 36.903,30.073 C37.4130026,30.3310013 37.9859968,30.46 38.622,30.46 C39.2340031,30.46 39.7799976,30.3370012 40.26,30.091 C40.7400024,29.8449988 41.1959978,29.4820024 41.628,29.002 L42.114,29.524 C41.6579977,30.0520026 41.1480028,30.4659985 40.584,30.766 C40.0199972,31.0660015 39.3540038,31.216 38.586,31.216 Z M46.326,31.216 C45.9779983,31.216 45.6540015,31.1680005 45.354,31.072 C45.0539985,30.9759995 44.7900011,30.832001 44.562,30.64 C44.3339989,30.447999 44.1540007,30.2020015 44.022,29.902 C43.8899993,29.6019985 43.824,29.248002 43.824,28.84 C43.824,27.8799952 44.2709955,27.1510025 45.165,26.653 C46.0590045,26.1549975 47.4719903,25.7980011 49.404,25.582 C49.404,25.2579984 49.3800002,24.9310016 49.332,24.601 C49.2839998,24.2709983 49.1820008,23.9770013 49.026,23.719 C48.8699992,23.4609987 48.6600013,23.2510008 48.396,23.089 C48.1319987,22.9269992 47.7840022,22.846 47.352,22.846 C46.7759971,22.846 46.2480024,22.9599989 45.768,23.188 C45.2879976,23.4160011 44.8980015,23.6379989 44.598,23.854 L44.238,23.26 C44.3940008,23.1519995 44.5829989,23.0320007 44.805,22.9 C45.0270011,22.7679993 45.2759986,22.6480005 45.552,22.54 C45.8280014,22.4319995 46.1279984,22.3390004 46.452,22.261 C46.7760016,22.1829996 47.1119983,22.144 47.46,22.144 C47.9640025,22.144 48.3899983,22.2309991 48.738,22.405 C49.0860017,22.5790009 49.3679989,22.8159985 49.584,23.116 C49.8000011,23.4160015 49.9559995,23.766998 50.052,24.169 C50.1480005,24.571002 50.196,25.0059977 50.196,25.474 L50.196,31 L49.512,31 L49.44,29.884 L49.386,29.884 C48.9419978,30.2320017 48.4650026,30.5409986 47.955,30.811 C47.4449975,31.0810014 46.9020029,31.216 46.326,31.216 Z M46.47,30.532 C46.9740025,30.532 47.4539977,30.4120012 47.91,30.172 C48.3660023,29.9319988 48.8639973,29.5840023 49.404,29.128 L49.404,26.194 C48.5159956,26.3020005 47.7660031,26.4339992 47.154,26.59 C46.5419969,26.7460008 46.0500019,26.9319989 45.678,27.148 C45.3059981,27.3640011 45.0390008,27.6099986 44.877,27.886 C44.7149992,28.1620014 44.634,28.4679983 44.634,28.804 C44.634,29.1160016 44.6819995,29.3799989 44.778,29.596 C44.8740005,29.8120011 45.0059992,29.9889993 45.174,30.127 C45.3420008,30.2650007 45.5369989,30.3669997 45.759,30.433 C45.9810011,30.4990003 46.2179987,30.532 46.47,30.532 Z M53.274,31 L53.274,22.36 L53.958,22.36 L54.03,23.962 L54.084,23.962 C54.3720014,23.4219973 54.7229979,22.9840017 55.137,22.648 C55.5510021,22.3119983 56.0159974,22.144 56.532,22.144 C56.7000008,22.144 56.8499993,22.1559999 56.982,22.18 C57.1140007,22.2040001 57.2519993,22.2519996 57.396,22.324 L57.216,23.044 C57.0719993,22.9839997 56.9460005,22.9450001 56.838,22.927 C56.7299995,22.9089999 56.5920008,22.9 56.424,22.9 C56.0399981,22.9 55.6350021,23.0649983 55.209,23.395 C54.7829979,23.7250016 54.4020017,24.2979959 54.066,25.114 L54.066,31 L53.274,31 Z M61.662,31.216 C60.5699945,31.216 59.7000032,30.8290039 59.052,30.055 C58.4039968,29.2809961 58.08,28.1620073 58.08,26.698 C58.08,26.0019965 58.181999,25.3720028 58.386,24.808 C58.590001,24.2439972 58.8689982,23.764002 59.223,23.368 C59.5770018,22.971998 59.9849977,22.669001 60.447,22.459 C60.9090023,22.248999 61.3979974,22.144 61.914,22.144 C62.4420026,22.144 62.9009981,22.2369991 63.291,22.423 C63.681002,22.6090009 64.0919978,22.8699983 64.524,23.206 L64.488,21.622 L64.488,18.058 L65.28,18.058 L65.28,31 L64.596,31 L64.524,29.884 L64.47,29.884 C64.1219983,30.2320017 63.7110024,30.5409986 63.237,30.811 C62.7629976,31.0810014 62.2380029,31.216 61.662,31.216 Z M61.77,30.514 C62.2500024,30.514 62.7089978,30.3910012 63.147,30.145 C63.5850022,29.8989988 64.0319977,29.5480023 64.488,29.092 L64.488,23.962 C64.0319977,23.553998 63.603002,23.2660008 63.201,23.098 C62.798998,22.9299992 62.3880021,22.846 61.968,22.846 C61.5359978,22.846 61.1340019,22.944999 60.762,23.143 C60.3899981,23.341001 60.0690014,23.6109983 59.799,23.953 C59.5289987,24.2950017 59.3160008,24.7029976 59.16,25.177 C59.0039992,25.6510024 58.926,26.1579973 58.926,26.698 C58.926,27.2740029 58.9889994,27.7959977 59.115,28.264 C59.2410006,28.7320023 59.4239988,29.1309983 59.664,29.461 C59.9040012,29.7910016 60.2009982,30.0489991 60.555,30.235 C60.9090018,30.4210009 61.3139977,30.514 61.77,30.514 Z" id="L3-Card" fill="#000000"></path>
                </g>
                <g id="Group-18" transform="translate(32.000000, 290.000000)">
                    <g id="Group-8">
                        <g id="card">
                            <use fill="black" fill-opacity="1" filter="url(#filter-10)" xlink:href="#path-9"></use>
                            <use fill="#3C464D" fill-rule="evenodd" xlink:href="#path-9"></use>
                        </g>
                        <path d="M611.948,12.58 L611.948,11.764 L613.7,11.764 L613.7,6.124 L612.308,6.124 L612.308,5.488 C612.660002,5.42399968 612.965999,5.34600046 613.226,5.254 C613.486001,5.16199954 613.719999,5.05200064 613.928,4.924 L614.684,4.924 L614.684,11.764 L616.268,11.764 L616.268,12.58 L611.948,12.58 Z M617.948,15.04 L617.948,6.748 L618.764,6.748 L618.848,7.42 L618.884,7.42 C619.148001,7.19599888 619.437998,7.0040008 619.754,6.844 C620.070002,6.6839992 620.399998,6.604 620.744,6.604 C621.120002,6.604 621.451999,6.6739993 621.74,6.814 C622.028001,6.9540007 622.267999,7.1539987 622.46,7.414 C622.652001,7.6740013 622.797999,7.98599818 622.898,8.35 C622.998,8.71400182 623.048,9.12399772 623.048,9.58 C623.048,10.0760025 622.980001,10.5179981 622.844,10.906 C622.707999,11.2940019 622.524001,11.6239986 622.292,11.896 C622.059999,12.1680014 621.792002,12.3739993 621.488,12.514 C621.183998,12.6540007 620.864002,12.724 620.528,12.724 C620.255999,12.724 619.986001,12.6640006 619.718,12.544 C619.449999,12.4239994 619.180001,12.260001 618.908,12.052 L618.932,13.072 L618.932,15.04 L617.948,15.04 Z M620.36,11.896 C620.600001,11.896 620.821999,11.8420005 621.026,11.734 C621.230001,11.6259995 621.405999,11.474001 621.554,11.278 C621.702001,11.081999 621.818,10.8400014 621.902,10.552 C621.986,10.2639986 622.028,9.9400018 622.028,9.58 C622.028,9.2599984 622,8.96800132 621.944,8.704 C621.888,8.43999868 621.798001,8.21400094 621.674,8.026 C621.549999,7.83799906 621.390001,7.69200052 621.194,7.588 C620.997999,7.48399948 620.764001,7.432 620.492,7.432 C620.243999,7.432 619.994001,7.49999932 619.742,7.636 C619.489999,7.77200068 619.220001,7.96799872 618.932,8.224 L618.932,11.284 C619.196001,11.5080011 619.451999,11.6659995 619.7,11.758 C619.948001,11.8500005 620.167999,11.896 620.36,11.896 Z M623.588,12.58 L625.496,9.532 L623.732,6.748 L624.8,6.748 L625.58,8.032 C625.668,8.1920008 625.76,8.35399918 625.856,8.518 C625.952,8.68200082 626.051999,8.8439992 626.156,9.004 L626.204,9.004 C626.292,8.8439992 626.38,8.68200082 626.468,8.518 C626.556,8.35399918 626.644,8.1920008 626.732,8.032 L627.44,6.748 L628.472,6.748 L626.708,9.64 L628.604,12.58 L627.536,12.58 L626.684,11.224 L626.372,10.696 C626.267999,10.5199991 626.160001,10.3480008 626.048,10.18 L626,10.18 C625.895999,10.3480008 625.796,10.5179991 625.7,10.69 C625.604,10.8620009 625.508,11.0399991 625.412,11.224 L624.62,12.58 L623.588,12.58 Z" id="1px-copy" fill="#FFFFFF"></path>
                    </g>
                    <path d="M13.746,32 L13.746,20.138 L16.5,20.138 C17.4120046,20.138 18.2069966,20.2759986 18.885,20.552 C19.5630034,20.8280014 20.1239978,21.2239974 20.568,21.74 C21.0120022,22.2560026 21.3419989,22.8739964 21.558,23.594 C21.7740011,24.3140036 21.882,25.1239955 21.882,26.024 C21.882,26.9240045 21.7740011,27.7429963 21.558,28.481 C21.3419989,29.2190037 21.0120022,29.8489974 20.568,30.371 C20.1239978,30.8930026 19.5660034,31.2949986 18.894,31.577 C18.2219966,31.8590014 17.4300046,32 16.518,32 L13.746,32 Z M14.574,31.298 L16.41,31.298 C17.214004,31.298 17.9069971,31.1690013 18.489,30.911 C19.0710029,30.6529987 19.5479981,30.2900023 19.92,29.822 C20.2920019,29.3539977 20.5679991,28.7990032 20.748,28.157 C20.9280009,27.5149968 21.018,26.8040039 21.018,26.024 C21.018,25.2559962 20.9280009,24.5540032 20.748,23.918 C20.5679991,23.2819968 20.2920019,22.7360023 19.92,22.28 C19.5479981,21.8239977 19.0710029,21.4700013 18.489,21.218 C17.9069971,20.9659987 17.214004,20.84 16.41,20.84 L14.574,20.84 L14.574,31.298 Z M26.796,32 L26.796,20.858 L23.016,20.858 L23.016,20.138 L31.404,20.138 L31.404,20.858 L27.624,20.858 L27.624,32 L26.796,32 Z M41.484,32.216 C40.7519963,32.216 40.0800031,32.0720014 39.468,31.784 C38.8559969,31.4959986 38.3310022,31.0850027 37.893,30.551 C37.4549978,30.0169973 37.1160012,29.3690038 36.876,28.607 C36.6359988,27.8449962 36.516,26.9900047 36.516,26.042 C36.516,25.1059953 36.6389988,24.2600038 36.885,23.504 C37.1310012,22.7479962 37.4759978,22.1030027 37.92,21.569 C38.3640022,21.0349973 38.8949969,20.6270014 39.513,20.345 C40.1310031,20.0629986 40.8179962,19.922 41.574,19.922 C42.2700035,19.922 42.8819974,20.0659986 43.41,20.354 C43.9380026,20.6420014 44.3579984,20.9719981 44.67,21.344 L44.184,21.902 C43.8599984,21.5299981 43.4820022,21.2330011 43.05,21.011 C42.6179978,20.7889989 42.1320027,20.678 41.592,20.678 C40.9439968,20.678 40.3590026,20.8039987 39.837,21.056 C39.3149974,21.3080013 38.8710018,21.6649977 38.505,22.127 C38.1389982,22.5890023 37.860001,23.1499967 37.668,23.81 C37.475999,24.4700033 37.38,25.2139959 37.38,26.042 C37.38,26.8700041 37.475999,27.6169967 37.668,28.283 C37.860001,28.9490033 38.1359982,29.5159977 38.496,29.984 C38.8560018,30.4520023 39.2909975,30.8149987 39.801,31.073 C40.3110026,31.3310013 40.8839968,31.46 41.52,31.46 C42.1320031,31.46 42.6779976,31.3370012 43.158,31.091 C43.6380024,30.8449988 44.0939978,30.4820024 44.526,30.002 L45.012,30.524 C44.5559977,31.0520026 44.0460028,31.4659985 43.482,31.766 C42.9179972,32.0660015 42.2520038,32.216 41.484,32.216 Z M49.224,32.216 C48.8759983,32.216 48.5520015,32.1680005 48.252,32.072 C47.9519985,31.9759995 47.6880011,31.832001 47.46,31.64 C47.2319989,31.447999 47.0520007,31.2020015 46.92,30.902 C46.7879993,30.6019985 46.722,30.248002 46.722,29.84 C46.722,28.8799952 47.1689955,28.1510025 48.063,27.653 C48.9570045,27.1549975 50.3699903,26.7980011 52.302,26.582 C52.302,26.2579984 52.2780002,25.9310016 52.23,25.601 C52.1819998,25.2709983 52.0800008,24.9770013 51.924,24.719 C51.7679992,24.4609987 51.5580013,24.2510008 51.294,24.089 C51.0299987,23.9269992 50.6820022,23.846 50.25,23.846 C49.6739971,23.846 49.1460024,23.9599989 48.666,24.188 C48.1859976,24.4160011 47.7960015,24.6379989 47.496,24.854 L47.136,24.26 C47.2920008,24.1519995 47.4809989,24.0320007 47.703,23.9 C47.9250011,23.7679993 48.1739986,23.6480005 48.45,23.54 C48.7260014,23.4319995 49.0259984,23.3390004 49.35,23.261 C49.6740016,23.1829996 50.0099983,23.144 50.358,23.144 C50.8620025,23.144 51.2879983,23.2309991 51.636,23.405 C51.9840017,23.5790009 52.2659989,23.8159985 52.482,24.116 C52.6980011,24.4160015 52.8539995,24.766998 52.95,25.169 C53.0460005,25.571002 53.094,26.0059977 53.094,26.474 L53.094,32 L52.41,32 L52.338,30.884 L52.284,30.884 C51.8399978,31.2320017 51.3630026,31.5409986 50.853,31.811 C50.3429975,32.0810014 49.8000029,32.216 49.224,32.216 Z M49.368,31.532 C49.8720025,31.532 50.3519977,31.4120012 50.808,31.172 C51.2640023,30.9319988 51.7619973,30.5840023 52.302,30.128 L52.302,27.194 C51.4139956,27.3020005 50.6640031,27.4339992 50.052,27.59 C49.4399969,27.7460008 48.9480019,27.9319989 48.576,28.148 C48.2039981,28.3640011 47.9370008,28.6099986 47.775,28.886 C47.6129992,29.1620014 47.532,29.4679983 47.532,29.804 C47.532,30.1160016 47.5799995,30.3799989 47.676,30.596 C47.7720005,30.8120011 47.9039992,30.9889993 48.072,31.127 C48.2400008,31.2650007 48.4349989,31.3669997 48.657,31.433 C48.8790011,31.4990003 49.1159987,31.532 49.368,31.532 Z M56.172,32 L56.172,23.36 L56.856,23.36 L56.928,24.962 L56.982,24.962 C57.2700014,24.4219973 57.6209979,23.9840017 58.035,23.648 C58.4490021,23.3119983 58.9139974,23.144 59.43,23.144 C59.5980008,23.144 59.7479993,23.1559999 59.88,23.18 C60.0120007,23.2040001 60.1499993,23.2519996 60.294,23.324 L60.114,24.044 C59.9699993,23.9839997 59.8440005,23.9450001 59.736,23.927 C59.6279995,23.9089999 59.4900008,23.9 59.322,23.9 C58.9379981,23.9 58.5330021,24.0649983 58.107,24.395 C57.6809979,24.7250016 57.3000017,25.2979959 56.964,26.114 L56.964,32 L56.172,32 Z M64.56,32.216 C63.4679945,32.216 62.5980032,31.8290039 61.95,31.055 C61.3019968,30.2809961 60.978,29.1620073 60.978,27.698 C60.978,27.0019965 61.079999,26.3720028 61.284,25.808 C61.488001,25.2439972 61.7669982,24.764002 62.121,24.368 C62.4750018,23.971998 62.8829977,23.669001 63.345,23.459 C63.8070023,23.248999 64.2959974,23.144 64.812,23.144 C65.3400026,23.144 65.7989981,23.2369991 66.189,23.423 C66.579002,23.6090009 66.9899978,23.8699983 67.422,24.206 L67.386,22.622 L67.386,19.058 L68.178,19.058 L68.178,32 L67.494,32 L67.422,30.884 L67.368,30.884 C67.0199983,31.2320017 66.6090024,31.5409986 66.135,31.811 C65.6609976,32.0810014 65.1360029,32.216 64.56,32.216 Z M64.668,31.514 C65.1480024,31.514 65.6069978,31.3910012 66.045,31.145 C66.4830022,30.8989988 66.9299977,30.5480023 67.386,30.092 L67.386,24.962 C66.9299977,24.553998 66.501002,24.2660008 66.099,24.098 C65.696998,23.9299992 65.2860021,23.846 64.866,23.846 C64.4339978,23.846 64.0320019,23.944999 63.66,24.143 C63.2879981,24.341001 62.9670014,24.6109983 62.697,24.953 C62.4269987,25.2950017 62.2140008,25.7029976 62.058,26.177 C61.9019992,26.6510024 61.824,27.1579973 61.824,27.698 C61.824,28.2740029 61.8869994,28.7959977 62.013,29.264 C62.1390006,29.7320023 62.3219988,30.1309983 62.562,30.461 C62.8020012,30.7910016 63.0989982,31.0489991 63.453,31.235 C63.8070018,31.4210009 64.2119977,31.514 64.668,31.514 Z" id="DT-Card" fill="#FFFFFF"></path>
                </g>
                <path d="M643.948,54 L643.948,53.184 L645.7,53.184 L645.7,47.544 L644.308,47.544 L644.308,46.908 C644.660002,46.8439997 644.965999,46.7660005 645.226,46.674 C645.486001,46.5819995 645.719999,46.4720006 645.928,46.344 L646.684,46.344 L646.684,53.184 L648.268,53.184 L648.268,54 L643.948,54 Z M649.948,56.46 L649.948,48.168 L650.764,48.168 L650.848,48.84 L650.884,48.84 C651.148001,48.6159989 651.437998,48.4240008 651.754,48.264 C652.070002,48.1039992 652.399998,48.024 652.744,48.024 C653.120002,48.024 653.451999,48.0939993 653.74,48.234 C654.028001,48.3740007 654.267999,48.5739987 654.46,48.834 C654.652001,49.0940013 654.797999,49.4059982 654.898,49.77 C654.998,50.1340018 655.048,50.5439977 655.048,51 C655.048,51.4960025 654.980001,51.9379981 654.844,52.326 C654.707999,52.7140019 654.524001,53.0439986 654.292,53.316 C654.059999,53.5880014 653.792002,53.7939993 653.488,53.934 C653.183998,54.0740007 652.864002,54.144 652.528,54.144 C652.255999,54.144 651.986001,54.0840006 651.718,53.964 C651.449999,53.8439994 651.180001,53.680001 650.908,53.472 L650.932,54.492 L650.932,56.46 L649.948,56.46 Z M652.36,53.316 C652.600001,53.316 652.821999,53.2620005 653.026,53.154 C653.230001,53.0459995 653.405999,52.894001 653.554,52.698 C653.702001,52.501999 653.818,52.2600014 653.902,51.972 C653.986,51.6839986 654.028,51.3600018 654.028,51 C654.028,50.6799984 654,50.3880013 653.944,50.124 C653.888,49.8599987 653.798001,49.6340009 653.674,49.446 C653.549999,49.2579991 653.390001,49.1120005 653.194,49.008 C652.997999,48.9039995 652.764001,48.852 652.492,48.852 C652.243999,48.852 651.994001,48.9199993 651.742,49.056 C651.489999,49.1920007 651.220001,49.3879987 650.932,49.644 L650.932,52.704 C651.196001,52.9280011 651.451999,53.0859995 651.7,53.178 C651.948001,53.2700005 652.167999,53.316 652.36,53.316 Z M655.588,54 L657.496,50.952 L655.732,48.168 L656.8,48.168 L657.58,49.452 C657.668,49.6120008 657.76,49.7739992 657.856,49.938 C657.952,50.1020008 658.051999,50.2639992 658.156,50.424 L658.204,50.424 C658.292,50.2639992 658.38,50.1020008 658.468,49.938 C658.556,49.7739992 658.644,49.6120008 658.732,49.452 L659.44,48.168 L660.472,48.168 L658.708,51.06 L660.604,54 L659.536,54 L658.684,52.644 L658.372,52.116 C658.267999,51.9399991 658.160001,51.7680008 658.048,51.6 L658,51.6 C657.895999,51.7680008 657.796,51.9379991 657.7,52.11 C657.604,52.2820009 657.508,52.4599991 657.412,52.644 L656.62,54 L655.588,54 Z" id="1px" fill="#777777"></path>
            </g>
        </g>
    </g>
</svg>