<?xml version="1.0" encoding="UTF-8"?>
<svg width="303px" height="144px" viewBox="0 0 303 144" version="1.1" xmlns="http://www.w3.org/2000/svg" xmlns:xlink="http://www.w3.org/1999/xlink">
    <!-- Generator: Sketch 50.2 (55047) - http://www.bohemiancoding.com/sketch -->
    <title>example_well_sizing</title>
    <desc>Created with Sketch.</desc>
    <defs>
        <rect id="path-1" x="0" y="0" width="291" height="132"></rect>
        <filter x="-3.3%" y="-6.4%" width="106.5%" height="114.4%" filterUnits="objectBoundingBox" id="filter-2">
            <feOffset dx="0" dy="1" in="SourceAlpha" result="shadowOffsetOuter1"></feOffset>
            <feGaussianBlur stdDeviation="3" in="shadowOffsetOuter1" result="shadowBlurOuter1"></feGaussianBlur>
            <feColorMatrix values="0 0 0 0 0   0 0 0 0 0   0 0 0 0 0  0 0 0 0.285920516 0" type="matrix" in="shadowBlurOuter1"></feColorMatrix>
        </filter>
    </defs>
    <g id="Containers" stroke="none" stroke-width="1" fill="none" fill-rule="evenodd">
        <g id="Wells" transform="translate(-823.000000, -2447.000000)">
            <g id="example_well_sizing" transform="translate(829.000000, 2452.000000)">
                <g id="Rectangle-6-Copy-14">
                    <use fill="black" fill-opacity="1" filter="url(#filter-2)" xlink:href="#path-1"></use>
                    <use fill="#FAFAFC" fill-rule="evenodd" xlink:href="#path-1"></use>
                </g>
                <g id="Group-9" transform="translate(32.000000, 16.000000)">
                    <g id="2-Well/1-rare" fill="#FFFFFF" stroke="#E9E9E9">
                        <rect id="Rectangle-25" x="0.5" y="0.5" width="226" height="99" rx="5"></rect>
                    </g>
                    <g id="2-Well/2-medium-Copy" transform="translate(222.000000, 1.000000)" fill="#F9F9F9" stroke="#52555A">
                        <path d="M0,0 C2.209139,-5.07265313e-16 4,2.23857625 4,5" id="Rectangle-14"></path>
                    </g>
                    <path d="M32,75 L32,99" id="Line" stroke="#FF345E" stroke-linecap="square"></path>
                    <path id="Line-decoration-1" d="M35,75 L29,75" stroke="#FF345E" stroke-linecap="square"></path>
                    <path id="Line-decoration-2" d="M35,99 L29,99" stroke="#FF345E" stroke-linecap="square"></path>
                    <path d="M1,67 L25,67" id="Line-2" stroke="#FF345E" stroke-linecap="square"></path>
                    <path id="Line-2-decoration-1" d="M1,64 L1,70" stroke="#FF345E" stroke-linecap="square"></path>
                    <path id="Line-2-decoration-2" d="M25,64 L25,70" stroke="#FF345E" stroke-linecap="square"></path>
                    <path d="M29.48,70 L29.48,69.412 C30.0560029,68.8359971 30.5679978,68.3160023 31.016,67.852 C31.4640022,67.3879977 31.8399985,66.958002 32.144,66.562 C32.4480015,66.165998 32.6799992,65.8020017 32.84,65.47 C33.0000008,65.1379983 33.08,64.8160016 33.08,64.504 C33.08,64.0639978 32.9600012,63.7040014 32.72,63.424 C32.4799988,63.1439986 32.1160024,63.004 31.628,63.004 C31.3079984,63.004 31.0120014,63.0939991 30.74,63.274 C30.4679986,63.4540009 30.2200011,63.6719987 29.996,63.928 L29.432,63.364 C29.7520016,63.0119982 30.0919982,62.7300011 30.452,62.518 C30.8120018,62.3059989 31.2439975,62.2 31.748,62.2 C32.4600036,62.2 33.019998,62.4059979 33.428,62.818 C33.836002,63.2300021 34.04,63.7759966 34.04,64.456 C34.04,64.8160018 33.9620008,65.1779982 33.806,65.542 C33.6499992,65.9060018 33.4340014,66.2819981 33.158,66.67 C32.8819986,67.0580019 32.5540019,67.4619979 32.174,67.882 C31.7939981,68.3020021 31.3760023,68.7479976 30.92,69.22 C31.128001,69.2039999 31.3439989,69.1880001 31.568,69.172 C31.7920011,69.1559999 32.003999,69.148 32.204,69.148 L34.424,69.148 L34.424,70 L29.48,70 Z M38.612,70 L38.612,67.888 L35.168,67.888 L35.168,67.24 L38.444,62.344 L39.548,62.344 L39.548,67.096 L40.592,67.096 L40.592,67.888 L39.548,67.888 L39.548,70 L38.612,70 Z M36.212,67.096 L38.612,67.096 L38.612,64.876 C38.612,64.667999 38.6179999,64.4220014 38.63,64.138 C38.6420001,63.8539986 38.6559999,63.608001 38.672,63.4 L38.624,63.4 C38.5279995,63.5840009 38.4280005,63.7639991 38.324,63.94 C38.2199995,64.1160009 38.1120006,64.2959991 38,64.48 L36.212,67.096 Z M41.912,72.46 L41.912,64.168 L42.728,64.168 L42.812,64.84 L42.848,64.84 C43.1120013,64.6159989 43.4019984,64.4240008 43.718,64.264 C44.0340016,64.1039992 44.3639983,64.024 44.708,64.024 C45.0840019,64.024 45.4159986,64.0939993 45.704,64.234 C45.9920014,64.3740007 46.231999,64.5739987 46.424,64.834 C46.616001,65.0940013 46.7619995,65.4059982 46.862,65.77 C46.9620005,66.1340018 47.012,66.5439977 47.012,67 C47.012,67.4960025 46.9440007,67.9379981 46.808,68.326 C46.6719993,68.7140019 46.4880012,69.0439986 46.256,69.316 C46.0239988,69.5880014 45.7560015,69.7939993 45.452,69.934 C45.1479985,70.0740007 44.8280017,70.144 44.492,70.144 C44.2199986,70.144 43.9500013,70.0840006 43.682,69.964 C43.4139987,69.8439994 43.1440014,69.680001 42.872,69.472 L42.896,70.492 L42.896,72.46 L41.912,72.46 Z M44.324,69.316 C44.5640012,69.316 44.785999,69.2620005 44.99,69.154 C45.194001,69.0459995 45.3699993,68.894001 45.518,68.698 C45.6660007,68.501999 45.7819996,68.2600014 45.866,67.972 C45.9500004,67.6839986 45.992,67.3600018 45.992,67 C45.992,66.6799984 45.9640003,66.3880013 45.908,66.124 C45.8519997,65.8599987 45.7620006,65.6340009 45.638,65.446 C45.5139994,65.2579991 45.354001,65.1120005 45.158,65.008 C44.961999,64.9039995 44.7280014,64.852 44.456,64.852 C44.2079988,64.852 43.9580013,64.9199993 43.706,65.056 C43.4539987,65.1920007 43.1840014,65.3879987 42.896,65.644 L42.896,68.704 C43.1600013,68.9280011 43.4159988,69.0859995 43.664,69.178 C43.9120012,69.2700005 44.131999,69.316 44.324,69.316 Z M47.552,70 L49.46,66.952 L47.696,64.168 L48.764,64.168 L49.544,65.452 C49.6320004,65.6120008 49.7239995,65.7739992 49.82,65.938 C49.9160005,66.1020008 50.0159995,66.2639992 50.12,66.424 L50.168,66.424 C50.2560004,66.2639992 50.3439996,66.1020008 50.432,65.938 C50.5200004,65.7739992 50.6079996,65.6120008 50.696,65.452 L51.404,64.168 L52.436,64.168 L50.672,67.06 L52.568,70 L51.5,70 L50.648,68.644 L50.336,68.116 C50.2319995,67.9399991 50.1240006,67.7680008 50.012,67.6 L49.964,67.6 C49.8599995,67.7680008 49.7600005,67.9379991 49.664,68.11 C49.5679995,68.2820009 49.4720005,68.4599991 49.376,68.644 L48.584,70 L47.552,70 Z" id="24px" fill="#FF345E"></path>
                    <path d="M206.808,12.144 C206.503998,12.144 206.226001,12.1140003 205.974,12.054 C205.721999,11.9939997 205.494001,11.9160005 205.29,11.82 C205.085999,11.7239995 204.902001,11.6140006 204.738,11.49 C204.573999,11.3659994 204.428001,11.2360007 204.3,11.1 L204.78,10.452 C205.004001,10.6840012 205.269998,10.8879991 205.578,11.064 C205.886002,11.2400009 206.263998,11.328 206.712,11.328 C206.944001,11.328 207.161999,11.2860004 207.366,11.202 C207.570001,11.1179996 207.747999,11.0000008 207.9,10.848 C208.052001,10.6959992 208.172,10.5120011 208.26,10.296 C208.348,10.0799989 208.392,9.84000132 208.392,9.576 C208.392,9.04799736 208.244001,8.63600148 207.948,8.34 C207.651999,8.04399852 207.256002,7.896 206.76,7.896 C206.495999,7.896 206.270001,7.9359996 206.082,8.016 C205.893999,8.0960004 205.684001,8.21199924 205.452,8.364 L204.924,8.028 L205.176,4.344 L209.004,4.344 L209.004,5.196 L206.04,5.196 L205.836,7.464 C206.020001,7.36799952 206.203999,7.29200028 206.388,7.236 C206.572001,7.17999972 206.779999,7.152 207.012,7.152 C207.340002,7.152 207.647999,7.19999952 207.936,7.296 C208.224001,7.39200048 208.475999,7.53799902 208.692,7.734 C208.908001,7.93000098 209.077999,8.1779985 209.202,8.478 C209.326001,8.7780015 209.388,9.13599792 209.388,9.552 C209.388,9.96800208 209.316001,10.3359984 209.172,10.656 C209.027999,10.9760016 208.836001,11.2459989 208.596,11.466 C208.355999,11.6860011 208.082002,11.8539994 207.774,11.97 C207.465998,12.0860006 207.144002,12.144 206.808,12.144 Z M210.948,14.46 L210.948,6.168 L211.764,6.168 L211.848,6.84 L211.884,6.84 C212.148001,6.61599888 212.437998,6.4240008 212.754,6.264 C213.070002,6.1039992 213.399998,6.024 213.744,6.024 C214.120002,6.024 214.451999,6.0939993 214.74,6.234 C215.028001,6.3740007 215.267999,6.5739987 215.46,6.834 C215.652001,7.0940013 215.798,7.40599818 215.898,7.77 C215.998,8.13400182 216.048,8.54399772 216.048,9 C216.048,9.49600248 215.980001,9.93799806 215.844,10.326 C215.707999,10.7140019 215.524001,11.0439986 215.292,11.316 C215.059999,11.5880014 214.792002,11.7939993 214.488,11.934 C214.183998,12.0740007 213.864002,12.144 213.528,12.144 C213.255999,12.144 212.986001,12.0840006 212.718,11.964 C212.449999,11.8439994 212.180001,11.680001 211.908,11.472 L211.932,12.492 L211.932,14.46 L210.948,14.46 Z M213.36,11.316 C213.600001,11.316 213.821999,11.2620005 214.026,11.154 C214.230001,11.0459995 214.405999,10.894001 214.554,10.698 C214.702001,10.501999 214.818,10.2600014 214.902,9.972 C214.986,9.68399856 215.028,9.3600018 215.028,9 C215.028,8.6799984 215,8.38800132 214.944,8.124 C214.888,7.85999868 214.798001,7.63400094 214.674,7.446 C214.549999,7.25799906 214.390001,7.11200052 214.194,7.008 C213.997999,6.90399948 213.764001,6.852 213.492,6.852 C213.243999,6.852 212.994001,6.91999932 212.742,7.056 C212.489999,7.19200068 212.220001,7.38799872 211.932,7.644 L211.932,10.704 C212.196001,10.9280011 212.451999,11.0859995 212.7,11.178 C212.948001,11.2700005 213.167999,11.316 213.36,11.316 Z M216.588,12 L218.496,8.952 L216.732,6.168 L217.8,6.168 L218.58,7.452 C218.668,7.6120008 218.76,7.77399918 218.856,7.938 C218.952,8.10200082 219.051999,8.2639992 219.156,8.424 L219.204,8.424 C219.292,8.2639992 219.38,8.10200082 219.468,7.938 C219.556,7.77399918 219.644,7.6120008 219.732,7.452 L220.44,6.168 L221.472,6.168 L219.708,9.06 L221.604,12 L220.536,12 L219.684,10.644 L219.372,10.116 C219.267999,9.93999912 219.160001,9.76800084 219.048,9.6 L219,9.6 C218.895999,9.76800084 218.796,9.93799914 218.7,10.11 C218.604,10.2820009 218.508,10.4599991 218.412,10.644 L217.62,12 L216.588,12 Z" id="5px" fill="#52555A"></path>
                </g>
            </g>
        </g>
    </g>
</svg>