<?xml version="1.0" encoding="UTF-8"?>
<svg width="709px" height="457px" viewBox="0 0 709 457" version="1.1" xmlns="http://www.w3.org/2000/svg" xmlns:xlink="http://www.w3.org/1999/xlink">
    <!-- Generator: Sketch 50.2 (55047) - http://www.bohemiancoding.com/sketch -->
    <title>well_example</title>
    <desc>Created with Sketch.</desc>
    <defs>
        <rect id="path-1" x="0" y="0" width="697" height="445"></rect>
        <filter x="-1.4%" y="-1.9%" width="102.7%" height="104.3%" filterUnits="objectBoundingBox" id="filter-2">
            <feOffset dx="0" dy="1" in="SourceAlpha" result="shadowOffsetOuter1"></feOffset>
            <feGaussianBlur stdDeviation="3" in="shadowOffsetOuter1" result="shadowBlurOuter1"></feGaussianBlur>
            <feComposite in="shadowBlurOuter1" in2="SourceAlpha" operator="out" result="shadowBlurOuter1"></feComposite>
            <feColorMatrix values="0 0 0 0 0   0 0 0 0 0   0 0 0 0 0  0 0 0 0.285920516 0" type="matrix" in="shadowBlurOuter1"></feColorMatrix>
        </filter>
        <rect id="path-3" x="0" y="0" width="633" height="381" rx="1"></rect>
        <filter x="-2.4%" y="-2.4%" width="104.7%" height="108.9%" filterUnits="objectBoundingBox" id="filter-4">
            <feMorphology radius="11" operator="erode" in="SourceAlpha" result="shadowSpreadOuter1"></feMorphology>
            <feOffset dx="0" dy="10" in="shadowSpreadOuter1" result="shadowOffsetOuter1"></feOffset>
            <feGaussianBlur stdDeviation="15" in="shadowOffsetOuter1" result="shadowBlurOuter1"></feGaussianBlur>
            <feComposite in="shadowBlurOuter1" in2="SourceAlpha" operator="out" result="shadowBlurOuter1"></feComposite>
            <feColorMatrix values="0 0 0 0 0.294117647   0 0 0 0 0.305882353   0 0 0 0 0.325490196  0 0 0 0.4 0" type="matrix" in="shadowBlurOuter1"></feColorMatrix>
        </filter>
        <rect id="path-5" x="0" y="0" width="479.43609" height="221.800948" rx="5"></rect>
        <filter x="-3.1%" y="-4.1%" width="106.3%" height="115.3%" filterUnits="objectBoundingBox" id="filter-6">
            <feMorphology radius="11" operator="erode" in="SourceAlpha" result="shadowSpreadOuter1"></feMorphology>
            <feOffset dx="0" dy="10" in="shadowSpreadOuter1" result="shadowOffsetOuter1"></feOffset>
            <feGaussianBlur stdDeviation="15" in="shadowOffsetOuter1" result="shadowBlurOuter1"></feGaussianBlur>
            <feComposite in="shadowBlurOuter1" in2="SourceAlpha" operator="out" result="shadowBlurOuter1"></feComposite>
            <feColorMatrix values="0 0 0 0 0.294117647   0 0 0 0 0.305882353   0 0 0 0 0.325490196  0 0 0 0.4 0" type="matrix" in="shadowBlurOuter1"></feColorMatrix>
        </filter>
    </defs>
    <g id="Containers" stroke="none" stroke-width="1" fill="none" fill-rule="evenodd">
        <g id="Wells" transform="translate(-417.000000, -713.000000)">
            <g id="Group-8" transform="translate(391.000000, 551.000000)">
                <g id="well_example" transform="translate(32.000000, 167.000000)">
                    <g id="Rectangle-6-Copy">
                        <use fill="black" fill-opacity="1" filter="url(#filter-2)" xlink:href="#path-1"></use>
                        <use fill-opacity="0.479308197" fill="#F4F5F8" fill-rule="evenodd" xlink:href="#path-1"></use>
                    </g>
                    <g id="Group-5" transform="translate(32.000000, 32.000000)">
                        <g id="1-card/l1">
                            <g id="card">
                                <use fill="black" fill-opacity="1" filter="url(#filter-4)" xlink:href="#path-3"></use>
                                <rect stroke="#E9E9E9" stroke-width="1" fill="#FFFFFF" fill-rule="evenodd" x="-0.5" y="-0.5" width="634" height="382" rx="1"></rect>
                            </g>
                        </g>
                        <g id="Group-4" transform="translate(24.000000, 24.000000)">
                            <g id="2-Well/1-rare" fill="#FFFFFF" stroke="#E9E9E9">
                                <rect id="Rectangle-25" x="0.5" y="0.5" width="478.43609" height="220.800948" rx="5"></rect>
                            </g>
                            <g id="2-Well/2-medium" transform="translate(35.187970, 36.966825)" fill="#F9F9F9" stroke="#E9E9E9">
                                <rect id="Rectangle-14" x="0.5" y="0.5" width="478.43609" height="220.800948" rx="5"></rect>
                            </g>
                            <g id="2-Well/3-well-done" transform="translate(70.375940, 73.933649)" fill="#F4F5F8" stroke="#E9E9E9">
                                <rect id="Rectangle-16" x="0.5" y="0.5" width="478.43609" height="220.800948" rx="5"></rect>
                            </g>
                            <g id="1-card/l4" transform="translate(105.563910, 110.900474)">
                                <g id="card">
                                    <use fill="black" fill-opacity="1" filter="url(#filter-6)" xlink:href="#path-5"></use>
                                    <rect stroke="#777777" stroke-width="1" fill="#636B70" fill-rule="evenodd" x="-0.5" y="-0.5" width="480.43609" height="222.800948" rx="5"></rect>
                                </g>
                            </g>
                        </g>
                    </g>
                    <g id="Group-13" transform="translate(48.000000, 63.000000)">
                        <path d="M96.204,91 L93.504,79.138 L94.368,79.138 L95.862,86.122 C95.9940007,86.7700032 96.1289993,87.4149968 96.267,88.057 C96.4050007,88.6990032 96.5399993,89.3439968 96.672,89.992 L96.744,89.992 C96.8880007,89.3439968 97.0349992,88.6990032 97.185,88.057 C97.3350008,87.4149968 97.4939992,86.7700032 97.662,86.122 L99.516,79.138 L100.362,79.138 L102.216,86.122 C102.384001,86.7700032 102.542999,87.4149968 102.693,88.057 C102.843001,88.6990032 103.001999,89.3439968 103.17,89.992 L103.242,89.992 C103.374001,89.3439968 103.502999,88.6990032 103.629,88.057 C103.755001,87.4149968 103.883999,86.7700032 104.016,86.122 L105.51,79.138 L106.32,79.138 L103.674,91 L102.756,91 L100.596,82.864 C100.487999,82.3959977 100.380001,81.9490021 100.272,81.523 C100.163999,81.0969979 100.062,80.6500023 99.966,80.182 L99.894,80.182 C99.7979995,80.6500023 99.6900006,81.0969979 99.57,81.523 C99.4499994,81.9490021 99.3360005,82.3959977 99.228,82.864 L97.104,91 L96.204,91 Z M111.792,91.216 C111.239997,91.216 110.721002,91.114001 110.235,90.91 C109.748998,90.705999 109.326002,90.409002 108.966,90.019 C108.605998,89.6289981 108.321001,89.1550028 108.111,88.597 C107.900999,88.0389972 107.796,87.4060035 107.796,86.698 C107.796,85.9899965 107.900999,85.3540028 108.111,84.79 C108.321001,84.2259972 108.602998,83.7490019 108.957,83.359 C109.311002,82.968998 109.712998,82.6690011 110.163,82.459 C110.613002,82.248999 111.077998,82.144 111.558,82.144 C112.590005,82.144 113.399997,82.4919965 113.988,83.188 C114.576003,83.8840035 114.87,84.8679936 114.87,86.14 L114.87,86.464 C114.87,86.5720005 114.858,86.6799995 114.834,86.788 L108.606,86.788 C108.618,87.3280027 108.701999,87.8289977 108.858,88.291 C109.014001,88.7530023 109.232999,89.1489983 109.515,89.479 C109.797001,89.8090016 110.135998,90.0669991 110.532,90.253 C110.928002,90.4390009 111.371998,90.532 111.864,90.532 C112.332002,90.532 112.754998,90.4630007 113.133,90.325 C113.511002,90.1869993 113.861998,89.9980012 114.186,89.758 L114.51,90.37 C114.161998,90.574001 113.781002,90.7659991 113.367,90.946 C112.952998,91.1260009 112.428003,91.216 111.792,91.216 Z M108.606,86.14 L114.114,86.14 C114.114,85.0239944 113.886002,84.1930027 113.43,83.647 C112.973998,83.1009973 112.356004,82.828 111.576,82.828 C111.203998,82.828 110.850002,82.9029992 110.514,83.053 C110.177998,83.2030008 109.875001,83.4219986 109.605,83.71 C109.334999,83.9980014 109.113001,84.345998 108.939,84.754 C108.764999,85.162002 108.654,85.6239974 108.606,86.14 Z M118.272,91.216 C117.563996,91.216 117.21,90.7600046 117.21,89.848 L117.21,78.058 L118.002,78.058 L118.002,89.956 C118.002,90.148001 118.038,90.2889995 118.11,90.379 C118.182,90.4690004 118.271999,90.514 118.38,90.514 L118.497,90.514 C118.539,90.514 118.608,90.5020001 118.704,90.478 L118.848,91.126 C118.764,91.1500001 118.68,91.1709999 118.596,91.189 C118.512,91.2070001 118.404001,91.216 118.272,91.216 Z M122.538,91.216 C121.829996,91.216 121.476,90.7600046 121.476,89.848 L121.476,78.058 L122.268,78.058 L122.268,89.956 C122.268,90.148001 122.304,90.2889995 122.376,90.379 C122.448,90.4690004 122.537999,90.514 122.646,90.514 L122.763,90.514 C122.805,90.514 122.874,90.5020001 122.97,90.478 L123.114,91.126 C123.03,91.1500001 122.946,91.1709999 122.862,91.189 C122.778,91.2070001 122.670001,91.216 122.538,91.216 Z M132.204,91.216 C131.111995,91.216 130.242003,90.8290039 129.594,90.055 C128.945997,89.2809961 128.622,88.1620073 128.622,86.698 C128.622,86.0019965 128.723999,85.3720028 128.928,84.808 C129.132001,84.2439972 129.410998,83.764002 129.765,83.368 C130.119002,82.971998 130.526998,82.6690011 130.989,82.459 C131.451002,82.248999 131.939997,82.144 132.456,82.144 C132.984003,82.144 133.442998,82.2369991 133.833,82.423 C134.223002,82.6090009 134.633998,82.8699983 135.066,83.206 L135.03,81.622 L135.03,78.058 L135.822,78.058 L135.822,91 L135.138,91 L135.066,89.884 L135.012,89.884 C134.663998,90.2320017 134.253002,90.5409987 133.779,90.811 C133.304998,91.0810014 132.780003,91.216 132.204,91.216 Z M132.312,90.514 C132.792002,90.514 133.250998,90.3910012 133.689,90.145 C134.127002,89.8989988 134.573998,89.5480023 135.03,89.092 L135.03,83.962 C134.573998,83.553998 134.145002,83.2660008 133.743,83.098 C133.340998,82.9299992 132.930002,82.846 132.51,82.846 C132.077998,82.846 131.676002,82.944999 131.304,83.143 C130.931998,83.341001 130.611001,83.6109983 130.341,83.953 C130.070999,84.2950017 129.858001,84.7029976 129.702,85.177 C129.545999,85.6510024 129.468,86.1579973 129.468,86.698 C129.468,87.2740029 129.530999,87.7959977 129.657,88.264 C129.783001,88.7320023 129.965999,89.1309983 130.206,89.461 C130.446001,89.7910016 130.742998,90.0489991 131.097,90.235 C131.451002,90.4210009 131.855998,90.514 132.312,90.514 Z M142.284,91.216 C141.767997,91.216 141.276002,91.114001 140.808,90.91 C140.339998,90.705999 139.929002,90.4120019 139.575,90.028 C139.220998,89.6439981 138.939001,89.1730028 138.729,88.615 C138.518999,88.0569972 138.414,87.4180036 138.414,86.698 C138.414,85.9779964 138.518999,85.3330028 138.729,84.763 C138.939001,84.1929971 139.220998,83.7160019 139.575,83.332 C139.929002,82.9479981 140.339998,82.654001 140.808,82.45 C141.276002,82.245999 141.767997,82.144 142.284,82.144 C142.800003,82.144 143.294998,82.245999 143.769,82.45 C144.243002,82.654001 144.656998,82.9479981 145.011,83.332 C145.365002,83.7160019 145.646999,84.1929971 145.857,84.763 C146.067001,85.3330028 146.172,85.9779964 146.172,86.698 C146.172,87.4180036 146.067001,88.0569972 145.857,88.615 C145.646999,89.1730028 145.365002,89.6439981 145.011,90.028 C144.656998,90.4120019 144.243002,90.705999 143.769,90.91 C143.294998,91.114001 142.800003,91.216 142.284,91.216 Z M142.284,90.514 C142.716002,90.514 143.120998,90.4210009 143.499,90.235 C143.877002,90.0489991 144.200999,89.7880017 144.471,89.452 C144.741001,89.1159983 144.953999,88.7140023 145.11,88.246 C145.266001,87.7779977 145.344,87.2620028 145.344,86.698 C145.344,86.1219971 145.266001,85.6000023 145.11,85.132 C144.953999,84.6639977 144.741001,84.2590017 144.471,83.917 C144.200999,83.5749983 143.877002,83.3110009 143.499,83.125 C143.120998,82.9389991 142.716002,82.846 142.284,82.846 C141.851998,82.846 141.450002,82.9389991 141.078,83.125 C140.705998,83.3110009 140.385001,83.5749983 140.115,83.917 C139.844999,84.2590017 139.632001,84.6639977 139.476,85.132 C139.319999,85.6000023 139.242,86.1219971 139.242,86.698 C139.242,87.2620028 139.319999,87.7779977 139.476,88.246 C139.632001,88.7140023 139.844999,89.1159983 140.115,89.452 C140.385001,89.7880017 140.705998,90.0489991 141.078,90.235 C141.450002,90.4210009 141.851998,90.514 142.284,90.514 Z M148.764,91 L148.764,82.36 L149.448,82.36 L149.52,83.692 L149.574,83.692 C150.018002,83.2479978 150.473998,82.8790015 150.942,82.585 C151.410002,82.2909985 151.943997,82.144 152.544,82.144 C153.444005,82.144 154.103998,82.4139973 154.524,82.954 C154.944002,83.4940027 155.154,84.3279944 155.154,85.456 L155.154,91 L154.362,91 L154.362,85.564 C154.362,84.6399954 154.209002,83.9590022 153.903,83.521 C153.596998,83.0829978 153.090004,82.864 152.382,82.864 C151.865997,82.864 151.398002,82.9989987 150.978,83.269 C150.557998,83.5390014 150.084003,83.9439973 149.556,84.484 L149.556,91 L148.764,91 Z M161.616,91.216 C161.063997,91.216 160.545002,91.114001 160.059,90.91 C159.572998,90.705999 159.150002,90.409002 158.79,90.019 C158.429998,89.6289981 158.145001,89.1550028 157.935,88.597 C157.724999,88.0389972 157.62,87.4060035 157.62,86.698 C157.62,85.9899965 157.724999,85.3540028 157.935,84.79 C158.145001,84.2259972 158.426998,83.7490019 158.781,83.359 C159.135002,82.968998 159.536998,82.6690011 159.987,82.459 C160.437002,82.248999 160.901998,82.144 161.382,82.144 C162.414005,82.144 163.223997,82.4919965 163.812,83.188 C164.400003,83.8840035 164.694,84.8679936 164.694,86.14 L164.694,86.464 C164.694,86.5720005 164.682,86.6799995 164.658,86.788 L158.43,86.788 C158.442,87.3280027 158.525999,87.8289977 158.682,88.291 C158.838001,88.7530023 159.056999,89.1489983 159.339,89.479 C159.621001,89.8090016 159.959998,90.0669991 160.356,90.253 C160.752002,90.4390009 161.195998,90.532 161.688,90.532 C162.156002,90.532 162.578998,90.4630007 162.957,90.325 C163.335002,90.1869993 163.685998,89.9980012 164.01,89.758 L164.334,90.37 C163.985998,90.574001 163.605002,90.7659991 163.191,90.946 C162.776998,91.1260009 162.252003,91.216 161.616,91.216 Z M158.43,86.14 L163.938,86.14 C163.938,85.0239944 163.710002,84.1930027 163.254,83.647 C162.797998,83.1009973 162.180004,82.828 161.4,82.828 C161.027998,82.828 160.674002,82.9029992 160.338,83.053 C160.001998,83.2030008 159.699001,83.4219986 159.429,83.71 C159.158999,83.9980014 158.937001,84.345998 158.763,84.754 C158.588999,85.162002 158.478,85.6239974 158.43,86.14 Z" id="Well-done" fill="#000000"></path>
                        <path d="M494.302,90 L494.666,87.004 L493.504,87.004 L493.504,86.5 L494.722,86.5 L495.016,84.12 L493.784,84.12 L493.784,83.616 L495.072,83.616 L495.422,80.9 L495.912,80.9 L495.562,83.616 L497.648,83.616 L498.012,80.9 L498.488,80.9 L498.138,83.616 L499.286,83.616 L499.286,84.12 L498.096,84.12 L497.802,86.5 L499.006,86.5 L499.006,87.004 L497.732,87.004 L497.382,90 L496.892,90 L497.242,87.004 L495.156,87.004 L494.792,90 L494.302,90 Z M495.212,86.5 L497.312,86.5 L497.606,84.12 L495.506,84.12 L495.212,86.5 Z M501.064,90 L501.064,80.774 L506.09,80.774 L506.09,81.334 L501.708,81.334 L501.708,85.002 L505.418,85.002 L505.418,85.562 L501.708,85.562 L501.708,90 L501.064,90 Z M510.724,90 L510.724,87.326 L506.608,87.326 L506.608,86.962 L510.766,81.054 L511.326,81.054 L511.326,86.794 L512.656,86.794 L512.656,87.326 L511.326,87.326 L511.326,90 L510.724,90 Z M507.364,86.794 L510.724,86.794 L510.724,83.518 C510.724,83.3126656 510.728667,83.0560015 510.738,82.748 C510.747333,82.4399985 510.761333,82.1833344 510.78,81.978 L510.724,81.978 C510.611999,82.1646676 510.495334,82.3466658 510.374,82.524 C510.252666,82.7013342 510.126667,82.8926656 509.996,83.098 L507.364,86.794 Z M514.448,90 L514.448,80.774 L519.474,80.774 L519.474,81.334 L515.092,81.334 L515.092,85.002 L518.802,85.002 L518.802,85.562 L515.092,85.562 L515.092,90 L514.448,90 Z M522.946,90.168 C522.591332,90.168 522.271668,90.1330004 521.987,90.063 C521.702332,89.9929997 521.445668,89.8996672 521.217,89.783 C520.988332,89.6663327 520.785334,89.5356674 520.608,89.391 C520.430666,89.2463326 520.272001,89.1040007 520.132,88.964 L520.482,88.53 C520.612667,88.6700007 520.757333,88.8053327 520.916,88.936 C521.074667,89.0666673 521.251999,89.1833328 521.448,89.286 C521.644001,89.3886672 521.863332,89.470333 522.106,89.531 C522.348668,89.591667 522.623998,89.622 522.932,89.622 C523.230668,89.622 523.515332,89.5636672 523.786,89.447 C524.056668,89.3303327 524.292332,89.167001 524.493,88.957 C524.693668,88.746999 524.854666,88.4950015 524.976,88.201 C525.097334,87.9069985 525.158,87.5780018 525.158,87.214 C525.158,86.4859964 524.962002,85.919002 524.57,85.513 C524.177998,85.106998 523.646003,84.904 522.974,84.904 C522.628665,84.904 522.332335,84.9576661 522.085,85.065 C521.837665,85.1723339 521.578668,85.3193324 521.308,85.506 L520.874,85.24 L521.196,81.054 L525.326,81.054 L525.326,81.6 L521.756,81.6 L521.476,84.834 C521.709334,84.6939993 521.951999,84.5796671 522.204,84.491 C522.456001,84.4023329 522.745332,84.358 523.072,84.358 C523.445335,84.358 523.799998,84.4139994 524.136,84.526 C524.472002,84.6380006 524.761332,84.8083322 525.004,85.037 C525.246668,85.2656678 525.440333,85.5596649 525.585,85.919 C525.729667,86.2783351 525.802,86.7006642 525.802,87.186 C525.802,87.6620024 525.720334,88.0843315 525.557,88.453 C525.393666,88.8216685 525.179001,89.134332 524.913,89.391 C524.646999,89.6476679 524.343668,89.8413327 524.003,89.972 C523.662332,90.1026673 523.310002,90.168 522.946,90.168 Z M527.832,90 L527.832,80.774 L532.858,80.774 L532.858,81.334 L528.476,81.334 L528.476,85.002 L532.186,85.002 L532.186,85.562 L528.476,85.562 L528.476,90 L527.832,90 Z M536.554,90.168 C536.143331,90.168 535.765335,90.1050006 535.42,89.979 C535.074665,89.8529994 534.776001,89.6803344 534.524,89.461 C534.271999,89.2416656 534.073667,88.9826682 533.929,88.684 C533.784333,88.3853318 533.712,88.0586684 533.712,87.704 C533.712,87.4053318 533.765666,87.1253346 533.873,86.864 C533.980334,86.6026654 534.120332,86.367001 534.293,86.157 C534.465668,85.9469989 534.656999,85.7603342 534.867,85.597 C535.077001,85.4336658 535.289332,85.2960006 535.504,85.184 L535.504,85.128 C535.335999,85.0159994 535.175001,84.892334 535.021,84.757 C534.866999,84.621666 534.731667,84.4676675 534.615,84.295 C534.498333,84.1223325 534.402667,83.9356677 534.328,83.735 C534.253333,83.5343323 534.216,83.3126679 534.216,83.07 C534.216,82.7526651 534.276666,82.458668 534.398,82.188 C534.519334,81.917332 534.684999,81.6863343 534.895,81.495 C535.105001,81.3036657 535.352332,81.1543339 535.637,81.047 C535.921668,80.9396661 536.227332,80.886 536.554,80.886 C536.936669,80.886 537.277332,80.9443328 537.576,81.061 C537.874668,81.1776672 538.128999,81.3409989 538.339,81.551 C538.549001,81.7610011 538.707666,82.0083319 538.815,82.293 C538.922334,82.5776681 538.976,82.8879983 538.976,83.224 C538.976,83.4666679 538.934,83.7023322 538.85,83.931 C538.766,84.1596678 538.661001,84.371999 538.535,84.568 C538.408999,84.764001 538.271334,84.9413325 538.122,85.1 C537.972666,85.2586675 537.832667,85.3893328 537.702,85.492 L537.702,85.548 C537.898001,85.6693339 538.089332,85.7999993 538.276,85.94 C538.462668,86.0800007 538.628333,86.2386658 538.773,86.416 C538.917667,86.5933342 539.036666,86.7986655 539.13,87.032 C539.223334,87.2653345 539.27,87.5313318 539.27,87.83 C539.27,88.1566683 539.204667,88.4623319 539.074,88.747 C538.943333,89.0316681 538.759001,89.278999 538.521,89.489 C538.282999,89.699001 537.996002,89.8646661 537.66,89.986 C537.323998,90.1073339 536.955335,90.168 536.554,90.168 Z M537.212,85.31 C537.594669,85.0019985 537.886332,84.6776684 538.087,84.337 C538.287668,83.9963316 538.388,83.630002 538.388,83.238 C538.388,82.9859987 538.346,82.7503344 538.262,82.531 C538.178,82.3116656 538.059001,82.1180008 537.905,81.95 C537.750999,81.7819992 537.559668,81.6490005 537.331,81.551 C537.102332,81.4529995 536.843335,81.404 536.554,81.404 C536.301999,81.404 536.071001,81.4459996 535.861,81.53 C535.650999,81.6140004 535.469001,81.7283326 535.315,81.873 C535.160999,82.0176674 535.042,82.1926656 534.958,82.398 C534.874,82.6033344 534.832,82.8273321 534.832,83.07 C534.832,83.3873349 534.899666,83.6603322 535.035,83.889 C535.170334,84.1176678 535.349999,84.3183325 535.574,84.491 C535.798001,84.6636675 536.052332,84.8153327 536.337,84.946 C536.621668,85.0766673 536.913332,85.1979994 537.212,85.31 Z M536.554,89.65 C536.871335,89.65 537.158332,89.6033338 537.415,89.51 C537.671668,89.4166662 537.890999,89.2860008 538.073,89.118 C538.255001,88.9499992 538.395,88.7540011 538.493,88.53 C538.591,88.3059989 538.64,88.0680013 538.64,87.816 C538.64,87.4706649 538.563001,87.1790012 538.409,86.941 C538.254999,86.7029988 538.049668,86.4930009 537.793,86.311 C537.536332,86.1289991 537.244668,85.970334 536.918,85.835 C536.591332,85.699666 536.255335,85.5620007 535.91,85.422 C535.452664,85.692668 535.074668,86.0123315 534.776,86.381 C534.477332,86.7496685 534.328,87.1813309 534.328,87.676 C534.328,87.9560014 534.383999,88.2149988 534.496,88.453 C534.608001,88.6910012 534.761999,88.8986658 534.958,89.076 C535.154001,89.2533342 535.387332,89.3933328 535.658,89.496 C535.928668,89.5986672 536.227332,89.65 536.554,89.65 Z" id="#F4F5F8" fill="#000000"></path>
                        <path d="M134.958,128.216 C134.225996,128.216 133.554003,128.072001 132.942,127.784 C132.329997,127.495999 131.805002,127.085003 131.367,126.551 C130.928998,126.016997 130.590001,125.369004 130.35,124.607 C130.109999,123.844996 129.99,122.990005 129.99,122.042 C129.99,121.105995 130.112999,120.260004 130.359,119.504 C130.605001,118.747996 130.949998,118.103003 131.394,117.569 C131.838002,117.034997 132.368997,116.627001 132.987,116.345 C133.605003,116.062999 134.291996,115.922 135.048,115.922 C135.744003,115.922 136.355997,116.065999 136.884,116.354 C137.412003,116.642001 137.831998,116.971998 138.144,117.344 L137.658,117.902 C137.333998,117.529998 136.956002,117.233001 136.524,117.011 C136.091998,116.788999 135.606003,116.678 135.066,116.678 C134.417997,116.678 133.833003,116.803999 133.311,117.056 C132.788997,117.308001 132.345002,117.664998 131.979,118.127 C131.612998,118.589002 131.334001,119.149997 131.142,119.81 C130.949999,120.470003 130.854,121.213996 130.854,122.042 C130.854,122.870004 130.949999,123.616997 131.142,124.283 C131.334001,124.949003 131.609998,125.515998 131.97,125.984 C132.330002,126.452002 132.764997,126.814999 133.275,127.073 C133.785003,127.331001 134.357997,127.46 134.994,127.46 C135.606003,127.46 136.151998,127.337001 136.632,127.091 C137.112002,126.844999 137.567998,126.482002 138,126.002 L138.486,126.524 C138.029998,127.052003 137.520003,127.465998 136.956,127.766 C136.391997,128.066001 135.726004,128.216 134.958,128.216 Z M140.808,128 L140.808,115.058 L141.6,115.058 L141.6,120.71 C142.056002,120.253998 142.517998,119.879001 142.986,119.585 C143.454002,119.290999 143.987997,119.144 144.588,119.144 C145.488004,119.144 146.147998,119.413997 146.568,119.954 C146.988002,120.494003 147.198,121.327994 147.198,122.456 L147.198,128 L146.406,128 L146.406,122.564 C146.406,121.639995 146.253002,120.959002 145.947,120.521 C145.640998,120.082998 145.134004,119.864 144.426,119.864 C143.909997,119.864 143.442002,119.998999 143.022,120.269 C142.601998,120.539001 142.128003,120.943997 141.6,121.484 L141.6,128 L140.808,128 Z M152.202,128.216 C151.853998,128.216 151.530001,128.168 151.23,128.072 C150.929999,127.976 150.666001,127.832001 150.438,127.64 C150.209999,127.447999 150.030001,127.202001 149.898,126.902 C149.765999,126.601999 149.7,126.248002 149.7,125.84 C149.7,124.879995 150.146996,124.151002 151.041,123.653 C151.935004,123.154998 153.34799,122.798001 155.28,122.582 C155.28,122.257998 155.256,121.931002 155.208,121.601 C155.16,121.270998 155.058001,120.977001 154.902,120.719 C154.745999,120.460999 154.536001,120.251001 154.272,120.089 C154.007999,119.926999 153.660002,119.846 153.228,119.846 C152.651997,119.846 152.124002,119.959999 151.644,120.188 C151.163998,120.416001 150.774001,120.637999 150.474,120.854 L150.114,120.26 C150.270001,120.151999 150.458999,120.032001 150.681,119.9 C150.903001,119.767999 151.151999,119.648001 151.428,119.54 C151.704001,119.431999 152.003998,119.339 152.328,119.261 C152.652002,119.183 152.987998,119.144 153.336,119.144 C153.840003,119.144 154.265998,119.230999 154.614,119.405 C154.962002,119.579001 155.243999,119.815999 155.46,120.116 C155.676001,120.416001 155.832,120.766998 155.928,121.169 C156.024,121.571002 156.072,122.005998 156.072,122.474 L156.072,128 L155.388,128 L155.316,126.884 L155.262,126.884 C154.817998,127.232002 154.341003,127.540999 153.831,127.811 C153.320997,128.081001 152.778003,128.216 152.202,128.216 Z M152.346,127.532 C152.850003,127.532 153.329998,127.412001 153.786,127.172 C154.242002,126.931999 154.739997,126.584002 155.28,126.128 L155.28,123.194 C154.391996,123.302001 153.642003,123.433999 153.03,123.59 C152.417997,123.746001 151.926002,123.931999 151.554,124.148 C151.181998,124.364001 150.915001,124.609999 150.753,124.886 C150.590999,125.162001 150.51,125.467998 150.51,125.804 C150.51,126.116002 150.558,126.379999 150.654,126.596 C150.75,126.812001 150.881999,126.988999 151.05,127.127 C151.218001,127.265001 151.412999,127.367 151.635,127.433 C151.857001,127.499 152.093999,127.532 152.346,127.532 Z M159.15,128 L159.15,119.36 L159.834,119.36 L159.906,120.962 L159.96,120.962 C160.248001,120.421997 160.598998,119.984002 161.013,119.648 C161.427002,119.311998 161.891997,119.144 162.408,119.144 C162.576001,119.144 162.725999,119.156 162.858,119.18 C162.990001,119.204 163.127999,119.252 163.272,119.324 L163.092,120.044 C162.947999,119.984 162.822001,119.945 162.714,119.927 C162.605999,119.909 162.468001,119.9 162.3,119.9 C161.915998,119.9 161.511002,120.064998 161.085,120.395 C160.658998,120.725002 160.278002,121.297996 159.942,122.114 L159.942,128 L159.15,128 Z M164.856,128 L164.856,119.36 L165.54,119.36 L165.612,120.962 L165.666,120.962 C165.954001,120.421997 166.304998,119.984002 166.719,119.648 C167.133002,119.311998 167.597997,119.144 168.114,119.144 C168.282001,119.144 168.431999,119.156 168.564,119.18 C168.696001,119.204 168.833999,119.252 168.978,119.324 L168.798,120.044 C168.653999,119.984 168.528001,119.945 168.42,119.927 C168.311999,119.909 168.174001,119.9 168.006,119.9 C167.621998,119.9 167.217002,120.064998 166.791,120.395 C166.364998,120.725002 165.984002,121.297996 165.648,122.114 L165.648,128 L164.856,128 Z M173.658,128.216 C173.105997,128.216 172.587002,128.114001 172.101,127.91 C171.614998,127.705999 171.192002,127.409002 170.832,127.019 C170.471998,126.628998 170.187001,126.155003 169.977,125.597 C169.766999,125.038997 169.662,124.406004 169.662,123.698 C169.662,122.989996 169.766999,122.354003 169.977,121.79 C170.187001,121.225997 170.468998,120.749002 170.823,120.359 C171.177002,119.968998 171.578998,119.669001 172.029,119.459 C172.479002,119.248999 172.943998,119.144 173.424,119.144 C174.456005,119.144 175.265997,119.491997 175.854,120.188 C176.442003,120.884003 176.736,121.867994 176.736,123.14 L176.736,123.464 C176.736,123.572001 176.724,123.679999 176.7,123.788 L170.472,123.788 C170.484,124.328003 170.567999,124.828998 170.724,125.291 C170.880001,125.753002 171.098999,126.148998 171.381,126.479 C171.663001,126.809002 172.001998,127.066999 172.398,127.253 C172.794002,127.439001 173.237998,127.532 173.73,127.532 C174.198002,127.532 174.620998,127.463001 174.999,127.325 C175.377002,127.186999 175.727998,126.998001 176.052,126.758 L176.376,127.37 C176.027998,127.574001 175.647002,127.765999 175.233,127.946 C174.818998,128.126001 174.294003,128.216 173.658,128.216 Z M170.472,123.14 L175.98,123.14 C175.98,122.023994 175.752002,121.193003 175.296,120.647 C174.839998,120.100997 174.222004,119.828 173.442,119.828 C173.069998,119.828 172.716002,119.902999 172.38,120.053 C172.043998,120.203001 171.741001,120.421999 171.471,120.71 C171.200999,120.998001 170.979001,121.345998 170.805,121.754 C170.630999,122.162002 170.52,122.623997 170.472,123.14 Z M181.938,128.216 C180.845995,128.216 179.976003,127.829004 179.328,127.055 C178.679997,126.280996 178.356,125.162007 178.356,123.698 C178.356,123.001997 178.457999,122.372003 178.662,121.808 C178.866001,121.243997 179.144998,120.764002 179.499,120.368 C179.853002,119.971998 180.260998,119.669001 180.723,119.459 C181.185002,119.248999 181.673997,119.144 182.19,119.144 C182.718003,119.144 183.176998,119.236999 183.567,119.423 C183.957002,119.609001 184.367998,119.869998 184.8,120.206 L184.764,118.622 L184.764,115.058 L185.556,115.058 L185.556,128 L184.872,128 L184.8,126.884 L184.746,126.884 C184.397998,127.232002 183.987002,127.540999 183.513,127.811 C183.038998,128.081001 182.514003,128.216 181.938,128.216 Z M182.046,127.514 C182.526002,127.514 182.984998,127.391001 183.423,127.145 C183.861002,126.898999 184.307998,126.548002 184.764,126.092 L184.764,120.962 C184.307998,120.553998 183.879002,120.266001 183.477,120.098 C183.074998,119.929999 182.664002,119.846 182.244,119.846 C181.811998,119.846 181.410002,119.944999 181.038,120.143 C180.665998,120.341001 180.345001,120.610998 180.075,120.953 C179.804999,121.295002 179.592001,121.702998 179.436,122.177 C179.279999,122.651002 179.202,123.157997 179.202,123.698 C179.202,124.274003 179.264999,124.795998 179.391,125.264 C179.517001,125.732002 179.699999,126.130998 179.94,126.461 C180.180001,126.791002 180.476998,127.048999 180.831,127.235 C181.185002,127.421001 181.589998,127.514 182.046,127.514 Z" id="Charred" fill="#FFFFFF"></path>
                        <path d="M528.302,127 L528.666,124.004 L527.504,124.004 L527.504,123.5 L528.722,123.5 L529.016,121.12 L527.784,121.12 L527.784,120.616 L529.072,120.616 L529.422,117.9 L529.912,117.9 L529.562,120.616 L531.648,120.616 L532.012,117.9 L532.488,117.9 L532.138,120.616 L533.286,120.616 L533.286,121.12 L532.096,121.12 L531.802,123.5 L533.006,123.5 L533.006,124.004 L531.732,124.004 L531.382,127 L530.892,127 L531.242,124.004 L529.156,124.004 L528.792,127 L528.302,127 Z M529.212,123.5 L531.312,123.5 L531.606,121.12 L529.506,121.12 L529.212,123.5 Z M537.36,127.168 C536.454662,127.168 535.740669,126.804004 535.218,126.076 C534.695331,125.347996 534.434,124.302673 534.434,122.94 C534.434,122.006662 534.524999,121.218003 534.707,120.574 C534.889001,119.929997 535.131665,119.407335 535.435,119.006 C535.738335,118.604665 536.088331,118.317668 536.485,118.145 C536.881669,117.972332 537.294665,117.886 537.724,117.886 C538.144002,117.886 538.505665,117.965333 538.809,118.124 C539.112335,118.282667 539.380665,118.492665 539.614,118.754 L539.236,119.174 C539.039999,118.931332 538.811335,118.747001 538.55,118.621 C538.288665,118.494999 538.013335,118.432 537.724,118.432 C537.369332,118.432 537.031002,118.508999 536.709,118.663 C536.386998,118.817001 536.104668,119.066665 535.862,119.412 C535.619332,119.757335 535.425667,120.212331 535.281,120.777 C535.136333,121.341669 535.064,122.029996 535.064,122.842 C535.372002,122.459331 535.719665,122.156001 536.107,121.932 C536.494335,121.707999 536.897998,121.596 537.318,121.596 C538.111337,121.596 538.724998,121.831664 539.159,122.303 C539.593002,122.774336 539.81,123.462662 539.81,124.368 C539.81,124.778669 539.744667,125.154332 539.614,125.495 C539.483333,125.835668 539.306001,126.129665 539.082,126.377 C538.857999,126.624335 538.599001,126.817999 538.305,126.958 C538.010999,127.098001 537.696002,127.168 537.36,127.168 Z M537.374,126.636 C537.635335,126.636 537.875666,126.577667 538.095,126.461 C538.314334,126.344333 538.503333,126.183334 538.662,125.978 C538.820667,125.772666 538.946666,125.532335 539.04,125.257 C539.133334,124.981665 539.18,124.685335 539.18,124.368 C539.18,124.050665 539.142667,123.754335 539.068,123.479 C538.993333,123.203665 538.879001,122.965668 538.725,122.765 C538.570999,122.564332 538.370335,122.408001 538.123,122.296 C537.875665,122.183999 537.584002,122.128 537.248,122.128 C536.930665,122.128 536.580669,122.228332 536.198,122.429 C535.815331,122.629668 535.442002,122.977331 535.078,123.472 C535.106,123.948002 535.173666,124.379665 535.281,124.767 C535.388334,125.154335 535.535332,125.485665 535.722,125.761 C535.908668,126.036335 536.139665,126.250999 536.415,126.405 C536.690335,126.559001 537.009998,126.636 537.374,126.636 Z M543.66,127.168 C543.305332,127.168 542.983335,127.130667 542.694,127.056 C542.404665,126.981333 542.145668,126.883334 541.917,126.762 C541.688332,126.640666 541.483001,126.505334 541.301,126.356 C541.118999,126.206666 540.958001,126.057334 540.818,125.908 L541.182,125.474 C541.312667,125.623334 541.457333,125.765666 541.616,125.901 C541.774667,126.036334 541.954332,126.157666 542.155,126.265 C542.355668,126.372334 542.579665,126.458666 542.827,126.524 C543.074335,126.589334 543.351998,126.622 543.66,126.622 C543.958668,126.622 544.236332,126.575334 544.493,126.482 C544.749668,126.388666 544.971332,126.255668 545.158,126.083 C545.344668,125.910332 545.489333,125.702668 545.592,125.46 C545.694667,125.217332 545.746,124.946668 545.746,124.648 C545.746,124.339998 545.687667,124.060001 545.571,123.808 C545.454333,123.555999 545.272335,123.339001 545.025,123.157 C544.777665,122.974999 544.455669,122.832667 544.059,122.73 C543.662331,122.627333 543.184003,122.576 542.624,122.576 L542.624,122.03 C543.137336,122.03 543.573665,121.978667 543.933,121.876 C544.292335,121.773333 544.581666,121.635668 544.801,121.463 C545.020334,121.290332 545.179,121.085001 545.277,120.847 C545.375,120.608999 545.424,120.354668 545.424,120.084 C545.424,119.579997 545.260668,119.176335 544.934,118.873 C544.607332,118.569665 544.168669,118.418 543.618,118.418 C543.197998,118.418 542.815335,118.513666 542.47,118.705 C542.124665,118.896334 541.821335,119.127332 541.56,119.398 L541.196,118.978 C541.504002,118.679332 541.853998,118.422668 542.246,118.208 C542.638002,117.993332 543.095331,117.886 543.618,117.886 C543.963335,117.886 544.285332,117.935 544.584,118.033 C544.882668,118.131 545.141666,118.270999 545.361,118.453 C545.580334,118.635001 545.752999,118.858999 545.879,119.125 C546.005001,119.391001 546.068,119.696665 546.068,120.042 C546.068,120.630003 545.907002,121.103665 545.585,121.463 C545.262998,121.822335 544.854669,122.085999 544.36,122.254 L544.36,122.31 C544.640001,122.366 544.901332,122.461666 545.144,122.597 C545.386668,122.732334 545.601332,122.897999 545.788,123.094 C545.974668,123.290001 546.121666,123.516332 546.229,123.773 C546.336334,124.029668 546.39,124.316665 546.39,124.634 C546.39,125.026002 546.320001,125.378332 546.18,125.691 C546.039999,126.003668 545.846335,126.269666 545.599,126.489 C545.351665,126.708334 545.062335,126.876333 544.731,126.993 C544.399665,127.109667 544.042669,127.168 543.66,127.168 Z M550.772,127.168 C549.866662,127.168 549.152669,126.804004 548.63,126.076 C548.107331,125.347996 547.846,124.302673 547.846,122.94 C547.846,122.006662 547.936999,121.218003 548.119,120.574 C548.301001,119.929997 548.543665,119.407335 548.847,119.006 C549.150335,118.604665 549.500331,118.317668 549.897,118.145 C550.293669,117.972332 550.706665,117.886 551.136,117.886 C551.556002,117.886 551.917665,117.965333 552.221,118.124 C552.524335,118.282667 552.792665,118.492665 553.026,118.754 L552.648,119.174 C552.451999,118.931332 552.223335,118.747001 551.962,118.621 C551.700665,118.494999 551.425335,118.432 551.136,118.432 C550.781332,118.432 550.443002,118.508999 550.121,118.663 C549.798998,118.817001 549.516668,119.066665 549.274,119.412 C549.031332,119.757335 548.837667,120.212331 548.693,120.777 C548.548333,121.341669 548.476,122.029996 548.476,122.842 C548.784002,122.459331 549.131665,122.156001 549.519,121.932 C549.906335,121.707999 550.309998,121.596 550.73,121.596 C551.523337,121.596 552.136998,121.831664 552.571,122.303 C553.005002,122.774336 553.222,123.462662 553.222,124.368 C553.222,124.778669 553.156667,125.154332 553.026,125.495 C552.895333,125.835668 552.718001,126.129665 552.494,126.377 C552.269999,126.624335 552.011001,126.817999 551.717,126.958 C551.422999,127.098001 551.108002,127.168 550.772,127.168 Z M550.786,126.636 C551.047335,126.636 551.287666,126.577667 551.507,126.461 C551.726334,126.344333 551.915333,126.183334 552.074,125.978 C552.232667,125.772666 552.358666,125.532335 552.452,125.257 C552.545334,124.981665 552.592,124.685335 552.592,124.368 C552.592,124.050665 552.554667,123.754335 552.48,123.479 C552.405333,123.203665 552.291001,122.965668 552.137,122.765 C551.982999,122.564332 551.782335,122.408001 551.535,122.296 C551.287665,122.183999 550.996002,122.128 550.66,122.128 C550.342665,122.128 549.992669,122.228332 549.61,122.429 C549.227331,122.629668 548.854002,122.977331 548.49,123.472 C548.518,123.948002 548.585666,124.379665 548.693,124.767 C548.800334,125.154335 548.947332,125.485665 549.134,125.761 C549.320668,126.036335 549.551665,126.250999 549.827,126.405 C550.102335,126.559001 550.421998,126.636 550.786,126.636 Z M555.182,127 L555.182,117.774 L557.674,117.774 C558.607338,117.774 559.349331,117.953665 559.9,118.313 C560.450669,118.672335 560.726,119.239329 560.726,120.014 C560.726,120.499336 560.604668,120.921665 560.362,121.281 C560.119332,121.640335 559.764669,121.889999 559.298,122.03 L559.298,122.086 C559.895336,122.188667 560.375998,122.424331 560.74,122.793 C561.104002,123.161669 561.286,123.667997 561.286,124.312 C561.286,124.760002 561.204334,125.151998 561.041,125.488 C560.877666,125.824002 560.646668,126.103999 560.348,126.328 C560.049332,126.552001 559.690002,126.719999 559.27,126.832 C558.849998,126.944001 558.378669,127 557.856,127 L555.182,127 Z M555.826,121.834 L557.422,121.834 C558.364671,121.834 559.043665,121.677668 559.459,121.365 C559.874335,121.052332 560.082,120.625336 560.082,120.084 C560.082,119.430663 559.862669,118.971001 559.424,118.705 C558.985331,118.438999 558.341338,118.306 557.492,118.306 L555.826,118.306 L555.826,121.834 Z M555.826,126.468 L557.688,126.468 C558.612005,126.468 559.337664,126.295335 559.865,125.95 C560.392336,125.604665 560.656,125.063337 560.656,124.326 C560.656,123.653997 560.399336,123.159335 559.886,122.842 C559.372664,122.524665 558.640005,122.366 557.688,122.366 L555.826,122.366 L555.826,126.468 Z M564.548,127 C564.585334,126.094662 564.662333,125.266337 564.779,124.515 C564.895667,123.763663 565.061332,123.054337 565.276,122.387 C565.490668,121.719663 565.761332,121.080336 566.088,120.469 C566.414668,119.857664 566.801998,119.23467 567.25,118.6 L562.532,118.6 L562.532,118.054 L568.034,118.054 L568.034,118.418 C567.501997,119.127337 567.061002,119.808663 566.711,120.462 C566.360998,121.115337 566.081001,121.78033 565.871,122.457 C565.660999,123.13367 565.509334,123.840663 565.416,124.578 C565.322666,125.315337 565.257334,126.122662 565.22,127 L564.548,127 Z M571.968,127.168 C571.109329,127.168 570.449002,126.764337 569.987,125.957 C569.524998,125.149663 569.294,123.994674 569.294,122.492 C569.294,120.998659 569.524998,119.857671 569.987,119.069 C570.449002,118.280329 571.109329,117.886 571.968,117.886 C572.826671,117.886 573.486998,118.280329 573.949,119.069 C574.411002,119.857671 574.642,120.998659 574.642,122.492 C574.642,123.994674 574.411002,125.149663 573.949,125.957 C573.486998,126.764337 572.826671,127.168 571.968,127.168 Z M571.968,126.636 C572.593336,126.636 573.090331,126.288337 573.459,125.593 C573.827669,124.897663 574.012,123.864007 574.012,122.492 C574.012,121.119993 573.827669,120.098003 573.459,119.426 C573.090331,118.753997 572.593336,118.418 571.968,118.418 C571.351997,118.418 570.857335,118.753997 570.484,119.426 C570.110665,120.098003 569.924,121.119993 569.924,122.492 C569.924,123.864007 570.110665,124.897663 570.484,125.593 C570.857335,126.288337 571.351997,126.636 571.968,126.636 Z" id="#636B70" fill="#FFFFFF"></path>
                        <path d="M59.746,54 L59.746,42.138 L60.916,42.138 L63.4,49.104 C63.5560008,49.5360022 63.7119992,49.9709978 63.868,50.409 C64.0240008,50.8470022 64.1799992,51.2879978 64.336,51.732 L64.408,51.732 C64.5640008,51.2879978 64.7139993,50.8470022 64.858,50.409 C65.0020007,49.9709978 65.1519992,49.5360022 65.308,49.104 L67.774,42.138 L68.962,42.138 L68.962,54 L68.152,54 L68.152,46.206 C68.152,45.7139975 68.1639999,45.1830028 68.188,44.613 C68.2120001,44.0429971 68.2359999,43.5060025 68.26,43.002 L68.188,43.002 L67.27,45.648 L64.714,52.704 L63.994,52.704 L61.42,45.648 L60.484,43.002 L60.412,43.002 C60.4360001,43.5060025 60.4599999,44.0429971 60.484,44.613 C60.5080001,45.1830028 60.52,45.7139975 60.52,46.206 L60.52,54 L59.746,54 Z M75.64,54.216 C75.0879972,54.216 74.5690024,54.114001 74.083,53.91 C73.5969976,53.705999 73.1740018,53.409002 72.814,53.019 C72.4539982,52.628998 72.1690011,52.1550028 71.959,51.597 C71.748999,51.0389972 71.644,50.4060035 71.644,49.698 C71.644,48.9899965 71.748999,48.3540028 71.959,47.79 C72.1690011,47.2259972 72.4509982,46.749002 72.805,46.359 C73.1590018,45.968998 73.5609977,45.669001 74.011,45.459 C74.4610023,45.248999 74.9259976,45.144 75.406,45.144 C76.4380052,45.144 77.2479971,45.4919965 77.836,46.188 C78.4240029,46.8840035 78.718,47.8679936 78.718,49.14 L78.718,49.464 C78.718,49.5720005 78.7060001,49.6799995 78.682,49.788 L72.454,49.788 C72.4660001,50.3280027 72.5499992,50.8289977 72.706,51.291 C72.8620008,51.7530023 73.0809986,52.1489983 73.363,52.479 C73.6450014,52.8090016 73.983998,53.0669991 74.38,53.253 C74.776002,53.4390009 75.2199975,53.532 75.712,53.532 C76.1800023,53.532 76.6029981,53.4630007 76.981,53.325 C77.3590019,53.1869993 77.7099984,52.9980012 78.034,52.758 L78.358,53.37 C78.0099983,53.574001 77.6290021,53.7659991 77.215,53.946 C76.8009979,54.1260009 76.2760032,54.216 75.64,54.216 Z M72.454,49.14 L77.962,49.14 C77.962,48.0239944 77.7340023,47.1930027 77.278,46.647 C76.8219977,46.1009973 76.2040039,45.828 75.424,45.828 C75.0519981,45.828 74.6980017,45.9029993 74.362,46.053 C74.0259983,46.2030008 73.7230014,46.4219986 73.453,46.71 C73.1829987,46.9980014 72.9610009,47.345998 72.787,47.754 C72.6129991,48.162002 72.5020002,48.6239974 72.454,49.14 Z M83.92,54.216 C82.8279945,54.216 81.9580032,53.8290039 81.31,53.055 C80.6619968,52.2809961 80.338,51.1620073 80.338,49.698 C80.338,49.0019965 80.439999,48.3720028 80.644,47.808 C80.848001,47.2439972 81.1269982,46.764002 81.481,46.368 C81.8350018,45.971998 82.2429977,45.669001 82.705,45.459 C83.1670023,45.248999 83.6559974,45.144 84.172,45.144 C84.7000026,45.144 85.1589981,45.2369991 85.549,45.423 C85.939002,45.6090009 86.3499978,45.8699983 86.782,46.206 L86.746,44.622 L86.746,41.058 L87.538,41.058 L87.538,54 L86.854,54 L86.782,52.884 L86.728,52.884 C86.3799983,53.2320017 85.9690024,53.5409986 85.495,53.811 C85.0209976,54.0810014 84.4960029,54.216 83.92,54.216 Z M84.028,53.514 C84.5080024,53.514 84.9669978,53.3910012 85.405,53.145 C85.8430022,52.8989988 86.2899977,52.5480023 86.746,52.092 L86.746,46.962 C86.2899977,46.553998 85.861002,46.2660008 85.459,46.098 C85.056998,45.9299992 84.6460021,45.846 84.226,45.846 C83.7939978,45.846 83.3920019,45.944999 83.02,46.143 C82.6479981,46.341001 82.3270014,46.6109983 82.057,46.953 C81.7869987,47.2950017 81.5740008,47.7029976 81.418,48.177 C81.2619992,48.6510024 81.184,49.1579973 81.184,49.698 C81.184,50.2740029 81.2469994,50.7959977 81.373,51.264 C81.4990006,51.7320023 81.6819988,52.1309983 81.922,52.461 C82.1620012,52.7910016 82.4589982,53.0489991 82.813,53.235 C83.1670018,53.4210009 83.5719977,53.514 84.028,53.514 Z M90.85,54 L90.85,45.36 L91.642,45.36 L91.642,54 L90.85,54 Z M91.264,43.272 C91.059999,43.272 90.8890007,43.2060007 90.751,43.074 C90.6129993,42.9419993 90.544,42.774001 90.544,42.57 C90.544,42.3419989 90.6129993,42.1650006 90.751,42.039 C90.8890007,41.9129994 91.059999,41.85 91.264,41.85 C91.468001,41.85 91.6389993,41.9129994 91.777,42.039 C91.9150007,42.1650006 91.984,42.3419989 91.984,42.57 C91.984,42.774001 91.9150007,42.9419993 91.777,43.074 C91.6389993,43.2060007 91.468001,43.272 91.264,43.272 Z M97.456,54.216 C96.5559955,54.216 95.8960021,53.9460027 95.476,53.406 C95.0559979,52.8659973 94.846,52.0320056 94.846,50.904 L94.846,45.36 L95.638,45.36 L95.638,50.796 C95.638,51.7200046 95.7909985,52.4009978 96.097,52.839 C96.4030015,53.2770022 96.9039965,53.496 97.6,53.496 C98.1160026,53.496 98.5839979,53.3550014 99.004,53.073 C99.4240021,52.7909986 99.8859975,52.3440031 100.39,51.732 L100.39,45.36 L101.182,45.36 L101.182,54 L100.516,54 L100.426,52.56 L100.39,52.56 C99.9699979,53.0640025 99.5260023,53.4659985 99.058,53.766 C98.5899977,54.0660015 98.056003,54.216 97.456,54.216 Z M104.494,54 L104.494,45.36 L105.178,45.36 L105.25,46.692 L105.304,46.692 C105.688002,46.2479978 106.116998,45.8790015 106.591,45.585 C107.065002,45.2909985 107.541998,45.144 108.022,45.144 C108.718003,45.144 109.251998,45.3029984 109.624,45.621 C109.996002,45.9390016 110.259999,46.3679973 110.416,46.908 C110.920003,46.3679973 111.408998,45.9390016 111.883,45.621 C112.357002,45.3029984 112.845997,45.144 113.35,45.144 C115.078009,45.144 115.942,46.247989 115.942,48.456 L115.942,54 L115.132,54 L115.132,48.564 C115.132,47.6399954 114.976002,46.9590022 114.664,46.521 C114.351998,46.0829978 113.866003,45.864 113.206,45.864 C112.425996,45.864 111.562005,46.4039946 110.614,47.484 L110.614,54 L109.822,54 L109.822,48.564 C109.822,47.6399954 109.666002,46.9590022 109.354,46.521 C109.041998,46.0829978 108.550003,45.864 107.878,45.864 C107.097996,45.864 106.234005,46.4039946 105.286,47.484 L105.286,54 L104.494,54 Z" id="Medium" fill="#000000"></path>
                        <path d="M461.302,53 L461.666,50.004 L460.504,50.004 L460.504,49.5 L461.722,49.5 L462.016,47.12 L460.784,47.12 L460.784,46.616 L462.072,46.616 L462.422,43.9 L462.912,43.9 L462.562,46.616 L464.648,46.616 L465.012,43.9 L465.488,43.9 L465.138,46.616 L466.286,46.616 L466.286,47.12 L465.096,47.12 L464.802,49.5 L466.006,49.5 L466.006,50.004 L464.732,50.004 L464.382,53 L463.892,53 L464.242,50.004 L462.156,50.004 L461.792,53 L461.302,53 Z M462.212,49.5 L464.312,49.5 L464.606,47.12 L462.506,47.12 L462.212,49.5 Z M468.064,53 L468.064,43.774 L473.09,43.774 L473.09,44.334 L468.708,44.334 L468.708,48.002 L472.418,48.002 L472.418,48.562 L468.708,48.562 L468.708,53 L468.064,53 Z M476.548,48.926 C476.874668,48.926 477.233998,48.8186677 477.626,48.604 C478.018002,48.3893323 478.381998,48.0440024 478.718,47.568 C478.69,47.0919976 478.622334,46.6603353 478.515,46.273 C478.407666,45.8856647 478.258334,45.5543347 478.067,45.279 C477.875666,45.0036653 477.642335,44.7913341 477.367,44.642 C477.091665,44.4926659 476.772002,44.418 476.408,44.418 C476.155999,44.418 475.918001,44.4763327 475.694,44.593 C475.469999,44.7096673 475.278667,44.8683323 475.12,45.069 C474.961333,45.2696677 474.835334,45.5076653 474.742,45.783 C474.648666,46.0583347 474.602,46.3546651 474.602,46.672 C474.602,46.9986683 474.639333,47.2996653 474.714,47.575 C474.788667,47.8503347 474.905333,48.0883323 475.064,48.289 C475.222667,48.4896677 475.423332,48.6459994 475.666,48.758 C475.908668,48.8700006 476.202665,48.926 476.548,48.926 Z M476.058,53.168 C475.637998,53.168 475.274002,53.0886675 474.966,52.93 C474.657998,52.7713325 474.392001,52.5613346 474.168,52.3 L474.546,51.88 C474.742001,52.1226679 474.970665,52.3069994 475.232,52.433 C475.493335,52.5590006 475.773332,52.622 476.072,52.622 C476.426668,52.622 476.764998,52.5450008 477.087,52.391 C477.409002,52.2369992 477.691332,51.9873351 477.934,51.642 C478.176668,51.2966649 478.370333,50.8416695 478.515,50.277 C478.659667,49.7123305 478.732,49.0240041 478.732,48.212 C478.423998,48.5853352 478.074002,48.8839989 477.682,49.108 C477.289998,49.3320011 476.884002,49.444 476.464,49.444 C475.679996,49.444 475.071002,49.2083357 474.637,48.737 C474.202998,48.2656643 473.986,47.5773379 473.986,46.672 C473.986,46.2706647 474.051333,45.8973351 474.182,45.552 C474.312667,45.2066649 474.489999,44.9126679 474.714,44.67 C474.938001,44.4273321 475.196999,44.2360007 475.491,44.096 C475.785001,43.9559993 476.099998,43.886 476.436,43.886 C477.332004,43.886 478.041331,44.247663 478.564,44.971 C479.086669,45.694337 479.348,46.7373265 479.348,48.1 C479.348,49.0426714 479.257001,49.8359968 479.075,50.48 C478.892999,51.1240032 478.652668,51.6443314 478.354,52.041 C478.055332,52.4376686 477.705335,52.7246658 477.304,52.902 C476.902665,53.0793342 476.487335,53.168 476.058,53.168 Z M481.448,53 L481.448,43.774 L486.474,43.774 L486.474,44.334 L482.092,44.334 L482.092,48.002 L485.802,48.002 L485.802,48.562 L482.092,48.562 L482.092,53 L481.448,53 Z M489.932,48.926 C490.258668,48.926 490.617998,48.8186677 491.01,48.604 C491.402002,48.3893323 491.765998,48.0440024 492.102,47.568 C492.074,47.0919976 492.006334,46.6603353 491.899,46.273 C491.791666,45.8856647 491.642334,45.5543347 491.451,45.279 C491.259666,45.0036653 491.026335,44.7913341 490.751,44.642 C490.475665,44.4926659 490.156002,44.418 489.792,44.418 C489.539999,44.418 489.302001,44.4763327 489.078,44.593 C488.853999,44.7096673 488.662667,44.8683323 488.504,45.069 C488.345333,45.2696677 488.219334,45.5076653 488.126,45.783 C488.032666,46.0583347 487.986,46.3546651 487.986,46.672 C487.986,46.9986683 488.023333,47.2996653 488.098,47.575 C488.172667,47.8503347 488.289333,48.0883323 488.448,48.289 C488.606667,48.4896677 488.807332,48.6459994 489.05,48.758 C489.292668,48.8700006 489.586665,48.926 489.932,48.926 Z M489.442,53.168 C489.021998,53.168 488.658002,53.0886675 488.35,52.93 C488.041998,52.7713325 487.776001,52.5613346 487.552,52.3 L487.93,51.88 C488.126001,52.1226679 488.354665,52.3069994 488.616,52.433 C488.877335,52.5590006 489.157332,52.622 489.456,52.622 C489.810668,52.622 490.148998,52.5450008 490.471,52.391 C490.793002,52.2369992 491.075332,51.9873351 491.318,51.642 C491.560668,51.2966649 491.754333,50.8416695 491.899,50.277 C492.043667,49.7123305 492.116,49.0240041 492.116,48.212 C491.807998,48.5853352 491.458002,48.8839989 491.066,49.108 C490.673998,49.3320011 490.268002,49.444 489.848,49.444 C489.063996,49.444 488.455002,49.2083357 488.021,48.737 C487.586998,48.2656643 487.37,47.5773379 487.37,46.672 C487.37,46.2706647 487.435333,45.8973351 487.566,45.552 C487.696667,45.2066649 487.873999,44.9126679 488.098,44.67 C488.322001,44.4273321 488.580999,44.2360007 488.875,44.096 C489.169001,43.9559993 489.483998,43.886 489.82,43.886 C490.716004,43.886 491.425331,44.247663 491.948,44.971 C492.470669,45.694337 492.732,46.7373265 492.732,48.1 C492.732,49.0426714 492.641001,49.8359968 492.459,50.48 C492.276999,51.1240032 492.036668,51.6443314 491.738,52.041 C491.439332,52.4376686 491.089335,52.7246658 490.688,52.902 C490.286665,53.0793342 489.871335,53.168 489.442,53.168 Z M494.832,53 L494.832,43.774 L499.858,43.774 L499.858,44.334 L495.476,44.334 L495.476,48.002 L499.186,48.002 L499.186,48.562 L495.476,48.562 L495.476,53 L494.832,53 Z M503.316,48.926 C503.642668,48.926 504.001998,48.8186677 504.394,48.604 C504.786002,48.3893323 505.149998,48.0440024 505.486,47.568 C505.458,47.0919976 505.390334,46.6603353 505.283,46.273 C505.175666,45.8856647 505.026334,45.5543347 504.835,45.279 C504.643666,45.0036653 504.410335,44.7913341 504.135,44.642 C503.859665,44.4926659 503.540002,44.418 503.176,44.418 C502.923999,44.418 502.686001,44.4763327 502.462,44.593 C502.237999,44.7096673 502.046667,44.8683323 501.888,45.069 C501.729333,45.2696677 501.603334,45.5076653 501.51,45.783 C501.416666,46.0583347 501.37,46.3546651 501.37,46.672 C501.37,46.9986683 501.407333,47.2996653 501.482,47.575 C501.556667,47.8503347 501.673333,48.0883323 501.832,48.289 C501.990667,48.4896677 502.191332,48.6459994 502.434,48.758 C502.676668,48.8700006 502.970665,48.926 503.316,48.926 Z M502.826,53.168 C502.405998,53.168 502.042002,53.0886675 501.734,52.93 C501.425998,52.7713325 501.160001,52.5613346 500.936,52.3 L501.314,51.88 C501.510001,52.1226679 501.738665,52.3069994 502,52.433 C502.261335,52.5590006 502.541332,52.622 502.84,52.622 C503.194668,52.622 503.532998,52.5450008 503.855,52.391 C504.177002,52.2369992 504.459332,51.9873351 504.702,51.642 C504.944668,51.2966649 505.138333,50.8416695 505.283,50.277 C505.427667,49.7123305 505.5,49.0240041 505.5,48.212 C505.191998,48.5853352 504.842002,48.8839989 504.45,49.108 C504.057998,49.3320011 503.652002,49.444 503.232,49.444 C502.447996,49.444 501.839002,49.2083357 501.405,48.737 C500.970998,48.2656643 500.754,47.5773379 500.754,46.672 C500.754,46.2706647 500.819333,45.8973351 500.95,45.552 C501.080667,45.2066649 501.257999,44.9126679 501.482,44.67 C501.706001,44.4273321 501.964999,44.2360007 502.259,44.096 C502.553001,43.9559993 502.867998,43.886 503.204,43.886 C504.100004,43.886 504.809331,44.247663 505.332,44.971 C505.854669,45.694337 506.116,46.7373265 506.116,48.1 C506.116,49.0426714 506.025001,49.8359968 505.843,50.48 C505.660999,51.1240032 505.420668,51.6443314 505.122,52.041 C504.823332,52.4376686 504.473335,52.7246658 504.072,52.902 C503.670665,53.0793342 503.255335,53.168 502.826,53.168 Z" id="#F9F9F9" fill="#000000"></path>
                        <path d="M24.746,18 L24.746,6.138 L28.148,6.138 C28.7360029,6.138 29.2699976,6.19499943 29.75,6.309 C30.2300024,6.42300057 30.6379983,6.60599874 30.974,6.858 C31.3100017,7.11000126 31.5709991,7.43399802 31.757,7.83 C31.9430009,8.22600198 32.036,8.70599718 32.036,9.27 C32.036,10.2180047 31.7630027,10.9619973 31.217,11.502 C30.6709973,12.0420027 29.9300047,12.3719994 28.994,12.492 L32.27,18 L31.316,18 L28.094,12.546 L25.574,12.546 L25.574,18 L24.746,18 Z M25.574,11.862 L27.932,11.862 C28.9880053,11.862 29.7949972,11.6490021 30.353,11.223 C30.9110028,10.7969979 31.19,10.1460044 31.19,9.27 C31.19,8.38199556 30.9080028,7.75500183 30.344,7.389 C29.7799972,7.02299817 28.9760052,6.84 27.932,6.84 L25.574,6.84 L25.574,11.862 Z M36.338,18.216 C35.9899983,18.216 35.6660015,18.1680005 35.366,18.072 C35.0659985,17.9759995 34.8020011,17.832001 34.574,17.64 C34.3459989,17.447999 34.1660007,17.2020015 34.034,16.902 C33.9019993,16.6019985 33.836,16.248002 33.836,15.84 C33.836,14.8799952 34.2829955,14.1510025 35.177,13.653 C36.0710045,13.1549975 37.4839903,12.7980011 39.416,12.582 C39.416,12.2579984 39.3920002,11.9310016 39.344,11.601 C39.2959998,11.2709983 39.1940008,10.9770013 39.038,10.719 C38.8819992,10.4609987 38.6720013,10.2510008 38.408,10.089 C38.1439987,9.92699919 37.7960022,9.846 37.364,9.846 C36.7879971,9.846 36.2600024,9.95999886 35.78,10.188 C35.2999976,10.4160011 34.9100015,10.6379989 34.61,10.854 L34.25,10.26 C34.4060008,10.1519995 34.5949989,10.0320007 34.817,9.9 C35.0390011,9.76799934 35.2879986,9.64800054 35.564,9.54 C35.8400014,9.43199946 36.1399984,9.33900039 36.464,9.261 C36.7880016,9.18299961 37.1239983,9.144 37.472,9.144 C37.9760025,9.144 38.4019983,9.23099913 38.75,9.405 C39.0980017,9.57900087 39.3799989,9.8159985 39.596,10.116 C39.8120011,10.4160015 39.9679995,10.766998 40.064,11.169 C40.1600005,11.571002 40.208,12.0059977 40.208,12.474 L40.208,18 L39.524,18 L39.452,16.884 L39.398,16.884 C38.9539978,17.2320017 38.4770026,17.5409986 37.967,17.811 C37.4569975,18.0810014 36.9140029,18.216 36.338,18.216 Z M36.482,17.532 C36.9860025,17.532 37.4659977,17.4120012 37.922,17.172 C38.3780023,16.9319988 38.8759973,16.5840023 39.416,16.128 L39.416,13.194 C38.5279956,13.3020005 37.7780031,13.4339992 37.166,13.59 C36.5539969,13.7460008 36.0620019,13.9319989 35.69,14.148 C35.3179981,14.3640011 35.0510008,14.6099986 34.889,14.886 C34.7269992,15.1620014 34.646,15.4679983 34.646,15.804 C34.646,16.1160016 34.6939995,16.3799989 34.79,16.596 C34.8860005,16.8120011 35.0179992,16.9889993 35.186,17.127 C35.3540008,17.2650007 35.5489989,17.3669997 35.771,17.433 C35.9930011,17.4990003 36.2299987,17.532 36.482,17.532 Z M43.286,18 L43.286,9.36 L43.97,9.36 L44.042,10.962 L44.096,10.962 C44.3840014,10.4219973 44.7349979,9.98400168 45.149,9.648 C45.5630021,9.31199832 46.0279974,9.144 46.544,9.144 C46.7120008,9.144 46.8619993,9.15599988 46.994,9.18 C47.1260007,9.20400012 47.2639993,9.25199964 47.408,9.324 L47.228,10.044 C47.0839993,9.9839997 46.9580005,9.94500009 46.85,9.927 C46.7419995,9.90899991 46.6040008,9.9 46.436,9.9 C46.0519981,9.9 45.6470021,10.0649983 45.221,10.395 C44.7949979,10.7250016 44.4140017,11.2979959 44.078,12.114 L44.078,18 L43.286,18 Z M52.088,18.216 C51.5359972,18.216 51.0170024,18.114001 50.531,17.91 C50.0449976,17.705999 49.6220018,17.409002 49.262,17.019 C48.9019982,16.628998 48.617001,16.1550028 48.407,15.597 C48.196999,15.0389972 48.092,14.4060035 48.092,13.698 C48.092,12.9899965 48.196999,12.3540028 48.407,11.79 C48.617001,11.2259972 48.8989982,10.7490019 49.253,10.359 C49.6070018,9.96899805 50.0089978,9.66900105 50.459,9.459 C50.9090023,9.24899895 51.3739976,9.144 51.854,9.144 C52.8860052,9.144 53.6959971,9.49199652 54.284,10.188 C54.8720029,10.8840035 55.166,11.8679936 55.166,13.14 L55.166,13.464 C55.166,13.5720005 55.1540001,13.6799995 55.13,13.788 L48.902,13.788 C48.9140001,14.3280027 48.9979992,14.8289977 49.154,15.291 C49.3100008,15.7530023 49.5289986,16.1489983 49.811,16.479 C50.0930014,16.8090016 50.431998,17.0669991 50.828,17.253 C51.224002,17.4390009 51.6679975,17.532 52.16,17.532 C52.6280023,17.532 53.0509981,17.4630007 53.429,17.325 C53.8070019,17.1869993 54.1579984,16.9980012 54.482,16.758 L54.806,17.37 C54.4579983,17.574001 54.0770021,17.7659991 53.663,17.946 C53.2489979,18.1260009 52.7240032,18.216 52.088,18.216 Z M48.902,13.14 L54.41,13.14 C54.41,12.0239944 54.1820023,11.1930027 53.726,10.647 C53.2699977,10.1009973 52.6520039,9.828 51.872,9.828 C51.4999981,9.828 51.1460017,9.90299925 50.81,10.053 C50.4739983,10.2030007 50.1710014,10.4219986 49.901,10.71 C49.6309987,10.9980014 49.4090009,11.345998 49.235,11.754 C49.0609991,12.162002 48.9500002,12.6239974 48.902,13.14 Z" id="Rare" fill="#000000"></path>
                        <path d="M426.302,17 L426.666,14.004 L425.504,14.004 L425.504,13.5 L426.722,13.5 L427.016,11.12 L425.784,11.12 L425.784,10.616 L427.072,10.616 L427.422,7.9 L427.912,7.9 L427.562,10.616 L429.648,10.616 L430.012,7.9 L430.488,7.9 L430.138,10.616 L431.286,10.616 L431.286,11.12 L430.096,11.12 L429.802,13.5 L431.006,13.5 L431.006,14.004 L429.732,14.004 L429.382,17 L428.892,17 L429.242,14.004 L427.156,14.004 L426.792,17 L426.302,17 Z M427.212,13.5 L429.312,13.5 L429.606,11.12 L427.506,11.12 L427.212,13.5 Z M433.064,17 L433.064,7.774 L438.09,7.774 L438.09,8.334 L433.708,8.334 L433.708,12.002 L437.418,12.002 L437.418,12.562 L433.708,12.562 L433.708,17 L433.064,17 Z M439.742,17 L439.742,7.774 L444.768,7.774 L444.768,8.334 L440.386,8.334 L440.386,12.002 L444.096,12.002 L444.096,12.562 L440.386,12.562 L440.386,17 L439.742,17 Z M446.42,17 L446.42,7.774 L451.446,7.774 L451.446,8.334 L447.064,8.334 L447.064,12.002 L450.774,12.002 L450.774,12.562 L447.064,12.562 L447.064,17 L446.42,17 Z M453.098,17 L453.098,7.774 L458.124,7.774 L458.124,8.334 L453.742,8.334 L453.742,12.002 L457.452,12.002 L457.452,12.562 L453.742,12.562 L453.742,17 L453.098,17 Z M459.776,17 L459.776,7.774 L464.802,7.774 L464.802,8.334 L460.42,8.334 L460.42,12.002 L464.13,12.002 L464.13,12.562 L460.42,12.562 L460.42,17 L459.776,17 Z M466.454,17 L466.454,7.774 L471.48,7.774 L471.48,8.334 L467.098,8.334 L467.098,12.002 L470.808,12.002 L470.808,12.562 L467.098,12.562 L467.098,17 L466.454,17 Z" id="#FFFFFF" fill="#000000"></path>
                        <path d="M2.882,332.12 L2.322,331.714 L3.12,330.398 L1.762,329.838 L1.972,329.194 L3.4,329.544 L3.526,328.032 L4.212,328.032 L4.338,329.53 L5.78,329.194 L5.99,329.838 L4.632,330.398 L5.416,331.714 L4.87,332.12 L3.876,330.916 L2.882,332.12 Z M8.062,338 L8.062,328.816 L10.792,328.816 C11.258669,328.816 11.6856647,328.858 12.073,328.942 C12.4603353,329.026 12.7916653,329.156666 13.067,329.334 C13.3423347,329.511334 13.5569992,329.742332 13.711,330.027 C13.8650008,330.311668 13.942,330.654665 13.942,331.056 C13.942,331.513336 13.8276678,331.926331 13.599,332.295 C13.3703322,332.663669 13.0366689,332.917999 12.598,333.058 L12.598,333.114 C13.1580028,333.216667 13.6106649,333.449998 13.956,333.814 C14.3013351,334.178002 14.474,334.67733 14.474,335.312 C14.474,335.760002 14.3900008,336.151998 14.222,336.488 C14.0539992,336.824002 13.8160015,337.103999 13.508,337.328 C13.1999985,337.552001 12.8313355,337.719999 12.402,337.832 C11.9726645,337.944001 11.5013359,338 10.988,338 L8.062,338 Z M9.224,332.722 L10.582,332.722 C11.3660039,332.722 11.9306649,332.586668 12.276,332.316 C12.6213351,332.045332 12.794,331.676669 12.794,331.21 C12.794,330.677997 12.6143351,330.300001 12.255,330.076 C11.8956649,329.851999 11.3566703,329.74 10.638,329.74 L9.224,329.74 L9.224,332.722 Z M9.224,337.076 L10.82,337.076 C11.6133373,337.076 12.2293311,336.929001 12.668,336.635 C13.1066689,336.340999 13.326,335.886003 13.326,335.27 C13.326,334.700664 13.1113355,334.283001 12.682,334.017 C12.2526645,333.750999 11.6320041,333.618 10.82,333.618 L9.224,333.618 L9.224,337.076 Z M17.75,338.168 C17.1806638,338.168 16.7070019,338.000002 16.329,337.664 C15.9509981,337.327998 15.762,336.852003 15.762,336.236 C15.762,335.48933 16.09333,334.917669 16.756,334.521 C17.41867,334.124331 18.4779927,333.846667 19.934,333.688 C19.934,333.473332 19.9130002,333.263334 19.871,333.058 C19.8289998,332.852666 19.7566672,332.670667 19.654,332.512 C19.5513328,332.353333 19.4090009,332.225 19.227,332.127 C19.0449991,332.029 18.8140014,331.98 18.534,331.98 C18.141998,331.98 17.7733351,332.054666 17.428,332.204 C17.0826649,332.353334 16.774668,332.521332 16.504,332.708 L16.056,331.91 C16.3733349,331.704666 16.7606644,331.506334 17.218,331.315 C17.6753356,331.123666 18.1793306,331.028 18.73,331.028 C19.5606708,331.028 20.1626648,331.282331 20.536,331.791 C20.9093352,332.299669 21.096,332.978662 21.096,333.828 L21.096,338 L20.144,338 L20.046,337.188 L20.004,337.188 C19.6773317,337.458668 19.3273352,337.689666 18.954,337.881 C18.5806648,338.072334 18.1793355,338.168 17.75,338.168 Z M18.086,337.244 C18.4126683,337.244 18.7206652,337.167001 19.01,337.013 C19.2993348,336.858999 19.6073317,336.632668 19.934,336.334 L19.934,334.444 C19.3646638,334.518667 18.8863353,334.607333 18.499,334.71 C18.1116647,334.812667 17.7990012,334.933999 17.561,335.074 C17.3229988,335.214001 17.1503339,335.374999 17.043,335.557 C16.9356661,335.739001 16.882,335.937332 16.882,336.152 C16.882,336.544002 16.9986655,336.823999 17.232,336.992 C17.4653345,337.160001 17.7499983,337.244 18.086,337.244 Z M25.016,338.168 C24.5306642,338.168 24.0686689,338.079334 23.63,337.902 C23.1913311,337.724666 22.8086683,337.500668 22.482,337.23 L23.056,336.46 C23.3546682,336.702668 23.6603318,336.898666 23.973,337.048 C24.2856682,337.197334 24.6473313,337.272 25.058,337.272 C25.5060022,337.272 25.8419989,337.169334 26.066,336.964 C26.2900011,336.758666 26.402,336.506668 26.402,336.208 C26.402,336.030666 26.3553338,335.876667 26.262,335.746 C26.1686662,335.615333 26.0496674,335.501 25.905,335.403 C25.7603326,335.305 25.5946676,335.218667 25.408,335.144 L24.848,334.92 C24.6053321,334.836 24.3626679,334.740334 24.12,334.633 C23.8773321,334.525666 23.6603343,334.395001 23.469,334.241 C23.2776657,334.086999 23.1213339,333.907334 23,333.702 C22.8786661,333.496666 22.818,333.249335 22.818,332.96 C22.818,332.689332 22.8716661,332.435001 22.979,332.197 C23.0863339,331.958999 23.2403323,331.753668 23.441,331.581 C23.6416677,331.408332 23.8866652,331.273 24.176,331.175 C24.4653348,331.077 24.7919982,331.028 25.156,331.028 C25.5853355,331.028 25.9796649,331.102666 26.339,331.252 C26.6983351,331.401334 27.0086654,331.583332 27.27,331.798 L26.724,332.526 C26.4906655,332.348666 26.2480013,332.204001 25.996,332.092 C25.7439987,331.979999 25.4686682,331.924 25.17,331.924 C24.7406645,331.924 24.4256677,332.021999 24.225,332.218 C24.0243323,332.414001 23.924,332.642665 23.924,332.904 C23.924,333.062667 23.9659996,333.200333 24.05,333.317 C24.1340004,333.433667 24.2459993,333.536333 24.386,333.625 C24.5260007,333.713667 24.6869991,333.793 24.869,333.863 C25.0510009,333.933 25.239999,334.005333 25.436,334.08 C25.6786679,334.173334 25.9236654,334.271333 26.171,334.374 C26.4183346,334.476667 26.639999,334.604999 26.836,334.759 C27.032001,334.913001 27.1929994,335.101999 27.319,335.326 C27.4450006,335.550001 27.508,335.820665 27.508,336.138 C27.508,336.418001 27.4543339,336.679332 27.347,336.922 C27.2396661,337.164668 27.0810011,337.379332 26.871,337.566 C26.6609989,337.752668 26.3996682,337.899666 26.087,338.007 C25.7743318,338.114334 25.4173353,338.168 25.016,338.168 Z M31.862,338.168 C31.4046644,338.168 30.9776687,338.086334 30.581,337.923 C30.1843314,337.759666 29.8390015,337.526335 29.545,337.223 C29.2509985,336.919665 29.0200008,336.548669 28.852,336.11 C28.6839992,335.671331 28.6,335.172003 28.6,334.612 C28.6,334.051997 28.6863325,333.550336 28.859,333.107 C29.0316675,332.663664 29.2603319,332.288002 29.545,331.98 C29.8296681,331.671998 30.1539982,331.436334 30.518,331.273 C30.8820018,331.109666 31.259998,331.028 31.652,331.028 C32.0813355,331.028 32.4663316,331.102666 32.807,331.252 C33.1476684,331.401334 33.4323322,331.615999 33.661,331.896 C33.8896678,332.176001 34.0646661,332.511998 34.186,332.904 C34.3073339,333.296002 34.368,333.734664 34.368,334.22 C34.368,334.341334 34.3656667,334.460333 34.361,334.577 C34.3563333,334.693667 34.3446668,334.794 34.326,334.878 L29.734,334.878 C29.7806669,335.606004 30.006998,336.182331 30.413,336.607 C30.819002,337.031669 31.3486634,337.244 32.002,337.244 C32.3286683,337.244 32.6296653,337.195 32.905,337.097 C33.1803347,336.999 33.4439987,336.870667 33.696,336.712 L34.102,337.468 C33.8033318,337.654668 33.4720018,337.817999 33.108,337.958 C32.7439982,338.098001 32.328669,338.168 31.862,338.168 Z M29.72,334.052 L33.36,334.052 C33.36,333.36133 33.2130015,332.836335 32.919,332.477 C32.6249985,332.117665 32.2120027,331.938 31.68,331.938 C31.4373321,331.938 31.2063344,331.984666 30.987,332.078 C30.7676656,332.171334 30.5693342,332.308999 30.392,332.491 C30.2146658,332.673001 30.0676673,332.894665 29.951,333.156 C29.8343328,333.417335 29.7573335,333.715998 29.72,334.052 Z M38.96,338 L38.96,328.816 L40.122,328.816 L40.122,337.006 L44.14,337.006 L44.14,338 L38.96,338 Z M45.61,338 L45.61,337.048 L47.654,337.048 L47.654,330.468 L46.03,330.468 L46.03,329.726 C46.4406687,329.651333 46.7976652,329.560334 47.101,329.453 C47.4043349,329.345666 47.6773321,329.217334 47.92,329.068 L48.802,329.068 L48.802,337.048 L50.65,337.048 L50.65,338 L45.61,338 Z M58.098,338.168 C57.6499978,338.168 57.230002,338.088667 56.838,337.93 C56.445998,337.771333 56.1076681,337.540335 55.823,337.237 C55.5383319,336.933665 55.3143342,336.560336 55.151,336.117 C54.9876658,335.673664 54.906,335.172003 54.906,334.612 C54.906,334.042664 54.9946658,333.536336 55.172,333.093 C55.3493342,332.649664 55.5873318,332.274002 55.886,331.966 C56.1846682,331.657998 56.5323314,331.424667 56.929,331.266 C57.3256687,331.107333 57.7433311,331.028 58.182,331.028 C58.6300022,331.028 59.0126651,331.107333 59.33,331.266 C59.6473349,331.424667 59.9273321,331.611332 60.17,331.826 L59.582,332.582 C59.385999,332.404666 59.1783344,332.260001 58.959,332.148 C58.7396656,332.035999 58.494668,331.98 58.224,331.98 C57.9159985,331.98 57.6313346,332.042999 57.37,332.169 C57.1086654,332.295001 56.8846676,332.474666 56.698,332.708 C56.5113324,332.941334 56.3643339,333.218998 56.257,333.541 C56.1496661,333.863002 56.096,334.219998 56.096,334.612 C56.096,335.004002 56.1473328,335.358665 56.25,335.676 C56.3526672,335.993335 56.4949991,336.266332 56.677,336.495 C56.8590009,336.723668 57.0806654,336.900999 57.342,337.027 C57.6033346,337.153001 57.8879985,337.216 58.196,337.216 C58.5133349,337.216 58.8049987,337.148334 59.071,337.013 C59.3370013,336.877666 59.5773323,336.716668 59.792,336.53 L60.296,337.3 C59.9879985,337.570668 59.6473352,337.782999 59.274,337.937 C58.9006648,338.091001 58.5086687,338.168 58.098,338.168 Z M63.222,338.168 C62.6526638,338.168 62.1790019,338.000002 61.801,337.664 C61.4229981,337.327998 61.234,336.852003 61.234,336.236 C61.234,335.48933 61.56533,334.917669 62.228,334.521 C62.89067,334.124331 63.9499927,333.846667 65.406,333.688 C65.406,333.473332 65.3850002,333.263334 65.343,333.058 C65.3009998,332.852666 65.2286672,332.670667 65.126,332.512 C65.0233328,332.353333 64.8810009,332.225 64.699,332.127 C64.5169991,332.029 64.2860014,331.98 64.006,331.98 C63.613998,331.98 63.2453351,332.054666 62.9,332.204 C62.5546649,332.353334 62.246668,332.521332 61.976,332.708 L61.528,331.91 C61.8453349,331.704666 62.2326644,331.506334 62.69,331.315 C63.1473356,331.123666 63.6513306,331.028 64.202,331.028 C65.0326708,331.028 65.6346648,331.282331 66.008,331.791 C66.3813352,332.299669 66.568,332.978662 66.568,333.828 L66.568,338 L65.616,338 L65.518,337.188 L65.476,337.188 C65.1493317,337.458668 64.7993352,337.689666 64.426,337.881 C64.0526648,338.072334 63.6513355,338.168 63.222,338.168 Z M63.558,337.244 C63.8846683,337.244 64.1926652,337.167001 64.482,337.013 C64.7713348,336.858999 65.0793317,336.632668 65.406,336.334 L65.406,334.444 C64.8366638,334.518667 64.3583353,334.607333 63.971,334.71 C63.5836647,334.812667 63.2710012,334.933999 63.033,335.074 C62.7949988,335.214001 62.6223339,335.374999 62.515,335.557 C62.4076661,335.739001 62.354,335.937332 62.354,336.152 C62.354,336.544002 62.4706655,336.823999 62.704,336.992 C62.9373345,337.160001 63.2219983,337.244 63.558,337.244 Z M68.71,338 L68.71,331.196 L69.662,331.196 L69.76,332.428 L69.802,332.428 C70.0353345,331.998665 70.317665,331.658001 70.649,331.406 C70.980335,331.153999 71.341998,331.028 71.734,331.028 C72.004668,331.028 72.2473323,331.074666 72.462,331.168 L72.238,332.176 C72.1259994,332.138666 72.0233338,332.110667 71.93,332.092 C71.8366662,332.073333 71.7200007,332.064 71.58,332.064 C71.2906652,332.064 70.9896682,332.180665 70.677,332.414 C70.3643318,332.647334 70.0913345,333.05333 69.858,333.632 L69.858,338 L68.71,338 Z M75.752,338.168 C74.893329,338.168 74.2096692,337.860003 73.701,337.244 C73.1923308,336.627997 72.938,335.750672 72.938,334.612 C72.938,334.061331 73.0196658,333.564336 73.183,333.121 C73.3463341,332.677664 73.563332,332.302002 73.834,331.994 C74.104668,331.685998 74.4173316,331.448001 74.772,331.28 C75.1266684,331.111999 75.499998,331.028 75.892,331.028 C76.284002,331.028 76.6246652,331.097999 76.914,331.238 C77.2033348,331.378001 77.4973318,331.569332 77.796,331.812 L77.74,330.65 L77.74,328.032 L78.902,328.032 L78.902,338 L77.95,338 L77.852,337.202 L77.81,337.202 C77.539332,337.463335 77.2290017,337.689666 76.879,337.881 C76.5289983,338.072334 76.1533353,338.168 75.752,338.168 Z M76.004,337.202 C76.3213349,337.202 76.6199986,337.125001 76.9,336.971 C77.1800014,336.816999 77.4599986,336.581335 77.74,336.264 L77.74,332.708 C77.4506652,332.446665 77.1730013,332.262334 76.907,332.155 C76.6409987,332.047666 76.3680014,331.994 76.088,331.994 C75.817332,331.994 75.5630012,332.056999 75.325,332.183 C75.0869988,332.309001 74.8793342,332.486332 74.702,332.715 C74.5246658,332.943668 74.3846672,333.216665 74.282,333.534 C74.1793328,333.851335 74.128,334.205998 74.128,334.598 C74.128,335.419337 74.2913317,336.058664 74.618,336.516 C74.9446683,336.973336 75.4066637,337.202 76.004,337.202 Z" id="*Base-L1-card" fill="#777777"></path>
                    </g>
                </g>
            </g>
        </g>
    </g>
</svg>